<svg width="88" height="89" viewBox="0 0 88 89" fill="none" xmlns="http://www.w3.org/2000/svg">
<path d="M24.6833 87.6701C25.1261 87.8749 25.5866 88.0128 25.7071 87.9767C26.1537 87.8433 26.4225 87.6565 26.4546 87.4565C26.4729 87.3432 26.7142 87.1188 26.9906 86.9582C27.322 86.765 27.5636 86.4908 27.6987 86.1529C27.8422 85.7944 28.0431 85.5752 28.3674 85.4232C28.6223 85.3034 28.8722 85.115 28.9225 85.004C28.9727 84.8934 29.153 84.7505 29.3229 84.6866C29.4929 84.6227 29.7662 84.3707 29.9299 84.1271C30.0935 83.8836 30.2549 83.6681 30.2881 83.6487C30.5301 83.5057 30.7142 83.2148 30.6578 83.0647C30.6206 82.9658 30.6597 82.8492 30.7444 82.8049C30.8289 82.7612 30.9811 82.6809 31.0822 82.6263C31.1833 82.5717 31.4182 82.4599 31.6045 82.3783C31.7908 82.2967 31.9983 82.1072 32.0661 81.9578C32.1965 81.6711 33.0747 80.8736 33.1221 80.9996C33.1372 81.0399 33.2578 80.9255 33.3895 80.7452C33.5213 80.5652 33.7037 80.3888 33.7946 80.3546C33.8856 80.3199 34.0789 80.1588 34.224 79.9969C34.3689 79.8346 34.6699 79.5887 34.8924 79.4502C35.115 79.3117 35.3574 79.0828 35.4316 78.942C35.5053 78.801 35.7819 78.532 36.0461 78.3438C36.3103 78.1555 36.5657 77.8876 36.6135 77.7489C36.6616 77.6097 36.8665 77.434 37.0683 77.3581C37.2705 77.2821 37.7133 76.917 38.0522 76.5463C38.3912 76.1761 38.7266 75.8514 38.7981 75.8245C38.8695 75.7976 38.9679 75.6598 39.0168 75.5179C39.0659 75.3764 39.214 75.2544 39.3455 75.2478C39.4771 75.2411 39.7232 75.0219 39.8925 74.7615C40.0618 74.5011 40.409 74.166 40.6642 74.0175C41.0225 73.8091 41.0929 73.707 40.9732 73.5724C40.8748 73.4615 40.8817 73.41 40.9925 73.4315C41.0885 73.4502 41.1817 73.3931 41.1995 73.3044C41.2167 73.2154 41.3496 73.0982 41.4941 73.0439C41.6386 72.9895 41.8819 72.7593 42.0348 72.5323C42.1876 72.3053 42.4101 72.1203 42.5293 72.1211C42.6485 72.1219 42.962 71.8773 43.2256 71.5787C43.4895 71.2795 43.7768 71.0079 43.8639 70.9751C43.9511 70.9423 44.0621 70.8011 44.1101 70.6619C44.1585 70.5221 44.3332 70.3569 44.4983 70.2948C44.6634 70.2327 44.8165 70.0885 44.8385 69.9743C44.8605 69.86 45.0288 69.6373 45.2122 69.4794C45.3956 69.3215 45.646 69.1053 45.7679 68.9991C46.0675 68.7386 46.1838 68.6497 46.4098 68.508C46.5153 68.4421 46.6638 68.2513 46.7396 68.0841C46.8154 67.9169 46.9343 67.7588 47.0034 67.7329C47.0724 67.7069 47.4858 67.3202 47.9224 66.8736C48.3584 66.4268 48.7328 66.0648 48.7546 66.0691C48.8636 66.0917 50.1078 64.5522 50.1095 64.3935C50.1104 64.2918 50.2213 64.1677 50.3553 64.1173C50.4897 64.0667 50.5895 63.9794 50.5776 63.9231C50.4122 63.1634 50.2602 62.8855 49.9476 62.7695C49.7511 62.6968 49.6041 62.5448 49.6046 62.4161C49.6056 62.2766 49.5336 62.2175 49.4165 62.2615C49.3665 62.2803 49.3112 62.2786 49.2624 62.2568C49.2137 62.235 49.1755 62.1949 49.1562 62.1451C49.0454 61.8505 48.2269 62.0629 47.6494 62.5366C47.3709 62.7653 47.0181 62.9652 46.866 62.981C46.7099 62.9972 46.5483 63.1262 46.4967 63.2756C46.4461 63.4217 46.448 63.5247 46.5005 63.505C46.5529 63.4852 46.5563 63.5849 46.5074 63.7267C46.4582 63.8692 46.3034 63.9905 46.1619 63.9976C46.0209 64.005 45.8909 64.0857 45.873 64.1767C45.8552 64.2677 45.7351 64.382 45.6059 64.4306C45.4767 64.4792 45.3315 64.6333 45.2834 64.7725C45.2351 64.9123 45.0079 65.0973 44.7791 65.1833C44.0952 65.4405 43.6721 65.8723 43.7172 66.2682C43.7455 66.5123 43.6875 66.624 43.5334 66.6234C43.41 66.6224 43.1527 66.8426 42.9622 67.1128C42.7721 67.3828 42.5642 67.5932 42.5006 67.5808C42.4369 67.5683 42.3839 67.6528 42.3832 67.7686C42.3821 67.9188 42.207 68.0316 41.7746 68.162C41.2917 68.3076 41.1594 68.4043 41.1292 68.6341C41.1084 68.793 41.046 68.9298 40.9908 68.9386C40.8394 68.9624 40.4706 69.3268 40.3172 69.6038C40.2224 69.759 40.0927 69.8898 39.9383 69.9858C39.8051 70.0603 39.5194 70.3493 39.3038 70.6276C38.8212 71.2495 37.9171 72.0087 37.4053 72.221C36.975 72.3998 36.4372 73.2107 36.6437 73.3703C36.7182 73.4275 36.6768 73.5136 36.5508 73.5632C35.1136 74.1239 34.9518 74.2179 34.9789 74.48C35.0101 74.7798 35.0284 74.7623 34.383 75.0542C34.0546 75.2026 33.8909 75.2144 33.8452 75.0929C33.809 74.9969 33.9448 74.6961 34.1466 74.4253C34.3488 74.1544 34.571 73.7884 34.6406 73.6121C34.7838 73.2504 34.9019 73.0351 35.517 72.0146C35.7551 71.6196 35.9883 71.2877 36.0354 71.276C36.0832 71.2645 36.1389 71.1026 36.1595 70.916C36.1801 70.7295 36.3463 70.4081 36.5276 70.2017C36.9964 69.6693 37.4191 68.9372 37.3563 68.7664C37.3271 68.6862 37.4638 68.5205 37.661 68.398C37.8576 68.2752 37.9901 68.0982 37.9551 68.005C37.8799 67.8051 38.5976 66.2853 38.8888 66.027C39.0126 65.9174 39.0312 65.7832 38.938 65.6786C38.8549 65.585 38.85 65.5205 38.9275 65.5356C39.0047 65.5508 39.0688 65.4641 39.0692 65.3427C39.0702 65.2216 39.1845 65.0796 39.3238 65.0272C39.4631 64.9749 39.6351 64.7475 39.7068 64.5215C39.7785 64.2955 39.9632 63.9842 40.1174 63.8295C40.2716 63.6747 40.3916 63.4389 40.3845 63.3047C40.3778 63.1704 40.4872 62.9297 40.6277 62.7691C40.7686 62.6083 40.8646 62.4262 40.8411 62.3636C40.8175 62.301 40.9169 61.9785 41.0617 61.6467C41.2577 61.1975 41.3758 61.0669 41.5257 61.1345C41.7745 61.2473 42.0014 60.9049 41.9775 60.4528C41.9626 60.1681 42.1505 59.5786 42.2077 59.7308C42.2577 59.8636 42.8535 58.4647 42.8555 58.2101C42.8565 58.0683 42.9834 57.8409 43.1374 57.7051C43.4563 57.4235 44.2609 55.7894 44.1828 55.5815C44.1544 55.506 44.2615 55.4307 44.4205 55.4138C44.5797 55.3972 44.6793 55.3372 44.6416 55.28C44.499 55.065 44.6108 54.6198 44.8627 54.3975C45.0066 54.2706 45.0905 54.0783 45.0498 53.9701C45.0062 53.8542 45.0909 53.7302 45.256 53.6682C45.5696 53.5502 45.8797 53.0429 45.7877 52.7983C45.7226 52.6251 46.1162 51.5778 46.2676 51.5209C46.3184 51.5018 46.4932 51.2375 46.6552 50.9333C46.8179 50.6293 47.0066 50.3593 47.0752 50.3335C47.1438 50.3077 47.1734 50.2137 47.1402 50.1253C47.0541 49.8927 48.1408 47.5776 48.3778 47.4885C48.429 47.4692 48.465 47.3345 48.4576 47.1899C48.45 47.0448 48.6008 46.773 48.7925 46.5857C49.056 46.3281 49.1165 46.146 49.0393 45.8414C48.9061 45.3133 48.989 45.1047 49.5545 44.5502C49.8129 44.2964 49.9919 44.0029 49.9521 43.8972C49.9123 43.7914 50.0076 43.5155 50.1634 43.2842C50.3192 43.0528 50.415 42.7781 50.376 42.6744C50.337 42.5706 50.3793 42.4197 50.4701 42.3391C50.561 42.2584 50.5867 42.1552 50.5275 42.1092C50.4684 42.0637 50.6247 41.7737 50.8753 41.4647C51.1259 41.1558 51.2992 40.8202 51.2608 40.7181C51.2224 40.6159 51.264 40.4681 51.3527 40.3891C51.4414 40.3101 51.5074 40.1218 51.4998 39.9703C51.4914 39.8108 51.6035 39.6493 51.7665 39.588C52.0674 39.474 52.2039 38.814 51.9798 38.561C51.8998 38.4708 51.9871 38.3353 52.2177 38.1914C52.4458 38.0495 52.5527 37.8853 52.5033 37.7537C52.4561 37.6282 52.5058 37.5436 52.6269 37.5446C52.7433 37.5455 52.851 37.3871 52.8793 37.1732C52.9065 36.9686 53.0155 36.7327 53.1209 36.6493C53.2268 36.5657 53.3463 36.2549 53.3864 35.9584C53.4263 35.6614 53.5333 35.3908 53.6237 35.3568C53.7141 35.3228 53.7583 35.2173 53.7223 35.1216C53.6456 34.9178 54.3659 33.4527 54.5103 33.5182C54.5648 33.5429 54.5743 33.4702 54.5316 33.3568C54.489 33.2433 54.5515 33.0738 54.6704 32.9807C54.7891 32.8872 54.8738 32.6688 54.8586 32.4948C54.8431 32.3214 54.9917 31.92 55.1882 31.6033C55.3847 31.2866 55.5986 30.7565 55.6632 30.4258C55.7282 30.095 55.8368 29.6635 55.9041 29.4663C55.972 29.2694 56.0089 29.0588 55.9863 28.9986C55.9637 28.9385 56.0323 28.8565 56.1385 28.8165C56.3884 28.7226 56.6604 28.1204 56.6621 27.6567C56.6631 27.4573 56.7563 27.2592 56.8694 27.2167C57.1463 27.1125 57.2712 26.8052 57.3291 26.0832C57.3918 25.3063 57.5884 24.8269 57.8434 24.8287C57.9589 24.8295 58.0923 24.6305 58.1552 24.3627C58.2156 24.1055 58.3602 23.859 58.4768 23.8151C58.712 23.7262 58.7494 23.4214 58.5805 22.9722C58.5193 22.8095 58.5308 22.5679 58.6064 22.4358C58.6817 22.3038 58.6886 22.1335 58.6213 22.0575C58.5502 21.9773 58.6277 21.8307 58.8058 21.7075C59.1765 21.4511 59.4323 20.8251 59.2501 20.6199C59.1774 20.5381 59.1917 20.406 59.2811 20.3263C59.371 20.2469 59.4044 20.1505 59.3557 20.113C59.3069 20.0751 59.2937 19.9382 59.3267 19.8079C59.372 19.6282 59.417 19.6044 59.5126 19.708C59.5819 19.7833 59.6951 19.8232 59.7645 19.7971C59.8339 19.771 59.8321 19.7049 59.7612 19.65C59.69 19.5953 59.7053 19.4854 59.7948 19.4061C59.8842 19.3264 59.9396 19.1075 59.9182 18.9193C59.8953 18.7187 59.9736 18.5409 60.106 18.4911C60.4055 18.3785 60.7773 17.3739 60.6597 16.9961C60.6083 16.8325 60.6147 16.6804 60.6728 16.6585C60.8765 16.5814 60.9887 16.1508 60.9233 15.6963C60.875 15.3606 60.9442 15.166 61.1827 14.9671C61.4233 14.7665 61.4771 14.6131 61.3882 14.3766C61.2507 14.0109 61.3651 13.6854 61.7338 13.3952C61.8749 13.2841 61.9436 13.1348 61.8857 13.0639C61.8281 12.993 61.8618 12.737 61.9605 12.4958C62.127 12.0895 62.1197 12.0517 61.8597 11.979C61.613 11.91 61.627 11.8822 61.9749 11.7514C62.4048 11.5897 62.5204 11.38 62.4854 10.8237C62.4732 10.626 62.5422 10.3475 62.6393 10.2051C62.7362 10.0631 62.7938 9.88941 62.7674 9.81918C62.741 9.74894 62.809 9.47875 62.9181 9.21886C63.0275 8.95841 63.1374 8.46881 63.1626 8.13036C63.1879 7.79191 63.3317 7.39137 63.4822 7.24032C63.6327 7.08927 63.7266 6.88809 63.6911 6.79364C63.6556 6.69918 63.6858 6.4708 63.7585 6.28681C63.8311 6.10241 63.8684 5.83638 63.841 5.69508C63.7947 5.45309 63.8301 5.28867 64.0524 4.71811C64.104 4.58583 64.0897 4.32857 64.0211 4.14611C63.9525 3.96366 63.9643 3.6653 64.0469 3.48312C64.1295 3.30093 64.1367 2.86926 64.0626 2.52393C63.9888 2.17805 63.97 1.8414 64.0214 1.77463C64.0728 1.70786 64.0286 1.42499 63.9236 1.14566C63.7861 0.779942 63.6784 0.657784 63.5387 0.710301C63.4281 0.751889 63.3017 0.666752 63.2432 0.511344C63.1776 0.336962 63.0879 0.286867 62.9928 0.37099C62.9112 0.443138 62.756 0.484917 62.648 0.463766C62.2152 0.378651 61.7049 0.881522 61.6313 1.46391C61.5915 1.78067 61.4839 2.02017 61.3883 2.00496C61.2943 1.9901 61.2724 2.00663 61.3404 2.04184C61.4085 2.07707 61.469 2.363 61.4752 2.6772C61.4842 3.1092 61.5252 3.23525 61.6439 3.19432C61.7302 3.16415 61.7248 3.26016 61.6323 3.40737C61.4913 3.63039 61.5066 3.71265 61.7224 3.90194C61.8647 4.02674 61.9134 4.11578 61.8303 4.09955C61.7473 4.08333 61.5899 4.25033 61.4802 4.4708C61.3706 4.69167 61.2593 4.86349 61.2332 4.85301C61.2071 4.84254 61.1146 4.86488 61.0275 4.90271C60.9404 4.94055 61.0196 4.97479 61.2036 4.97887C61.5882 4.98721 61.7366 5.21522 61.4326 5.32951C61.3196 5.37201 61.1232 5.57858 60.996 5.78811C60.8248 6.07041 60.8197 6.1488 60.9759 6.09006C61.2722 5.97865 61.3238 6.21499 61.05 6.43035C60.8508 6.58679 60.8116 6.78766 60.9607 6.87904C61.0516 6.93468 60.7605 7.42611 60.4654 7.71584C60.1652 8.01067 60.1395 8.31844 60.4241 8.21144C60.5097 8.17926 60.4162 8.48209 60.2168 8.88419C60.017 9.28644 59.9038 9.63861 59.9653 9.66616C60.0268 9.69372 60.0208 9.85907 59.9518 10.0334C59.8832 10.2075 59.8751 10.3317 59.9336 10.3097C59.9926 10.2876 59.9591 10.4656 59.8587 10.706C59.7587 10.9459 59.5961 11.1729 59.4972 11.2101C59.3761 11.2556 59.3758 11.3516 59.4965 11.5047C59.6218 11.664 59.6165 11.754 59.4797 11.8055C59.3719 11.846 59.2648 11.9692 59.2411 12.079C59.2175 12.1888 59.0825 12.3225 58.9404 12.3759C58.7535 12.4462 58.7132 12.5632 58.7937 12.7992C58.9664 13.3051 58.9509 13.7933 58.7621 13.7961C58.5086 13.7993 58.2168 14.1726 58.2983 14.3894C58.3374 14.4935 58.3132 14.5994 58.2442 14.6253C58.1751 14.6513 58.1779 14.7382 58.2497 14.819C58.3216 14.8998 58.2622 15.27 58.1181 15.6416C57.974 16.0133 57.8219 16.41 57.7808 16.5236C57.7391 16.637 57.739 16.8194 57.7802 16.9288C57.8213 17.0382 57.7826 17.156 57.6945 17.19C57.5856 17.2324 57.6126 17.2734 57.7791 17.3167C57.9635 17.3649 57.9904 17.4119 57.8874 17.5068C57.8121 17.5761 57.7826 17.7171 57.8213 17.8201C57.8767 17.9674 57.8254 17.9987 57.5819 17.9663C57.4113 17.9438 57.2884 17.9712 57.3077 18.0275C57.3279 18.0835 57.2549 18.0635 57.146 17.9832C57.0023 17.8769 56.9651 17.8831 57.0096 18.0064C57.0433 18.0997 57.0149 18.1652 56.9467 18.1517C56.8781 18.1383 56.8816 18.2799 56.9546 18.4667C57.0503 18.7126 57.0071 18.8906 56.7973 19.1119C56.6376 19.2802 56.5291 19.4758 56.556 19.5472C56.5827 19.6183 56.5331 19.6627 56.4455 19.6454C56.3579 19.6281 56.3313 19.734 56.3863 19.8801C56.4427 20.0302 56.4022 20.1773 56.2928 20.2184C56.1051 20.289 56.1173 20.5249 56.3319 20.9768C56.3957 21.1108 56.3457 21.2292 56.204 21.2824C55.8694 21.4083 55.5793 21.8864 55.8105 21.9317C55.9114 21.9513 56.0407 22.0953 56.0979 22.2512C56.1763 22.4645 56.1572 22.5007 56.0213 22.3979C55.8787 22.2907 55.7776 22.3992 55.5471 22.9075C55.3859 23.263 55.169 23.5855 55.0649 23.6246C54.9608 23.6638 54.9065 23.7782 54.9443 23.8787C54.9821 23.9792 54.9502 24.1147 54.8733 24.18C54.7968 24.2447 54.7973 24.3293 54.8749 24.3678C54.9525 24.4064 55.1503 24.2707 55.3142 24.0672C55.5509 23.7727 55.6261 23.7338 55.6797 23.8763C55.7167 23.9748 55.7199 24.1155 55.6866 24.1888C55.6534 24.2802 55.652 24.3801 55.6826 24.4723C55.7148 24.5579 55.5036 24.7313 55.1954 24.8735C54.7829 25.0631 54.6853 25.1625 54.7922 25.2826C54.8871 25.3893 54.8455 25.4745 54.6634 25.543C54.4382 25.6277 54.408 25.6026 54.4816 25.3902C54.5442 25.2086 54.5271 25.1524 54.4218 25.192C54.3402 25.2226 54.2731 25.4068 54.2723 25.602C54.2714 25.7968 54.2229 26.0182 54.164 26.0943C54.1052 26.1708 54.1109 26.2741 54.1765 26.325C54.2422 26.3759 54.2192 26.4458 54.1255 26.481C54.0319 26.5162 53.9262 26.6886 53.8911 26.8636C53.8557 27.039 53.7403 27.2147 53.6345 27.2545C53.5287 27.2942 53.4608 27.3769 53.4837 27.4379C53.5066 27.4988 53.4206 27.8767 53.2921 28.2775C53.1197 28.8164 53.1104 29.0355 53.2572 29.1195C53.3663 29.1817 53.4912 29.1867 53.5343 29.1309C53.5773 29.0751 53.6265 29.1631 53.6436 29.3262C53.6687 29.5669 53.5997 29.6357 53.2807 29.6879C52.9786 29.7375 52.8772 29.8244 52.8457 30.0616C52.8088 30.3395 52.7771 30.3583 52.5326 30.2471C52.3828 30.1795 52.212 30.1861 52.1532 30.2625C52.0853 30.3503 52.1834 30.447 52.4198 30.5254L52.7931 30.6495L52.5897 30.9148C52.4779 31.061 52.413 31.2499 52.445 31.3351C52.5362 31.5777 52.3205 31.7661 52.0574 31.6752C51.7349 31.5638 51.5855 31.7914 51.7298 32.1753C51.7949 32.3485 51.7921 32.5112 51.7235 32.537C51.6549 32.5628 51.6646 32.6587 51.7453 32.7495C51.8429 32.8596 51.8125 32.9462 51.6541 33.0091C51.274 33.1599 51.0656 33.5934 51.2655 33.8187C51.3799 33.9475 51.3809 34.0043 51.2676 33.9824C51.1722 33.9639 51.0343 34.1374 50.9611 34.3681C50.888 34.5987 50.7057 34.8332 50.5563 34.8893C50.3678 34.9602 50.3149 35.0732 50.3841 35.2572C50.4391 35.4034 50.4194 35.5103 50.3407 35.4947C50.2617 35.4793 50.2023 35.673 50.2082 35.9251C50.2176 36.3104 50.2654 36.397 50.5097 36.471C50.7598 36.5466 50.7801 36.5859 50.6578 36.7545C50.4935 36.9793 50.1194 36.9021 50.0139 36.6215C49.9772 36.5238 49.8599 36.4767 49.7534 36.5168C49.6472 36.5567 49.5832 36.6512 49.6115 36.7263C49.6397 36.8014 49.6063 36.8522 49.5375 36.8384C49.4688 36.8247 49.4528 36.9574 49.503 37.1325C49.5848 37.4201 49.6205 37.4278 49.8685 37.2088C50.359 36.776 50.2567 37.1826 49.7503 37.6799C49.3646 38.0585 49.3025 38.1947 49.4423 38.3546C49.595 38.5289 49.5814 38.5432 49.3416 38.4629C49.0355 38.3606 48.5753 38.6451 48.6426 38.8953C48.6847 39.0288 48.7376 39.1587 48.8007 39.2837C48.8639 39.4101 48.8496 39.5008 48.7686 39.4851C48.6876 39.4695 48.52 39.721 48.3961 40.0445C48.2721 40.368 48.1122 40.6078 48.04 40.5778C47.9679 40.5478 47.9998 40.6546 48.1101 40.8155C48.2203 40.9763 48.2545 41.0537 48.186 40.9869C48.1172 40.9201 47.9595 40.937 47.8358 41.0246C47.5515 41.2255 47.4516 42.0112 47.6962 42.1225C47.8789 42.2053 47.5037 42.5934 47.2762 42.5568C47.211 42.5463 47.0877 42.7466 47.0027 43.002C46.8714 43.3978 46.8839 43.4788 47.0894 43.5499C47.3982 43.6568 47.3994 44.0277 47.0914 44.1435C46.961 44.1925 46.8403 44.3052 46.8231 44.3941C46.8057 44.4827 46.7255 44.5428 46.6444 44.5267C46.5638 44.511 46.4179 44.5958 46.3205 44.7153C46.2224 44.8356 46.2163 44.9075 46.3062 44.876C46.551 44.7904 46.5993 45.0648 46.3555 45.1565C46.0205 45.2824 45.4746 46.0719 45.6142 46.2286C45.6837 46.307 45.679 46.4793 45.6033 46.6114C45.4108 46.9487 45.498 47.085 45.7792 46.8867C46.0069 46.7255 46.0095 46.736 45.8484 47.1541C45.6971 47.5469 45.658 47.574 45.4465 47.4356C45.3176 47.3514 45.2229 47.2281 45.2364 47.1612C45.25 47.0944 45.1632 47.0768 45.0454 47.1211C44.9069 47.1732 44.883 47.2614 44.9772 47.3674C45.0667 47.4683 45.0504 47.561 44.935 47.6045C44.8309 47.6436 44.767 47.7335 44.7938 47.805C44.8206 47.876 44.7552 47.9669 44.6487 48.007C44.5425 48.0469 44.4786 48.1207 44.5069 48.1704C44.7022 48.5144 44.7077 48.8611 44.5204 49.0089C44.3952 49.1072 44.3273 49.364 44.362 49.6057C44.4152 49.9741 44.3766 50.0356 44.0723 50.0703C43.8085 50.1004 43.7617 50.1424 43.8842 50.2392C44.0146 50.3422 43.9962 50.3509 43.7904 50.2827C43.5856 50.2146 43.4977 50.2528 43.3546 50.4715C43.2561 50.6223 43.1934 50.7938 43.2151 50.8529C43.2813 51.0289 42.6488 52.4393 42.474 52.505C42.3853 52.5388 42.3349 52.6241 42.3615 52.6948C42.3881 52.7654 42.4678 52.8022 42.5392 52.7754C42.6103 52.7486 42.6915 52.7881 42.7199 52.8636C42.7481 52.9387 42.6991 52.9861 42.6106 52.9688C42.5224 52.9512 42.3917 53.0667 42.3199 53.225C42.2481 53.3833 42.098 53.5121 41.9867 53.5116C41.68 53.5094 41.4492 53.7717 41.6042 53.9461C41.7097 54.065 41.7892 54.0461 41.949 53.8634C42.1123 53.6777 42.1586 53.6685 42.1643 53.8221C42.1684 53.9298 42.026 54.0792 41.8478 54.154C41.4007 54.3424 41.1194 54.9739 41.2523 55.4929C41.3627 55.9236 41.2667 56.1915 40.9598 56.3115C40.8715 56.3461 40.7544 56.2749 40.6993 56.1542C40.6043 55.9443 40.6007 55.9457 40.6255 56.182C40.6399 56.3184 40.6062 56.4468 40.5508 56.4676C40.4168 56.5179 39.9193 57.5597 39.9679 57.6888C39.9888 57.7446 39.8837 57.9992 39.734 58.2541C39.6043 58.4737 39.478 58.6952 39.355 58.9186C39.2961 59.0292 39.1411 59.2419 39.0101 59.3911C38.8792 59.5403 38.8311 59.7284 38.9023 59.809C38.9806 59.897 38.9052 60.0751 38.7135 60.255C38.3733 60.5732 38.3532 60.7563 38.6567 60.7633C38.832 60.7675 38.4847 60.987 38.228 61.0347C38.1633 61.0465 38.0108 61.1347 37.8889 61.2308C37.7104 61.3712 37.7109 61.43 37.8915 61.533C38.1765 61.6954 38.1079 61.8437 37.6628 62.03C37.3546 62.1588 37.3327 62.2204 37.4876 62.5211C37.6485 62.8324 37.6317 62.8687 37.3128 62.9052C36.9011 62.9522 36.7506 63.4317 37.0706 63.674C37.1743 63.7525 37.2809 63.8741 37.3076 63.9452C37.3343 64.0162 37.2719 64.0107 37.1694 63.9331C37.0149 63.8161 36.9585 63.8341 36.8427 64.037C36.7247 64.2441 36.6898 64.248 36.62 64.0623C36.5745 63.9412 36.4737 63.8938 36.3965 63.9569C36.3194 64.0201 36.3251 64.2436 36.4102 64.454C36.5447 64.7872 36.5235 64.8436 36.2433 64.8923C36.0624 64.9234 35.9455 65.0107 35.976 65.0918C36.0057 65.1709 35.9474 65.267 35.8461 65.3051C35.6015 65.3971 35.3751 65.9112 35.5269 66.0283C35.5931 66.0794 35.6929 66.0617 35.7494 65.9889C35.8182 65.8999 35.84 65.9506 35.8176 66.1447C35.7993 66.3032 35.8302 66.4869 35.8867 66.5527C35.9429 66.6187 35.8653 66.7971 35.7141 66.9489C35.3749 67.2893 35.1675 67.3761 35.2098 67.1602C35.2589 66.9095 34.9378 67.1634 34.8493 67.445C34.8067 67.5818 34.811 67.7243 34.8602 67.7621C34.9874 67.8603 34.8172 68.0436 34.4258 68.229C34.233 68.3204 34.0508 68.5478 34.0044 68.7551C33.9592 68.956 33.8195 69.1591 33.694 69.2064C33.5684 69.2536 33.4232 69.4823 33.3708 69.7144C33.2922 70.0642 33.3142 70.1471 33.498 70.196C33.668 70.2412 33.6615 70.2584 33.471 70.2674C33.1088 70.2857 32.9034 70.7969 33.1924 70.9614C33.3807 71.0689 33.3537 71.0878 33.0151 71.0866C32.7563 71.0858 32.6608 71.1198 32.7439 71.184C32.8142 71.2386 32.8104 71.3055 32.7349 71.3339C32.5625 71.3987 32.2595 72.0522 32.3768 72.1057C32.425 72.1272 32.3452 72.2383 32.1993 72.3517C32.0537 72.4654 31.9191 72.605 31.8999 72.6619C31.8808 72.7189 31.7731 72.8736 31.6605 73.0053C31.3861 73.3269 31.4727 73.7325 31.837 73.8337C31.9996 73.879 32.0757 73.9379 32.005 73.9645C31.9348 73.9909 31.7904 73.9733 31.6843 73.9252C31.5455 73.8622 31.4817 73.8862 31.4575 74.0105C31.4388 74.1055 31.4948 74.1564 31.5816 74.1237C31.6684 74.0911 31.7163 74.1155 31.6878 74.1782C31.6593 74.241 31.5203 74.2523 31.3782 74.2029C31.0945 74.1051 31.1023 74.3035 31.3871 74.4323C31.5056 74.486 31.432 74.6261 31.1664 74.8525C30.9054 75.0751 30.8146 75.2451 30.9037 75.3448C31.065 75.5265 30.7293 76.0637 30.3705 76.1986C30.1259 76.2906 30.1229 76.2839 30.2883 76.0314C30.4525 75.7807 30.4453 75.7701 30.1416 75.8018C29.7248 75.8452 29.7833 75.6025 30.267 75.2801C30.4969 75.1269 30.5606 75.0329 30.4252 75.0478C30.1431 75.0779 29.9937 74.4259 30.2597 74.3259C30.3578 74.289 30.4169 74.2009 30.39 74.1295C30.3633 74.0584 30.4339 73.9655 30.5473 73.9229C30.6603 73.8804 30.7395 73.7184 30.7232 73.5624C30.707 73.4067 30.7307 73.2651 30.7764 73.2479C30.822 73.2308 30.8673 72.9986 30.8776 72.7317C30.8878 72.4647 30.9951 72.0102 31.1158 71.722C31.5811 70.6094 31.8489 69.784 31.7931 69.6355C31.7116 69.4187 31.9268 68.9876 32.1601 68.8999C32.3692 68.8212 32.4611 68.5559 32.3944 68.223C32.3723 68.1101 32.3847 67.7474 32.4229 67.4175C32.461 67.0876 32.4499 66.7849 32.3982 66.7454C32.3465 66.7058 32.5216 66.4635 32.7865 66.2073C33.1633 65.8431 33.2902 65.5765 33.3667 64.9884C33.4206 64.5742 33.555 64.0311 33.6659 63.7807C33.7768 63.5303 33.9647 62.8662 34.0843 62.3043C34.2034 61.7426 34.3815 61.0854 34.4802 60.8442C34.5789 60.603 34.619 60.3875 34.5694 60.3647C34.5198 60.3419 34.5889 60.1113 34.7225 59.8515C34.8696 59.5653 34.9282 59.171 34.8702 58.85C34.8076 58.5022 34.8744 58.1247 35.0654 57.7469C35.2271 57.4281 35.3088 57.0477 35.2498 56.8906C35.1845 56.7171 35.2358 56.5361 35.3822 56.4207C35.786 56.1025 35.9255 55.6207 35.7345 55.2022C35.6366 54.9884 35.6006 54.797 35.6538 54.7769C35.7071 54.7569 35.7745 54.5735 35.8038 54.3695C35.8326 54.1656 35.9885 53.5605 36.1497 53.0249C36.3109 52.4893 36.4254 51.9915 36.4044 51.9183C36.302 51.5638 36.3212 50.9926 36.4371 50.9491C36.5085 50.9222 36.4846 50.7653 36.384 50.6009C36.2835 50.4364 36.2555 50.2811 36.3213 50.2564C36.486 50.1944 36.6917 49.7185 36.603 49.6063C36.5166 49.4964 36.5127 48.7031 36.5947 47.8946C36.6274 47.5708 36.6239 47.2247 36.5863 47.1246C36.5488 47.0249 36.5666 46.9252 36.6255 46.903C36.6844 46.8809 36.6945 46.5804 36.6479 46.2348C36.5815 45.7456 36.5029 45.566 36.29 45.4203C36.14 45.3178 36.0077 45.1841 35.9959 45.1232C35.9353 44.8114 35.7949 44.6979 35.6045 44.8077C35.4878 44.8747 35.2895 44.9087 35.163 44.8834C35.0145 44.8536 34.9355 44.8971 34.9398 45.0065C34.9444 45.1255 34.8606 45.1648 34.658 45.1383C34.4626 45.1122 34.3591 45.1544 34.3368 45.2701C34.2982 45.4653 34.4768 45.5764 34.6968 45.4937C34.8631 45.4311 34.9106 45.5427 34.9275 46.0326C34.9337 46.2169 34.8328 46.3995 34.6956 46.4511C34.4053 46.5602 34.2979 46.3725 34.5319 46.1652C34.6226 46.0841 34.6649 45.9457 34.6251 45.857C34.5683 45.7304 34.5519 45.7357 34.5481 45.8813C34.546 45.9835 34.4262 46.111 34.2825 46.165C34.0952 46.2354 34.0661 46.3136 34.18 46.4413C34.3096 46.5874 34.2625 46.636 33.918 46.7112C33.5619 46.7884 33.5209 46.8352 33.649 47.0165C33.7321 47.1345 33.7389 47.3033 33.6639 47.3919C33.5887 47.481 33.5676 47.7289 33.6171 47.9439C33.6666 48.1589 33.6489 48.4314 33.5775 48.5504C33.5061 48.6694 33.4216 48.9334 33.3893 49.1367C33.3403 49.4463 33.3658 49.5141 33.5453 49.5517C33.7072 49.5852 33.701 49.6189 33.5187 49.6893C33.3268 49.7633 33.3222 49.8074 33.4963 49.9065C33.6639 50.0019 33.6824 50.0632 33.5763 50.1694C33.5003 50.2454 33.544 50.2368 33.6733 50.1504C33.9663 49.9545 34.3603 50.022 34.3138 50.2598C34.2885 50.3886 34.1927 50.4255 33.964 50.3954C33.2511 50.3009 32.8823 51.039 33.3277 51.6686C33.4311 51.8149 33.4213 51.8905 33.2988 51.8895C33.0979 51.8881 33.0391 52.3198 33.2208 52.4602C33.282 52.5077 33.4196 52.4767 33.5268 52.3917C33.6788 52.2714 33.693 52.2799 33.5913 52.431C33.5199 52.5376 33.5252 52.6742 33.6037 52.7346C33.8393 52.9164 33.5806 52.928 33.1628 52.7543C32.763 52.5881 32.506 52.7267 32.6253 53.044C32.662 53.1416 32.5931 53.2989 32.4726 53.3939C32.3497 53.4908 32.2794 53.7476 32.3126 53.9793C32.3454 54.2061 32.3142 54.4137 32.2436 54.4402C32.173 54.4668 32.1941 54.6468 32.2911 54.8398C32.4925 55.2418 32.3678 56.013 32.0844 56.1195C31.9799 56.1588 31.9255 56.2751 31.9639 56.3773C32.0023 56.4794 31.959 56.6781 31.8676 56.8184C31.7762 56.9588 31.7344 57.1565 31.775 57.2583C31.8155 57.36 31.696 57.786 31.5096 58.2053C31.3037 58.6675 31.2151 59.0873 31.2843 59.2714C31.3485 59.4422 31.3003 59.7293 31.1739 59.9275C31.0505 60.1214 30.9403 60.5696 30.9292 60.9235C30.9181 61.2774 30.8642 61.5838 30.8101 61.6041C30.756 61.6244 30.785 61.7236 30.8747 61.8249C30.9844 61.9477 30.9768 61.9968 30.8517 61.9722C30.733 61.9492 30.7017 62.0314 30.7656 62.2013C30.8205 62.3475 30.7851 62.4972 30.687 62.534C30.4578 62.6203 30.5095 63.156 30.7518 63.2049C30.8532 63.2258 31.0313 63.1874 31.148 63.1204C31.2648 63.0535 31.3827 63.0585 31.4102 63.1315C31.4377 63.2046 31.3605 63.264 31.2389 63.2628C31.1092 63.2622 31.0438 63.3347 31.0814 63.4371C31.1255 63.5579 31.0983 63.5787 30.9958 63.5034C30.9138 63.4435 30.642 63.424 30.3927 63.4607C30.0308 63.5138 29.9547 63.5687 30.0157 63.731C30.0579 63.8432 30.031 63.9579 29.9555 63.9863C29.8804 64.0145 29.8775 64.0829 29.949 64.138C30.0204 64.1932 29.928 64.5541 29.7437 64.9399C29.5593 65.3258 29.4316 65.7041 29.4603 65.7804C29.489 65.8567 29.4675 65.9367 29.4122 65.9575C29.3565 65.9784 29.3109 66.1942 29.3105 66.4371C29.3103 66.75 29.224 66.9115 29.0161 66.9896C28.7376 67.0944 28.7378 67.1049 29.0264 67.1848C29.3152 67.2656 29.3163 67.2794 29.0499 67.4667C28.7834 67.6535 28.6368 68.2905 28.7755 68.6595C28.811 68.7539 28.6837 69.175 28.4924 69.5962C28.3015 70.0172 28.1383 70.5734 28.1295 70.8329C28.1206 71.0924 28.0377 71.3327 27.9449 71.3676C27.8516 71.4027 27.7822 71.561 27.7908 71.72C27.7989 71.8787 27.7158 72.0426 27.6056 72.084C27.4619 72.138 27.4573 72.2434 27.5889 72.4584C27.722 72.6765 27.7158 72.7802 27.5651 72.8401C27.3306 72.9333 27.0582 73.3214 27.0765 73.5343C27.1111 73.924 27.0697 74.0271 26.8775 74.0256C26.7626 74.0251 26.6924 74.0883 26.7217 74.1662C26.7511 74.2446 26.5964 74.7142 26.3777 75.2097C26.1591 75.7052 25.9953 76.1519 26.0143 76.2024C26.1057 76.4454 26.5936 76.6268 26.7597 76.4791C26.9618 76.2999 27.0311 76.3886 26.9592 76.734C26.9203 76.9232 26.8652 76.9472 26.647 76.8716C26.35 76.7691 25.7084 77.1338 25.911 77.2903C25.9799 77.3436 25.9449 77.4637 25.8331 77.5573C25.5849 77.7658 25.3653 78.3741 25.452 78.6156C25.4951 78.7363 25.6133 78.7333 25.8197 78.6073C26.0119 78.4899 26.1261 78.481 26.1303 78.584C26.1336 78.6736 25.9677 78.812 25.7615 78.8923C25.5553 78.9725 25.2002 79.2019 24.9717 79.403C24.6036 79.7266 24.5753 79.8179 24.7222 80.2086C24.8655 80.5897 24.9203 80.6262 25.1275 80.4801C25.2795 80.3723 25.3691 80.3727 25.3726 80.4815C25.3759 80.5747 25.205 80.7168 24.9934 80.7964C24.593 80.9469 24.3713 81.2823 24.3699 81.7394C24.3693 81.8862 24.2964 81.9924 24.2079 81.975C23.9762 81.9299 24.0081 82.5527 24.2631 83.0434C24.452 83.4073 24.4468 83.4498 24.2218 83.3722C23.9274 83.2705 23.9281 83.2698 24.074 83.7388C24.1334 83.9298 24.1396 84.2085 24.0877 84.3584C24.0358 84.5083 24.0662 84.7337 24.1554 84.8595C24.2447 84.9854 24.2619 85.1858 24.1941 85.3043C24.1189 85.4363 24.1458 85.628 24.2639 85.7987C24.4073 86.006 24.4034 86.0974 24.2492 86.1553C24.1353 86.1981 24.0745 86.3205 24.1144 86.4267C24.1545 86.5333 24.1176 86.7734 24.0323 86.9607C23.8801 87.2935 23.8895 87.3037 24.6833 87.6701ZM48.3466 62.4095C48.5159 62.3587 48.7034 62.355 48.7632 62.4012C48.9566 62.5505 48.8247 62.6112 48.4269 62.5557L48.0389 62.5017L48.3466 62.4095ZM35.0757 74.2828C35.3351 74.2802 35.6381 74.4123 35.6171 74.5193C35.5762 74.7268 35.2172 74.6909 35.1344 74.4709C35.0954 74.3671 35.0692 74.2825 35.0757 74.2828ZM61.1991 7.78272C61.2745 7.841 61.3187 7.92667 61.2978 7.97277C61.2766 8.01943 61.1911 7.98064 61.1079 7.88704C60.9353 7.69256 60.9945 7.62466 61.1991 7.78272ZM59.661 11.9336C59.7113 11.9141 59.7672 11.9152 59.8167 11.9367C59.8661 11.9583 59.905 11.9985 59.9249 12.0486C59.9823 12.2012 59.9474 12.2198 59.7418 12.1483C59.6019 12.1 59.483 12.0484 59.4774 12.0335C59.472 12.019 59.5544 11.9737 59.661 11.9336ZM56.7623 20.1229C56.7742 20.106 56.7895 20.0916 56.8071 20.0806C56.8248 20.0697 56.8444 20.0625 56.8649 20.0594C56.8854 20.0563 56.9064 20.0573 56.9265 20.0625C56.9465 20.0677 56.9654 20.077 56.9818 20.0896C56.9982 20.1023 57.0119 20.1182 57.022 20.1363C57.0321 20.1544 57.0385 20.1744 57.0406 20.195C57.0428 20.2157 57.0408 20.2365 57.0347 20.2563C57.0286 20.2762 57.0185 20.2946 57.0051 20.3104C56.9796 20.3405 56.9434 20.3597 56.9041 20.3638C56.8648 20.368 56.8254 20.3568 56.7942 20.3327C56.7629 20.3085 56.7421 20.2733 56.7362 20.2342C56.7303 20.1951 56.7396 20.1553 56.7623 20.1229ZM56.2311 21.4192C56.3021 21.3925 56.3835 21.4324 56.4117 21.5075C56.4399 21.5826 56.3919 21.6301 56.3039 21.613C56.2163 21.5957 56.1351 21.5562 56.1233 21.5247C56.1115 21.4932 56.16 21.446 56.2311 21.4192ZM56.3443 22.1125C56.3698 22.1028 56.3977 22.101 56.4242 22.1072C56.4508 22.1134 56.475 22.1274 56.4936 22.1473C56.5123 22.1672 56.5246 22.1923 56.529 22.2192C56.5335 22.2461 56.5298 22.2738 56.5185 22.2986C56.5073 22.3235 56.4889 22.3444 56.4657 22.3588C56.4425 22.3732 56.4156 22.3805 56.3883 22.3796C56.361 22.3787 56.3346 22.3697 56.3124 22.3538C56.2903 22.3379 56.2733 22.3157 56.2637 22.2902C56.2508 22.2559 56.2521 22.218 56.2672 22.1846C56.2823 22.1513 56.31 22.1253 56.3443 22.1125ZM55.7628 23.5189C55.7811 23.4254 55.8906 23.3137 56.0065 23.2701C56.1829 23.2038 56.1877 23.2361 56.0357 23.4679C55.8396 23.7674 55.7091 23.7915 55.7628 23.5189ZM54.2915 26.86C54.3581 26.8349 54.4707 26.8585 54.541 26.9132C54.6117 26.9677 54.579 27.0463 54.468 27.088C54.357 27.1298 54.2453 27.1059 54.2184 27.0344C54.1917 26.9634 54.2249 26.885 54.2915 26.86ZM54.0575 27.3894C54.1285 27.3626 54.2207 27.4312 54.2624 27.5422C54.304 27.6528 54.2664 27.7292 54.1789 27.7123C54.0913 27.695 53.9992 27.6264 53.9742 27.5598C53.9488 27.4924 53.9865 27.4161 54.0575 27.3894ZM44.4674 50.6972C44.5252 50.7418 44.392 50.8177 44.1713 50.8656C43.9507 50.9136 43.7616 50.9303 43.7513 50.9028C43.7139 50.8045 44.3643 50.618 44.4674 50.6972ZM43.7572 51.1379C43.7883 51.1262 43.8719 51.1611 43.9427 51.2156C44.013 51.2703 44.0094 51.338 43.9343 51.3662C43.8592 51.3944 43.7756 51.3595 43.7489 51.2885C43.7222 51.2174 43.7258 51.1497 43.7572 51.1379ZM43.3782 51.8697C43.4448 51.8447 43.433 51.7496 43.3523 51.6587C43.2591 51.5542 43.2811 51.4644 43.4122 51.4151C43.6472 51.3267 43.7647 51.5106 43.6049 51.7167C43.5466 51.7921 43.5609 51.9231 43.6362 52.0081C43.7119 52.093 43.7234 52.1813 43.662 52.2044C43.6007 52.2274 43.4847 52.1715 43.4039 52.0803C43.3232 51.9894 43.3116 51.8948 43.3782 51.8697ZM40.6149 56.9858C40.7638 56.6529 40.9994 56.5122 41.074 56.7108C41.1007 56.7819 41.0693 56.86 41.0043 56.8845C40.9389 56.9091 40.7947 57.0094 40.6832 57.1075C40.4932 57.2748 40.4889 57.2672 40.6149 56.9858ZM40.5984 57.6158C40.664 57.6667 40.6726 57.7667 40.617 57.8382C40.5616 57.9102 40.4822 57.8779 40.4408 57.7677C40.3556 57.5412 40.4201 57.4787 40.5984 57.6158ZM39.9154 58.3186C40.0994 58.0753 40.2402 58.0186 40.2956 58.1659C40.3494 58.3088 40.0134 58.6199 39.8735 58.5564C39.817 58.5311 39.8361 58.424 39.9154 58.3186ZM39.5416 59.2618C39.8749 58.8701 39.9697 58.8455 39.9749 59.1486C39.983 59.6012 39.9533 59.6386 39.6212 59.5949C39.2945 59.5518 39.2945 59.5518 39.5416 59.2618ZM39.0433 59.5357C39.1144 59.509 39.1944 59.5453 39.2211 59.6163C39.2478 59.6874 39.2115 59.7673 39.1405 59.7941C39.0694 59.8208 38.9894 59.7845 38.9627 59.7135C38.936 59.6424 38.9723 59.5624 39.0433 59.5357ZM39.2844 59.9809C39.3751 59.8998 39.4682 59.8828 39.4908 59.9429C39.5135 60.003 39.472 60.1573 39.3989 60.2852C39.2906 60.4752 39.2523 60.4823 39.1923 60.3228C39.1521 60.2159 39.1932 60.0617 39.2844 59.9809ZM34.8144 68.4294C34.9217 68.3337 34.9916 68.3406 34.9955 68.4465C35.0039 68.6636 34.7503 68.8801 34.6866 68.7106C34.661 68.6414 34.7184 68.5148 34.8144 68.4294ZM34.1377 69.0363C34.2399 68.9979 34.381 69.0107 34.4519 69.0656C34.5226 69.1201 34.4609 69.2096 34.3148 69.2646C34.1687 69.3195 34.0273 69.3063 34.0006 69.2353C33.9735 69.1644 34.0356 69.0747 34.1377 69.0363ZM33.6659 69.5104C33.9281 69.415 34.3384 69.5123 34.2741 69.6549C34.2451 69.7188 34.0533 69.7282 33.8484 69.6758C33.6076 69.6139 33.5432 69.5552 33.6659 69.5104ZM34.1509 75.5115C34.3608 75.5588 34.374 75.5902 34.25 75.7567C34.0795 75.9857 33.8798 75.9668 33.784 75.7121C33.7031 75.4956 33.8127 75.4355 34.1509 75.5115ZM35.2019 46.4044C35.233 46.3928 35.3166 46.4277 35.3873 46.4822C35.4576 46.5368 35.454 46.6045 35.3789 46.6327C35.3039 46.661 35.2204 46.6265 35.1935 46.555C35.1668 46.484 35.1704 46.4163 35.2019 46.4044ZM34.3604 47.8989C34.4045 48.004 34.4167 48.198 34.3881 48.3304C34.3596 48.4627 34.3172 48.5118 34.2941 48.4394C34.2159 48.1896 34.2764 47.6974 34.3604 47.8989ZM28.5168 71.1498C28.5878 71.1231 28.7036 71.1455 28.774 71.2005C28.8447 71.255 28.8444 71.3215 28.7734 71.3482C28.7023 71.3749 28.5864 71.3522 28.5157 71.2977C28.4454 71.243 28.4457 71.1765 28.5168 71.1498ZM29.4737 76.5229C29.5153 76.4312 29.6515 76.4468 29.8002 76.5604C30.0098 76.7208 30.022 76.7678 29.8682 76.8256C29.7652 76.8643 29.6183 76.8472 29.5417 76.7881C29.465 76.7289 29.4345 76.6095 29.4737 76.5229Z" fill="#010101"/>
<path d="M46.689 44.0969C46.8004 44.0025 46.8333 43.8805 46.7621 43.8257C46.6061 43.7051 46.2063 44.1121 46.2822 44.3139C46.3095 44.3866 46.3666 44.4061 46.409 44.357C46.4974 44.2652 46.5909 44.1784 46.689 44.0969Z" fill="#010101"/>
<path d="M35.3053 66.8304C35.3395 66.8174 35.3672 66.7913 35.3822 66.758C35.3972 66.7246 35.3983 66.6866 35.3853 66.6524C35.3723 66.6182 35.3463 66.5905 35.3129 66.5755C35.2795 66.5605 35.2416 66.5593 35.2073 66.5723C35.1904 66.5788 35.1749 66.5885 35.1617 66.6009C35.1485 66.6133 35.1379 66.6282 35.1304 66.6447C35.123 66.6613 35.1189 66.6791 35.1184 66.6972C35.1178 66.7153 35.1209 66.7334 35.1273 66.7503C35.1337 66.7673 35.1434 66.7828 35.1559 66.796C35.1683 66.8092 35.1832 66.8198 35.1997 66.8272C35.2162 66.8346 35.2341 66.8387 35.2522 66.8393C35.2703 66.8398 35.2883 66.8368 35.3053 66.8304Z" fill="#010101"/>
</svg>
