<svg width="75" height="83" viewBox="0 0 75 83" fill="none" xmlns="http://www.w3.org/2000/svg">
<path d="M37.1177 14.2944C34.2358 13.1417 31.9878 10.8361 30.8927 7.95417L28.8177 0L26.3969 8.93403C25.5323 11.2396 23.7455 13.0264 21.4976 13.9486L12.3906 17.0035L21.3823 19.3667C23.6302 19.8278 25.417 21.4417 26.051 23.6319L28.8177 32.7389L31.5267 23.6319C32.1608 21.4417 34.0052 19.8278 36.1955 19.3667L45.1872 17.0035L37.1177 14.2944Z" fill="#FFFCFA"/>
<path d="M10.8361 67.7833L10.375 62.3076L9.79861 68.9937C9.68333 70.6653 8.35764 71.9333 6.68611 72.1062L0 72.6826L5.64861 73.1437C7.89653 73.3166 9.68333 75.1035 9.85625 77.3514L10.3174 83L10.7208 78.4465C10.9514 75.5646 13.2569 73.3167 16.1389 73.0861L20.75 72.6826L15.2167 72.2215C12.9111 71.991 11.0667 70.0889 10.8361 67.7833Z" fill="#FFFCFA"/>
<path d="M64.4988 47.9558C61.5592 47.4947 59.1384 45.3044 58.4467 42.4225L57.0634 37.0044L55.4495 43.287C54.8731 45.5926 52.971 47.3794 50.5502 47.7252L39.1953 49.6849L51.2995 51.7023C53.2592 52.0481 54.8731 53.4891 55.3342 55.3912L57.0634 62.3655L58.1585 57.9273C59.0231 54.469 61.905 51.8752 65.421 51.2988L74.9314 49.6849L64.4988 47.9558Z" fill="#FFFCFA"/>
</svg>
