<svg width="52" height="45" viewBox="0 0 52 45" fill="none" xmlns="http://www.w3.org/2000/svg">
<path d="M14.2227 44.8053C14.2227 44.8752 14.2592 44.9095 14.3039 44.882C14.3486 44.8545 14.3852 44.7972 14.3852 44.7551C14.3852 44.713 14.3486 44.6783 14.3039 44.6783C14.2596 44.6783 14.2227 44.7353 14.2227 44.8053Z" fill="#010101"/>
<path d="M36.8517 33.2017C36.8045 33.2017 36.7656 33.2382 36.7656 33.2829C36.7656 33.3279 36.7818 33.3642 36.8016 33.3642C36.8213 33.3642 36.8602 33.3276 36.8877 33.2829C36.9152 33.2382 36.8993 33.2017 36.8517 33.2017Z" fill="#010101"/>
<path d="M27.241 39.8759C27.2882 39.8759 27.3271 39.8393 27.3271 39.7946C27.3271 39.75 27.3109 39.7134 27.2912 39.7134C27.2717 39.7134 27.2326 39.75 27.205 39.7946C27.1772 39.8396 27.1934 39.8759 27.241 39.8759Z" fill="#010101"/>
<path d="M51.84 24.4116C51.8037 24.4116 51.7843 24.0467 51.7966 23.6006C51.8128 23.013 51.7892 22.7601 51.7115 22.6824C51.6525 22.6235 51.6124 22.448 51.6228 22.2926C51.6328 22.1376 51.6205 21.9754 51.5956 21.9323C51.5703 21.8893 51.5392 21.7795 51.5263 21.6882C51.4823 21.379 51.4541 21.278 51.377 21.1556C51.3273 21.0671 51.2929 20.9708 51.2751 20.8707C51.2375 20.626 51.0617 20.2605 50.9821 20.2605C50.9432 20.2605 50.9348 20.1695 50.9626 20.0581C51.0002 19.9089 50.9484 19.7658 50.7655 19.5133C50.6289 19.3249 50.5376 19.118 50.5625 19.0532C50.5874 18.9885 50.5489 18.8457 50.4773 18.7363C50.4055 18.6269 50.366 18.5184 50.3893 18.4948C50.4126 18.4711 50.3618 18.3776 50.2766 18.286C50.1912 18.1943 50.1455 18.0794 50.175 18.0302C50.2044 17.981 50.1646 17.9926 50.0866 18.0558C49.9636 18.1558 49.9273 18.1532 49.8104 18.0364C49.6855 17.9114 49.6887 17.89 49.8551 17.7349C50.0866 17.519 50.0811 17.4795 49.7952 17.317C49.6265 17.2208 49.5692 17.1367 49.5981 17.0266C49.6204 16.9411 49.5812 16.8236 49.511 16.7653C49.4407 16.7071 49.3834 16.5866 49.3834 16.4979C49.3834 16.3856 49.3452 16.3509 49.2572 16.3849C49.1875 16.4115 49.1516 16.3998 49.1772 16.3584C49.2028 16.3169 49.1448 16.2282 49.0487 16.1609C48.9422 16.0864 48.8929 15.989 48.9224 15.9116C48.9506 15.8384 48.8997 15.7187 48.8023 15.6277C48.7097 15.5412 48.6547 15.4367 48.6802 15.3949C48.7382 15.3013 48.4264 14.8711 48.0667 14.5486C47.9181 14.4153 47.8064 14.2566 47.8188 14.1964C47.8311 14.1362 47.8039 14.0633 47.7576 14.0349C47.7116 14.0064 47.674 13.9209 47.674 13.8448C47.674 13.7687 47.6035 13.6622 47.517 13.6085C47.4306 13.5547 47.3092 13.4084 47.247 13.2838C47.1849 13.1591 47.0906 13.0659 47.0379 13.0772C46.9848 13.0882 46.9417 13.0607 46.9417 13.016C46.9417 12.9714 46.9786 12.9348 47.0236 12.9348C47.0725 12.9348 47.0647 12.869 47.0045 12.7729C46.9488 12.6839 46.8663 12.6149 46.8206 12.6198C46.6332 12.6398 46.5277 12.6049 46.5694 12.5372C46.594 12.4977 46.5594 12.42 46.4927 12.3643C46.426 12.309 46.3716 12.207 46.3716 12.1377C46.3716 11.9548 46.1314 11.7175 45.9977 11.769C45.9213 11.7987 45.8832 11.7546 45.8834 11.6365C45.8834 11.5397 45.8559 11.4769 45.8222 11.4973C45.7885 11.5177 45.7141 11.4831 45.6561 11.4206C45.5985 11.3581 45.5674 11.307 45.5872 11.307C45.6066 11.307 45.5166 11.193 45.3868 11.0541C45.257 10.9152 45.1508 10.7521 45.1508 10.6919C45.1508 10.6316 45.0196 10.5199 44.8594 10.4439C44.6496 10.3442 44.5787 10.2652 44.6062 10.1603C44.6571 9.9657 44.4466 9.67886 44.2527 9.67886C44.1624 9.67886 44.0445 9.57817 43.9733 9.44058C43.9056 9.30946 43.7765 9.17867 43.6865 9.15018C43.5965 9.12169 43.5226 9.04691 43.5226 8.9841C43.5226 8.91903 43.4731 8.88924 43.4071 8.91449C43.3407 8.94007 43.197 8.85331 43.0707 8.71151C42.8962 8.51532 42.8198 8.48035 42.7032 8.54251C42.5262 8.63704 42.3847 8.47647 42.553 8.37254C42.6421 8.31751 42.6385 8.27866 42.5336 8.1579C42.463 8.07664 42.3831 7.91606 42.3559 7.80048C42.308 7.59879 42.0172 7.40001 41.7696 7.40001C41.7045 7.40001 41.6511 7.37249 41.6511 7.33882C41.6507 7.2349 41.271 6.83022 41.1735 6.83022C41.1227 6.83022 41.0813 6.79364 41.0813 6.74896C41.0813 6.70428 41.0269 6.6677 40.9602 6.6677C40.7659 6.6677 40.1923 6.23291 40.189 6.08301C40.1874 6.0079 40.1175 5.92438 40.034 5.89783C39.9504 5.87128 39.8164 5.7774 39.7364 5.68902C39.6565 5.60063 39.504 5.52811 39.3975 5.52811C39.2881 5.52811 39.1806 5.46628 39.1501 5.38567C39.089 5.22412 38.8882 5.00397 38.7879 4.98875C38.7509 4.98308 38.7148 4.97286 38.6804 4.95832C38.6163 4.92659 38.4878 4.89811 38.3547 4.8871C38.3217 4.88371 38.2911 4.86838 38.2686 4.84399C38.2461 4.81961 38.2333 4.78784 38.2326 4.75469C38.2326 4.68767 38.1834 4.63263 38.1232 4.63263C38.063 4.63263 37.9474 4.55914 37.8665 4.46979C37.7852 4.38011 37.6658 4.30694 37.601 4.30694C37.5272 4.30694 37.5013 4.25903 37.5311 4.18068C37.5589 4.10849 37.5453 4.07547 37.4994 4.10396C37.455 4.13115 37.4187 4.12079 37.4187 4.08032C37.4187 4.03986 37.2663 3.96151 37.0801 3.9055C36.7564 3.80838 36.2688 3.5196 36.2115 3.39107C36.1966 3.3574 36.114 3.32988 36.0283 3.32988C35.9425 3.32988 35.8722 3.29103 35.8722 3.24377C35.8722 3.1965 35.8356 3.18031 35.791 3.20783C35.7459 3.23535 35.7097 3.20751 35.7097 3.14535C35.7097 3.08351 35.4387 2.90739 35.1075 2.75394C34.7763 2.60081 34.5219 2.448 34.5426 2.41433C34.5633 2.38066 34.4837 2.39005 34.3665 2.43472C34.2493 2.4794 34.1188 2.51598 34.077 2.51598C33.9644 2.51598 33.9848 2.29325 34.1026 2.23724C34.1586 2.21069 34.0887 2.20584 33.9472 2.22688C33.7666 2.25375 33.6762 2.22817 33.6426 2.14109C33.6164 2.0731 33.559 2.03943 33.515 2.06663C33.4713 2.09382 33.3713 2.04105 33.2929 1.94975C33.2146 1.85813 33.0676 1.78367 32.9659 1.78367C32.8643 1.78367 32.5949 1.71277 32.3667 1.62601C32.1385 1.53924 31.9002 1.48842 31.8367 1.5127C31.7733 1.53698 31.7215 1.52532 31.7215 1.4868C31.7215 1.35082 30.9387 1.09765 30.8687 1.21097C30.8357 1.26438 30.4106 1.16467 29.9308 0.991466C29.851 0.963515 29.7695 0.940805 29.6867 0.92348C29.3591 0.859378 29.2866 0.832831 29.1639 0.730851C29.091 0.67031 28.9259 0.616892 28.7968 0.61236C28.6294 0.606209 28.5844 0.576748 28.6397 0.509733C28.6977 0.439804 28.6436 0.432681 28.4293 0.480919C28.2512 0.521063 28.1408 0.51556 28.1408 0.46635C28.1408 0.422645 28.0952 0.402249 28.0392 0.42135C27.9832 0.440451 27.8602 0.366637 27.7653 0.257535C27.5995 0.0662011 27.584 0.0636112 27.3418 0.188901C27.0414 0.344299 26.705 0.357896 26.6481 0.217067C26.617 0.140339 26.5856 0.145519 26.5205 0.237462C26.4648 0.316133 26.4337 0.32455 26.4331 0.260448C26.4324 0.205411 26.3768 0.182426 26.3084 0.208325C26.2408 0.234225 26.131 0.210268 26.0643 0.155231C25.998 0.0998707 25.9433 0.0865966 25.9433 0.12577C25.9433 0.164943 25.806 0.198613 25.638 0.200879C25.4525 0.205353 25.2679 0.226591 25.0863 0.264333C24.8937 0.310629 24.7991 0.2857 24.6538 0.150375C24.4896 -0.00275713 24.4518 -0.00923172 24.3307 0.0946906C24.1416 0.256563 23.9422 0.318399 23.8574 0.241347C23.711 0.108288 23.3504 0.0742947 23.2416 0.183397C23.1817 0.243614 23.0325 0.3116 22.9101 0.33491C22.7184 0.371493 22.6877 0.350773 22.6877 0.185339C22.6877 -0.0377217 22.5553 -0.0597363 22.2972 0.120914C22.1969 0.191167 21.9327 0.255268 21.71 0.263362C21.4875 0.271132 21.3046 0.306744 21.3046 0.341709C21.3043 0.376673 21.2366 0.36955 21.1544 0.325521C20.9848 0.234872 20.6992 0.289262 20.4289 0.463437C20.3279 0.52851 20.0945 0.579661 19.9103 0.577071C19.6917 0.574157 19.4946 0.631784 19.3443 0.743153C19.1598 0.87945 19.0899 0.894019 18.9953 0.815673C18.9147 0.748981 18.8603 0.744772 18.8244 0.803046C18.7953 0.849989 18.6619 0.888515 18.5275 0.888515C18.3874 0.888515 18.3045 0.922832 18.333 0.968804C18.3608 1.01413 18.3301 1.02902 18.2627 1.00344C18.1258 0.950998 17.8153 1.09701 17.657 1.28834C17.577 1.38482 17.5395 1.39194 17.5077 1.31586C17.444 1.16305 17.3345 1.18992 16.9412 1.45572C16.6673 1.64058 16.5404 1.68137 16.4009 1.62989C16.2636 1.57906 16.0972 1.6273 15.7294 1.82479C14.8825 2.27965 14.7128 2.39167 14.7122 2.49624C14.7119 2.55224 14.6186 2.59789 14.505 2.59789C14.3914 2.59789 14.2195 2.67138 14.1233 2.76074C14.0271 2.85041 13.9044 2.92358 13.8507 2.92358C13.797 2.92358 13.7322 2.97635 13.7076 3.0411C13.683 3.10585 13.5049 3.20491 13.3123 3.26092C13.1197 3.31693 12.9397 3.39593 12.9118 3.43575C12.8843 3.47557 12.7195 3.52704 12.5457 3.55003C12.3718 3.57301 12.2151 3.63096 12.1977 3.67856C12.1501 3.80838 11.7065 4.22601 11.6162 4.22601C11.5728 4.22601 11.5375 4.28234 11.5375 4.35097C11.5375 4.42155 11.3783 4.54425 11.1714 4.63296C10.97 4.71907 10.8052 4.82105 10.8052 4.85958C10.8052 4.8981 10.7003 5.0467 10.5725 5.19012C10.4167 5.36462 10.2953 5.43358 10.2053 5.39894C10.0389 5.33516 9.80615 5.51516 9.86281 5.66344C9.88838 5.72948 9.84727 5.77254 9.75921 5.77254C9.67924 5.77254 9.4701 5.93733 9.29528 6.13902C9.10298 6.36014 8.90776 6.50518 8.80222 6.50518C8.58919 6.50518 8.51344 6.59939 8.33214 7.09019C8.23307 7.35857 8.14016 7.47933 8.0194 7.49713C7.81868 7.5266 7.72058 7.72602 7.90641 7.72602C8.00418 7.72602 7.9922 7.76746 7.85235 7.91218C7.74583 8.02193 7.60857 8.08344 7.51695 8.06207C7.39425 8.03358 7.37061 8.06045 7.40461 8.1906C7.43828 8.31977 7.38842 8.37837 7.17345 8.46287C7.02259 8.52211 6.89892 8.61859 6.89892 8.67751C6.89892 8.73611 6.84032 8.78435 6.76812 8.78435C6.68557 8.78435 6.65449 8.82935 6.68395 8.90543C6.70953 8.97212 6.70434 9.02262 6.67229 9.01809C6.44405 8.9841 6.33107 9.06827 6.21452 9.35964C6.14167 9.54159 6.10347 9.72483 6.12905 9.76659C6.15462 9.80836 6.1229 9.84267 6.05815 9.84267C5.9934 9.84267 5.94516 9.90451 5.95164 9.98026C5.95811 10.056 5.87135 10.1651 5.75933 10.2231C5.64311 10.2833 5.56703 10.3846 5.58159 10.4597C5.59649 10.5365 5.57123 10.5692 5.52041 10.5378C5.46958 10.5064 5.43364 10.5536 5.43364 10.6517C5.43364 10.7462 5.38055 10.8194 5.31159 10.8194C5.24393 10.8194 5.18954 10.8916 5.18954 10.9823C5.18954 11.0716 5.15198 11.1451 5.10601 11.1451C5.06004 11.1451 4.99076 11.2286 4.95223 11.3306C4.91112 11.4387 4.80622 11.5216 4.70068 11.5297C4.45561 11.5482 4.42841 11.5906 4.5346 11.7894C4.6123 11.9347 4.60226 11.959 4.46532 11.959C4.2973 11.959 4.14255 12.2662 4.26524 12.3559C4.37143 12.4333 4.341 12.735 4.22931 12.712C4.17557 12.701 4.13089 12.7376 4.13024 12.7933C4.12927 12.8671 4.10952 12.8642 4.05805 12.7829C3.93761 12.5929 3.78481 12.7693 3.83822 13.0367C3.89553 13.3229 3.60739 13.9089 3.4044 13.919C3.32023 13.9233 3.31171 13.9391 3.37883 13.9665C3.4957 14.0135 3.51804 14.2382 3.4057 14.2382C3.36491 14.2382 3.31246 14.1922 3.29012 14.1365C3.26034 14.063 3.24771 14.0617 3.24253 14.1317C3.24255 14.1611 3.24975 14.1902 3.26352 14.2162C3.27728 14.2423 3.29719 14.2646 3.32153 14.2812C3.4316 14.3492 3.26293 14.5639 3.09944 14.5639C3.03501 14.5639 3.00684 14.603 3.03663 14.6513C3.06641 14.6995 3.00944 14.8251 2.90972 14.931C2.70965 15.144 2.57626 15.866 2.73716 15.866C2.78767 15.866 2.82911 15.9048 2.82911 15.9521C2.82911 15.9993 2.79673 16.0181 2.75691 15.9935C2.71742 15.9689 2.69022 16.0084 2.69605 16.0809C2.7022 16.1534 2.64004 16.2237 2.55846 16.2367C2.27615 16.2813 2.17838 16.3493 2.17838 16.5008C2.17838 16.5844 2.15086 16.6799 2.11719 16.7135C2.08352 16.7472 2.05341 16.799 2.04921 16.8288C2.04564 16.8586 1.99449 16.9929 1.93557 17.1273C1.87665 17.2616 1.81935 17.5067 1.80801 17.6718C1.79636 17.8372 1.72837 18.0558 1.65715 18.1581C1.58528 18.2597 1.52668 18.4443 1.52668 18.5676C1.52668 18.691 1.40819 19.0319 1.2638 19.3249C1.06049 19.737 1.02067 19.8885 1.08736 19.9947C1.17121 20.1274 1.07862 20.5638 0.944585 20.6671C0.864943 20.7286 0.843253 21.0967 0.910268 21.2518C0.947823 21.3389 0.904764 21.4765 0.790482 21.6306C0.692063 21.7636 0.636379 21.9129 0.666811 21.9618C0.697567 22.0116 0.666164 22.0508 0.595587 22.0508C0.466736 22.0508 0.457348 22.2457 0.577133 22.4374C0.594308 22.4685 0.603316 22.5035 0.603316 22.539C0.603316 22.5746 0.594308 22.6095 0.577133 22.6407C0.538466 22.7054 0.511404 22.7764 0.497168 22.8505C0.480579 22.9345 0.454513 23.0164 0.419469 23.0946C0.3858 23.1693 0.350836 23.417 0.341447 23.6449C0.332058 23.8728 0.285439 24.1331 0.237201 24.2235C0.174718 24.34 0.174394 24.4782 0.235582 24.7C0.299684 24.9328 0.295475 25.0966 0.217776 25.3423C0.109321 25.6884 0.112235 25.9811 0.225222 26.0228C0.261805 26.0364 0.266338 26.1465 0.235582 26.2669C0.165329 26.5399 0.180869 27.1236 0.261482 27.254C0.294504 27.3078 0.294827 27.4865 0.262129 27.6516C0.23051 27.8103 0.203305 27.9699 0.180545 28.1301C0.168243 28.2282 0.136839 28.3431 0.110616 28.3855C0.0843925 28.4276 0.117091 28.5073 0.183459 28.562C0.249503 28.617 0.285439 28.6918 0.262777 28.7284C0.240115 28.765 0.260187 28.8187 0.307454 28.8478C0.392599 28.9006 0.395189 29.5387 0.30972 29.5387C0.284792 29.5387 0.264719 29.6857 0.264719 29.865C0.264719 30.0674 0.298388 30.1788 0.353425 30.1574C0.402311 30.1386 0.493607 30.1561 0.556738 30.1959C0.64771 30.2535 0.640264 30.2688 0.519507 30.2697C0.38062 30.271 0.372526 30.3176 0.425945 30.8152C0.457995 31.1144 0.535371 31.4375 0.597853 31.5327C0.694653 31.6809 0.694653 31.7285 0.596882 31.8619C0.500082 31.9943 0.499758 32.05 0.594616 32.2332C0.655804 32.3517 0.762316 32.4702 0.83095 32.4968C0.899908 32.5233 0.955916 32.592 0.955916 32.6499C0.955916 32.7079 1.02326 32.7972 1.10581 32.8484C1.21653 32.9173 1.24696 33.0135 1.22203 33.2139C1.19743 33.4133 1.21038 33.4544 1.27027 33.3676C1.31527 33.3026 1.33081 33.211 1.30491 33.164C1.27901 33.1171 1.30621 33.1235 1.36513 33.1786C1.45416 33.2611 1.4506 33.3032 1.34409 33.4227C1.27319 33.502 1.20455 33.6402 1.19096 33.7299C1.15923 33.9433 1.36222 34.2541 1.49949 34.2013C1.55873 34.1786 1.60697 34.2007 1.60697 34.2502C1.60697 34.2997 1.57298 34.3405 1.53121 34.3405C1.37646 34.3405 1.40851 34.7157 1.58593 34.9825C1.68693 35.134 1.8051 35.3904 1.84881 35.5523C1.89251 35.7138 2.00129 35.8919 2.09064 35.9473C2.18226 36.0042 2.30885 36.2406 2.38137 36.4895C2.45195 36.732 2.56655 36.9525 2.63648 36.9794C2.71418 37.0091 2.74332 37.0797 2.71224 37.161C2.64166 37.3455 2.82166 37.7178 3.02465 37.8072C3.1221 37.8499 3.20465 37.9733 3.2189 38.0976C3.23541 38.2381 3.30631 38.3313 3.42253 38.364C3.53196 38.3951 3.6825 38.579 3.812 38.8396C3.92823 39.0737 4.06841 39.2546 4.12344 39.2423C4.1788 39.23 4.20308 39.2524 4.1788 39.2922C4.1542 39.3317 4.29794 39.5178 4.49834 39.7056C4.69874 39.8934 4.86255 40.0815 4.86255 40.1239C4.86255 40.166 4.915 40.2006 4.97878 40.2006C5.04288 40.2006 5.16688 40.2922 5.25526 40.4043C5.34332 40.5163 5.45792 40.6076 5.51005 40.6076C5.56217 40.6076 5.57965 40.6484 5.5489 40.6979C5.51814 40.7474 5.54339 40.8196 5.60523 40.8578C5.66674 40.896 5.71724 40.9702 5.71724 41.0229C5.71724 41.0757 5.82376 41.1298 5.95423 41.1437C6.2006 41.1699 6.35017 41.315 6.29286 41.472C6.24916 41.5921 6.61596 41.8582 6.99928 41.9845C7.1673 42.0398 7.30424 42.1175 7.30424 42.1573C7.30424 42.1972 7.35637 42.2098 7.42015 42.1855C7.53313 42.1418 7.74713 42.4163 7.66457 42.4989C7.64191 42.5216 7.69824 42.5594 7.78954 42.5834C7.88084 42.6073 7.95562 42.5934 7.95562 42.5523C7.95562 42.5112 8.02879 42.5235 8.11847 42.5795C8.20814 42.6352 8.28131 42.7294 8.28131 42.7883C8.28131 42.8472 8.31304 42.8761 8.35189 42.8521C8.39074 42.8281 8.49142 42.8861 8.57559 42.9806C8.76466 43.193 9.23345 43.3992 9.3555 43.3238C9.41021 43.2901 9.42316 43.305 9.38755 43.362C9.29949 43.5048 9.73428 43.6485 9.88223 43.5258C9.97612 43.4478 10.0075 43.4633 10.0448 43.6064C10.0917 43.7868 10.4009 43.9205 10.5527 43.8266C10.599 43.7981 10.7201 43.8285 10.8217 43.8939C10.9237 43.9593 11.1319 44.0318 11.2841 44.0548C11.4362 44.0778 11.5855 44.1364 11.6156 44.1853C11.6768 44.284 11.9419 44.3527 12.3094 44.3646C12.4437 44.3692 12.593 44.4035 12.6409 44.4414C12.6888 44.4792 12.8154 44.4935 12.9219 44.4731C13.0297 44.4524 13.2359 44.5071 13.3884 44.5971C13.6853 44.7722 14.0443 44.8325 13.8151 44.6686C13.7189 44.5997 13.7351 44.5906 13.8921 44.6259C14.0019 44.6502 14.1337 44.635 14.1851 44.5922C14.2936 44.5022 14.7915 44.6476 14.7915 44.769C14.7915 44.8108 14.8741 44.8787 14.9748 44.9195H14.976C15.0767 44.9607 15.269 44.9717 15.4034 44.9441C15.5377 44.9166 15.7155 44.8982 15.7984 44.9034C15.9094 44.9098 15.9382 44.8703 15.9078 44.7541C15.8563 44.5573 16.0311 44.5437 16.2173 44.7298C16.3254 44.838 16.3306 44.8768 16.2435 44.9322C16.082 45.0345 16.2419 45.0167 16.4462 44.9095C16.5439 44.8584 16.6534 44.7667 16.6893 44.7059C16.7249 44.6453 16.7913 44.5958 16.8366 44.5958C16.8816 44.5958 16.902 44.6233 16.8816 44.657C16.8612 44.6907 16.8923 44.7622 16.9509 44.8163C17.0338 44.893 17.0655 44.8923 17.0956 44.814C17.1167 44.7583 17.2992 44.7065 17.5039 44.6975C17.9765 44.6767 18.0756 44.655 18.1488 44.555C18.1831 44.5087 18.209 44.5323 18.2099 44.6107C18.2106 44.6858 18.2915 44.7729 18.3896 44.8043C18.5217 44.8464 18.612 44.8101 18.7376 44.6638C18.9073 44.4669 19.209 44.4171 19.4253 44.5508C19.4871 44.589 19.5564 44.577 19.5904 44.5223C19.6224 44.4705 19.7063 44.4498 19.7765 44.4767C19.8555 44.5068 19.9569 44.4537 20.043 44.3368C20.1354 44.2114 20.1946 44.1825 20.2207 44.25C20.2673 44.3708 20.4904 44.3876 20.4904 44.2704C20.4904 44.2258 20.5454 44.1892 20.6125 44.1892C20.6798 44.1892 20.7345 44.2432 20.7345 44.3093C20.7345 44.4006 20.7976 44.4174 20.999 44.3799C21.1444 44.3527 21.2982 44.2986 21.3409 44.2598C21.3833 44.2209 21.4642 44.1892 21.5212 44.1892C21.5782 44.1892 21.7391 44.0768 21.8796 43.9396C22.0499 43.7729 22.1797 43.7082 22.2691 43.7453C22.5679 43.869 22.6941 43.8784 22.8065 43.7855C22.8712 43.7317 23.0454 43.6984 23.1937 43.711C23.3423 43.7239 23.5087 43.7065 23.564 43.6722C23.6197 43.6378 23.6997 43.6317 23.7428 43.6579C23.8389 43.7175 24.1037 43.33 24.0387 43.2247C23.9852 43.1383 24.1701 43.0499 24.4038 43.0499C24.4974 43.0499 24.5609 42.9929 24.5625 42.9075C24.5651 42.7786 24.5764 42.7799 24.6845 42.923C24.7503 43.0101 24.804 43.0512 24.804 43.0146C24.804 42.978 24.859 42.9939 24.926 43.0496C25.007 43.1165 25.0477 43.1207 25.0481 43.0622C25.0481 43.0133 25.0992 42.9929 25.1621 43.0172C25.3213 43.0784 25.4081 42.9042 25.2893 42.7615C25.1634 42.6099 25.32 42.6009 25.4703 42.7511C25.6001 42.8809 25.7807 42.8375 25.7807 42.6766C25.7807 42.5675 25.8248 42.5513 26.1673 42.5339C26.2453 42.5297 26.3709 42.4588 26.446 42.3759C26.5211 42.293 26.603 42.227 26.6286 42.2286C26.7617 42.2383 27.1644 42.1266 27.1644 42.08C27.1644 42.0505 27.2285 42.0214 27.3069 42.0152C27.3852 42.0094 27.6659 41.8741 27.9311 41.7141C28.1959 41.5545 28.4798 41.4027 28.5617 41.3768C28.6439 41.3506 28.711 41.2832 28.711 41.2269C28.711 41.1599 28.7932 41.1366 28.9479 41.1592C29.1276 41.1855 29.2069 41.1524 29.2772 41.0213C29.3277 40.9265 29.3484 40.8148 29.3228 40.773C29.2973 40.7316 29.3468 40.6597 29.4329 40.6134C29.5527 40.5493 29.6009 40.558 29.6359 40.65C29.7062 40.8326 29.9007 40.7947 30.083 40.5629C30.173 40.4486 30.2581 40.3606 30.2721 40.367C30.3358 40.3962 30.7962 40.1498 30.8846 40.0391C30.9387 39.9714 30.9639 39.852 30.9403 39.7736C30.9128 39.6826 30.9409 39.6312 31.0183 39.6312C31.0847 39.6312 31.1607 39.5855 31.1876 39.5295C31.2142 39.4735 31.2197 39.514 31.1999 39.6189C31.1802 39.7241 31.1853 39.7885 31.2119 39.762C31.2384 39.7354 31.31 39.7555 31.3712 39.806C31.5185 39.9284 31.6095 39.8296 31.4861 39.681C31.4065 39.5849 31.434 39.5544 31.6428 39.5085C31.7823 39.478 31.916 39.4016 31.94 39.3388C31.964 39.2763 32.0164 39.2453 32.0565 39.2699C32.0964 39.2945 32.1294 39.2589 32.1294 39.1905C32.1294 39.1132 32.176 39.084 32.2514 39.1132C32.3185 39.1387 32.3735 39.1158 32.3735 39.061C32.3735 39.007 32.425 38.9821 32.4878 39.0063C32.6373 39.0636 32.8617 38.8118 32.8617 38.5868C32.8617 38.397 33.0611 38.3433 33.1398 38.5116C33.1754 38.5877 33.201 38.5825 33.2415 38.4913C33.326 38.3002 34.0036 37.6871 34.1952 37.6285C34.2901 37.5997 34.417 37.5362 34.4772 37.4876C34.5374 37.4394 34.6549 37.3892 34.7378 37.3766C34.8207 37.364 35.0013 37.2432 35.1396 37.1082C35.2775 36.9732 35.4267 36.8628 35.4711 36.8628C35.5154 36.8628 35.5867 36.7712 35.6291 36.6595C35.6804 36.5237 35.7687 36.4559 35.8939 36.4559C36.0771 36.4559 36.3617 36.2079 36.3617 36.0479C36.3617 36.0036 36.4187 35.9673 36.4886 35.9673C36.5586 35.9673 36.5948 35.934 36.5699 35.8935C36.4854 35.7566 36.622 35.5604 36.802 35.5604C36.9001 35.5604 37.0251 35.516 37.0791 35.4616C37.1332 35.4072 37.333 35.3053 37.5227 35.2353C37.7153 35.1641 37.8671 35.055 37.8665 34.9883C37.8662 34.9223 37.9668 34.7737 38.0902 34.6578C38.2135 34.5419 38.3149 34.4046 38.3149 34.3525C38.3149 34.3004 38.3699 34.2579 38.4369 34.2579C38.5088 34.2579 38.5593 34.1828 38.5603 34.0747C38.5612 33.9274 38.5768 33.9154 38.6393 34.0135C38.7034 34.1142 38.7458 34.1178 38.8811 34.0339C39.1411 33.8727 39.21 33.9141 39.0838 34.156C39.0197 34.279 38.9666 34.4299 38.9666 34.4914C38.9663 34.5749 38.9391 34.5804 38.8581 34.5134C38.7752 34.4444 38.7085 34.4804 38.5697 34.6678C38.4703 34.8022 38.4104 34.9469 38.4369 34.9893C38.4632 35.0317 38.4266 35.1551 38.356 35.2629C38.2854 35.3707 38.233 35.4908 38.2401 35.5296C38.2793 35.7446 38.2236 35.876 38.1116 35.833C38.0335 35.8029 37.9895 35.8343 37.9895 35.9194C37.9895 35.9929 38.0442 36.0738 38.1112 36.0994C38.1779 36.125 38.211 36.1813 38.1844 36.2244C38.1579 36.2674 38.0879 36.2843 38.029 36.2619C37.9134 36.2176 37.299 36.8861 37.2964 37.0584C37.2957 37.1157 37.1931 37.296 37.0685 37.4598C36.9438 37.6233 36.8671 37.757 36.8975 37.757C36.9283 37.757 36.8295 37.8664 36.678 37.9998C36.5265 38.1335 36.452 38.2433 36.5129 38.2439C36.5848 38.2449 36.6042 38.2951 36.5679 38.3877C36.5375 38.466 36.5064 38.5667 36.498 38.6117C36.4902 38.6564 36.3921 38.7124 36.2801 38.7363C36.1053 38.7732 36.0775 38.8218 36.0856 39.0801C36.0911 39.265 36.0629 39.3612 36.0121 39.3298C35.9645 39.3003 35.9541 39.3191 35.9878 39.3735C36.0525 39.4784 35.9667 39.8316 35.8939 39.759C35.7958 39.6609 35.6433 39.9931 35.7204 40.1372C35.7774 40.244 35.7667 40.2809 35.6783 40.2809C35.6129 40.2809 35.4827 40.378 35.3892 40.4969C35.2331 40.6953 35.2299 40.7248 35.3487 40.8559C35.4675 40.9877 35.4646 41.0032 35.3092 41.0524C35.125 41.111 35.0904 41.2175 35.228 41.3023C35.2843 41.3373 35.2587 41.4092 35.1558 41.505C35.0369 41.6157 34.9965 41.7614 34.9965 42.0761C34.9965 42.3322 34.9554 42.5238 34.8919 42.563C34.7838 42.63 34.7352 42.868 34.7219 43.3944C34.7177 43.5624 34.6821 43.6997 34.6426 43.6997C34.5254 43.6997 34.5601 43.9292 34.7355 44.3145C34.8806 44.633 35.1405 44.8143 35.1405 44.5974C35.1405 44.554 35.2014 44.5421 35.2759 44.5705C35.3665 44.6057 35.3921 44.5913 35.3526 44.5272C35.3202 44.4747 35.3335 44.432 35.3821 44.432C35.4303 44.432 35.4921 44.5417 35.519 44.6761C35.5459 44.8104 35.5805 44.9202 35.5957 44.9202C35.611 44.9202 35.7987 44.8613 36.013 44.7894C36.5343 44.6139 36.6233 44.5353 36.52 44.342C36.4624 44.2339 36.4643 44.1879 36.5275 44.1879C36.577 44.1879 36.5964 44.1218 36.5705 44.0409C36.5427 43.9538 36.5903 43.8227 36.6871 43.7188C36.7768 43.6223 36.8502 43.4342 36.8502 43.3005C36.8502 43.1564 36.9118 43.0143 37.0011 42.9512C37.1232 42.8651 37.2543 42.4057 37.2753 41.9903C37.2766 41.9676 37.3459 41.8621 37.4301 41.7556C37.5143 41.6487 37.5829 41.4645 37.5829 41.3464C37.5829 41.2282 37.6593 41.066 37.7525 40.986C37.8503 40.9022 37.9018 40.7879 37.8743 40.7164C37.8435 40.6361 37.8833 40.5768 37.9869 40.5496C38.075 40.5266 38.1692 40.4383 38.1961 40.3538C38.2229 40.2689 38.2974 40.1997 38.3615 40.1997C38.4256 40.1997 38.478 40.1242 38.478 40.032C38.478 39.94 38.4415 39.8869 38.3968 39.9148C38.3521 39.9423 38.3155 39.9067 38.3155 39.8354C38.3155 39.7642 38.3725 39.6843 38.4424 39.6574C38.512 39.6305 38.5499 39.5586 38.5263 39.4971C38.5026 39.4356 38.5114 39.3854 38.5454 39.3854C38.5794 39.3854 38.6056 39.287 38.604 39.1666C38.6014 38.9995 38.649 38.9354 38.8041 38.8966C38.9396 38.8627 38.9992 38.7985 38.9828 38.704C38.9433 38.4806 39.1543 38.0833 39.3123 38.0833C39.391 38.0833 39.4551 38.037 39.4551 37.9807C39.4551 37.9244 39.5283 37.8324 39.6179 37.7764C39.7073 37.7204 39.7808 37.6359 39.7808 37.5886C39.7808 37.5414 39.8769 37.3766 39.9941 37.2225C40.1576 37.0085 40.1965 36.8851 40.1592 36.6987C40.1317 36.5614 40.145 36.4552 40.1897 36.4552C40.2334 36.4552 40.269 36.3843 40.269 36.2972C40.269 36.2105 40.3082 36.1153 40.3561 36.0855C40.404 36.0557 40.4218 35.9764 40.3959 35.9087C40.3646 35.8267 40.3866 35.8002 40.462 35.8291C40.5241 35.8531 40.6161 35.8314 40.6662 35.7812C40.7339 35.7138 40.7575 35.7261 40.7575 35.8281C40.7575 35.9042 40.7951 35.9664 40.8417 35.9664C40.9796 35.9664 41.024 35.7401 40.9356 35.4862C40.8621 35.2752 40.8725 35.2431 41.0292 35.2036C41.126 35.179 41.2535 35.0495 41.3121 34.9161C41.3778 34.7666 41.4614 34.6895 41.53 34.7157C41.6093 34.7462 41.6287 34.7099 41.5973 34.5901C41.5698 34.4855 41.5983 34.4046 41.6724 34.3761C41.7488 34.347 41.7777 34.2586 41.7537 34.131C41.7317 34.0158 41.7537 33.9316 41.8065 33.9316C42.0078 33.9316 42.2332 33.7733 42.1729 33.6736C42.1548 33.6435 42.1976 33.5613 42.2681 33.491C42.3384 33.4204 42.3756 33.3298 42.3507 33.2896C42.3258 33.2492 42.3623 33.1941 42.4319 33.1676C42.5019 33.1407 42.5381 33.0853 42.5126 33.0442C42.4339 32.9167 42.5553 32.7185 42.6822 32.7671C42.7593 32.7969 42.8188 32.7506 42.848 32.6389C42.8729 32.5431 42.9807 32.4427 43.0872 32.4162C43.2131 32.3844 43.2808 32.3087 43.2808 32.1989C43.2808 31.9752 43.4595 31.4896 43.5414 31.4896C43.5774 31.4896 43.6065 31.4281 43.6065 31.353C43.6065 31.2779 43.7732 31.0613 43.9765 30.8716C44.207 30.6569 44.3123 30.5061 44.2559 30.4711C44.2061 30.4403 44.1899 30.3549 44.2203 30.2811C44.3223 30.0331 44.3051 29.8226 44.1617 29.5598C44.0368 29.3299 44.0338 29.2833 44.1384 29.179C44.3249 28.9926 44.2828 28.9016 43.926 28.7196C43.7185 28.6138 43.5524 28.4535 43.4815 28.2907C43.4174 28.1434 43.3669 28.0916 43.3653 28.1712C43.3627 28.2852 43.3125 28.3023 43.0976 28.2619C42.9522 28.2343 42.7761 28.1628 42.7065 28.1026C42.6003 28.011 42.5537 28.0116 42.42 28.1052C42.2296 28.2385 41.7511 28.2305 41.666 28.0925C41.5692 27.9355 40.6685 28.0242 40.5698 28.2003C40.4943 28.3354 40.4846 28.335 40.3843 28.1974C40.2836 28.0598 40.2629 28.0621 39.9741 28.2405C39.7568 28.3748 39.66 28.3998 39.6358 28.3273C39.6102 28.2509 39.5526 28.2583 39.4014 28.3574C39.291 28.4296 39.0326 28.5027 38.8274 28.5192C38.6221 28.5361 38.4275 28.5924 38.3955 28.6442C38.3515 28.7154 38.2942 28.7158 38.164 28.6461C38.0688 28.595 37.9908 28.584 37.9908 28.6209C37.9908 28.6581 37.7901 28.6931 37.545 28.6989C36.9538 28.7125 36.2235 28.931 36.0985 29.1314C35.9975 29.293 35.4679 29.3687 35.4679 29.2218C35.4679 29.1832 35.3762 29.1693 35.2642 29.1907C35.1525 29.2121 35.0609 29.2619 35.0609 29.3014C35.0609 29.3409 34.9874 29.3733 34.8981 29.3733C34.8084 29.3733 34.7352 29.4063 34.7352 29.4464C34.7352 29.4866 34.606 29.5199 34.4481 29.5199C34.1583 29.5199 33.6445 29.7177 33.5539 29.8641C33.5267 29.9078 33.4383 29.9434 33.357 29.9434C33.2758 29.9434 33.1631 29.9988 33.1068 30.0667C33.0504 30.1344 32.9637 30.1826 32.9138 30.1739C32.864 30.1652 32.5114 30.1875 32.131 30.2238C31.6554 30.2691 31.3786 30.3374 31.2452 30.4423C31.1384 30.5261 31.0076 30.5948 30.9545 30.5948C30.9014 30.5948 30.7166 30.6634 30.5437 30.7476C30.2348 30.8978 30.2326 30.9023 30.4071 31.0111C30.5045 31.0723 30.5845 31.205 30.5845 31.306C30.5845 31.5068 30.5275 31.5301 30.3404 31.4074C30.2319 31.3361 30.2319 31.3183 30.3404 31.2471C30.4449 31.1785 30.442 31.1668 30.3203 31.1659C30.1808 31.1646 29.9201 31.6291 29.9904 31.7548C30.0092 31.7881 30.116 31.8156 30.228 31.8156C30.3672 31.8156 30.4135 31.7832 30.3747 31.714C30.3433 31.6579 30.387 31.6787 30.4715 31.7596C30.6227 31.904 30.6224 31.9092 30.4673 32.0241C30.343 32.1164 30.2954 32.1196 30.2436 32.0393C30.1416 31.8817 30.0205 32.1245 30.0574 32.4139C30.0888 32.6638 30.2112 32.7898 30.422 32.7898C30.5162 32.7898 30.52 32.7746 30.4394 32.7234C30.3109 32.6418 30.3967 32.3854 30.5527 32.3854C30.6152 32.3854 30.6693 32.468 30.6725 32.5686C30.6758 32.6693 30.6962 32.7098 30.7172 32.6587C30.7606 32.5528 31.073 32.6094 31.073 32.7234C31.073 32.7645 31.1468 32.7584 31.2375 32.7101C31.3278 32.6619 31.4421 32.647 31.4913 32.6771C31.715 32.8153 32.1284 32.8529 32.2194 32.7431C32.2705 32.6816 32.3398 32.6483 32.3738 32.669C32.4078 32.6897 32.5004 32.6344 32.5807 32.546C32.6607 32.4576 32.7723 32.3851 32.8287 32.3851C32.8591 32.3832 32.8883 32.3727 32.9129 32.3546C32.9375 32.3366 32.9563 32.3119 32.9672 32.2834C32.9941 32.2073 33.0695 32.22 33.2651 32.3323C33.5399 32.4903 33.5781 32.4764 34.0023 32.0594C34.0249 32.0371 34.1719 32.0099 34.3283 31.9985L34.9997 31.9503C35.2121 31.9348 35.4533 31.8616 35.5349 31.7874C35.6168 31.7133 35.7411 31.6525 35.8113 31.6525C35.8816 31.6525 35.9574 31.6032 35.9807 31.5433C36.0075 31.4731 36.1105 31.4472 36.2682 31.4702C36.4032 31.4899 36.6466 31.4624 36.8088 31.409C36.971 31.3552 37.1947 31.3015 37.3061 31.2895C37.5285 31.2652 37.5278 31.2656 37.6353 31.0645C37.7033 30.9373 37.7318 30.9354 37.9432 31.0451C38.1054 31.1293 38.2061 31.1406 38.2767 31.0823C38.3086 31.0589 38.3457 31.0434 38.3848 31.0372C38.424 31.0309 38.464 31.0341 38.5017 31.0464C38.57 31.0726 38.6499 31.0551 38.6794 31.0072C38.7089 30.9593 38.8296 30.9201 38.9475 30.9201C39.1537 30.9201 39.156 30.9247 39.0035 31.0422C38.8717 31.1442 38.8691 31.1565 38.9879 31.115C39.1006 31.0759 39.1304 31.1111 39.1304 31.2831C39.1304 31.453 39.0993 31.4909 38.9879 31.4563C38.8206 31.4041 38.6011 31.5204 38.6665 31.6262C38.6914 31.6667 38.6046 31.7713 38.4735 31.859C38.3424 31.9467 38.2352 32.0704 38.2352 32.1339C38.2352 32.1973 38.2132 32.2271 38.1863 32.2002C38.1242 32.1377 37.7538 32.5156 37.5217 32.8782C37.4233 33.0319 37.342 33.1077 37.3414 33.0462C37.3404 32.9562 37.3164 32.9542 37.218 33.0358C37.1507 33.0915 37.0943 33.1051 37.0927 33.0662C37.0911 33.0271 37.0377 33.1145 36.9742 33.2602C36.9108 33.4059 36.7658 33.5606 36.6521 33.604C36.5382 33.6474 36.4449 33.706 36.4449 33.7341C36.4449 33.7623 36.509 33.761 36.5874 33.7312C36.6991 33.6888 36.7088 33.6985 36.6317 33.7762C36.5543 33.8539 36.5064 33.8529 36.408 33.771C36.3057 33.6859 36.2571 33.6875 36.1455 33.7785C35.8729 34.0009 35.6313 34.2654 35.6313 34.3415C35.6313 34.3842 35.5763 34.4192 35.5093 34.4192C35.4423 34.4192 35.3872 34.4506 35.3872 34.4888C35.3872 34.527 35.2684 34.5934 35.1227 34.6361C34.9337 34.6918 34.8657 34.7552 34.8838 34.8595C34.8994 34.9466 34.8748 34.9835 34.823 34.9514C34.775 34.922 34.7359 34.9326 34.7359 34.9751C34.7359 35.0178 34.652 35.0735 34.55 35.099C34.4361 35.1275 34.3593 35.2127 34.3509 35.3179C34.3325 35.5652 34.167 35.7326 33.9951 35.6779C33.898 35.6471 33.785 35.7025 33.6665 35.8388C33.5671 35.9531 33.4273 36.0466 33.3557 36.0466C33.2075 36.0466 32.8993 36.3704 32.9264 36.4976C32.9365 36.5442 32.8258 36.5899 32.6804 36.5996C32.3123 36.6242 32.0688 36.7676 31.9536 37.0279C31.8995 37.1503 31.8121 37.2338 31.7597 37.2134C31.6538 37.173 31.399 37.3938 31.399 37.5262C31.399 37.5728 31.3453 37.5899 31.2792 37.5647C31.2132 37.5394 31.1034 37.5747 31.0351 37.643C30.9668 37.7113 30.9108 37.7444 30.9108 37.7162C30.9108 37.688 30.8652 37.6935 30.8088 37.7288C30.7528 37.7638 30.6463 37.7826 30.5718 37.7706C30.4974 37.7586 30.3844 37.823 30.3206 37.9147C30.2565 38.006 30.1753 38.0535 30.1393 38.0202C30.1037 37.9872 30.1176 38.0422 30.1698 38.1429C30.2695 38.3349 30.208 38.3711 29.8344 38.3404C29.678 38.3274 29.4928 38.6084 29.5537 38.7668C29.5754 38.8228 29.5417 38.8691 29.4786 38.8691C29.4154 38.8691 29.3643 38.8386 29.3643 38.8014C29.3643 38.7638 29.3092 38.7337 29.2422 38.7337C29.1749 38.7337 29.1202 38.7745 29.1202 38.8247C29.1202 38.8746 29.0496 38.8969 28.9635 38.8746C28.8609 38.8477 28.7058 38.9257 28.5161 39.0999C28.3561 39.2462 28.2221 39.3246 28.2189 39.2737C28.2156 39.2229 28.1761 39.2799 28.1321 39.4003C28.0716 39.5658 27.9884 39.6257 27.7928 39.6444C27.605 39.6626 27.5364 39.7085 27.5448 39.8112C27.551 39.8889 27.5299 39.9368 27.4982 39.917C27.3995 39.8562 26.9229 40.1893 26.9229 40.3194C26.9229 40.4557 26.8789 40.4629 26.638 40.3661C26.5483 40.3301 26.4111 40.334 26.3327 40.3748C26.2327 40.4269 26.19 40.4175 26.189 40.3441C26.188 40.2689 26.1708 40.2657 26.1281 40.333C26.0951 40.3845 25.8759 40.4894 25.6409 40.5661C25.3984 40.6455 25.2135 40.7546 25.2135 40.8187C25.2135 40.8805 25.177 40.9313 25.1323 40.9313C25.0876 40.9313 25.051 40.8695 25.051 40.7937C25.051 40.6762 25.028 40.6811 24.8917 40.8271C24.804 40.921 24.6185 41.0229 24.479 41.0537C24.3174 41.0893 24.24 41.1479 24.2663 41.2156C24.2889 41.2745 24.2371 41.3402 24.1497 41.3629C24.0633 41.3855 23.9927 41.3697 23.9927 41.3276C23.9927 41.2855 23.8603 41.2602 23.6984 41.2709C23.4841 41.2855 23.3692 41.347 23.2753 41.4976C23.2047 41.6112 23.1351 41.72 23.1208 41.7391C23.1066 41.7585 22.9583 41.7863 22.7909 41.8016C22.3079 41.8449 22.1645 41.8708 22.0654 41.9323C22.0143 41.9641 21.9191 41.9692 21.8537 41.9443C21.7883 41.9194 21.6795 41.954 21.6119 42.0214C21.5442 42.089 21.4665 42.1217 21.4387 42.0939C21.4108 42.0661 21.3882 42.0829 21.3882 42.1308C21.3882 42.1787 21.3137 42.1988 21.2227 42.1748C21.1317 42.1509 20.9945 42.1865 20.9174 42.2532C20.7656 42.3856 20.3302 42.4915 20.3302 42.3959C20.3302 42.2742 19.4263 42.3785 19.2725 42.5177C19.1303 42.6465 19.0099 42.6656 18.5803 42.6284C18.491 42.6206 18.2909 42.6365 18.1358 42.6634C17.9762 42.6912 17.8075 42.674 17.7467 42.6235C17.667 42.5575 17.6139 42.5666 17.5401 42.6595C17.3983 42.8385 16.8489 43.0004 16.7259 42.8994C16.5592 42.7627 16.2934 42.756 16.1357 42.8842C16.0493 42.9547 16.0114 42.9635 16.0467 42.9042C16.0891 42.8336 16.057 42.81 15.9424 42.8275C15.8515 42.8414 15.7527 42.877 15.7233 42.9062C15.6938 42.9356 15.597 42.9207 15.5083 42.8731C15.4196 42.8256 15.2412 42.8022 15.112 42.8213C14.978 42.8408 14.8763 42.8181 14.8747 42.7683C14.8734 42.72 14.8349 42.7446 14.7892 42.823C14.6801 43.0104 14.4937 43.0046 14.4325 42.8113C14.3752 42.631 14.1136 42.5407 13.9941 42.6601C13.9378 42.7168 13.8682 42.7006 13.7775 42.6096C13.695 42.5271 13.5632 42.4908 13.4315 42.5148C13.3146 42.5358 13.1712 42.5135 13.1126 42.4649C13.054 42.4163 12.8503 42.3681 12.66 42.3577C12.4693 42.3474 12.1854 42.2839 12.0287 42.2166C11.4213 41.9557 11.4398 41.9625 10.9503 41.83C10.7376 41.7724 10.5637 41.6892 10.5637 41.6452C10.5637 41.6008 10.5097 41.5853 10.4439 41.6105C10.3779 41.6361 10.2869 41.594 10.2419 41.5176C10.1755 41.405 10.1461 41.3995 10.0875 41.4882C9.98389 41.6458 9.72392 41.5707 9.67212 41.3681C9.61903 41.1618 9.21888 40.8141 8.93592 40.7287C8.82423 40.6947 8.67078 40.6131 8.59502 40.5467C8.51959 40.4807 8.4189 40.4506 8.37131 40.4797C8.32372 40.5088 8.28487 40.4978 8.28487 40.4551C8.28487 40.412 8.1217 40.3094 7.9226 40.2272C7.684 40.1284 7.54447 40.0145 7.51403 39.8934C7.48878 39.7924 7.43213 39.7095 7.3881 39.7095C7.34439 39.7095 7.30845 39.6707 7.30845 39.6234C7.30845 39.5761 7.35443 39.5603 7.41011 39.5887C7.52148 39.6451 7.33209 39.4955 6.92417 39.2048C6.7801 39.1022 6.66096 38.9811 6.65902 38.9364C6.6574 38.8917 6.54441 38.7914 6.40747 38.7133C6.2634 38.6314 6.18214 38.5333 6.21484 38.4809C6.25434 38.4171 6.29157 38.4229 6.34078 38.5003C6.3793 38.5612 6.41136 38.5777 6.412 38.5372C6.41362 38.4521 5.79009 37.8599 5.579 37.746C5.53787 37.7209 5.50342 37.6863 5.47861 37.645C5.4538 37.6038 5.43937 37.5571 5.43656 37.509C5.43656 37.4209 5.39771 37.3491 5.35044 37.3491C5.30317 37.3491 5.28666 37.3125 5.3145 37.2678C5.34202 37.2231 5.2708 37.1441 5.15652 37.092C4.9422 36.9943 4.87615 36.8605 5.04223 36.8605C5.09403 36.8605 5.05713 36.7922 4.96097 36.7087C4.86482 36.6252 4.78583 36.497 4.78583 36.4238C4.78583 36.3481 4.72011 36.2908 4.63302 36.2908C4.38568 36.2908 4.26686 36.0641 4.26686 35.5924C4.26686 35.2136 4.24517 35.1512 4.11276 35.1512C4.02697 35.1512 3.97323 35.1068 3.99168 35.0511C4.00981 34.9961 3.95574 34.877 3.87092 34.7866C3.7861 34.6963 3.69642 34.5215 3.67117 34.3981C3.64624 34.2751 3.58085 34.1744 3.52581 34.1744C3.4562 34.1744 3.43678 34.0588 3.46171 33.7879C3.5012 33.3599 3.38271 32.9536 3.2176 32.9536C3.15901 32.9536 3.10494 32.8746 3.09749 32.7778C3.09005 32.681 3.03663 32.5712 2.97868 32.5337C2.89224 32.4783 2.89386 32.4515 2.98613 32.3922C3.14573 32.2893 3.04958 31.882 2.80288 31.6159C2.63972 31.4397 2.61155 31.3433 2.64684 31.0801C2.67954 30.8379 2.65914 30.7473 2.56461 30.711C2.46813 30.6741 2.45486 30.6084 2.50731 30.4258C2.54486 30.2953 2.54551 30.1703 2.50892 30.1477C2.36291 30.0574 2.33896 29.6909 2.47007 29.5594C2.55749 29.472 2.58857 29.3432 2.56169 29.1761C2.49371 28.7546 2.35871 28.2933 2.28813 28.2411C2.19489 28.1728 2.1596 27.966 2.25058 28.0223C2.29137 28.0475 2.34284 27.9724 2.36518 27.8556C2.39561 27.695 2.36809 27.6331 2.25252 27.6027C2.16802 27.5807 2.09939 27.5396 2.10036 27.5111C2.10262 27.425 2.23601 27.2417 2.29137 27.2492C2.31986 27.2531 2.34705 27.2288 2.35126 27.1951C2.35547 27.1614 2.39173 27.0737 2.4309 26.9996C2.48141 26.905 2.46554 26.851 2.37716 26.817C2.30755 26.7904 2.2768 26.7276 2.30755 26.6778C2.33863 26.6276 2.3205 26.5599 2.26741 26.5272C2.19521 26.4826 2.20525 26.3832 2.30658 26.1293C2.38104 25.9432 2.47169 25.791 2.50828 25.791C2.54486 25.791 2.51443 25.6722 2.44094 25.5265C2.36745 25.3808 2.31727 25.2012 2.32892 25.1267C2.34058 25.0522 2.315 24.9694 2.2713 24.9425C2.22144 24.9117 2.21917 24.7981 2.26482 24.6388C2.30529 24.4986 2.3218 24.3581 2.30205 24.3261C2.2823 24.294 2.35871 24.226 2.47169 24.1746C2.6054 24.1137 2.65493 24.0454 2.61382 23.9794C2.51896 23.8275 2.51054 23.6809 2.59375 23.6294C2.70932 23.5578 2.68083 23.4303 2.54939 23.4303C2.44579 23.4303 2.44579 23.3882 2.5468 23.101C2.61058 22.9201 2.68634 22.5811 2.71547 22.348C2.74429 22.1149 2.82069 21.8821 2.88512 21.8303C2.96087 21.7701 2.97253 21.7177 2.91814 21.6843C2.86407 21.651 2.86084 21.5817 2.90843 21.4933C3.01947 21.2877 3.2312 20.0905 3.18005 19.9575C3.15318 19.8882 3.18005 19.8519 3.24771 19.8662C3.30922 19.8791 3.36005 19.8305 3.3607 19.7584C3.36135 19.6862 3.40538 19.5745 3.45879 19.51C3.51221 19.4456 3.5352 19.3132 3.50962 19.2154C3.47369 19.0772 3.51027 19.0199 3.6757 18.9571C3.91463 18.8661 3.92305 18.8447 3.80294 18.6204C3.73592 18.4954 3.75502 18.4083 3.89002 18.2189C3.98488 18.0859 4.02664 17.9771 3.98261 17.9771C3.85797 17.9771 3.91528 17.7984 4.13445 17.5028C4.25489 17.3403 4.32481 17.1509 4.30863 17.0292C4.2892 16.8819 4.36399 16.7465 4.58057 16.5364C4.83957 16.2849 4.87259 16.2114 4.82921 15.9806C4.79327 15.7883 4.82727 15.6335 4.95223 15.4215C5.04741 15.2602 5.15457 15.1285 5.19051 15.1285C5.22644 15.1285 5.29217 15.0278 5.3362 14.9044C5.38055 14.7811 5.4958 14.5978 5.5926 14.4965C5.6894 14.3952 5.74638 14.2767 5.71951 14.233C5.69232 14.1893 5.72339 14.1741 5.78847 14.199C5.85354 14.2239 5.93092 14.2051 5.96038 14.1572C5.98984 14.1093 5.97527 14.0701 5.928 14.0701C5.88074 14.0701 5.84189 13.9967 5.84189 13.9073C5.84189 13.8176 5.89304 13.7445 5.9552 13.7445C6.0821 13.7445 6.1925 13.5253 6.1229 13.4123C6.09797 13.3721 6.13876 13.3628 6.21322 13.3912C6.32232 13.4333 6.33786 13.4094 6.29351 13.2689C6.25013 13.1319 6.26567 13.1047 6.36571 13.1433C6.45571 13.1779 6.49326 13.1433 6.49326 13.0264C6.49326 12.9354 6.55736 12.7965 6.63571 12.7182C6.71406 12.6395 6.78075 12.5362 6.78496 12.4883C6.79726 12.3261 7.01805 11.9137 7.16309 11.7816C7.24241 11.7094 7.30716 11.6136 7.30716 11.5692C7.30716 11.5249 7.39716 11.4209 7.50691 11.3384C7.65681 11.2257 7.68465 11.1619 7.61893 11.0829C7.55288 11.0036 7.56518 10.9774 7.66878 10.9774C7.8067 10.9774 8.36516 10.4461 8.36516 10.315C8.36516 10.202 8.98837 9.59274 9.04535 9.65004C9.07384 9.67886 9.09747 9.6413 9.09747 9.56652C9.09747 9.49206 9.13147 9.43087 9.17323 9.43087C9.21499 9.43087 9.26064 9.35155 9.27521 9.25475C9.2901 9.15245 9.41086 9.02457 9.56302 8.94978C9.71227 8.87629 9.86054 8.72057 9.90781 8.58783C9.96328 8.43308 10.0306 8.3706 10.1098 8.40038C10.2406 8.45057 10.3646 8.18898 10.328 7.93969C10.3148 7.84937 10.3685 7.77491 10.4656 7.74966C10.5692 7.72246 10.612 7.65804 10.5877 7.5648C10.5576 7.45052 10.6042 7.42008 10.8169 7.41393C11.1879 7.40325 11.4009 7.27051 11.58 6.9377C11.7428 6.63532 11.9778 6.46082 12.1112 6.54338C12.2514 6.62982 12.5159 6.49611 12.5159 6.33877C12.5159 6.241 12.6286 6.13773 12.8341 6.04708C13.009 5.97003 13.1916 5.82078 13.2395 5.71556C13.2874 5.61035 13.3667 5.52455 13.4153 5.52455C13.5681 5.52455 13.7387 5.29858 13.6872 5.16422C13.6264 5.00526 13.7649 4.99588 13.8931 5.1503C13.9741 5.24807 14.0229 5.24678 14.2318 5.14286C14.3658 5.07584 14.5277 5.0412 14.5908 5.06548C14.6674 5.09462 14.7396 5.01573 14.8074 4.82882C14.8831 4.61936 14.9566 4.54781 15.0962 4.54781C15.2082 4.54781 15.2833 4.5967 15.2833 4.66986C15.2833 4.7372 15.3244 4.79192 15.3749 4.79192C15.4329 4.79192 15.4487 4.70386 15.4183 4.55137C15.3788 4.35324 15.393 4.3199 15.5012 4.36101C15.5782 4.3908 15.6747 4.35356 15.7352 4.27069C15.7919 4.19331 15.8599 4.13245 15.8864 4.13536C16.1072 4.16029 16.1839 4.10525 16.2503 3.87636C16.2956 3.71935 16.33 3.67596 16.3342 3.76953C16.341 3.91424 16.3597 3.91003 16.5653 3.7187C16.6883 3.60409 16.835 3.52704 16.8907 3.54744C16.9467 3.56816 16.9927 3.54744 16.9927 3.50147C16.9927 3.45129 17.0752 3.461 17.2015 3.52639C17.4582 3.65945 17.7036 3.60474 17.7687 3.39981C17.7955 3.31499 17.8538 3.24571 17.8982 3.24571C17.9425 3.24571 17.9561 3.28229 17.9286 3.32697C17.8341 3.47978 18.1118 3.40887 18.2239 3.25153C18.2854 3.16542 18.4638 3.07768 18.6204 3.05696C18.7771 3.03624 19.0093 2.97862 19.1359 2.92844C19.2628 2.87858 19.4059 2.86174 19.4538 2.89153C19.5088 2.9252 19.5169 2.90642 19.4761 2.84038C19.4269 2.76074 19.4729 2.74455 19.6668 2.77304C19.8659 2.80218 19.9226 2.78048 19.9226 2.67527C19.9226 2.49494 20.0093 2.41757 20.1184 2.50109C20.3457 2.67527 20.4969 2.66394 20.6876 2.45803C20.8316 2.30296 20.9245 2.26314 21.0343 2.31073C21.1169 2.34634 21.2483 2.36771 21.3266 2.358C21.405 2.34828 21.4691 2.37936 21.4691 2.42695C21.4691 2.47454 21.5057 2.51339 21.5504 2.51339C21.5954 2.51339 21.6316 2.45836 21.6316 2.39134C21.6316 2.324 21.5889 2.26929 21.5368 2.26929C21.484 2.26929 21.4587 2.25245 21.4791 2.23174C21.5368 2.17411 21.8786 2.27997 21.8395 2.34343C21.8207 2.37386 21.8327 2.44379 21.8666 2.4985C21.9094 2.56746 21.9615 2.53509 22.0379 2.39296C22.1622 2.16084 22.3231 2.12587 22.396 2.31559C22.4497 2.45544 22.7152 2.41271 22.934 2.22882C23.0703 2.11454 23.4271 2.14497 23.5093 2.27803C23.5401 2.32756 23.5806 2.29519 23.6052 2.2013C23.6285 2.11195 23.6061 1.99249 23.5553 1.93648C23.5045 1.88015 23.5631 1.90929 23.6851 2.00123C23.8836 2.15015 24.0092 2.16602 24.8652 2.14918C25.3919 2.13882 25.8931 2.10062 25.9789 2.06404C26.0893 2.01677 26.1174 2.02519 26.076 2.09285C26.0378 2.15501 26.0825 2.18835 26.2052 2.18933C26.3564 2.1903 26.3693 2.20584 26.2709 2.26929C26.1993 2.31559 26.1883 2.34861 26.2447 2.34958C26.2974 2.35023 26.3933 2.2981 26.4577 2.234C26.5356 2.15565 26.6018 2.14389 26.6561 2.19871C26.7109 2.25343 26.842 2.23692 27.0524 2.14918C27.2499 2.06663 27.3774 2.04882 27.3949 2.10127C27.4101 2.14724 27.5785 2.29001 27.7689 2.41854C28.0295 2.59433 28.1803 2.64257 28.3798 2.61343C28.5255 2.59206 28.7236 2.61343 28.821 2.66102C29.2743 2.88246 30.0976 3.11038 30.5032 3.12689C31.1054 3.15117 31.0966 3.14858 31.0455 3.28197C31.0099 3.37521 31.0746 3.39495 31.3595 3.37812C31.5975 3.3642 31.7322 3.39301 31.7597 3.46424C31.7823 3.52316 31.8727 3.57139 31.9604 3.57139C32.0481 3.57139 32.1767 3.62773 32.2456 3.69701C32.3793 3.83072 32.7778 3.82877 32.8921 3.69345C32.9332 3.64489 32.9449 3.66269 32.9216 3.73748C32.8604 3.9327 33.0747 4.16871 33.2674 4.11853C33.359 4.09457 33.4338 4.10428 33.4338 4.13957C33.4338 4.17518 33.4979 4.19914 33.5762 4.19299C33.6546 4.18684 33.7096 4.22763 33.6983 4.28331C33.6769 4.39015 33.8566 4.4209 34.3289 4.39015C34.6009 4.37266 34.6064 4.37752 34.451 4.49795C34.2894 4.62324 34.2894 4.62422 34.4655 4.62681C34.563 4.62843 34.7171 4.72393 34.8081 4.83983C34.899 4.95541 35.0091 5.02793 35.0528 5.00106C35.0965 4.97386 35.2244 5.04444 35.3371 5.1571C35.4501 5.26977 35.6356 5.36236 35.7495 5.36236C35.8722 5.36236 35.9567 5.40833 35.9567 5.47567C35.9567 5.53783 36.0483 5.61196 36.1603 5.63981C36.2941 5.67348 36.3637 5.74761 36.3637 5.85704C36.3637 5.94834 36.4002 6.00046 36.4449 5.97262C36.4896 5.9451 36.5268 5.97035 36.5275 6.02895C36.5284 6.10632 36.5501 6.10212 36.6074 6.01341C36.6589 5.93377 36.6868 5.92632 36.6877 5.99204C36.6884 6.0474 36.8169 6.14614 36.9736 6.21154C37.1303 6.27694 37.2585 6.36921 37.2585 6.41615C37.2585 6.46309 37.3155 6.50162 37.3854 6.50162C37.4553 6.50162 37.4896 6.46503 37.4618 6.42036C37.4343 6.37568 37.4514 6.3391 37.5003 6.3391C37.5492 6.3391 37.6101 6.39413 37.636 6.46115C37.6619 6.52816 37.726 6.5832 37.7784 6.5832C37.8309 6.5832 37.9251 6.65442 37.9879 6.74151C38.0507 6.8286 38.1336 6.8804 38.1721 6.85677C38.2615 6.80141 38.4907 6.98756 38.4382 7.07238C38.3825 7.16238 38.6147 7.23782 38.7843 7.18504C38.9196 7.14296 38.9196 7.14522 38.7843 7.23231C38.6525 7.31713 38.6571 7.3385 38.8455 7.52692C38.9575 7.63861 39.0488 7.7652 39.0488 7.80793C39.0488 7.85067 39.1951 7.88563 39.3742 7.88563C39.6021 7.88563 39.6999 7.92059 39.6999 8.00185C39.6999 8.18283 39.9349 8.37416 40.1576 8.37416C40.3088 8.37416 40.381 8.43567 40.4448 8.61827C40.4914 8.75262 40.5811 8.86237 40.6442 8.86237C40.707 8.86237 40.7627 8.89895 40.7685 8.94363C40.7744 8.98863 40.7831 9.05856 40.7889 9.09968C40.8051 9.21817 40.9213 9.30687 40.9213 9.20068C40.9213 9.12881 40.9608 9.12978 41.0806 9.20489C41.1917 9.27417 41.2111 9.32241 41.1444 9.36353C41.0822 9.40205 41.1224 9.45062 41.2587 9.50274C41.3743 9.54645 41.4898 9.63774 41.5154 9.70508C41.541 9.77242 41.6621 9.83944 41.7838 9.85368C41.9288 9.87084 42.013 9.93429 42.0279 10.0369C42.0642 10.2901 42.3436 10.6067 42.598 10.6834C42.9176 10.7796 43.3044 10.979 43.4035 11.0985C43.4482 11.1525 43.5398 11.2179 43.6068 11.2442C43.6758 11.271 43.623 11.295 43.4848 11.2995L43.2407 11.3073L43.668 11.7049C43.903 11.9234 44.0954 12.1235 44.0954 12.1494C44.0954 12.1749 44.2996 12.3974 44.5492 12.6431C44.7988 12.8888 44.9801 13.1277 44.9513 13.1737C44.9228 13.22 44.9478 13.2575 45.0067 13.2575C45.0653 13.2575 45.1614 13.3657 45.22 13.4981C45.2786 13.6302 45.3942 13.7597 45.4768 13.7862C45.6484 13.8406 45.9132 14.2094 45.9132 14.3939C45.9132 14.5554 46.065 14.704 46.1884 14.6629C46.2492 14.6428 46.2735 14.694 46.2534 14.7989C46.2353 14.8915 46.2512 14.9672 46.2881 14.9672C46.325 14.9672 46.3745 15.0407 46.3978 15.1301C46.425 15.234 46.5095 15.2933 46.6309 15.2942C46.7841 15.2952 46.7977 15.3111 46.6996 15.3742C46.6325 15.4176 46.618 15.4535 46.6675 15.4545C46.7792 15.4561 47.2166 15.8553 47.2396 15.9767C47.2486 16.0259 47.271 16.1489 47.2881 16.2502C47.3056 16.3513 47.4374 16.5552 47.5808 16.7032C47.7242 16.8511 47.8165 16.9975 47.786 17.0279C47.7553 17.0583 47.7679 17.0836 47.8139 17.0836C47.8599 17.0836 47.9842 17.2849 48.0904 17.5313C48.2607 17.9263 48.3112 17.979 48.5187 17.979C48.7184 17.979 48.7385 17.9972 48.6527 18.1011C48.5702 18.2005 48.5744 18.2232 48.6747 18.2232C48.8596 18.2232 48.9146 18.4611 48.7647 18.6113C48.6433 18.7327 48.6466 18.7541 48.8055 18.8829C48.9004 18.9597 48.9784 19.0843 48.9784 19.1594C48.9784 19.3262 49.2623 19.703 49.3339 19.6314C49.3624 19.603 49.3854 19.6628 49.3854 19.7639C49.3854 19.9659 49.6249 20.4207 49.7311 20.4207C49.7677 20.4207 49.7603 20.4907 49.7146 20.5765C49.6544 20.6888 49.6641 20.8076 49.7492 21.0038C49.814 21.1534 49.8684 21.2204 49.871 21.1534C49.8729 21.086 49.9286 21.1346 49.9943 21.2609C50.06 21.3871 50.1057 21.5335 50.0957 21.5865C50.0853 21.6393 50.1177 21.6753 50.1672 21.6662C50.2197 21.6568 50.2472 21.7416 50.2332 21.8676C50.2203 21.9873 50.2417 22.1246 50.2815 22.1722C50.3744 22.2839 50.5275 22.967 50.5411 23.3296C50.5473 23.4843 50.5952 23.6274 50.6486 23.6478C50.702 23.6682 50.7357 23.7754 50.7237 23.8855C50.7117 23.9955 50.7532 24.1373 50.816 24.2001C50.9037 24.2879 50.9066 24.3232 50.8293 24.352C50.7733 24.373 50.8276 24.429 50.952 24.4786C51.075 24.5278 51.1757 24.5909 51.1757 24.6191C51.1757 24.6472 51.1226 24.6502 51.0578 24.6252C50.9843 24.5971 50.9549 24.6191 50.9795 24.6832C51.0339 24.825 51.7396 24.7932 51.8338 24.6446C51.9216 24.5045 51.9251 24.4116 51.84 24.4116ZM0.771057 27.739C0.623753 27.7487 0.487456 27.5393 0.580371 27.4463C0.608213 27.4185 0.631199 27.4541 0.631199 27.5253C0.631199 27.5966 0.695301 27.6717 0.773647 27.6921C0.90703 27.7274 0.906707 27.7303 0.771057 27.739ZM1.23466 27.7422C1.1398 27.7384 1.12038 27.7189 1.18545 27.693C1.24405 27.6694 1.3143 27.6723 1.3415 27.6995C1.36869 27.7264 1.32045 27.7458 1.23466 27.7422ZM1.60794 22.2952C1.51697 22.4655 1.28225 22.5206 1.28225 22.372C1.28225 22.3244 1.31916 22.3085 1.36448 22.3363C1.40948 22.3642 1.46808 22.3299 1.49528 22.2596C1.52215 22.1897 1.57783 22.1324 1.61959 22.1324C1.66201 22.1324 1.65683 22.2033 1.60794 22.2952ZM43.1749 28.7151C43.2303 28.6594 43.2957 28.6345 43.321 28.6594C43.3459 28.6847 43.3009 28.73 43.2206 28.7604C43.1044 28.8048 43.0953 28.7954 43.1749 28.7151ZM40.0226 37.0273C40.0226 37.0719 39.9219 37.1063 39.7989 37.103C39.6008 37.0979 39.5937 37.0894 39.7377 37.0273C39.9601 36.9318 40.0226 36.9318 40.0226 37.0273ZM39.7895 36.6375C39.8504 36.6579 39.8135 36.6948 39.7034 36.7236C39.5681 36.7589 39.5364 36.7485 39.5969 36.688C39.6442 36.6407 39.7309 36.6181 39.7895 36.6375ZM39.5937 30.8735C39.6205 30.9007 39.5726 30.9198 39.4868 30.9163C39.3923 30.9124 39.3729 30.8929 39.4376 30.867C39.4962 30.8437 39.5665 30.8466 39.5937 30.8735ZM38.0433 34.3259C38.0666 34.3849 38.064 34.4551 38.0371 34.482C38.0099 34.5092 37.9911 34.4609 37.9944 34.3751C37.9982 34.2803 38.0177 34.2612 38.0433 34.3259ZM32.4405 38.6868C32.4946 38.6761 32.5014 38.6861 32.4551 38.7091C32.4091 38.7321 32.3919 38.7842 32.4172 38.825C32.4425 38.8658 32.4214 38.8995 32.3703 38.8995C32.2495 38.8995 32.3113 38.712 32.4405 38.6868ZM30.5003 38.0448C30.5453 38.0726 30.5816 38.1112 30.5816 38.1309C30.5816 38.1507 30.545 38.1669 30.5003 38.1669C30.4556 38.1669 30.419 38.128 30.419 38.0807C30.4187 38.0331 30.4556 38.017 30.5003 38.0448ZM28.9541 40.6901C28.9988 40.6901 29.0354 40.7452 29.0354 40.8122C29.0354 40.8795 28.9988 40.9342 28.9541 40.9342C28.9094 40.9342 28.8728 40.8792 28.8728 40.8122C28.8725 40.7448 28.9091 40.6901 28.9541 40.6901ZM17.4378 44.3527C17.5003 44.4537 17.4721 44.4537 17.3158 44.3527C17.2426 44.3054 17.2326 44.2733 17.2905 44.2724C17.3195 44.2737 17.3479 44.2816 17.3734 44.2955C17.399 44.3094 17.421 44.329 17.4378 44.3527ZM9.02754 42.7249C9.06477 42.7249 9.09521 42.7595 9.09521 42.8016C9.09521 42.8437 9.06477 42.8971 9.02754 42.9201C8.99031 42.9431 8.95988 42.9084 8.95988 42.8434C8.95988 42.778 8.99031 42.7249 9.02754 42.7249ZM4.37985 38.3297C4.42194 38.3297 4.45658 38.3663 4.45658 38.411C4.45658 38.4556 4.3996 38.4922 4.32967 38.4922C4.25974 38.4922 4.22542 38.4556 4.25294 38.411C4.28046 38.3663 4.33776 38.3297 4.37985 38.3297ZM6.57388 9.22982C6.45668 9.37097 6.40941 9.38587 6.40941 9.28097C6.40941 9.24083 6.46963 9.18515 6.54312 9.15698C6.65481 9.11425 6.65999 9.12622 6.57388 9.22982ZM51.4246 24.2536C51.3434 24.2034 51.3414 24.1733 51.4152 24.1276C51.4434 24.1117 51.476 24.1052 51.5081 24.1091C51.5402 24.1129 51.5703 24.1269 51.5939 24.149C51.6998 24.2549 51.5635 24.3394 51.4246 24.2536Z" fill="#010101"/>
</svg>
