<svg width="100" height="97" viewBox="0 0 100 97" fill="none" xmlns="http://www.w3.org/2000/svg">
<path d="M63.476 85.3752C34.7779 109.044 11.3461 93.0083 6.19823 69.044C1.05034 45.0796 -8.23955 22.772 15.3698 3.60056C24.6597 -3.97335 49.7483 2.18045 58.5648 5.90824C81.8782 15.7898 103.239 18.2159 98.8012 33.7779C92.7658 54.902 81.5232 70.4641 63.476 85.3752Z" fill="#F8D71C"/>
<g transform="translate(25, 19)">
<path d="M31.0452 51.8461C30.8889 51.846 30.739 51.7838 30.6285 51.6733C30.518 51.5627 30.4559 51.4128 30.4559 51.2565V41.1413C30.454 40.9885 30.4346 37.1837 32.9682 33.8754C33.9901 32.5404 34.6937 31.2536 35.1195 29.94C36.2781 26.3678 37.9106 17.491 28.0752 12.2339C27.9776 12.1842 17.4793 6.90803 9.58178 14.1533C8.0798 15.5315 7.02206 17.2364 6.52291 19.0828C6.04024 20.8674 5.91585 22.7849 6.15428 24.7808C6.18433 25.0299 6.22762 25.2751 6.27123 25.5213L6.28028 25.573C6.41436 26.3335 6.59011 28.3088 5.33109 30.2237L3.14517 33.4018C3.10381 33.5152 3.03984 33.7736 3.12966 33.9432C3.22044 34.1145 3.48278 34.1994 3.69536 34.2405C3.83202 34.2543 4.32471 34.3157 4.74115 34.4944C4.88397 34.5559 5.01034 34.6502 5.11011 34.7695C5.20988 34.8888 5.28025 35.0298 5.31558 35.1812C5.35036 35.3321 5.34934 35.4889 5.31259 35.6393C5.27584 35.7896 5.20439 35.9293 5.10397 36.0471C5.06912 36.0855 5.03957 36.1284 5.01609 36.1747C5.03774 36.1963 5.08232 36.2335 5.16761 36.2797C5.28628 36.3434 5.39089 36.4304 5.47523 36.5354C5.55957 36.6404 5.6219 36.7613 5.6585 36.8909C5.6951 37.0205 5.70523 37.1562 5.68827 37.2898C5.67132 37.4234 5.62764 37.5522 5.55983 37.6686C5.48746 37.792 5.47841 37.8647 5.48035 37.8812C5.48229 37.8812 5.54432 37.9661 5.82442 38.0495C6.32422 38.1991 6.62759 38.6905 6.53002 39.1932C6.42631 39.7253 6.14847 41.5319 6.90414 42.4346C7.2327 42.8265 7.73961 43.0122 8.42679 43.0074L10.9888 42.757C13.1098 42.549 15.0718 44.0202 15.4436 46.1054C15.6863 47.4626 15.809 49.1959 15.809 51.2565C15.809 51.4127 15.747 51.5626 15.6364 51.6731C15.5259 51.7837 15.376 51.8457 15.2198 51.8457C15.0635 51.8457 14.9136 51.7837 14.8031 51.6731C14.6925 51.5626 14.6305 51.4127 14.6305 51.2565C14.6305 49.265 14.5135 47.6018 14.2835 46.3125C14.0189 44.8282 12.6248 43.7812 11.1025 43.9304L8.46846 44.186C7.40813 44.1905 6.56717 43.8687 6.00082 43.1919C5.02934 42.0317 5.15243 40.2141 5.34272 39.1321C4.85197 38.9573 4.52986 38.6814 4.38319 38.3109C4.28982 38.0741 4.23393 37.7019 4.45911 37.2295C4.1131 37.0053 3.90665 36.7226 3.84592 36.3876C3.80682 36.1724 3.81748 35.8581 4.04428 35.5004C3.88514 35.4591 3.72316 35.4296 3.55967 35.4122L3.50733 35.4051C2.64117 35.2472 2.25348 34.8158 2.08096 34.4818C1.70232 33.7468 2.05091 32.9569 2.09194 32.869L2.14041 32.7844L4.35443 29.5659C5.37406 28.0148 5.22997 26.4001 5.1198 25.7785L5.11107 25.7271C5.06124 25.4598 5.019 25.1911 4.98443 24.9214C4.72791 22.7742 4.86295 20.7062 5.38536 18.7752C5.94364 16.713 7.11931 14.8143 8.78572 13.2849C17.2974 5.47617 28.511 11.1329 28.6235 11.1907C39.5495 17.0306 37.216 27.2969 36.2406 30.3044C35.7731 31.7473 35.0084 33.1501 33.9038 34.5929C31.6258 37.5672 31.6342 41.0993 31.6345 41.1349V51.2565C31.6345 51.4128 31.5724 51.5627 31.4619 51.6733C31.3514 51.7838 31.2015 51.846 31.0452 51.8461Z" fill="black" />
<path d="M22.2228 35.7177C21.571 35.7176 20.9402 35.4873 20.4417 35.0673C20.1196 35.339 19.7396 35.5334 19.3309 35.6356C18.9221 35.7378 18.4953 35.7451 18.0833 35.6569C17.671 35.5696 17.2841 35.3892 16.9522 35.1295C16.6202 34.8698 16.3521 34.5377 16.1681 34.1585C15.7633 34.2755 15.3371 34.2983 14.9221 34.2252C14.5071 34.1521 14.1143 33.9851 13.7738 33.7369C13.4327 33.4893 13.1526 33.1671 12.955 32.7948C12.7573 32.4226 12.6473 32.0101 12.6333 31.5888C11.7998 31.4728 11.0509 30.9808 10.6173 30.229C10.1838 29.4772 10.1327 28.5823 10.449 27.8024C10.0914 27.5794 9.78944 27.2778 9.56605 26.9205C9.34266 26.5632 9.20377 26.1596 9.15995 25.7405C9.11552 25.3212 9.16742 24.8972 9.31171 24.501C9.45599 24.1047 9.68884 23.7467 9.99251 23.4541C9.75634 23.105 9.60301 22.7065 9.54422 22.2891C9.48543 21.8717 9.52274 21.4464 9.65329 21.0456C9.78309 20.6446 10.0028 20.2786 10.2955 19.9754C10.5883 19.6722 10.9464 19.4399 11.3426 19.2961C11.2689 18.8811 11.2909 18.4548 11.4068 18.0496C11.5227 17.6443 11.7296 17.2709 12.0117 16.9577C12.2931 16.6439 12.6425 16.3987 13.0333 16.2409C13.4241 16.0831 13.8458 16.0169 14.2661 16.0473C14.3675 15.6383 14.5609 15.2579 14.8315 14.9349C15.1021 14.6119 15.4428 14.3549 15.8277 14.1835C16.2126 14.0121 16.6316 13.9307 17.0527 13.9456C17.4737 13.9605 17.8859 14.0712 18.2577 14.2694C18.5164 13.9368 18.8477 13.6677 19.2262 13.4826C19.6048 13.2976 20.0207 13.2015 20.442 13.2017C20.8634 13.2014 21.2793 13.2975 21.6579 13.4826C22.0364 13.6676 22.3677 13.9368 22.6263 14.2694C22.9982 14.0714 23.4104 13.9607 23.8314 13.9459C24.2525 13.9311 24.6714 14.0125 25.0563 14.184C25.4411 14.3554 25.7818 14.6124 26.0524 14.9354C26.3231 15.2583 26.5165 15.6387 26.6179 16.0476C27.0383 16.0171 27.46 16.0833 27.8508 16.2411C28.2416 16.3989 28.5911 16.6442 28.8723 16.958C29.1545 17.2712 29.3615 17.6447 29.4774 18.05C29.5934 18.4553 29.6153 18.8817 29.5414 19.2968C29.9377 19.4405 30.2958 19.6728 30.5886 19.976C30.8814 20.2792 31.101 20.6452 31.2308 21.0462C31.3614 21.447 31.3987 21.8723 31.3399 22.2897C31.2811 22.7072 31.1277 23.1056 30.8916 23.4548C31.1952 23.7472 31.428 24.1052 31.5723 24.5013C31.7166 24.8974 31.7685 25.3213 31.7241 25.7405C31.6803 26.1596 31.5414 26.5633 31.318 26.9206C31.0946 27.278 30.7926 27.5797 30.435 27.8027C30.5935 28.1934 30.6607 28.6151 30.6314 29.0357C30.6021 29.4563 30.4772 29.8647 30.2661 30.2296C30.0559 30.5948 29.765 30.9072 29.4156 31.1428C29.0663 31.3785 28.6678 31.5313 28.2504 31.5894C28.2363 32.0108 28.1262 32.4234 27.9285 32.7957C27.7307 33.168 27.4505 33.4903 27.1093 33.7379C26.7688 33.986 26.3761 34.153 25.9612 34.226C25.5462 34.299 25.1201 34.2761 24.7153 34.1592C24.4885 34.627 24.1343 35.0215 23.6934 35.2971C23.2525 35.5728 22.7428 35.7186 22.2228 35.7177ZM20.4417 33.1799L20.9231 33.8629C21.1027 34.1176 21.3531 34.314 21.6432 34.4278C21.9333 34.5417 22.2504 34.568 22.5553 34.5036C22.8603 34.4388 23.1395 34.2858 23.3582 34.0637C23.577 33.8415 23.7256 33.5599 23.7855 33.2539L23.9474 32.4333L24.6653 32.8617C24.9326 33.0219 25.2412 33.0998 25.5525 33.0858C25.8638 33.0718 26.1641 32.9664 26.416 32.7829C26.6685 32.5998 26.8616 32.3465 26.9712 32.0545C27.0809 31.7625 27.1023 31.4447 27.0328 31.1407L26.8473 30.3256L27.6766 30.4244C27.9863 30.4629 28.3004 30.4089 28.5794 30.2693C28.8585 30.1296 29.09 29.9106 29.2448 29.6397C29.4009 29.3697 29.4741 29.0598 29.4556 28.7485C29.437 28.4372 29.3275 28.1382 29.1405 27.8886L28.6397 27.2192L29.4384 26.9717C29.7363 26.8798 30.0007 26.7023 30.1986 26.4613C30.3966 26.2204 30.5193 25.9266 30.5517 25.6164C30.5845 25.3063 30.5254 24.9934 30.3819 24.7166C30.2384 24.4397 30.0167 24.2111 29.7443 24.0592L29.0148 23.6515L29.6435 23.101C29.8784 22.8957 30.0478 22.6261 30.1307 22.3254C30.2137 22.0248 30.2066 21.7064 30.1102 21.4098C30.0139 21.1131 29.8326 20.8513 29.5888 20.6568C29.345 20.4622 29.0495 20.3435 28.7389 20.3154L27.9073 20.2398L28.2575 19.4809C28.3884 19.198 28.4335 18.8829 28.387 18.5747C28.3405 18.2664 28.2045 17.9786 27.996 17.7469C27.7875 17.5152 27.5155 17.3498 27.2139 17.2712C26.9122 17.1926 26.5941 17.2042 26.299 17.3047L25.5078 17.5745L25.5198 16.7384C25.5248 16.4266 25.4381 16.1203 25.2704 15.8574C25.1027 15.5945 24.8615 15.3867 24.5767 15.2598C24.2919 15.1329 23.9761 15.0925 23.6685 15.1436C23.3609 15.1947 23.0751 15.335 22.8467 15.5472L22.2335 16.1155L21.9043 15.3469C21.7819 15.0601 21.578 14.8156 21.3179 14.6438C21.0577 14.472 20.7528 14.3803 20.4411 14.3803C20.1293 14.3803 19.8244 14.472 19.5643 14.6438C19.3041 14.8156 19.1002 15.0601 18.9779 15.3469L18.6486 16.1155L18.0355 15.5472C17.8069 15.3352 17.5212 15.195 17.2136 15.1439C16.9061 15.0929 16.5904 15.1334 16.3056 15.2603C16.0209 15.3872 15.7797 15.5949 15.612 15.8577C15.4443 16.1204 15.3575 16.4267 15.3623 16.7384L15.3743 17.5745L14.5831 17.3047C14.288 17.2039 13.9697 17.192 13.6679 17.2705C13.3661 17.349 13.094 17.5144 12.8854 17.7462C12.6768 17.978 12.5408 18.266 12.4945 18.5744C12.4481 18.8828 12.4934 19.198 12.6246 19.4809L12.9748 20.2398L12.1432 20.3154C11.8326 20.3435 11.5371 20.4622 11.2933 20.6568C11.0495 20.8513 10.8682 21.1131 10.7719 21.4098C10.6756 21.7064 10.6684 22.0248 10.7514 22.3254C10.8344 22.6261 11.0038 22.8957 11.2386 23.101L11.8673 23.6515L11.1378 24.0592C10.8655 24.2113 10.6438 24.44 10.5003 24.717C10.3567 24.9939 10.2977 25.3069 10.3305 25.6171C10.363 25.9271 10.4858 26.2208 10.6837 26.4617C10.8816 26.7025 11.1459 26.88 11.4438 26.9721L12.2424 27.2195L11.7416 27.8889C11.5545 28.1384 11.4447 28.4374 11.426 28.7487C11.4073 29.06 11.4804 29.37 11.6363 29.6401C11.7921 29.9102 12.0239 30.1286 12.3028 30.2682C12.5818 30.4077 12.8955 30.4623 13.2052 30.4251L14.0345 30.3262L13.8491 31.1413C13.7795 31.4453 13.8009 31.763 13.9105 32.0549C14.0201 32.3469 14.2131 32.6001 14.4655 32.7832C14.7174 32.9669 15.0178 33.0723 15.3293 33.0864C15.6407 33.1005 15.9494 33.0225 16.2169 32.8624L16.9347 32.434L17.0966 33.2546C17.1566 33.5605 17.3052 33.8421 17.5239 34.0643C17.7426 34.2865 18.0219 34.4395 18.3269 34.5042C18.6318 34.5687 18.9489 34.5423 19.239 34.4284C19.5291 34.3145 19.7795 34.118 19.959 33.8632L20.4417 33.1799Z" fill="black"/>
<path d="M14.3709 27.6558C14.2145 27.6558 14.0645 27.5937 13.9539 27.4831C13.8434 27.3725 13.7812 27.2226 13.7812 27.0662C13.7812 26.9098 13.8434 26.7598 13.9539 26.6493C14.0645 26.5387 14.2145 26.4766 14.3709 26.4766C14.753 26.476 15.1192 26.3238 15.3893 26.0535C15.6594 25.7832 15.8112 25.4168 15.8114 25.0347C15.8114 24.8176 15.7627 24.6066 15.6661 24.4073L15.132 23.3043L16.3264 23.5754C16.633 23.6497 16.9553 23.6227 17.2453 23.4985C17.7409 23.2911 18.1143 22.8552 18.2187 22.3619C18.2809 22.0704 18.258 21.7672 18.1528 21.4883L17.8452 20.6548L18.8422 20.7016C18.9191 20.7016 18.9947 20.6987 19.0697 20.6916C19.7116 20.6322 20.1868 20.2212 20.3429 19.5922C20.4689 19.0846 20.3678 18.3296 19.668 17.8718C18.5288 17.1258 17.9011 16.1821 17.8513 15.1428C17.8451 15.064 17.8547 14.9848 17.8796 14.9099C17.9046 14.8349 17.9443 14.7657 17.9965 14.7064C18.0487 14.6471 18.1123 14.5989 18.1835 14.5646C18.2547 14.5304 18.332 14.5108 18.411 14.507C18.4899 14.5033 18.5688 14.5154 18.6429 14.5427C18.717 14.57 18.7849 14.6119 18.8425 14.666C18.9002 14.7201 18.9463 14.7851 18.9783 14.8574C19.0103 14.9297 19.0274 15.0076 19.0286 15.0866C19.0593 15.7421 19.4916 16.3472 20.3128 16.8848C21.3141 17.5397 21.7751 18.7137 21.4866 19.8762C21.2284 20.9161 20.4492 21.6473 19.4247 21.8321C19.4441 22.0892 19.4267 22.348 19.3714 22.6071C19.185 23.4862 18.5605 24.2264 17.7001 24.5866C17.4694 24.6839 17.2261 24.7483 16.9774 24.7779C16.9858 24.8631 16.9897 24.9491 16.9897 25.0353C16.9897 26.4798 15.8147 27.6558 14.3709 27.6558Z" fill="black"/>
<path d="M18.839 21.8807C18.7738 21.8807 18.7075 21.8698 18.6426 21.8468C18.5547 21.8155 16.478 21.0582 15.6862 18.8193C15.6603 18.7463 15.6491 18.669 15.6531 18.5917C15.6572 18.5144 15.6764 18.4387 15.7097 18.3689C15.7431 18.299 15.7898 18.2364 15.8473 18.1846C15.9048 18.1328 15.972 18.0929 16.0449 18.067C16.1179 18.0412 16.1952 18.03 16.2725 18.034C16.3498 18.0381 16.4255 18.0573 16.4954 18.0906C16.5652 18.1239 16.6278 18.1707 16.6796 18.2282C16.7314 18.2857 16.7714 18.3528 16.7972 18.4258C17.4033 20.14 19.019 20.729 19.0355 20.7348C19.1665 20.7813 19.277 20.8725 19.3473 20.9925C19.4176 21.1125 19.4433 21.2534 19.4198 21.3905C19.3963 21.5275 19.3251 21.6519 19.2189 21.7416C19.1126 21.8313 18.9781 21.8806 18.839 21.8807Z" fill="black"/>
<path d="M22.3225 20.5498C21.8152 20.5498 21.2851 20.4597 20.7339 20.2791C20.5874 20.2287 20.4666 20.1227 20.3976 19.984C20.3286 19.8453 20.317 19.685 20.3653 19.5378C20.4135 19.3906 20.5178 19.2683 20.6555 19.1974C20.7932 19.1264 20.9533 19.1125 21.1012 19.1587C22.043 19.4675 22.884 19.4349 23.6025 19.063C24.9888 18.3452 25.5435 16.5918 25.549 16.5744C25.595 16.4252 25.6982 16.3003 25.8361 16.2271C25.974 16.1539 26.1353 16.1383 26.2846 16.1838C26.4338 16.2293 26.5589 16.3322 26.6323 16.4698C26.7057 16.6074 26.7215 16.7686 26.6762 16.9178C26.6487 17.0089 25.9806 19.1538 24.1527 20.1059C23.5878 20.4006 22.9596 20.553 22.3225 20.5498Z" fill="black"/>
<path d="M20.179 32.2239C20.0582 32.2239 19.9404 32.1867 19.8414 32.1175C19.7425 32.0483 19.6672 31.9503 19.6259 31.8368C18.8415 29.6964 19.8049 27.833 20.4494 26.9125C20.8461 26.3449 21.3211 25.8897 21.8606 25.5604C23.6986 24.4381 25.6409 24.8794 26.6188 25.2332C27.3958 23.3322 29.1682 22.8983 30.0706 22.9555C30.2266 22.9651 30.3725 23.0362 30.4761 23.1532C30.5798 23.2702 30.6327 23.4236 30.6233 23.5797C30.6036 23.9034 30.3365 24.156 30.003 24.1325C29.8079 24.1247 28.0601 24.1024 27.5525 26.1685L27.3713 26.9067L26.7022 26.5474C26.6809 26.5365 24.4303 25.3714 22.4751 26.5671C22.0751 26.8114 21.7184 27.1551 21.4151 27.589C20.789 28.4833 20.1625 29.8754 20.7331 31.431C20.7657 31.5202 20.7764 31.6159 20.7641 31.7101C20.7519 31.8042 20.7171 31.894 20.6627 31.9719C20.6083 32.0497 20.5359 32.1132 20.4517 32.1571C20.3675 32.201 20.2739 32.2239 20.179 32.2239Z" fill="black"/>
<path d="M23.9387 26.0544C23.7849 26.0542 23.6374 25.9939 23.5274 25.8865C23.4175 25.7791 23.3538 25.633 23.35 25.4793C23.2176 20.1108 28.6833 19.0433 28.7386 19.033C28.8147 19.0187 28.8929 19.0197 28.9687 19.0358C29.0445 19.0519 29.1163 19.0828 29.1801 19.1268C29.2438 19.1708 29.2983 19.227 29.3402 19.2921C29.3821 19.3573 29.4108 19.43 29.4245 19.5063C29.4528 19.6599 29.4189 19.8185 29.3303 19.9472C29.2418 20.0758 29.1057 20.1641 28.9521 20.1925C28.757 20.2297 24.4207 21.1023 24.5286 25.4502C24.5323 25.6064 24.4739 25.7577 24.3663 25.8709C24.2586 25.9841 24.1104 26.05 23.9542 26.054L23.9387 26.0544Z" fill="black"/>
<path d="M13.2757 31.5986C13.1647 31.5984 13.056 31.5669 12.9622 31.5076C12.8683 31.4484 12.7931 31.3638 12.7452 31.2637C12.6973 31.1635 12.6786 31.0519 12.6914 30.9416C12.7042 30.8314 12.7478 30.727 12.8173 30.6404C12.8467 30.6039 15.796 27.0229 20.2464 28.5669C20.3941 28.6181 20.5155 28.7258 20.5837 28.8664C20.652 29.0071 20.6616 29.169 20.6105 29.3168C20.5593 29.4645 20.4516 29.5858 20.311 29.6541C20.1704 29.7224 20.0084 29.732 19.8606 29.6809C16.208 28.4125 13.833 31.2594 13.7339 31.3812C13.6785 31.4492 13.6086 31.504 13.5293 31.5416C13.4501 31.5792 13.3635 31.5987 13.2757 31.5986Z" fill="black"/>
<path d="M24.3642 33.9578C24.2502 33.9578 24.1351 33.9249 24.0337 33.8561C23.9733 33.815 22.5576 32.8316 22.5508 30.9222C22.5495 30.4781 22.667 30.0417 22.8911 29.6583C23.1152 29.2749 23.4378 28.9583 23.8253 28.7415C24.5962 28.3095 25.5011 28.3266 26.2445 28.787C26.5207 28.9579 26.6251 29.332 26.4548 29.6086C26.2855 29.8858 25.9411 29.985 25.6646 29.8144L25.621 29.7869C25.2446 29.5543 24.7984 29.5475 24.4007 29.7701C24.1955 29.8829 24.0246 30.0492 23.9063 30.2513C23.7881 30.4534 23.7268 30.6838 23.729 30.918C23.7336 32.2119 24.686 32.8739 24.6957 32.8804C24.7998 32.9513 24.8785 33.0538 24.9202 33.1728C24.9619 33.2917 24.9644 33.4209 24.9273 33.5414C24.8903 33.6618 24.8156 33.7673 24.7143 33.8422C24.6129 33.9171 24.4903 33.9577 24.3642 33.9578Z" fill="black"/>
<path d="M21.3718 27.3001C21.2243 27.2999 21.0823 27.2444 20.9737 27.1446C20.8652 27.0448 20.798 26.9079 20.7855 26.7609C20.5729 24.2739 18.365 24.0138 18.271 24.0038C18.1159 23.9875 17.9736 23.9105 17.8751 23.7897C17.7766 23.6689 17.7298 23.5141 17.745 23.3589C17.7773 23.0362 18.0568 22.801 18.3847 22.8301C19.5171 22.9367 21.7211 23.8746 21.9592 26.6604C21.9658 26.7375 21.9572 26.8152 21.9339 26.889C21.9105 26.9628 21.8728 27.0312 21.823 27.0905C21.7731 27.1497 21.7121 27.1985 21.6434 27.2342C21.5747 27.2698 21.4997 27.2916 21.4226 27.2982C21.4054 27.2992 21.3883 27.3001 21.3718 27.3001Z" fill="black"/>
<path d="M16.1923 24.7401C16.108 24.7401 16.023 24.722 15.9416 24.6835C15.8864 24.6574 14.5815 24.0335 13.6772 22.9086C13.6287 22.8483 13.5925 22.7791 13.5707 22.7048C13.5489 22.6305 13.542 22.5527 13.5503 22.4758C13.5586 22.3989 13.5819 22.3243 13.619 22.2564C13.6561 22.1885 13.7063 22.1286 13.7665 22.08C13.8268 22.0315 13.896 21.9953 13.9703 21.9735C14.0445 21.9517 14.1224 21.9448 14.1993 21.9531C14.2762 21.9614 14.3508 21.9848 14.4187 22.0219C14.4866 22.059 14.5465 22.1091 14.5951 22.1694C15.3313 23.0856 16.4333 23.6119 16.4443 23.6171C16.7383 23.756 16.8647 24.1075 16.7261 24.4018C16.6783 24.503 16.6028 24.5885 16.5083 24.6484C16.4138 24.7083 16.3042 24.7401 16.1923 24.7401Z" fill="black"/>
<path d="M20.9643 5.94347C20.808 5.94338 20.6581 5.88122 20.5476 5.77066C20.4371 5.6601 20.375 5.51018 20.375 5.35386V0.743585C20.375 0.587296 20.4371 0.437408 20.5476 0.326895C20.6581 0.216382 20.808 0.154297 20.9643 0.154297C21.1206 0.154297 21.2705 0.216382 21.381 0.326895C21.4915 0.437408 21.5536 0.587296 21.5536 0.743585V5.35386C21.5536 5.51018 21.4915 5.6601 21.381 5.77066C21.2705 5.88122 21.1206 5.94338 20.9643 5.94347Z" fill="black"/>
<path d="M14.6552 7.05623C14.4146 7.05623 14.1884 6.90762 14.1015 6.66822L12.4066 2.00917C12.3802 1.93645 12.3683 1.85922 12.3717 1.78191C12.375 1.70459 12.3936 1.6287 12.4263 1.55856C12.459 1.48842 12.5052 1.4254 12.5622 1.37312C12.6193 1.32083 12.6861 1.28029 12.7588 1.25382C12.8315 1.22734 12.9087 1.21545 12.9861 1.21882C13.0634 1.22219 13.1393 1.24075 13.2094 1.27345C13.2795 1.30616 13.3426 1.35235 13.3948 1.4094C13.4471 1.46646 13.4877 1.53325 13.5141 1.60597L15.209 6.26502C15.2414 6.35407 15.2519 6.44961 15.2395 6.54355C15.2271 6.63749 15.1923 6.72707 15.138 6.8047C15.0836 6.88233 15.0114 6.94572 14.9274 6.98951C14.8433 7.03329 14.75 7.05618 14.6552 7.05623Z" fill="black"/>
<path d="M8.74888 9.90227C8.66272 9.90235 8.57759 9.88354 8.4995 9.84714C8.4214 9.81074 8.35224 9.75766 8.2969 9.69162L5.19635 5.99371C5.09595 5.87394 5.04721 5.71921 5.06084 5.56352C5.07447 5.40783 5.14936 5.26392 5.26904 5.16341C5.32831 5.11362 5.39682 5.076 5.47064 5.0527C5.54446 5.0294 5.62215 5.02088 5.69926 5.02763C5.77638 5.03439 5.85141 5.05627 5.92006 5.09204C5.98871 5.12782 6.04963 5.17677 6.09935 5.2361L9.19989 8.93401C9.27189 9.01996 9.31789 9.12464 9.33251 9.2358C9.34712 9.34696 9.32974 9.45998 9.2824 9.56162C9.23506 9.66325 9.15973 9.74927 9.06523 9.80961C8.97073 9.86995 8.86099 9.90209 8.74888 9.90227Z" fill="black"/>
<path d="M4.9772 13.8365C4.87737 13.8365 4.77593 13.8113 4.68321 13.7576L0.294887 11.2225C0.227832 11.1838 0.169054 11.1322 0.12191 11.0708C0.0747664 11.0094 0.040179 10.9393 0.0201239 10.8646C6.86948e-05 10.7898 -0.00506149 10.7118 0.00502534 10.635C0.0151122 10.5583 0.0402189 10.4843 0.078912 10.4172C0.117605 10.3501 0.169127 10.2914 0.230536 10.2442C0.291944 10.1971 0.362038 10.1625 0.436814 10.1424C0.511589 10.1224 0.589583 10.1173 0.666342 10.1273C0.7431 10.1374 0.81712 10.1625 0.884175 10.2012L5.2725 12.7364C5.40779 12.8147 5.50649 12.9435 5.54695 13.0945C5.58741 13.2455 5.56632 13.4064 5.48831 13.5418C5.43647 13.6315 5.36195 13.7059 5.27223 13.7576C5.18251 13.8093 5.08076 13.8365 4.9772 13.8365Z" fill="black"/>
<path d="M37.6559 14.8118C37.5261 14.8118 37.4 14.769 37.2971 14.69C37.1941 14.611 37.1201 14.5002 37.0865 14.3749C37.0529 14.2496 37.0616 14.1167 37.1112 13.9968C37.1608 13.8769 37.2486 13.7767 37.3609 13.7117L41.1167 11.542C41.1837 11.5032 41.2577 11.4781 41.3344 11.4679C41.4112 11.4578 41.4892 11.4629 41.564 11.483C41.6387 11.503 41.7088 11.5376 41.7702 11.5848C41.8316 11.6319 41.8831 11.6907 41.9218 11.7578C41.9998 11.8933 42.0209 12.0541 41.9804 12.2051C41.94 12.3561 41.8413 12.4849 41.706 12.5632L37.9502 14.733C37.8608 14.7847 37.7592 14.8119 37.6559 14.8118Z" fill="black"/>
<path d="M33.5609 10.3099C33.4488 10.3095 33.3392 10.2772 33.2448 10.2168C33.1504 10.1564 33.0751 10.0704 33.0278 9.96877C32.9805 9.86718 32.9631 9.75423 32.9776 9.64311C32.9922 9.53199 33.038 9.42731 33.1098 9.34129L36.1154 5.7571C36.1651 5.69776 36.226 5.64881 36.2947 5.61304C36.3633 5.57727 36.4384 5.55538 36.5155 5.54863C36.5926 5.54188 36.6703 5.5504 36.7441 5.57369C36.8179 5.59699 36.8864 5.63461 36.9457 5.68441C37.1948 5.89376 37.2274 6.2653 37.0184 6.51503L34.0128 10.0992C33.9576 10.1654 33.8884 10.2185 33.8103 10.2549C33.7322 10.2913 33.647 10.3101 33.5609 10.3099Z" fill="black"/>
<path d="M27.2729 7.41549C27.1781 7.41544 27.0848 7.39255 27.0008 7.34877C26.9167 7.30498 26.8445 7.24159 26.7901 7.16396C26.7358 7.08633 26.701 6.99675 26.6886 6.90281C26.6763 6.80886 26.6867 6.71333 26.7191 6.62428L28.4036 1.99269C28.4301 1.91997 28.4707 1.85318 28.5229 1.79612C28.5752 1.73907 28.6382 1.69287 28.7084 1.66017C28.7785 1.62747 28.8544 1.60891 28.9317 1.60554C29.009 1.60217 29.0863 1.61406 29.159 1.64054C29.2317 1.66701 29.2985 1.70755 29.3556 1.75984C29.4126 1.81212 29.4588 1.87514 29.4915 1.94528C29.5242 2.01542 29.5428 2.09131 29.5461 2.16863C29.5495 2.24594 29.5376 2.32316 29.5111 2.39588L27.8266 7.02748C27.7853 7.14114 27.71 7.23934 27.6109 7.30875C27.5118 7.37816 27.3938 7.41543 27.2729 7.41549Z" fill="black"/>
</g>
</svg>
