<svg width="127" height="45" viewBox="0 0 127 45" fill="none" xmlns="http://www.w3.org/2000/svg">
<path d="M4.0423 9.36871C6.0669 9.09183 6.88578 11.193 7.19801 12.817C7.68306 15.3345 7.83819 17.8952 8.63743 20.3499C8.93003 21.2473 9.40329 22.0721 10.3066 22.4668C10.8113 22.6867 11.367 22.7457 11.9129 22.8144C12.4589 22.8831 13.0166 22.9656 13.4996 23.2268C14.3912 23.7059 14.6013 24.7114 14.4246 25.6461C13.5271 30.363 5.86857 30.8048 2.62448 28.5014C1.56799 27.7512 0.900325 26.5514 0.548817 25.3044C-0.405557 21.9052 0.0598469 18.1486 0.627366 14.7199C0.784464 13.7655 1.03386 12.5598 1.51694 11.5327C2.0334 10.4331 2.81693 9.53759 4.0423 9.37068V9.36871ZM15.699 16.4382C15.2081 18.5531 15.1295 20.7917 15.5242 22.9204C16.0112 25.5459 16.8066 27.9535 19.4203 29.118C21.9555 30.2471 25.1053 30.2393 27.6837 29.2672C33.3353 27.1366 32.3122 19.7137 31.1457 15.038C30.8472 13.8401 30.0716 11.521 28.3729 12.0708C26.2011 12.7738 27.014 16.8348 27.0631 18.4844C27.1142 20.1948 27.2104 25.0766 24.4121 24.6721C22.362 24.3756 22.2422 21.6303 22.0831 20.0514C21.8612 17.8638 22.2049 11.6525 18.6996 12.0983C17.0992 12.3025 16.2508 14.39 15.8718 15.7567C15.809 15.9826 15.752 16.2104 15.699 16.4401V16.4382ZM35.1773 12.3752C34.7315 13.3492 34.433 14.3428 34.3014 15.0714C33.675 18.4981 33.6102 22.3843 35.3854 25.5008C37.6123 29.4125 41.8304 30.2452 46.0112 29.9447C47.9396 29.8053 49.8542 29.4282 51.2249 27.9613C52.7389 26.3393 53.0256 24.081 53.2063 21.9562C53.495 18.5452 53.1631 15.0812 52.2146 11.792C51.9633 10.924 51.655 10.0383 51.0383 9.37657C50.4217 8.71479 49.4222 8.33186 48.5876 8.67944C46.9675 9.353 47.0618 11.2794 47.1384 12.7267C47.2542 14.8927 47.3347 17.0626 47.2248 19.2286C47.1619 20.4874 47.1443 22.3549 46.0151 23.1796C44.4854 24.297 42.9831 23.0363 42.4588 21.5576C41.7106 19.4486 41.905 17.2001 41.9364 15.0066C41.9639 13.141 42.1387 10.329 40.2162 9.29213C37.9344 8.06283 36.1827 10.1719 35.1773 12.3752ZM72.4155 17.6203C73.0184 17.5673 73.582 17.9875 73.8824 18.5119C74.1829 19.0362 74.2732 19.6528 74.3577 20.2517C74.5756 21.7952 74.7347 23.3171 74.8663 24.8685C75.0096 26.5474 75.2983 29.5029 77.4113 29.9329C78.0161 30.0566 78.6484 29.7974 79.1158 29.3949C80.51 28.195 81.2936 26.031 81.7374 24.3009C82.4934 21.3534 82.572 17.7813 80.8066 15.1598C79.8345 13.7184 78.3362 12.6403 76.6592 12.1808C71.579 10.7846 67.0035 15.3876 61.9135 13.7989C60.8472 13.4651 59.8496 12.762 58.7342 12.8308C56.1362 12.9918 55.3998 17.9974 55.229 20.0239C55.064 21.9896 55.2663 23.9887 55.8416 25.8778C56.254 27.2308 57.0002 29.9545 58.8402 29.8661C59.6454 29.8269 60.3052 29.1474 60.5683 28.3855C61.2478 26.4237 60.5605 24.1497 61.1575 22.0996C61.291 21.6381 61.4618 21.1766 61.7584 20.7957C62.0549 20.4147 62.4908 20.1221 62.9719 20.0966C63.6396 20.0593 64.2484 20.5482 64.5586 21.1413C64.8689 21.7343 64.9416 22.4197 65.0103 23.0854C65.1399 24.35 65.2086 25.6579 65.5523 26.8911C65.89 28.1008 66.8641 29.5088 68.3054 29.2319C69.6604 28.9707 70.0983 27.4625 70.2731 26.2784C70.5421 24.4679 70.6089 22.6102 70.8131 20.7878C70.8308 20.6248 70.8465 20.4442 70.8642 20.2537C70.9624 19.1599 71.1352 17.7381 72.4136 17.6262L72.4155 17.6203ZM84.6967 18.1918C84.141 20.9803 84.2725 23.9003 85.0738 26.628C85.3133 27.4409 85.6216 28.2579 86.1872 28.8882C87.4499 30.3021 89.6846 29.9977 90.6115 28.3835C91.0219 27.6668 91.1829 26.8361 91.3008 26.0172C91.6149 23.8576 91.6913 21.67 91.5285 19.4937C91.4186 18.0386 91.1652 16.5049 90.2168 15.3954C89.39 14.4292 87.7071 13.8421 86.5721 14.6335C85.5176 15.3699 84.9363 16.988 84.6967 18.1918ZM94.8924 12.7287C94.4172 14.0503 94.1698 15.5073 93.9891 16.7897C93.5315 20.0259 93.6317 23.6352 95.0849 26.6221C96.7874 30.1214 101.646 30.3021 103.961 29.5382C105.514 29.0257 107.258 27.8749 108.026 26.3864C108.299 25.8601 108.423 25.2357 108.258 24.6662C107.582 22.3274 104.856 23.1089 103.407 21.8109C101.606 20.1987 101.938 16.9193 101.654 14.7474C101.424 12.9938 100.844 9.68684 98.7138 9.26856C97.6986 9.06826 96.6892 9.71433 96.053 10.5312C95.5581 11.1655 95.183 11.9216 94.8944 12.7287H94.8924ZM123.912 15.0027C122.288 13.0448 119.478 12.112 116.988 12.4184C114.95 12.6697 113.234 13.7086 111.957 15.1755C109.338 18.1859 108.564 23.0009 110.63 26.5042C111.998 28.8234 114.858 29.8563 117.548 30.0174C120.725 30.2078 124.017 29.2181 125.291 26.084C126.711 22.5905 126.379 17.9758 123.91 15.0046L123.912 15.0027ZM116.886 21.752C116.411 21.1904 116.146 20.4638 116.12 19.7294C116.105 19.3013 116.171 18.8712 116.323 18.4686C117.422 15.5702 122.322 15.3993 122.773 18.7986C123.196 21.9818 119.162 24.4404 116.886 21.752ZM80.7555 6.08928C80.5277 7.92341 80.9401 9.79681 82.2204 11.0143C83.328 12.0708 84.9167 12.4852 86.4464 12.5323C90.8137 12.6678 96.2552 8.86403 94.3013 3.89383C93.4039 1.61393 90.2482 0.211828 87.929 0.0233095C84.1803 -0.281069 81.2091 2.43085 80.7555 6.08928ZM104.923 34.1333C104.309 33.9527 103.315 34.4259 102.256 36.5625C101.614 37.8585 101.333 39.7261 101.65 41.2853C102.097 43.5003 103.533 44.166 105.328 44.4822C106.368 44.6648 107.6 44.6943 108.833 44.4351C110.966 43.9874 113.122 42.5636 114.056 41.568C115.345 40.1973 115.861 38.9032 115.928 38.161C116.006 37.291 115.547 37.3872 114.777 37.9116C114.361 38.1943 113.791 38.6283 112.923 39.2135C111.187 40.3819 109.124 41.3697 106.895 40.327C104.666 39.2862 105.068 37.5875 105.324 36.1992C105.579 34.8108 105.544 34.3179 104.921 34.1353L104.923 34.1333ZM107.574 30.9148C107.309 31.4411 107.386 32.1264 107.763 32.58C108.14 33.0337 108.792 33.2281 109.351 33.0533C109.911 32.8785 110.341 32.3463 110.402 31.7572C110.463 31.1504 110.048 30.2884 109.424 30.1155C108.745 29.927 107.894 30.2805 107.574 30.9148ZM113.552 32.7646C113.047 33.2457 112.943 34.098 113.324 34.6832C113.705 35.2684 114.532 35.5158 115.17 35.2311C115.608 35.0347 115.938 34.6105 116.018 34.1373C116.101 33.6503 116.036 33.0022 115.435 32.5408C114.915 32.1421 114.009 32.3267 113.55 32.7666L113.552 32.7646Z" fill="url(#paint0_linear_7079_4408)"/>
<defs>
<linearGradient id="paint0_linear_7079_4408" x1="0.0214679" y1="19.855" x2="126.102" y2="23.0465" gradientUnits="userSpaceOnUse">
<stop stop-color="#07B5D3"/>
<stop offset="0.25" stop-color="#A654F6"/>
<stop offset="0.5" stop-color="#F77315"/>
<stop offset="0.62" stop-color="#CB688F"/>
<stop offset="0.75" stop-color="#3C81F5"/>
<stop offset="0.88" stop-color="#9EC07B"/>
<stop offset="1" stop-color="#FDCC1C"/>
</linearGradient>
</defs>
</svg>
