<svg width="54" height="71" viewBox="0 0 54 71" fill="none" xmlns="http://www.w3.org/2000/svg">
<path d="M18.1 70.2C14.6333 70.2 11.8667 70.0333 9.8 69.7C7.73333 69.3 6.13333 68.5333 5 67.4C3.86667 66.2 3.3 64.4333 3.3 62.1C3.3 59.6333 3.86667 57.6667 5 56.2C6.13333 54.7333 8.06667 52.9667 10.8 50.9L15 47.6C19.8 43.4667 23.4667 40 26 37.2C28.5333 34.3333 29.8 31.5 29.8 28.7C29.8 26.9667 29.2667 25.5 28.2 24.3C27.2 23.1 25.9 22.5 24.3 22.5C22.5667 22.5 21.3 22.9 20.5 23.7C19.7667 24.5 19.1667 25.4333 18.7 26.5C18.3 27.5 18 28.2333 17.8 28.7C17.0667 30.3667 15.9333 31.5667 14.4 32.3C12.8667 33.0333 11.2333 33.4 9.5 33.4C6.83333 33.4 4.56667 32.4333 2.7 30.5C0.9 28.5667 3.72529e-08 25.7333 3.72529e-08 22C3.72529e-08 17.8667 1.23333 14.1333 3.7 10.8C6.16667 7.4 9.4 4.76667 13.4 2.9C17.4667 0.966663 21.7667 -4.76837e-06 26.3 -4.76837e-06C30.7 -4.76837e-06 34.8667 0.966663 38.8 2.9C42.8 4.76667 46.0333 7.56667 48.5 11.3C50.9667 14.9667 52.2 19.3333 52.2 24.4C52.2 29.1333 50.7333 33.9333 47.8 38.8C44.9333 43.6 41.3 47.3333 36.9 50C42.3 50 46.3667 50.7333 49.1 52.2C51.8333 53.6667 53.2 56.1333 53.2 59.6C53.2 62.5333 52.3333 64.7333 50.6 66.2C48.8667 67.6667 46.2333 68.6667 42.7 69.2C39.1667 69.7333 34.2 70.0333 27.8 70.1L18.1 70.2Z" fill="#FFB653"/>
</svg>
