<svg width="50" height="70" viewBox="0 0 50 70" fill="none" xmlns="http://www.w3.org/2000/svg">
<path d="M37.5 51.5C41.4333 51.9 44.4667 52.8333 46.6 54.3C48.7333 55.7 49.8 57.9333 49.8 61C49.8 63.5333 49.0667 65.4667 47.6 66.8C46.1333 68.0667 44.2 68.9 41.8 69.3C39.4667 69.6333 36.4 69.8 32.6 69.8H25.5H18.4C14.6 69.8 11.5 69.6333 9.1 69.3C6.76667 68.9 4.86667 68.0667 3.4 66.8C1.93333 65.4667 1.2 63.5333 1.2 61C1.2 57.4 2.6 54.9333 5.4 53.6C8.2 52.2 12.2 51.4 17.4 51.2C17.4 46.2667 17.3333 40.8 17.2 34.8L17.1 23.6C15.9 23.8 14.6 23.9 13.2 23.9C9.53333 23.9 6.4 23.1667 3.8 21.7C1.26667 20.2333 3.72529e-08 17.9 3.72529e-08 14.7C3.72529e-08 12.1667 1.06667 9.76667 3.2 7.5C5.4 5.23333 8.3 3.43333 11.9 2.1C15.5667 0.699996 19.4333 -4.76837e-06 23.5 -4.76837e-06C27.7 -4.76837e-06 31.0667 1.3 33.6 3.9C36.2 6.43333 37.5 10.0667 37.5 14.8V51.5Z" fill="#FFB653"/>
</svg>
