<svg width="48" height="70" viewBox="0 0 48 70" fill="none" xmlns="http://www.w3.org/2000/svg">
<path d="M24.2 69.9C20.4 69.9 16.6333 69.4333 12.9 68.5C9.16667 67.5667 6.06667 66.1333 3.6 64.2C1.2 62.2 3.72529e-08 59.8 3.72529e-08 57C3.72529e-08 54.9333 0.7 53.3333 2.1 52.2C3.5 51 5.33333 50.4 7.6 50.4C8.6 50.4 9.43333 50.5333 10.1 50.8C10.8333 51.0667 11.5 51.3667 12.1 51.7C12.7 51.9667 13.1 52.1667 13.3 52.3C14.3 52.9667 15.2333 53.5 16.1 53.9C17.0333 54.2333 18.1333 54.4 19.4 54.4C24.0667 54.4 26.4 52.6333 26.4 49.1C26.4 47.5 25.7667 46.2333 24.5 45.3C23.2333 44.3 21.3667 43.8 18.9 43.8C16.7 43.8 14.7333 43.3 13 42.3C11.2667 41.2333 10.4 39.5333 10.4 37.2C10.4 34.8667 11.2333 33.2333 12.9 32.3C14.6333 31.3667 16.7 30.9 19.1 30.9C21.0333 30.9 22.7333 30.4667 24.2 29.6C25.6667 28.6667 26.4 27.4 26.4 25.8C26.4 24.2667 25.8 22.9667 24.6 21.9C23.4 20.8333 21.8333 20.3 19.9 20.3C18.3 20.3 17.0333 20.4667 16.1 20.8C15.1667 21.0667 14.1667 21.5 13.1 22.1C12.3 22.5667 11.5 22.9333 10.7 23.2C9.96667 23.4667 9 23.6 7.8 23.6C5.33333 23.6 3.43333 22.9333 2.1 21.6C0.833334 20.2 0.2 18.1333 0.2 15.4C0.2 13 1.13333 10.6333 3 8.3C4.93333 5.89999 7.66667 3.93333 11.2 2.39999C14.8 0.799995 18.9333 -4.76837e-06 23.6 -4.76837e-06C28.1333 -4.76837e-06 32.2333 0.999996 35.9 3C39.5667 5 42.4333 7.63333 44.5 10.9C46.5667 14.1 47.6 17.4333 47.6 20.9C47.6 23.5667 47.0333 26.3333 45.9 29.2C44.7667 32.0667 43.0667 34.5 40.8 36.5C42.8667 38.2333 44.5 40.1667 45.7 42.3C46.9 44.3667 47.5 47.3 47.5 51.1C47.5 54.4333 46.4667 57.5667 44.4 60.5C42.4 63.3667 39.6 65.6667 36 67.4C32.4667 69.0667 28.5333 69.9 24.2 69.9Z" fill="#FFB653"/>
</svg>
