<svg width="100" height="71" viewBox="0 0 100 71" fill="none" xmlns="http://www.w3.org/2000/svg">
<path fill-rule="evenodd" clip-rule="evenodd" d="M100 38.2979C100 53.7207 59.0426 38.2979 34.5745 67.0213C21.1399 82.792 0 47.8723 0 26.0638C0 10.641 20.258 0 47.8723 0C75.4867 0 100 17.5532 100 38.2979Z" fill="#FFB653"/>
<path  d="M10.6983 0.195176C10.6037 0.220205 10.528 0.263761 10.528 0.294641C10.528 0.406132 10.3388 0.218579 10.3388 0.593361C10.3388 0.836172 10.4081 0.910933 10.6414 0.910933C10.8631 0.910933 10.3239 0.661945 10.7926 0.661945C10.9502 0.661945 10.9753 0.680474 10.906 0.724355C10.8241 0.774088 10.8241 0.786764 10.9122 0.786764C11.076 0.786764 11.1141 0.599862 10.9753 0.481544C10.8955 0.4109 10.8955 0.350766 10.9753 0.301142C11.1391 0.195176 11.2087 0.207852 11.196 0.332346C11.196 0.484794 11.3507 0.425961 11.5552 0.506573C11.7856 0.604087 11.5948 0.255635 11.9082 0.325846C12.1584 0.396381 12.1916 0.480244 12.2485 0.437987C12.3115 0.375578 12.778 0.481544 12.7842 0.556305C12.7903 0.699652 12.9103 1.00455 12.9165 0.898906C12.9327 0.753284 13.1222 0.730856 12.9607 0.730856C12.7968 0.717529 12.923 0.581008 12.923 0.500396C12.923 0.488045 13.0237 0.475368 13.1437 0.475368C13.2948 0.475368 13.3644 0.444163 13.3644 0.382078C13.3644 0.276113 13.4651 0.257585 13.522 0.350874C13.5536 0.400607 13.5913 0.400607 13.6481 0.350874C13.8558 0.186725 14.2641 0.662271 14.4234 0.662271C14.541 0.662271 14.4533 0.786764 14.5937 0.786764C14.7117 0.786764 14.7497 0.944088 14.5307 0.886229C14.4426 0.861201 14.373 0.873877 14.373 0.911258C14.373 1.04193 14.9152 0.92361 15.0159 0.767911C15.0537 0.712003 15.079 0.718179 15.1232 0.78644C15.2051 0.904757 15.1547 0.973342 14.9721 0.973342C14.6074 0.973342 14.7985 1.18722 15.4574 1.16025C15.8227 1.14009 16.5794 1.37965 16.5794 1.22265C16.5794 1.08353 16.9955 1.26264 17.1405 1.16025C17.3134 1.06533 17.3621 1.27531 17.5881 1.14789C17.6953 1.07931 17.7269 1.08548 17.7772 1.16025C17.8907 1.33447 17.8214 1.44044 17.6007 1.42158C17.4242 1.40923 17.3989 1.42776 17.3989 1.57111C17.3989 1.70178 17.4177 1.72681 17.5061 1.68942C17.6287 1.64099 17.9947 1.5243 17.853 1.6644C17.7577 1.76809 17.8549 1.79474 18.061 1.90103C17.5091 1.92216 17.6654 1.63807 17.4873 1.81392C17.3423 1.95726 17.38 2.05055 17.563 2.007C17.6511 1.98197 17.7584 1.98847 17.7964 2.01935C17.9352 2.12532 18.1494 2.14384 18.2252 2.05673C18.3207 1.93061 18.4377 2.01707 18.6159 1.87633C18.7521 1.77914 18.7257 1.79344 18.3763 1.59614C18.4907 1.62116 18.6961 1.68422 18.8489 1.59614C18.9939 1.52137 19.3784 1.57111 19.3215 1.65854C19.2734 1.73786 19.4161 1.73851 19.4161 1.90753C19.4161 2.06323 19.6053 2.09444 19.7503 1.96344C19.9135 1.81684 20.1449 1.92086 20.0591 1.95726C19.9141 2.00082 19.9833 2.09411 20.1725 2.09411C20.2733 2.09411 20.3617 2.11914 20.3617 2.15652C20.3617 2.23323 20.6617 2.12922 20.7966 2.21243C20.9039 2.28101 20.822 2.42404 20.702 2.38048C20.6516 2.36195 20.5571 2.39901 20.4878 2.46759C20.3123 2.64117 20.1663 2.56446 20.3617 2.69805C20.5509 2.82872 20.9289 2.85993 20.9289 2.73543C20.9289 2.69188 20.9855 2.65449 21.0485 2.65449C21.2478 2.65449 21.1805 2.44809 21.2692 2.57973C21.3537 2.72568 20.7885 2.66002 21.0801 2.93469C21.2237 3.09071 21.3011 2.79914 21.3511 2.94704C21.3954 3.05918 21.5592 3.0465 21.5592 2.93469C21.5592 2.88495 21.6034 2.8414 21.6599 2.8414C21.839 2.8414 21.6014 2.98312 21.8049 3.13394C21.8741 3.1775 21.9184 3.25844 21.8995 3.30199C21.8491 3.42649 22.1517 3.58836 22.4352 3.58836C22.7528 3.58836 22.7063 3.52823 22.6244 3.78761C22.5486 4.05545 22.5486 4.08633 22.6559 4.08633C22.7063 4.08633 22.7567 4.02393 22.782 3.94299C22.8324 3.73756 23.1665 3.56951 23.343 3.65662C23.6099 3.80159 22.9468 3.84027 22.8955 4.01775C22.8639 4.10486 22.9208 4.10486 23.3242 4.01775C23.8316 3.91211 23.7633 4.13964 23.8914 4.05513C23.9805 4.00247 23.8966 4.14842 24.1121 4.14842C24.3936 4.14842 24.1826 4.40196 24.3328 4.49102C24.3832 4.52223 24.377 4.5596 24.3266 4.62169C24.2636 4.69645 24.3013 4.7088 24.5473 4.7088C24.9494 4.7088 24.9052 4.79494 24.5662 4.92041C24.2321 5.054 24.2334 4.99745 24.522 5.11966C24.9215 5.28869 25.2826 4.99777 25.5306 5.15087C25.6857 5.22726 25.4676 5.14892 25.4676 5.33127C25.4676 5.54613 25.7003 5.3524 25.8648 5.60529C25.9467 5.72978 26.2743 5.86695 26.4258 5.83575C26.4573 5.83575 26.4762 5.85427 26.4762 5.89165C26.4762 5.98267 26.7609 5.90303 26.8545 6.07206C27.0255 6.40978 26.7284 6.15137 26.7284 6.35843C26.7284 6.5398 27.2956 6.34672 27.2956 6.54533C27.2956 6.67567 27.4621 6.60384 27.529 6.71955C27.5869 6.83397 27.9893 7.06573 27.9893 7.18015C27.9893 7.30399 28.1356 7.14504 28.5441 7.51625C28.8279 7.79027 28.8972 7.98334 28.6891 7.91476C28.4811 7.85235 28.4684 8.00805 28.6764 8.08898C28.9547 8.18617 28.798 8.25703 29.061 8.25703C29.3737 8.25703 30.5107 9.55495 30.5107 9.6892C30.5107 9.73893 30.5611 9.81369 30.6303 9.85725C30.7564 9.93201 30.851 10.1872 30.7564 10.1872C30.6869 10.1872 30.6531 10.3117 30.8322 10.3117C31.0239 10.3117 30.983 10.5607 31.1159 10.5607C31.3093 10.5607 31.1192 10.7944 31.3617 10.9033C31.5544 10.9985 31.5499 11.8517 31.5697 11.6752C31.5824 11.5881 31.702 11.4948 31.7966 11.4948C31.8093 11.4948 31.8154 11.582 31.8154 11.6879C31.8154 11.7939 31.847 11.8995 31.8912 11.9246C31.9354 11.9496 31.9604 11.9993 31.9542 12.0305C31.9289 12.1488 32.0423 12.4849 32.093 12.4541C32.2192 12.3793 32.2822 12.51 32.1688 12.6098C31.9471 12.8191 31.572 12.823 31.0152 12.8714C31.0152 12.7239 30.9885 12.4918 31.1098 12.4918C31.2323 12.4918 31.2375 12.3673 31.1098 12.3673C30.9706 12.3673 31.0561 12.1212 30.9394 12.0061C30.8826 11.9502 30.8826 11.9314 30.9394 11.9314C31.0906 11.9314 31.0087 11.8131 30.8387 11.7945C30.5666 11.7663 30.6849 11.4958 30.5676 11.4958C30.4541 11.4958 30.5172 11.3216 30.6433 11.2904C30.8162 11.2478 30.7418 11.1223 30.5803 11.1659C30.511 11.1844 30.4038 11.1347 30.303 11.0352C30.0742 10.809 29.8807 10.9143 29.8807 10.7801C29.8807 10.6419 29.7998 10.7511 29.7042 10.5311C29.5947 10.299 29.7546 10.4245 29.7546 10.3133C29.7546 10.1999 29.3971 10.3149 29.4585 10.1638C29.4774 10.114 29.4647 10.0578 29.4208 10.0393C29.3639 10.0207 29.3704 9.99572 29.4335 9.95216C29.622 9.82182 29.1874 9.43956 29.2381 9.80264C29.2632 10.0136 28.9924 9.94696 28.9924 9.8462C28.9713 9.67977 29.0057 9.60599 28.8097 9.57836C28.1427 9.50067 28.8591 9.34725 28.7278 9.21723C28.6605 9.15092 28.7239 9.31669 28.589 9.31669C28.4479 9.31669 28.5409 9.44119 28.3998 9.44119C28.261 9.44119 28.3582 9.33555 28.1729 9.28549C28.0657 9.24811 28.0533 9.22958 28.1226 9.18602C28.1983 9.13629 28.1983 9.11744 28.1164 9.06771C27.9295 8.95231 27.8294 9.06771 27.9272 8.87463C28.0735 8.62499 27.6083 8.90843 27.5238 8.76249C27.4985 8.71893 27.53 8.6939 27.6057 8.6939C27.8011 8.6939 27.8138 8.59444 27.6246 8.507C27.3304 8.3617 27.675 8.45629 27.675 8.28921C27.675 8.23948 27.7319 8.1709 27.8011 8.13352C27.9964 8.02755 27.9587 7.89688 27.7192 7.89688C27.3577 7.87575 26.9111 7.74898 26.7925 7.82212C26.6728 7.88453 26.1684 7.77239 26.0488 7.66025C25.948 7.55428 25.9542 7.44864 26.0676 7.44864C26.2064 7.44864 26.1872 7.18697 26.0361 7.0563C25.948 6.98154 25.9226 6.90678 25.948 6.76994C25.9922 6.55833 25.8661 6.44619 25.7526 6.59571C25.491 6.95749 25.7029 6.26839 25.4312 6.62074C25.3681 6.71403 25.3366 6.7202 25.2735 6.65194C25.1272 6.5281 24.704 6.62887 24.719 6.49625C24.7317 6.3841 24.6432 6.14129 24.5867 6.14129C24.4417 6.14129 24.3845 5.87995 24.2525 6.01062C24.0669 6.19395 23.6622 5.96024 23.5592 5.92969C23.4269 5.88613 23.4142 5.7054 23.5465 5.7054C23.6739 5.7054 23.7061 5.3914 23.4708 5.61211C23.2917 5.78894 23.2192 5.39433 22.9475 5.39433C22.7693 5.39433 22.8945 5.26984 22.6322 5.26984C22.3646 5.26984 22.4817 5.08293 22.3737 5.08293C22.3295 5.08293 22.3169 5.02052 22.3295 4.92724C22.4033 4.59244 21.8989 4.98542 21.8504 4.49135C21.8442 4.39806 21.4344 4.39188 21.4344 4.49135C21.4344 4.59796 20.9302 4.37075 20.9302 4.20498C20.9302 4.01222 20.7557 4.1949 20.4196 3.89976C20.1017 3.61209 20.0659 3.80159 19.5748 3.6693C18.9214 3.49312 18.7979 3.48207 18.7491 3.30817C18.6783 3.01465 18.6295 3.40536 18.2765 3.19603C18.0005 3.0517 17.8416 3.11119 17.8416 3.02798C17.8416 2.99059 17.9108 2.96557 17.9927 2.96557C18.1754 2.96557 18.27 2.85342 18.1377 2.80369C18.0431 2.77249 18.0935 2.68537 18.4215 2.3366C18.5287 2.22445 18.5287 2.21828 18.3838 2.21828C18.1566 2.21828 18.1757 2.3639 18.0877 2.31157C18.0087 2.24916 18.0737 2.48644 17.9365 2.55438C17.7971 2.60021 17.9726 2.76241 17.8357 2.84692C17.7096 2.92786 17.6531 2.91551 17.6531 2.80954C17.6531 2.6974 17.5523 2.68505 17.5019 2.79101C17.4704 2.85342 17.4577 2.85342 17.4262 2.79101C17.4073 2.74746 17.2685 2.71625 17.0985 2.71625C16.5882 2.71625 16.6357 2.41753 15.5919 2.31157C15.1255 2.26184 15.0562 2.19943 15.1255 1.89453C15.1947 1.58931 15.1382 1.5022 14.9236 1.60199C14.6906 1.70958 14.778 1.83537 14.6902 1.7203C14.5752 1.53828 14.4767 1.8448 14.7595 1.8448C14.9064 1.8448 14.9607 2.05413 14.7026 1.96929C14.6018 1.94426 14.4757 1.94426 14.4253 1.97547C14.3181 2.03138 13.9527 1.92573 13.8139 1.79507C13.6348 1.61824 13.3663 1.92378 13.3663 1.65172C13.3663 1.29807 12.8378 1.3816 12.8937 1.47132C13.0396 1.72063 12.202 1.5399 11.6205 1.5399C10.9493 1.5204 11.4518 1.38908 10.5553 1.43394C10.0827 1.45897 9.96274 1.45246 9.96274 1.3842C9.96274 1.27824 9.60356 1.14139 9.55318 1.22851C9.48492 1.31269 9.351 1.23663 9.07405 1.39038C8.72755 1.59874 8.9151 1.24833 8.66449 1.44629C8.58886 1.50848 8.59515 1.52712 8.68334 1.5022C8.76525 1.47717 8.82832 1.48984 8.82832 1.52072C8.82832 1.63287 7.61166 1.6826 7.15789 1.59549C7.03177 1.57046 6.94369 1.59549 6.8491 1.68877C6.68007 1.87113 6.69567 1.58086 6.27539 1.78824C5.91816 1.94881 5.81934 1.88185 5.77741 2.00602C5.75856 2.05575 5.70818 2.08078 5.67015 2.05575C5.62594 2.03073 5.61326 2.05575 5.63861 2.14287C5.70298 2.3457 5.3646 2.47149 5.30447 2.44159C5.22873 2.38178 5.13479 2.59111 4.87572 2.59111C4.73075 2.59111 4.68037 2.62849 4.62349 2.77801C4.54158 2.9958 4.42163 3.01465 4.25781 2.84042C4.02182 2.58266 3.82257 2.79362 4.13169 2.90283C4.33972 2.98377 4.3459 3.14564 4.13169 3.10209C3.89213 3.05853 3.65907 3.13947 3.69677 3.24543C3.76276 3.37578 3.59601 3.29517 3.59601 3.43234C3.59601 3.56041 3.15491 3.70278 3.15491 3.78111C3.15491 3.8835 2.95241 3.77851 3.00377 3.93064C3.0353 3.99922 2.99759 4.02393 2.87765 4.02393C2.56008 4.02393 2.57633 4.56806 2.34815 4.59049C2.29126 4.59049 2.27241 4.60901 2.31662 4.62169C2.44046 4.6828 2.14629 4.79852 2.14629 5.0514C2.14629 5.15737 2.10859 5.2071 2.03285 5.21328C1.96362 5.21328 1.95711 5.22563 2.0075 5.25066C2.1905 5.32314 1.76793 5.57636 1.76793 5.38133C1.76793 5.30007 1.62719 5.36052 1.79947 5.49965C2.06958 5.70703 1.26379 5.39791 1.26379 5.60561C1.26379 5.6742 1.32067 5.70508 1.43411 5.70508C1.60443 5.70508 1.83132 5.79837 1.76826 5.84192C1.58558 5.96024 1.42793 6.01615 1.29564 6.01615C0.959213 6.01615 1.22998 6.33437 1.46596 6.31487C1.66782 6.28984 1.65514 6.47674 1.45329 6.50177C1.26963 6.52777 1.10906 6.69518 1.0057 6.78814C1.13084 6.833 1.27418 6.89898 1.40908 6.85055C1.52252 6.81317 1.5287 6.83202 1.49099 7.03745C1.46564 7.1808 1.47214 7.26174 1.51635 7.26174C1.56575 7.26174 1.68114 7.47334 1.39022 7.54193C1.12043 7.59979 1.17505 7.86698 1.32099 7.90306C1.44711 7.93426 1.62979 8.1956 1.52285 8.1956C1.45979 8.1956 1.5482 8.5317 1.64246 8.6627C1.7182 8.76866 1.76208 9.0053 1.69935 9.0053C1.66782 9.0053 1.64246 9.04885 1.64246 9.09859C1.64246 9.23706 1.76859 9.13662 1.76859 9.31637C1.76859 9.49059 1.96394 9.41973 1.81279 9.50945C1.66782 9.59038 1.674 9.63394 1.857 9.84555C1.94509 9.94501 2.00197 10.0448 1.98929 10.0633C1.94476 10.1293 2.11801 10.5613 1.99547 10.5613C1.8908 10.5613 2.19082 10.7294 2.15929 10.823C2.15311 10.8542 2.2035 10.9351 2.27891 11.0034C2.36082 11.072 2.41121 11.1965 2.41771 11.3333C2.43299 11.6987 2.57536 11.4334 2.71383 11.8439C2.8367 12.2256 3.03335 12.1371 3.12989 12.5974C3.14387 12.6943 4.28966 13.9174 4.28966 14.2288C4.28966 14.3533 4.32737 14.4219 4.39693 14.4466C4.46627 14.4652 4.4537 14.4714 4.35922 14.4651C4.16874 14.4505 4.07351 14.629 4.30884 14.5773C4.74668 14.4619 5.56093 15.3636 5.6955 15.5609C5.8551 15.7975 6.02737 15.7124 6.21233 15.9779C6.28156 16.0839 6.37615 16.1648 6.41418 16.1648C6.50227 16.1648 6.81139 16.4138 6.81139 16.4824C6.81139 16.5074 6.73566 16.5448 6.64757 16.5633C6.26564 16.6641 6.81139 16.904 6.81139 16.7002C6.81139 16.4574 7.15172 16.6628 7.30319 16.9989C7.37243 17.1484 7.41045 17.1731 7.56778 17.1357C7.68122 17.1172 7.76963 17.1296 7.80117 17.1793C7.87072 17.2996 8.19415 17.3662 8.31182 17.6152C8.42818 17.8616 8.51367 17.7238 8.51367 17.8954C8.51367 18.0199 8.82247 18.157 9.10624 18.157C9.20082 18.157 9.28891 18.2006 9.30809 18.2503C9.38058 18.4112 9.40138 18.1733 9.84377 18.4808C10.5202 18.9781 10.8459 18.8062 10.8459 19.035C10.8459 19.1036 10.8144 19.1345 10.7578 19.1159C10.7009 19.0909 10.6697 19.1345 10.6697 19.2404C10.6697 19.4686 10.8595 19.4098 10.8209 19.3464C10.802 19.3152 10.8524 19.2469 10.9343 19.1907C11.0793 19.1036 11.092 19.1036 11.18 19.2343C11.3286 19.4689 11.5665 19.2635 11.7915 19.4023C11.8734 19.4582 11.8734 19.4771 11.7726 19.533C11.6403 19.6077 11.6338 19.7137 11.7599 19.7137C11.7856 19.7145 11.81 19.7253 11.8277 19.744C11.8454 19.7626 11.855 19.7875 11.8545 19.8132C11.8545 19.9003 11.8987 19.9065 12.1003 19.8756C12.4637 19.8158 12.3671 19.9955 12.5225 19.938C12.6233 19.9006 12.9259 20.0189 12.9259 20.0999C12.9259 20.1249 13.0709 20.1496 13.2474 20.1496C13.6631 20.1496 13.4385 20.1902 13.5688 20.3924C13.6381 20.4984 13.6507 20.5045 13.7138 20.4174C13.7707 20.3427 13.8146 20.3365 13.9092 20.3862C14.0694 20.4811 13.8715 20.4015 13.8715 20.604C13.8715 20.8562 13.6114 20.8966 13.9218 20.8966C14.2079 20.8966 14.125 20.7721 14.0606 20.7721C14.0024 20.7721 13.9004 20.5231 14.1867 20.5231C14.2875 20.5231 14.3759 20.5481 14.3759 20.5728C14.3759 20.6723 14.8485 20.6287 14.9431 20.5169C15.0754 20.3736 15.3842 20.3924 15.3842 20.5354C15.3842 20.5978 15.4219 20.6476 15.46 20.6476C15.6868 20.6414 16.2794 20.4607 16.3675 20.3736C16.4306 20.305 16.5629 20.2741 16.7455 20.2864C17.0101 20.2926 17.1993 20.224 17.0416 20.1681C16.9913 20.1496 17.0101 20.0995 17.092 20.0186C17.1993 19.9126 17.2939 19.8941 17.6089 19.9003C18.0376 19.9188 18.4095 19.8567 18.4095 19.7696C18.4095 19.6919 18.5986 19.7371 18.5986 19.6513C18.5986 19.557 18.9139 19.6211 18.9139 19.5268C18.9139 19.4894 18.9958 19.4644 19.1031 19.4644C19.2608 19.4644 19.2923 19.4894 19.2923 19.6139C19.2923 19.8193 19.5318 19.9003 19.6515 19.7384C19.6957 19.676 19.7334 19.5951 19.7334 19.5515C19.7334 19.4696 20.5206 19.3942 20.6601 19.5889C20.7914 19.767 20.9312 19.6714 20.9312 19.8067C20.9312 19.9312 21.0573 19.925 21.2465 19.7881C21.423 19.6698 21.8137 19.6448 21.9083 19.7508C22.0029 19.8567 22.3747 19.9624 22.4124 19.9003C22.4313 19.8691 22.5259 19.8567 22.6266 19.8752C22.98 19.9487 22.6627 19.6893 23.1435 19.7758C23.5459 19.8587 23.4012 19.9627 23.5846 19.9627C23.762 19.9627 23.6041 20.0771 23.9564 20.1246C24.3065 20.1873 24.1693 20.2777 23.9753 20.2367C23.7279 20.1688 23.869 20.3488 23.9249 20.3488C24.0738 20.3488 24.1557 20.5146 24.2967 20.3612C24.3536 20.3115 24.3975 20.2926 24.3975 20.3238C24.3975 20.4194 24.5909 20.2721 24.7632 20.4421C25.1035 20.7409 25.0973 20.7409 25.5134 20.7659C25.633 20.7721 25.6142 20.8842 25.4819 20.9154C25.425 20.9339 25.4757 20.9466 25.6015 20.9528C26.0071 20.9528 26.4775 21.3445 26.4775 21.1208C26.4775 20.8806 27.1708 21.1475 27.1708 21.2203C27.1708 21.2954 27.4861 21.1124 27.4861 21.208C27.4861 21.3129 27.7185 21.2102 28.2298 21.5941C28.3689 21.7163 28.0748 21.8307 28.2614 21.8307C28.4434 21.8307 28.3706 21.4439 28.5009 21.6627C28.5936 21.8275 28.4401 21.8428 28.6017 21.9491C28.7024 22.005 28.7024 22.0238 28.6205 22.0797C28.5575 22.1233 28.5513 22.1421 28.6017 22.1483C28.8822 22.1844 28.9267 22.3183 28.9989 22.2042C29.0805 22.0752 29.3535 22.2757 29.2888 22.1483C29.2131 22.0362 29.4276 21.9988 29.5346 22.1048C29.6607 22.2231 29.7049 22.2293 29.8057 22.1298C29.9406 21.9965 29.8274 22.329 29.9445 22.329C30.0956 22.329 29.9887 22.5033 29.8183 22.5345C29.4767 22.6138 29.6506 22.8836 29.8941 22.7523C29.976 22.7149 30.0075 22.7211 30.0075 22.7896C30.0075 22.8592 30.1967 23.0848 30.1967 22.7025C30.1967 22.3508 30.3228 22.3733 30.3228 22.5094C30.3228 22.6944 30.5598 22.7295 30.512 22.8082C30.4554 22.8826 31.2648 22.8465 31.1676 23.1069C31.1052 23.2606 31.3591 23.1521 31.2999 23.2688C31.243 23.3559 31.5141 23.6361 31.6152 23.5987C31.6374 23.5903 31.6618 23.5894 31.6846 23.5962C31.7073 23.6029 31.7273 23.6169 31.7413 23.6361C31.8102 23.755 31.5362 23.7112 31.5018 23.8974C31.4702 24.0157 31.4891 24.0219 31.7098 23.9845C31.8736 23.9596 31.9703 24.024 31.9997 24.1776C32.0374 24.3892 32.2078 24.632 32.3085 24.632C32.3843 24.632 32.5292 24.8124 32.5292 24.9122C32.5292 25.0429 32.7184 25.0471 32.7184 25.1612C32.7184 25.3231 32.9297 25.2369 32.8003 25.379C32.6918 25.5038 32.8462 25.628 32.6931 25.628C32.5539 25.628 32.5683 25.7525 32.6804 25.7525C32.8585 25.7525 32.7305 26.0473 32.9642 25.9702C33.1634 25.9179 33.0971 26.1172 33.0272 26.1633C32.8923 26.2397 33.0958 26.6239 32.9391 26.6239C32.5624 26.6239 33.1875 26.0014 32.6177 26.0014C32.4538 26.0014 32.4285 26.0639 32.5296 26.1633C32.6154 26.2478 31.9214 26.2982 31.8866 26.1383C31.8678 26.0512 31.8489 26.0574 31.7794 26.1818C31.7101 26.3002 31.7101 26.3375 31.7794 26.3811C31.911 26.4555 31.9165 26.3044 32.1512 26.3873C32.252 26.4289 32.2625 26.4663 32.1827 26.4994C32.0066 26.5784 32.2143 26.5153 32.2143 26.6613C32.2143 26.7237 32.1766 26.7484 32.1262 26.7299C32.0693 26.7049 32.0189 26.7796 31.9685 26.9415C31.8928 27.1843 31.6913 27.3026 31.7543 27.0598C31.8047 26.8775 31.9529 26.9516 31.8804 26.8979C31.8047 26.8232 31.5843 26.9477 31.5843 27.066C31.5843 27.2948 31.3958 27.0432 31.3006 27.1843C31.2437 27.2776 31.0044 27.2591 30.8656 27.1531C30.7964 27.1034 30.6891 27.0598 30.6261 27.0598C30.4824 27.0598 30.4769 26.9353 30.6072 26.9353C30.7724 26.9353 30.5812 26.8212 30.9664 26.8544C31.2122 26.8729 31.2437 26.8605 31.3132 26.7049C31.3763 26.5742 31.3763 26.5241 31.3132 26.4871C31.2629 26.4497 31.2755 26.4373 31.3636 26.4497C31.4517 26.462 31.4897 26.4312 31.4959 26.3002C31.5304 25.9946 31.3142 26.2972 31.0041 26.2566C30.9034 26.2504 30.8276 26.269 30.8276 26.3063C30.8276 26.437 30.4619 26.7608 30.3738 26.711C30.2627 26.6327 30.0709 26.7322 30.0082 26.6239C29.9513 26.5306 30.0082 26.2504 30.0901 26.2504C30.1216 26.2504 30.0774 26.1818 29.9828 26.0947C29.8063 25.9329 29.6552 25.939 29.7182 26.1009C29.78 26.2384 29.4718 26.2404 29.3841 26.4308C29.296 26.5865 29.0626 26.6675 28.9995 26.5553C28.9076 26.4344 27.9529 26.4984 28.1044 26.4559C28.2136 26.4126 28.0484 26.242 27.7767 26.319C27.4045 26.4224 27.4247 26.1259 27.6821 26.1259C27.831 26.1259 27.8638 26.0014 27.6444 26.0014C27.3906 26.0014 27.5758 26.1659 27.3291 26.1009C27.1065 26.0382 27.2228 26.188 27.0769 26.188C27.0265 26.188 26.9823 26.1383 26.9823 26.0759C26.9823 25.9888 26.9696 25.9826 26.9192 26.0635C26.8246 26.2235 26.8003 26.0011 26.5978 26.0011C26.393 26.0011 26.5978 25.8269 26.1125 25.8269C25.9802 25.8145 25.9044 25.6276 26.0367 25.6276C26.1242 25.6276 26.0709 25.3943 26.1755 25.3598C26.2386 25.3348 26.2324 25.3101 26.1628 25.2603C25.9356 25.105 26.6267 25.0289 26.0556 24.9242C25.8791 24.893 25.8287 24.9119 25.7468 25.0364C25.6902 25.1235 25.6018 25.1921 25.5576 25.1921C25.5072 25.1921 25.4695 25.2171 25.4695 25.2545C25.4695 25.3429 25.8176 25.2932 25.7533 25.3728C25.7344 25.404 25.7471 25.4476 25.7848 25.4723C25.8729 25.5282 25.8605 25.628 25.766 25.628C25.5843 25.628 25.3437 26.0489 25.3437 25.7837C25.3437 25.6592 25.4698 25.7112 25.4698 25.628C25.4698 25.5906 25.413 25.5656 25.3437 25.5656C25.1987 25.5656 25.0853 25.3725 25.2049 25.3289C25.3177 25.2971 25.2475 25.1134 25.3437 25.1609C25.4523 25.2252 25.4221 24.96 25.243 25.1235C25.1926 25.167 24.6692 25.3166 24.5623 25.3166C24.5434 25.3166 24.5246 25.273 24.5246 25.2233C24.5246 25.0981 24.2724 25.1157 24.2724 25.1859C24.2724 25.2561 23.894 25.3146 23.894 25.2418C23.894 25.2168 23.7994 25.1547 23.686 25.1111C23.4968 25.0302 23.4841 25.0364 23.4402 25.1547C23.4151 25.2418 23.3878 25.2439 23.3583 25.1609C23.3014 24.9805 22.9107 24.8683 22.8035 24.9928C22.6504 25.1895 22.9481 24.9119 23.1503 25.1423C23.2764 25.2857 23.3079 25.3852 23.188 25.2668C23.1438 25.2233 22.9611 25.1921 22.7784 25.1921C22.4696 25.1921 22.4443 25.1797 22.4443 25.0426C22.4443 24.8683 22.2363 24.7936 21.9086 24.8556C21.6889 24.8917 21.3261 24.8446 21.5179 24.7497C21.6681 24.6671 21.5153 24.5069 21.6187 24.5069C21.6902 24.5069 21.7828 24.0749 21.499 24.2579C21.4233 24.3076 21.4233 24.3203 21.4929 24.3203C21.6755 24.3203 21.5055 24.3889 21.1841 24.4386C20.8753 24.4883 20.7745 24.4698 20.2258 24.2829C20.1689 24.2644 20.1377 24.2082 20.1566 24.1584C20.2395 23.9397 19.7071 24.2312 19.539 24.1272C19.3736 24.0456 19.2604 24.3473 19.2048 24.0586C19.1467 23.6279 18.7605 24.0746 18.8772 23.8906C18.9026 23.8532 18.8834 23.822 18.8395 23.822C18.6604 23.822 18.1835 23.5746 18.5369 23.4794C18.7196 23.4235 18.6376 23.336 18.4361 23.3734C18.1302 23.4339 18.2772 23.7892 18.0454 23.5603C17.9105 23.4271 17.9404 23.6185 17.7932 23.5977C17.6446 23.5733 17.565 23.6114 17.4151 23.4482C17.3521 23.3796 17.2513 23.336 17.2009 23.3549C17.0813 23.4046 16.8102 23.168 16.8541 23.0497C16.9318 22.8657 16.3535 23.1111 16.1669 22.9437C16.0034 22.8052 16.3035 22.7009 16.5011 22.7009C16.6587 22.7009 16.6964 22.6824 16.6649 22.6014C16.6396 22.5329 16.583 22.5143 16.4631 22.5455C16.1929 22.6027 15.8819 22.6495 15.9209 22.7012C15.9397 22.7324 15.8263 22.751 15.6751 22.751C15.4294 22.751 15.3852 22.7324 15.3283 22.5891C15.2968 22.4958 15.2653 22.4584 15.2653 22.502C15.2591 22.5517 15.196 22.5706 15.0761 22.5455C14.7787 22.4964 14.8609 22.7012 14.5593 22.7012C14.4205 22.7012 14.3766 22.7324 14.3766 22.8257C14.3766 22.9564 14.282 22.9938 14.2189 22.8881C14.1559 22.7887 13.8721 22.8134 13.8721 22.9193C13.8721 22.9879 13.9225 23.0003 14.0613 22.9691C14.3428 22.9252 14.2407 23.075 14.2001 23.075C14.1685 23.075 14.1182 23.1374 14.0805 23.2119C13.9859 23.4173 13.5448 23.6354 13.3998 23.5545C13.1807 23.4391 13.4443 23.6897 13.236 23.8096C13.0153 23.9549 13.2204 24.1171 12.8768 24.2205C12.5387 24.3206 12.8137 24.4435 12.5491 24.513C12.2313 24.5985 12.8979 24.5303 12.7634 24.619C12.5804 24.7396 12.7546 25.0152 12.4042 25.0985C12.2907 25.1235 12.2404 25.1544 12.2781 25.1732C12.4104 25.223 12.3727 25.4284 12.2277 25.4719C12.0541 25.5343 12.1893 25.5184 12.1081 25.7271C12.0639 25.8392 12.0704 25.8766 12.1396 25.8766C12.2972 25.8766 12.2215 26.1133 12.045 26.1568C11.847 26.2114 11.8337 26.174 12.0639 26.2875C12.2277 26.3746 12.2277 26.387 12.1331 26.5241C12.0827 26.6112 12.0008 26.6922 11.9566 26.7049C11.837 26.7484 11.837 27.1843 11.9504 27.1843C12.0008 27.1843 12.045 27.2093 12.045 27.2467C12.045 27.3293 11.8019 27.2789 11.7551 27.4024C11.7047 27.5269 11.837 27.6826 11.9946 27.6826C12.0639 27.6826 12.1081 27.7138 12.0892 27.7574C12.0349 27.9452 11.7499 27.6823 11.8812 28.0063C12.0222 28.3545 12.2267 28.1156 12.1711 28.4858C12.1471 28.6763 12.4487 28.6574 12.2972 28.8346C12.253 28.8843 12.2404 28.9279 12.2719 28.9279C12.3034 28.9279 12.2719 28.9714 12.2088 29.0211C12.0954 29.1083 12.0954 29.1144 12.2592 29.1768C12.3538 29.2081 12.4734 29.2393 12.5238 29.2393C12.6525 29.2393 12.5778 29.4882 12.6814 29.4882C12.7916 29.4882 12.6064 29.6082 12.8768 29.8308C13.2126 30.1172 12.9512 30.4247 13.1794 30.2979C13.3595 30.2089 13.7973 30.6714 13.444 30.6714C13.2552 30.6714 13.5041 30.8005 13.6459 30.7585C13.734 30.7273 13.7593 30.7462 13.7278 30.8144C13.7024 30.883 13.7405 30.9204 13.8727 30.9513C14.0974 31.0036 14.2352 31.2165 14.5788 31.6238C14.9227 31.996 14.7605 32.0942 14.9379 32.1468C15.4008 32.2564 14.6968 32.7326 15.3475 32.6201C15.6456 32.5531 15.9173 33.0995 16.1039 33.0995C16.2229 33.0995 16.439 33.4109 16.5577 33.4109C16.7211 33.4109 16.9471 33.788 17.4463 34.0025C17.8634 34.1816 17.644 34.2707 18.2281 34.5506C18.5495 34.6939 18.5999 34.7436 18.5684 34.8431C18.5307 34.9614 18.5811 34.9988 18.7703 34.9738C18.8944 34.9562 18.7732 35.0921 19.0287 35.0921C19.2871 35.0921 19.4382 35.2289 19.4321 35.4532C19.4321 35.6151 19.4574 35.6525 19.6024 35.6837C19.9765 35.7529 20.0584 35.5644 20.1761 35.7708C20.3071 36.0299 19.7542 35.9642 20.1761 36.0448C20.4283 36.0945 20.4787 36.0633 20.3588 35.9265C20.2895 35.8394 20.3019 35.8332 20.466 35.8517C20.7635 35.8842 20.5668 36.0116 20.7245 36.1007C20.8551 36.2083 20.6464 36.4326 20.8317 36.362C20.9075 36.3308 20.9513 36.362 20.9767 36.4492C21.0209 36.6172 21.3108 36.692 21.3863 36.5613C21.4682 36.4118 21.6889 36.4368 21.6889 36.5863C21.6889 36.6549 21.7204 36.7108 21.7519 36.7108C21.8345 36.7108 21.9034 36.9156 21.9346 36.991C21.9346 36.7583 21.9128 36.7108 22.1615 36.7108C22.5028 36.7108 22.3074 36.8512 22.7037 36.9224C23.044 36.9705 22.9715 37.0807 22.836 37.0407C22.7602 37.0222 22.7225 37.0531 22.7163 37.134C22.7037 37.2836 23.0001 37.4266 23.1955 37.3645C23.4919 37.281 24.2363 37.6756 24.3302 37.6197C24.4121 37.5699 24.5321 37.738 24.4879 37.8501C24.4375 37.987 24.5825 38.0494 24.677 37.9187C24.7651 37.8004 24.9039 37.8439 24.9039 37.9935C24.9039 38.0559 24.9481 38.0744 25.0551 38.0432C25.2881 37.9873 26.3975 38.3234 26.4356 38.4667C26.4472 38.4993 26.4686 38.5275 26.4968 38.5476C26.5249 38.5676 26.5586 38.5786 26.5932 38.5789C26.8217 38.5789 26.7024 38.7824 26.8643 38.666C26.9777 38.5789 27.2046 38.6475 27.2046 38.7655C27.2046 38.9416 27.4884 38.7739 27.4884 39.083C27.4884 39.2573 27.6272 39.3382 27.7026 39.2075C27.7445 39.1555 28.7509 39.1331 29.1523 39.3632C29.5004 39.5427 29.3425 39.6372 29.4991 39.6372C29.6724 39.6372 29.7234 39.7617 29.6064 39.7617C29.4397 39.7617 29.452 40.1014 29.846 39.855C30.066 39.7101 30.6778 39.8953 30.8481 39.9795C31.1653 40.1271 31.4241 40.0231 31.4849 40.1726C31.5944 40.4372 31.3337 40.2441 31.3337 40.3842C31.3337 40.4713 31.441 40.4651 31.4975 40.378C31.5518 40.2841 32.5605 40.3241 32.4808 40.6582C32.4555 40.7642 32.4681 40.7765 32.5377 40.7079C32.8361 40.446 33.2249 40.9963 33.2249 40.7577C33.2249 40.6332 33.4202 40.7018 33.4894 40.851C33.5792 41.058 33.7254 40.9933 33.6029 41.0688C33.4547 41.1663 33.6585 41.1555 33.7982 41.0314C33.8928 40.9443 33.937 40.9443 34.2078 41.0314C34.8182 41.2102 34.1964 41.0714 33.9936 41.3863C33.8671 41.5859 34.1574 41.4894 34.2962 41.4114C34.4035 41.3554 34.4789 41.3489 34.5296 41.3928C34.6242 41.4676 35.1537 41.4052 35.2102 41.3119C35.2743 41.2329 35.4267 41.4767 35.9982 41.5362C36.8189 41.6171 36.4074 41.8164 36.2316 41.8164C36.0928 41.8164 36.0928 41.8537 36.2377 42.0033C36.3135 42.0842 36.4711 42.1339 36.7103 42.159C37.1641 42.2022 37.1189 42.1885 36.9311 41.9412C36.556 41.4471 37.3507 41.9025 37.3721 41.9227C37.4164 41.9662 37.4602 42.0036 37.4667 42.0036C37.9078 42.1031 38.4754 42.1905 38.6265 42.1905C38.9174 42.1905 38.8293 42.315 39.0614 42.315C39.4232 42.315 38.9282 42.6638 39.5594 42.5019C39.6389 42.4925 39.7191 42.4904 39.799 42.4957C39.9501 42.5019 39.9693 42.5208 39.9378 42.6391C39.9124 42.7385 39.9124 42.7574 39.9566 42.695C40.0008 42.6391 40.0827 42.6202 40.2277 42.6514C40.6441 42.7164 41.2497 42.8325 40.7949 42.9131C40.6184 42.9505 40.5931 42.9755 40.6311 43.1062C40.6626 43.2368 40.6499 43.2557 40.543 43.2183C40.3753 43.1731 40.1455 43.3886 40.8645 43.2742C41.3728 43.1933 40.8264 42.9849 41.3686 42.9254C41.8884 42.8786 41.8321 43.333 42.0808 43.0873C42.2456 42.9248 43.239 43.2934 43.3794 43.3925C43.5055 43.4796 43.5747 43.492 43.7008 43.4423C43.8773 43.3737 44.3184 43.4608 44.388 43.5791C44.4862 43.7299 45.1762 43.6363 44.9364 43.4858C44.7498 43.3568 45.266 43.3529 44.8544 43.1559C44.6214 43.0499 44.4764 42.826 44.5772 42.7262C44.6591 42.6391 44.6464 42.5458 44.5645 42.5955C44.4104 42.6969 43.3101 41.4598 43.3101 41.4374C43.3101 41.3636 43.2578 41.4575 42.9445 41.1633C42.623 40.8617 42.6168 40.9985 42.6168 40.7525C42.6168 40.6091 42.5915 40.5656 42.5222 40.5968C42.4592 40.6153 42.415 40.5783 42.3899 40.4785C42.3434 40.2636 42.215 40.3514 42.2703 40.2607C42.3207 40.1612 42.1127 40.2532 42.1127 40.0803C42.1127 39.9135 41.8503 39.9252 41.8669 39.8436C41.9251 39.5566 41.6976 39.7396 41.5266 39.3268C41.4385 39.1025 41.2932 38.9842 41.2932 39.1399C41.2932 39.2521 41.1924 39.2085 41.1105 39.059C40.9087 38.6855 40.8459 38.6107 40.7514 38.6107C40.6883 38.6107 40.6317 38.5734 40.6191 38.5298C40.5758 38.4303 40.8524 38.4342 40.8524 38.5174C40.8524 38.5955 41.1177 38.6055 41.0732 38.5174C41.0478 38.4801 41.1047 38.455 41.2054 38.455C41.4609 38.455 41.2935 38.3244 41.2935 38.1251C41.2935 38.038 41.1044 38.0816 41.1044 38.1748C41.1044 38.2948 40.8141 38.3244 40.6821 38.3618C40.5589 38.4053 40.4328 37.9285 40.7325 38.0877C40.9035 38.1722 41.0468 38.1121 40.6948 37.9259C40.6571 37.9073 40.6633 37.8823 40.7075 37.8573C40.8398 37.8014 40.8021 37.683 40.6317 37.6021C40.3688 37.4851 40.5469 37.7081 40.4049 37.7081C40.3606 37.7081 40.348 37.6457 40.3733 37.5524C40.4049 37.4217 40.3922 37.3967 40.2726 37.3967C40.0294 37.384 40.6324 37.1513 40.6509 37.1789C40.7016 37.2124 40.4744 37.2546 40.4744 37.3531C40.4744 37.4279 40.5037 37.2966 40.7517 37.4838C40.9282 37.6145 40.9659 37.6206 41.1677 37.5462C41.3381 37.4838 41.3569 37.4653 41.2497 37.4653C41.13 37.4591 41.1109 37.4279 41.1174 37.241C41.1235 37.0294 41.13 37.0232 41.3696 37.0356C41.6153 37.0417 41.6784 37.1041 41.5146 37.1912C41.4515 37.2286 41.4453 37.2722 41.483 37.3346C41.6166 37.5326 41.5012 37.1805 41.8614 37.3782C42.1071 37.515 42.189 37.6522 41.9937 37.6024C41.918 37.5839 41.773 37.6024 41.6722 37.646C41.1879 37.8452 42.0506 37.9775 42.0506 37.8329C42.0506 37.7458 42.3041 37.7718 42.1894 37.8144C42.0483 37.8608 42.1894 38.1206 42.0129 38.0572C41.9248 38.026 41.9183 38.0321 41.9813 38.1069C42.0382 38.1755 42.0382 38.2002 41.9752 38.2252C41.931 38.2438 41.9813 38.2438 42.0824 38.2314C42.4315 38.1716 42.3711 38.4557 42.6246 38.4557C42.7758 38.4557 42.8388 38.574 42.7192 38.6176C42.464 38.7144 43.3748 39.0086 43.3748 39.203C43.3748 39.2654 43.4002 39.3336 43.4317 39.3525C43.5009 39.3961 43.4002 39.8069 43.2929 39.9379C43.1869 40.0725 43.6271 40.3832 43.6271 40.2057C43.6271 40.0315 44.0304 40.1063 44.1504 40.299C44.2492 40.4554 44.6659 40.2162 44.6042 40.3985C44.5213 40.5955 44.9344 40.3237 44.8437 40.548C44.7706 40.7359 44.9809 40.5288 45.0456 40.6351C45.0644 40.6602 45.0394 40.7037 45.0014 40.7161C44.9383 40.7411 44.9383 40.7535 44.9952 40.7535C45.121 40.7713 45.0092 40.927 45.2409 41.0086C45.5738 41.1299 45.1489 41.2466 45.6128 41.4757C45.9154 41.6252 45.9908 41.8183 45.7451 41.8183C45.6443 41.8183 45.5813 41.8557 45.5813 41.9116C45.5813 42.0582 45.3921 41.8798 45.3921 42.0111C45.3921 42.198 46.1485 42.0592 46.1485 42.2851C46.1485 42.4184 46.3415 42.3338 46.4638 42.472C46.6243 42.6621 46.2444 42.4704 46.4134 42.6524C46.5229 42.7759 46.5115 42.6651 46.6845 42.7892C46.7664 42.8517 46.7791 42.8764 46.7098 42.8764C46.6341 42.8764 46.6341 42.8887 46.716 42.9449C46.7852 42.9947 46.7917 43.0197 46.7287 43.0444C46.6152 43.088 46.6341 43.2313 46.7602 43.2749C46.8974 43.3155 47.0313 43.4111 47.0313 43.3184C47.0313 43.2216 46.8421 43.2931 46.8421 43.138C46.8421 42.9583 46.885 43.2229 47.0502 43.1504C47.2361 43.0893 47.0947 43.3122 47.2205 43.3122C47.252 43.3122 47.2835 43.2563 47.2835 43.1878C47.2835 43.0444 47.3781 43.0197 47.4347 43.1565C47.4948 43.3145 47.9008 43.1962 47.7246 43.3122C47.6427 43.362 47.6427 43.3747 47.7373 43.3747C47.813 43.3747 47.8319 43.4059 47.8065 43.4741C47.775 43.5489 47.7119 43.5674 47.5293 43.5427C47.252 43.5053 46.9621 43.6796 47.107 43.7917C47.2774 43.91 47.5231 44.0095 47.5797 43.9786C47.6489 43.935 48.1972 44.1717 48.1469 44.2214C48.0162 44.3667 48.7827 44.5309 48.4745 44.6323C48.4368 44.6446 48.4683 44.7194 48.5376 44.8003C48.6258 44.9 48.6699 44.9062 48.6699 44.8188C48.6699 44.6755 48.821 44.6319 48.8906 44.7441C48.9159 44.7815 48.9913 44.7938 49.0609 44.7753C49.2689 44.7018 49.0707 44.9147 49.54 45.0493C49.9918 45.164 49.6291 45.2424 49.4266 45.2424C49.0365 45.2547 49.4685 45.3896 49.6535 45.3792C49.9385 45.3636 49.9662 45.4914 49.8111 45.4914C49.7354 45.4914 49.6473 45.5661 49.5904 45.6906C49.4581 45.9458 49.4581 45.9396 49.71 45.8213C49.8296 45.7654 49.9307 45.6779 49.9307 45.6344C49.9307 45.3558 50.5295 45.8649 50.2334 45.8649C50.1956 45.8649 50.1137 45.9084 50.0507 45.9643C49.8462 46.1519 49.7653 45.8067 49.6031 45.9828C49.4864 46.0979 49.5758 46.0394 49.8488 46.2754C50.2811 46.6456 50.693 46.3931 50.6621 46.6989C50.6494 46.8111 50.6874 46.8608 50.8513 46.9232C51.1695 47.063 50.9335 47.0308 51.097 47.1722C51.1851 47.2408 51.1851 47.2655 51.0843 47.3714C50.9771 47.4898 50.9771 47.4959 51.0843 47.5769C51.2797 47.7137 51.2104 47.7885 50.9582 47.7137C50.574 47.5918 50.8012 47.7947 50.5548 47.7947C50.3839 47.7947 50.4927 47.925 50.5548 47.8941C50.6475 47.8255 51.2091 48.1135 51.3366 47.9874C51.4737 47.8522 51.6658 47.9559 51.2924 48.1308C50.9189 48.3056 51.1175 48.4795 50.8006 48.4795C50.6429 48.4795 50.6179 48.461 50.6429 48.3612C50.7034 48.1129 50.3088 48.146 50.3088 48.4734C50.3088 48.5481 50.2899 48.604 50.2711 48.604C50.2269 48.604 49.9307 48.2803 49.9307 48.2306C49.9307 48.146 49.1802 48.2738 49.1682 48.0563C49.1682 47.9877 49.1428 48.0128 49.0989 48.1187C49.0297 48.318 48.8594 48.3554 48.8594 48.1685C48.8594 48.0937 48.8152 48.044 48.7586 48.044C48.6377 48.044 48.6474 47.8246 48.8467 47.8386C49.0069 47.8649 49.1054 47.7024 48.7144 47.7576C48.3253 47.8077 48.166 47.781 48.166 47.8509C48.166 47.9032 47.9138 48.0378 47.9138 47.8509C47.9138 47.5584 47.6232 47.9689 47.3212 47.8945C47.2393 47.8759 47.1005 47.913 46.9809 47.9816C46.6783 48.1685 46.3949 48.1373 46.5964 47.938C46.7446 47.7917 45.5865 48.096 45.6258 47.6516C45.6385 47.4647 45.5754 47.4339 45.462 47.5707C45.3739 47.6702 45.1216 47.7514 45.1782 47.6578C45.2634 47.5317 44.3529 47.7293 44.8063 47.3838C44.9009 47.3152 44.9071 47.3029 44.8252 47.2967C44.6825 47.2967 44.6266 47.1507 44.4345 47.1348C44.1475 47.0955 43.0459 47.2265 43.8484 47.3217C44.1322 47.3653 44.233 47.4959 44.0376 47.5707C43.9368 47.6081 43.5269 47.4462 43.382 47.309C43.2533 47.1819 43.1275 47.3233 42.9532 47.2031C42.7871 47.0802 42.8206 47.2242 42.4553 47.2964C42.2599 47.3399 42.2346 47.3337 42.2599 47.2405C42.2853 47.1472 42.2346 47.1345 41.9196 47.1283C41.4122 47.113 41.6176 47.2577 41.3712 47.1969C40.7748 47.076 40.9857 47.3529 40.7725 47.2593C40.6967 47.2343 40.6652 47.2531 40.659 47.3341C40.659 47.4088 40.6402 47.4212 40.6213 47.3714C40.5651 47.233 40.4133 47.4963 40.4133 47.3714C40.4133 47.2782 39.953 47.2967 39.89 47.3838C39.8584 47.4335 39.8331 47.4274 39.7954 47.3714C39.7083 47.2509 39.5669 47.4033 39.4993 47.3029C39.4564 47.218 39.2656 47.2086 39.3101 47.2967C39.3666 47.3806 38.9633 47.3793 38.9633 47.2967C38.9633 47.1995 38.7741 47.364 38.7741 47.2096C38.7741 47.0812 38.5849 47.0692 38.5849 47.2281C38.5849 47.4222 38.0496 47.4088 38.03 47.39C38.0112 47.3776 37.967 47.4085 37.9228 47.4647C37.847 47.5642 37.6705 47.5206 37.7336 47.415C37.783 47.3334 37.576 47.4647 37.576 47.3653C37.576 47.2492 37.3708 47.3799 37.3995 47.1537C37.4251 46.9395 37.0962 46.9674 36.9772 47.0851C36.7097 47.3493 36.7939 46.6859 36.2777 46.9544C35.7118 47.2414 35.4183 46.763 35.2691 46.9544C35.1872 47.0604 34.8657 47.023 34.8657 46.9109C34.8657 46.8673 34.7523 46.8611 34.5569 46.8858C34.2228 46.9294 33.9201 46.8361 33.9201 46.6927C33.9201 46.5868 33.794 46.5868 33.7878 46.6866C33.7878 46.7808 33.6507 46.5097 33.7059 46.4187C33.7248 46.3875 33.6932 46.344 33.6429 46.3254C33.5106 46.2757 33.5106 45.9893 33.6429 45.9893C33.8187 45.9893 33.9832 46.1619 33.9832 46.0453C33.9832 45.9383 34.2803 46.0566 34.3362 45.9828C34.3898 45.8948 35.143 46.0596 35.0168 45.8522C34.9665 45.7712 35.0926 45.8398 35.2564 45.9767C35.3952 46.0888 35.559 46.0326 35.559 45.8645C35.559 45.715 35.7609 45.6965 35.8805 45.8395C35.9436 45.9143 36.0255 45.9266 36.2462 45.8954C37.3894 45.7391 37.4365 46.1203 37.3744 45.7521C37.3149 45.3646 37.9332 45.7865 38.0489 45.6152C38.0678 45.584 38.2381 45.5593 38.4269 45.5655C38.7484 45.5717 38.7738 45.584 38.7357 45.7023C38.6915 45.833 38.698 45.833 38.8115 45.6962C38.9249 45.5717 39.4544 45.4221 39.3787 45.5405C39.3156 45.6399 39.6121 45.8642 39.719 45.8021C39.7821 45.7586 39.7882 45.7397 39.7317 45.7397C39.639 45.7397 39.6104 45.5964 39.7694 45.6276C39.9839 45.6854 40.2862 45.374 40.2862 45.5528C40.2862 45.6461 40.097 45.584 40.097 45.6773C40.097 45.7576 40.2134 45.7072 40.4123 45.8141C40.5196 45.8827 40.5511 45.8766 40.595 45.808C40.6265 45.7582 40.6958 45.7394 40.7842 45.7706C40.9854 45.8203 40.7982 45.7365 41.131 45.6087C41.2506 45.5652 41.339 45.5092 41.3202 45.478C41.3013 45.453 41.3202 45.4283 41.3517 45.4283C41.4873 45.4283 41.2935 45.5999 41.6543 45.5717C42.1663 45.5171 41.4486 45.6731 41.7112 45.7647C41.9046 45.8444 42.0411 45.4585 42.2469 45.5096C42.4189 45.5561 42.3704 45.4286 42.5999 45.4286C42.9035 45.4286 42.7036 45.1146 42.9402 45.2606C43.2851 45.465 43.0013 44.7376 42.6945 44.9307C42.4943 45.0418 42.7514 44.9401 42.8395 45.049C42.8964 45.1423 42.5368 45.0987 42.4361 44.9992C42.2144 44.8023 41.8081 45.1579 41.8877 44.8435C41.9466 44.6108 41.5893 44.6258 41.4213 44.7564C41.2763 44.8748 41.106 44.906 41.106 44.8188C41.106 44.7512 40.6649 44.8367 40.6649 44.7691C40.6649 44.7379 40.608 44.6196 40.5388 44.514C40.4315 44.3332 40.3938 44.3147 40.2615 44.3706C40.0005 44.4564 39.5932 44.0833 39.5932 44.0469C39.5932 43.9701 39.4671 44.0885 39.4671 44.0033C39.4671 43.8265 39.7395 44.1063 39.9147 43.9909C40.0749 43.896 39.7242 44.0117 39.5744 43.7979C39.4128 43.5525 39.3618 43.8102 39.1206 43.8102C39.0702 43.8102 39.026 43.86 39.026 43.9162C39.026 44.0095 39.0133 44.0033 38.9379 43.9038C38.8498 43.7855 38.8433 43.7855 38.7676 43.9536C38.609 44.2981 39.0062 44.3706 38.6415 44.3706C38.4523 44.3706 38.4461 44.3582 38.4776 44.1652C38.4965 44.0592 38.4965 44.0033 38.4776 44.0469C38.449 44.1314 38.2894 44.094 38.4084 43.9474C38.4776 43.8665 38.4715 43.8541 38.3076 43.885C37.9147 43.9711 38.0596 43.5482 37.3874 43.611C36.8953 43.6516 37.2763 43.5157 36.9337 43.4988C35.6656 43.4465 35.2444 43.6802 35.2444 43.3057C35.2444 43.1751 35.1183 43.15 35.011 43.256C34.9606 43.3057 34.9291 43.2745 34.8976 43.1377C34.8533 42.9199 34.6768 42.8139 34.6768 43.0008C34.6768 43.0694 34.6453 43.1253 34.6138 43.1253C34.5179 43.1253 34.5943 42.89 34.4561 42.839C34.267 42.7642 34.368 42.7021 34.6265 42.733C35.0389 42.7892 34.7718 42.627 34.6895 42.627C34.5572 42.6209 34.3619 42.4837 34.3619 42.3842C34.3619 42.2721 34.0719 42.3095 33.9523 42.4401C33.8892 42.5087 33.7696 42.5646 33.6877 42.5646C33.2986 42.5646 33.8788 42.3052 33.7319 42.222C33.6312 42.1596 33.6562 42.0787 33.8012 42.0351C33.9273 41.9916 33.9273 41.9854 33.7635 41.9045C33.3139 41.6763 33.4579 42.0446 33.1582 41.9854C32.9778 41.937 33.1163 42.0959 32.8683 41.9977C32.6258 41.9123 32.4376 42.0003 32.4522 41.8983C32.4649 41.8547 32.4269 41.8359 32.3765 41.8609C32.1688 41.9292 32.5735 41.3984 32.2127 41.4874C32.0992 41.5186 32.093 41.5248 32.2 41.6057C32.5179 41.8359 31.388 41.7445 31.349 41.6369C31.3019 41.4968 31.5886 41.6902 31.5886 41.5745C31.5886 41.5371 31.6389 41.5059 31.702 41.5059C31.8658 41.5059 32.0677 41.3502 31.9731 41.2943C31.9354 41.2693 31.8596 41.2943 31.8028 41.3441C31.6955 41.45 31.1471 41.4874 31.1471 41.3876C31.1471 41.1178 30.0124 41.5849 30.0124 41.1572C30.0124 41.0229 29.8053 41.1091 29.8612 40.8334C29.9055 40.6218 29.792 40.5035 29.729 40.6966C29.6786 40.8461 29.5082 40.8646 29.5082 40.7151C29.5082 40.5594 29.3948 40.6966 29.3694 40.8832C29.3568 41.0015 29.3002 41.045 29.1364 41.0762C28.8841 41.126 28.7457 41.0886 28.7896 40.9829C28.8084 40.9394 28.7519 40.877 28.6634 40.8334C28.3397 40.6894 28.3849 41.1588 28.197 40.902C28.0839 40.7486 28.1125 40.8971 27.8755 40.9332C27.7306 40.9456 27.7244 40.9394 27.8251 40.8337C27.9513 40.6969 27.9701 40.5909 27.8505 40.6842C27.6811 40.8331 26.9153 40.4375 26.9933 40.3605C27.0499 40.3046 27.4913 40.3979 27.4536 40.4599C27.4348 40.4911 27.479 40.485 27.5482 40.4349C27.7806 40.2971 27.5501 40.3891 27.3655 40.2295C27.1757 40.0653 26.3813 40.0891 26.4453 39.9119C26.483 39.8124 26.4138 39.7936 26.3192 39.8869C26.275 39.9304 26.1996 39.9366 26.0858 39.8931C25.8293 39.7916 25.7539 39.9444 25.6886 39.7998C25.6444 39.6814 25.4994 39.6691 25.449 39.7747C25.4237 39.8183 25.4237 39.7624 25.4429 39.6502C25.4835 39.3551 25.3941 39.5518 25.1718 39.2953C24.9169 39.0154 24.5288 39.2186 24.365 39.0837C24.1797 38.9007 24 39.1526 23.9743 38.7476C23.9554 38.5483 23.9743 38.5171 24.0816 38.5171C24.2454 38.5171 24.2581 38.405 24.1004 38.3491C23.8914 38.2574 23.9639 38.1423 23.7728 38.2558C23.554 38.3738 23.4994 38.2912 23.4324 38.4238C23.3837 38.5519 23.2686 38.5412 23.2686 38.4238C23.2686 38.2636 22.7645 38.377 22.7645 38.2743C22.7645 38.2431 22.6383 38.2369 22.4872 38.2493C22.2918 38.2743 22.1657 38.2493 22.0461 38.1745C21.7386 37.9811 21.7474 38.3253 21.63 38.1433C21.5985 38.0936 21.5228 38.0747 21.4409 38.0998C21.239 38.1495 20.9367 38.0812 20.9367 37.9814C20.9367 37.8651 20.6845 37.8573 20.6845 37.7572C20.6845 37.6457 20.2434 37.8573 20.2434 37.6076C20.2434 37.4714 20.1173 37.5797 20.1173 37.4022C20.1173 37.1535 19.4239 37.2673 19.4239 37.147C19.4239 37.1097 19.3736 37.0846 19.3105 37.0846C19.134 37.0785 18.844 36.7859 18.7556 36.5057C18.6929 36.3663 18.6594 36.4472 18.4215 36.3751C18.1819 36.2863 18.1631 36.5863 18.1631 36.4063C18.1631 36.2398 18.3802 36.1738 18.3142 35.9954C18.2349 35.7997 17.6878 36.0276 17.4759 35.9021C17.224 35.7861 17.4558 36.1202 17.1167 36.0328C16.9087 35.983 16.8521 35.8647 17.0095 35.8212C17.2269 35.7675 16.5365 35.8108 16.8391 35.6219C16.9464 35.5533 16.9084 35.4662 16.7699 35.4662C16.5242 35.4662 16.729 35.2172 16.3538 35.2172C16.1016 35.2172 16.127 35.1178 16.3916 35.0615C16.5742 35.0242 16.5742 35.018 16.4546 34.8997C16.1621 34.6107 16.3506 34.9682 16.2089 34.9682C16.1101 34.9682 16.1985 34.8438 16.0324 34.8438C15.8754 34.8438 15.4671 34.597 15.339 34.6445C15.1879 34.7004 15.2822 34.3893 15.4398 34.3084C15.7044 34.1777 15.6729 34.1527 15.2633 34.1715C14.8915 34.1901 14.8411 34.1777 14.715 34.0347C14.633 33.9476 14.57 33.8354 14.57 33.7857C14.57 33.6498 14.1656 33.5718 14.217 33.487C14.2651 33.3921 14.0954 33.4418 14.0466 33.1694C13.9823 32.8831 13.8136 33.0427 13.8136 32.858C13.8136 32.7335 13.6875 32.5778 13.549 32.5219C13.4859 32.4969 13.4921 32.4722 13.5617 32.4225C13.745 32.297 13.404 32.4218 13.3475 32.2544C13.2906 32.1111 13.2971 32.1049 13.4294 32.1049C13.6881 32.1049 13.7892 31.8062 13.3221 31.8062C13.1128 31.7717 13.1547 31.0985 12.7169 31.3082C12.2514 31.511 12.4104 30.9441 12.2566 30.9656C12.1529 30.9825 12.0694 30.7975 11.9478 30.7975C11.8412 30.7975 11.8649 30.5486 11.9667 30.5486C12.0739 30.5486 12.0674 30.4861 11.954 30.399C11.9036 30.3617 11.8532 30.2183 11.8405 30.0815C11.7895 29.5256 11.4307 29.3937 11.6702 29.0979C11.8259 28.9035 11.8587 28.9695 11.5252 28.8674C10.7897 28.6561 11.4225 28.3694 11.0146 28.3694C10.7689 28.3694 10.7812 28.0954 11.0335 27.9898C11.2099 27.9088 11.2161 27.9027 11.128 27.7346C10.9954 27.4889 10.8508 27.5893 10.8508 27.498C10.8508 27.4014 10.9769 27.4668 10.9769 27.3735C10.9769 27.2779 10.7767 27.3533 10.8257 27.224C10.8341 27.2015 10.8356 27.1771 10.8299 27.1538C10.8243 27.1305 10.8119 27.1094 10.7942 27.0933C10.7061 27.0436 10.7689 26.9376 10.8888 26.9376C11.0981 26.9376 11.5142 26.5079 11.3049 26.5079C11.0211 26.5514 10.9457 26.3772 11.1976 26.2651C11.3552 26.1965 11.3552 26.1903 11.2353 26.072C10.9681 25.8084 11.2454 24.7581 11.4307 24.7581C11.5441 24.7581 11.8529 24.4656 11.8025 24.4094C11.771 24.3782 11.7333 24.2787 11.7079 24.1851C11.6299 23.8613 11.9221 24.0437 11.9221 23.7307C11.9221 23.4869 12.0583 23.6052 12.3697 23.5438C12.5589 23.5002 12.622 23.3881 12.4578 23.3881C12.4074 23.3881 12.3632 23.3507 12.3632 23.3071C12.3632 23.1937 11.6406 22.9522 12.0164 22.9522C12.1594 22.9522 12.0518 22.8277 12.2371 22.8277C12.4289 22.8277 12.3063 23.0269 12.4578 22.9772C12.593 22.9106 12.5716 22.8277 12.4578 22.8277C12.3421 22.8277 12.3031 22.5163 12.4893 22.5163C12.6727 22.5163 12.5752 22.3918 12.6785 22.3918C12.7712 22.3918 12.7042 22.579 12.8173 22.6905C13.0208 22.8914 13.158 22.6408 12.9623 22.6408C12.8046 22.6408 12.8427 22.2858 13.0065 22.1987C13.1326 22.1301 13.1326 22.1178 13.038 22.0492C12.9057 21.9559 12.8992 21.8935 13.0318 21.8935C13.1011 21.8935 13.1199 21.8561 13.0884 21.769C13.0507 21.6568 13.0757 21.6445 13.2903 21.6383C13.4226 21.6321 13.4856 21.6198 13.4226 21.6009C13.2753 21.5688 13.2912 21.271 13.1453 21.271C12.9714 21.271 13.1944 21.0841 13.2964 21.0841C13.4281 21.0841 13.3423 20.9349 13.0318 20.9908C12.5501 21.0861 13.0403 21.1605 12.8492 21.4205C12.7244 21.5889 12.3171 21.3263 12.1936 21.1839C11.9589 20.9343 11.8594 21.0679 11.8594 20.9411C11.8594 20.8042 11.4047 20.8823 11.3676 20.773C11.3309 20.682 11.1797 20.7675 11.103 20.5553C10.9941 20.2637 10.7419 20.5253 10.5862 20.2751C10.4682 20.0917 10.4636 20.2101 10.3089 20.0573C10.2524 20.0075 10.1262 19.964 10.0251 19.964C9.84864 19.964 9.76056 19.8457 9.91788 19.8333C10.0303 19.8174 9.54668 19.7719 9.57756 19.6653C9.58373 19.6217 9.53985 19.5905 9.47679 19.5905C9.33182 19.5905 9.14914 19.4036 9.14914 19.2606C9.14914 18.9658 8.37487 19.1033 8.35505 18.9056C8.34107 18.7945 8.33067 18.472 8.32969 18.4512C8.01244 18.7373 7.96304 18.8289 7.76866 18.5009C7.5382 18.0946 7.36852 18.4554 7.28954 18.0963C7.2177 17.7702 7.0555 18.0147 6.8673 17.8284C6.69372 17.6571 6.49739 17.7202 6.63424 17.5606C6.75224 17.4091 6.5325 17.3477 6.44506 17.3802C6.28741 17.4426 6.18665 17.2931 6.26238 17.125C6.35047 16.9319 6.33162 16.9134 5.96626 16.9007C5.48421 16.8751 5.72215 16.6641 5.45561 16.6641C5.25018 16.6641 5.38118 16.6218 5.08376 16.328C4.72393 15.9578 4.94464 15.7826 4.76846 15.7052C4.71808 15.6867 4.67387 15.5992 4.67387 15.5183C4.67387 15.2472 4.06083 15.2524 4.43431 15.2381C4.99794 15.2202 4.041 14.8259 3.81672 14.877C3.5661 14.9235 3.74358 14.7336 3.56448 14.7336C3.42471 14.7336 3.58854 14.6751 3.40683 14.5282C3.25568 14.3975 3.24918 14.1732 3.39415 14.1732C3.48874 14.1732 3.49492 14.1609 3.41301 14.1173C3.28234 14.0205 3.22383 14.1836 3.22383 13.9369C3.22383 13.686 3.03465 13.6275 3.03465 13.5261C3.03465 13.3964 2.39235 13.5248 2.67547 13.2582C2.74471 13.1896 2.78273 13.1773 2.78273 13.227C2.78273 13.2706 2.83962 13.3018 2.91503 13.3018C3.1624 13.3018 3.01515 12.9712 2.3917 12.9842C2.17132 12.9842 2.10241 12.7749 2.27208 12.8347C2.42193 12.8841 2.4229 12.7567 2.50547 12.5669C2.56593 12.4323 1.77444 12.5435 1.77444 12.43C1.77444 12.3926 1.83749 12.3803 1.92558 12.405C2.10826 12.4485 2.184 12.3491 2.09591 12.1872C2.02017 12.0565 1.81864 11.9567 1.78711 12.0439C1.76306 12.1618 1.18772 12.01 1.60443 11.6515L1.75558 11.527C1.63629 11.4399 1.47669 11.3092 1.37105 11.3092C1.22738 11.3092 1.2316 11.1552 1.09378 11.1162C1.0369 11.0976 1.0434 11.0538 1.13799 10.9543C1.24525 10.8421 1.25143 10.8109 1.1757 10.7115C1.00212 10.4755 1.16367 10.3503 0.936131 10.4001C0.756054 10.4446 0.95499 10.4105 0.95499 10.2444C0.95499 10.0861 1.14417 10.1001 1.14417 10.2194C1.14417 10.338 1.27028 10.3692 1.27028 10.1508C1.27028 9.93721 1.22218 10.1134 0.974163 9.98272C0.810341 9.89561 0.810341 9.88943 0.942635 9.85205C1.08143 9.80849 1.13799 9.69018 1.01837 9.69018C0.88575 9.69018 1.07265 9.46719 0.772636 9.53448C0.596134 9.57186 0.583458 9.55951 0.520397 9.33522C0.425808 9.01147 0.432308 8.98644 0.608482 8.85577C0.78466 8.7251 0.829193 8.44491 0.671543 8.44491C0.614662 8.44491 0.545425 8.37633 0.513893 8.28921C0.44466 8.10881 0.343571 8.08378 0.305862 8.23948C0.293186 8.30189 0.28701 8.09614 0.293186 7.77889C0.305862 7.28709 0.293186 7.21233 0.211273 7.24971C0.14204 7.27474 0.123184 7.25588 0.154388 7.18112C0.179745 7.11254 0.160568 7.07516 0.104008 7.07516C-0.066967 7.07516 0.167072 6.60806 0.412807 6.86355C0.482044 6.92596 0.545101 6.93214 0.65237 6.89475C0.901031 6.78554 0.609783 6.94319 0.507393 6.63959C0.32634 6.14454 0.137161 6.85575 0.00941849 6.63959C-0.0471382 6.5463 0.179749 6.32819 0.349751 6.32819C0.406631 6.32819 0.450512 6.29699 0.450512 6.26579C0.450512 6.14227 0.261333 6.31487 0.261333 6.0168C0.261333 5.88613 0.286686 5.84257 0.349422 5.86728C0.47554 5.91701 0.519745 5.59944 0.399803 5.48112C0.31789 5.394 0.317894 5.37515 0.393627 5.32542C0.456688 5.28804 0.456688 5.26951 0.399803 5.26951C0.303265 5.26951 0.300663 5.14502 0.387127 5.14502C0.494392 5.14502 0.702423 4.90221 0.702423 4.77154C0.702423 4.47672 1.27613 4.73188 1.25078 4.31712C1.21307 3.98297 1.12564 4.01027 1.17504 3.8315C1.27061 3.5487 1.72665 3.95014 1.65416 3.56366C1.64799 3.53863 1.71105 3.45769 1.78646 3.38943C2.01172 3.20123 1.82222 3.1736 2.05755 3.09071C2.28509 3.01042 2.29354 2.74161 2.64362 2.77314C2.80061 2.79524 2.66539 2.56056 3.00279 2.62979C3.15394 2.65482 3.217 2.64214 3.24235 2.56121C3.26771 2.5053 3.24853 2.44906 3.19197 2.43054C3.04992 2.3691 3.1923 2.03203 3.57001 2.03203C3.7023 2.03203 3.73383 2.0135 3.67077 1.97612C3.60154 1.93256 3.61389 1.89518 3.72115 1.78921C3.91293 1.59971 3.80306 1.53405 3.97956 1.53405C4.06148 1.53405 4.13071 1.47164 4.16874 1.37218C4.2318 1.21648 4.24448 1.21648 4.69825 1.23533C5.29016 1.26394 5.02785 1.25256 5.37272 0.973668C5.7007 0.680474 5.584 0.606362 5.72573 0.606362C6.01567 0.612538 6.31829 0.481869 6.29943 0.363551C6.28676 0.276438 6.33715 0.251409 6.56403 0.239058C6.82244 0.226706 6.83512 0.232881 6.72785 0.313819C6.60823 0.413283 6.63977 0.538102 6.79091 0.538102C6.92158 0.538102 7.38283 0.787089 7.44654 0.787089C7.50797 0.787089 7.6822 0.397356 7.76183 0.444488C7.78719 0.463016 7.82489 0.432136 7.84992 0.382078C7.89413 0.263761 8.05178 0.263761 8.10216 0.382078C8.17334 0.562806 8.47011 0.452939 8.2533 0.238732C8.10768 0.0950605 8.64402 0.336247 8.64402 0.132767C8.64402 -0.0323581 8.78054 0.101562 9.06008 0.101562C9.26193 0.101562 9.5392 0.369402 9.51385 0.537452C9.47614 0.799116 9.63997 0.742883 9.68417 0.481544C9.82134 -0.296948 11.2597 0.0732826 10.7051 0.195176H10.6983ZM9.89806 0.28879C9.74626 0.388905 10.0872 0.362901 10.0872 0.28879C10.0872 0.207853 10.018 0.207853 9.89806 0.28879ZM10.15 0.475368C10.15 0.669097 9.95039 0.549479 9.77811 0.65577C9.6962 0.705502 9.74658 0.705502 10.1942 0.668122C10.2888 0.661946 10.3076 0.350549 10.213 0.350549C10.1753 0.350549 10.15 0.406782 10.15 0.475368ZM14.3103 0.954815C14.3103 0.85795 14.4273 0.75686 14.2472 0.743208C13.9361 0.715253 14.3103 1.01105 14.3103 0.954815ZM13.8688 0.849174C13.8688 0.933361 13.995 0.92816 13.995 0.849174C13.995 0.768887 13.8688 0.763686 13.8688 0.849174ZM7.78621 1.04193C7.71307 1.13229 7.43191 1.0104 7.31359 1.09784C7.09418 1.24216 8.25916 1.18365 8.25916 1.15374C8.25916 1.00422 7.86845 0.904757 7.78654 1.0416L7.78621 1.04193ZM6.85332 1.01722C6.97392 1.05135 7.13774 0.98602 6.93523 0.98602C6.84715 0.98602 6.81562 0.998371 6.85332 1.01722ZM18.6594 2.03203C18.6594 2.11621 18.7855 2.11101 18.7855 2.03203C18.7855 1.95174 18.6594 1.94654 18.6594 2.03203ZM4.61568 2.15034C4.57246 2.26444 4.74961 2.20463 4.77951 2.10061C4.82274 1.98652 4.64559 2.04633 4.61568 2.15034ZM18.8613 2.2251C18.6961 2.47702 19.0472 2.45491 18.8297 2.62361C18.5739 2.80402 19.0745 2.77671 19.1324 2.58623C19.1577 2.52383 19.2016 2.46792 19.2331 2.46792C19.3404 2.46792 19.2962 2.1692 19.1762 2.13799C18.9744 2.08208 18.9432 2.09444 18.8613 2.2251ZM19.4158 2.28101C19.4158 2.37983 19.6788 2.32554 19.5546 2.38698C19.4285 2.43671 19.1762 2.69838 19.1385 2.82287C19.107 2.92233 19.1447 2.93501 19.4347 2.92234C20.1283 2.92234 20.2239 2.56413 20.0019 2.60476C19.8423 2.63337 19.9099 2.43249 19.7373 2.29954C19.6177 2.20625 19.4158 2.19357 19.4158 2.28101ZM20.519 3.15279C20.6809 3.22561 20.4875 3.1762 20.4875 3.30849C20.4875 3.41446 20.5883 3.43299 20.6451 3.33352C20.6705 3.29614 20.7271 3.28379 20.7774 3.30232C20.8782 3.3397 20.8847 3.32735 20.8278 3.19017C20.8025 3.12777 20.7144 3.09071 20.5883 3.09689C20.4244 3.09689 20.4118 3.10924 20.519 3.15279ZM19.4538 3.19017C19.4035 3.32702 19.46 3.40178 19.6303 3.40178C19.8445 3.40178 19.8699 3.33937 19.7122 3.2087C19.5419 3.06536 19.5042 3.06536 19.4538 3.19017ZM20.834 3.53245C20.9403 3.66377 21.5046 3.54415 21.0232 3.45151C20.872 3.42031 20.7898 3.45151 20.834 3.53245ZM21.3385 3.90008C21.3778 3.96477 21.6203 3.90886 21.4896 3.8315C21.395 3.77559 21.2878 3.81914 21.3385 3.90008ZM21.0862 3.96217C21.4249 4.10551 21.2897 3.89033 21.0989 3.90626C20.9666 3.90626 20.9666 3.91243 21.0862 3.96217ZM21.9372 4.58496C21.9372 4.66915 22.0633 4.66395 22.0633 4.58496C22.0633 4.50467 21.9372 4.49947 21.9372 4.58496ZM22.9458 4.77154C22.9458 4.87133 22.5418 4.79819 22.6812 4.88985C22.7255 4.91488 22.757 4.97697 22.7443 5.0267C22.719 5.13267 23.0154 5.10764 23.0846 4.9955C23.1665 4.87718 23.1415 4.70913 23.0404 4.70913C22.99 4.70913 22.9458 4.73416 22.9458 4.77154ZM23.5319 5.3693C23.5865 5.42326 23.7815 5.3381 23.6138 5.3381C23.5446 5.33192 23.5065 5.35045 23.5319 5.3693ZM0.758007 6.11041C0.758007 6.23751 0.991066 6.22906 0.991066 6.11041C0.991066 5.99177 0.758007 5.98234 0.758007 6.11041ZM26.4125 6.32819C26.2607 6.42831 26.6017 6.40231 26.6017 6.32819C26.6017 6.24726 26.5324 6.24726 26.4125 6.32819ZM25.9272 6.36558C25.9818 6.41953 26.1768 6.33437 26.0091 6.33437C25.9399 6.3282 25.9018 6.34672 25.9272 6.36558ZM27.1627 7.23118C27.1776 7.30497 27.4842 7.36023 27.4842 7.22501C27.4842 7.08166 27.1627 7.16552 27.1627 7.23118ZM28.2406 8.75663C28.2406 8.84342 28.3517 8.83302 28.3982 8.75663C28.4427 8.66887 28.2406 8.67765 28.2406 8.75663ZM29.375 9.41031C29.375 9.53675 29.5011 9.53123 29.5011 9.41031C29.5011 9.28939 29.375 9.28419 29.375 9.41031ZM28.9716 9.37293C28.9293 9.44281 29.2463 9.42851 29.205 9.36058C29.1673 9.29817 29.0096 9.30467 28.9716 9.37293ZM29.7975 9.73406C29.8983 9.63459 29.8983 9.62809 29.8037 9.62809C29.5765 9.62809 29.5843 9.94436 29.7975 9.73406ZM29.911 9.8774C29.8606 9.96029 30.0056 9.95801 30.0056 9.8774C30.0056 9.78476 29.9464 9.80752 29.911 9.8774ZM29.8164 10.313C29.8164 10.3946 30.0056 10.3946 30.0056 10.313C30.0056 10.2304 29.8164 10.2304 29.8164 10.313ZM30.2575 10.836C30.2575 10.9507 30.7678 11.0716 30.5663 10.861C30.4655 10.7489 30.2575 10.7365 30.2575 10.836ZM9.5639 18.6378C9.6845 18.6719 9.84832 18.6066 9.64582 18.6066C9.55773 18.6066 9.5262 18.6189 9.5639 18.6378ZM20.1091 19.8395C20.1091 19.9315 20.1615 19.9087 20.2037 19.8395C20.2492 19.7498 20.1091 19.7625 20.1091 19.8395ZM12.1419 20.1571C12.1906 20.2374 12.3099 20.1499 12.2553 20.0823C12.2066 20.002 12.0873 20.0895 12.1419 20.1571ZM18.5271 20.2315C18.439 20.3001 18.4514 20.3248 18.6344 20.4431C18.8297 20.5676 18.8486 20.5738 18.9055 20.4743C19.0157 20.2842 19.1792 20.5793 19.2585 20.462C19.3056 20.3846 19.001 20.3534 18.8174 20.2377C18.6724 20.1317 18.6536 20.1317 18.5274 20.2315H18.5271ZM23.0908 20.3687C22.9985 20.6424 23.3242 20.4714 23.3242 20.3625C23.3242 20.2442 23.1415 20.2504 23.0908 20.3687ZM23.9226 20.9603C23.8722 21.0432 24.0172 21.0409 24.0172 20.9603C24.0172 20.8673 23.958 20.8904 23.9226 20.9603ZM19.4035 21.0536C19.4737 21.4703 19.8543 20.8979 19.4792 20.8979C19.3973 20.8979 19.3784 20.9352 19.4035 21.0536ZM16.7055 21.0224C16.7055 21.1007 16.9903 21.1189 16.8317 21.0224C16.7121 20.9476 16.7055 20.9476 16.7055 21.0224ZM13.4466 21.1468C13.0819 21.1468 14.0401 21.4046 13.7239 21.1842C13.5766 21.0711 13.64 20.9401 13.5536 20.9911C13.4486 21.0604 13.6134 21.1468 13.4466 21.1468ZM23.4627 21.0971C23.5124 21.2115 23.6551 21.1943 23.6834 21.0971C23.7263 20.998 23.4331 20.9947 23.4627 21.0971ZM22.2714 21.0597C22.3458 21.1576 22.0991 21.3337 22.2902 21.3337C22.4524 21.3337 22.2736 21.1468 22.3783 21.1468C22.4563 21.1468 22.482 21.0224 22.3341 21.0224C22.2772 21.0224 22.2525 21.0409 22.2714 21.0597ZM20.3048 21.1719C20.2229 21.2278 20.0906 21.2466 19.3466 21.3025C18.9432 21.3337 18.8613 21.3276 18.8297 21.2466C18.7205 20.9541 18.1868 21.44 18.1868 21.1907C18.1868 21.1533 18.1237 21.1098 18.0418 21.0974C17.7373 21.05 18.0938 21.521 17.7142 21.521C17.2451 21.521 17.7577 21.8483 18.1237 21.8571C18.3444 21.8632 18.376 21.8821 18.401 22.0189C18.4179 22.2533 18.6305 22.2296 18.4702 22.3303C18.3149 22.4246 18.5964 22.4217 18.5964 22.2991C18.5964 22.1964 18.7036 22.1317 18.7036 22.3615C18.7036 22.6889 18.0984 22.411 18.1803 22.5732C18.2469 22.672 18.6974 22.6154 18.7475 22.6977C18.7998 22.7623 19.3635 22.7961 19.3085 22.6603C19.2582 22.5439 19.435 22.6252 19.4031 22.4672C19.3716 22.293 19.6931 22.293 19.8192 22.4672C19.8757 22.5481 19.9388 22.604 19.9515 22.5917C19.9824 22.5816 20.1923 22.5699 20.0588 22.6229C19.8046 22.7172 20.807 23.0315 20.9036 22.8033C20.9478 22.6788 21.0801 22.6726 21.1746 22.7848C21.2124 22.8345 21.4392 22.9031 21.6788 22.9466C22.0822 23.0214 22.1199 23.0399 22.1391 23.1894C22.1517 23.2954 22.2021 23.3637 22.2779 23.3764C22.3724 23.3949 22.3913 23.3764 22.3598 23.2704C22.2899 22.9938 22.7853 23.2177 22.5424 23.3016C22.2395 23.4014 22.6861 23.588 23.0027 23.5444C23.4165 23.4882 22.8386 23.614 23.0154 23.6315C23.135 23.6377 23.2361 23.8246 23.1227 23.8246C23.085 23.8246 23.0723 23.8431 23.0911 23.862C23.1669 23.9367 23.3245 23.7498 23.3245 23.5818C23.3245 23.4573 23.3372 23.4384 23.3876 23.5132C23.4253 23.5756 23.5703 23.6065 23.8098 23.6192C24.3335 23.6354 24.0803 23.7625 24.4654 23.7625C24.8126 23.7625 24.6501 23.887 24.8373 23.887C25.0531 23.887 24.8519 24.043 25.1526 23.9803C25.423 23.9176 25.3518 24.0456 25.8144 24.111C25.9847 24.136 26.0917 24.1669 26.0478 24.1795C26.0101 24.1981 25.972 24.242 25.972 24.279C25.972 24.3499 25.3054 24.8404 26.1297 24.6028C26.2617 24.581 26.4203 24.8007 26.4765 24.6899C26.6049 24.4997 27.6282 24.802 28.002 24.802C28.6956 24.802 28.3696 24.9454 28.6638 24.9454C28.7834 24.9454 28.8149 24.9704 28.7961 25.0513C28.7519 25.2194 29.3002 25.1947 29.4013 25.0328C29.4705 24.9145 29.5463 24.9021 30.145 24.9333C30.3846 24.9457 30.4792 25.0829 30.3027 25.1511C30.198 25.1953 30.4233 25.2184 30.4853 25.1261C30.5341 25.0299 30.7626 25.1475 30.7626 25.0513C30.7626 24.9402 30.929 25.2382 31.0399 25.207C31.1728 25.1908 31.1699 25.3982 31.2668 25.3504C31.3704 25.2821 31.1933 25.1989 31.3864 25.1511C31.7 25.0738 31.3509 24.881 31.3106 24.9207C31.2226 25.0139 31.0018 24.8521 30.9073 24.6281C30.8315 24.4412 30.7811 24.3853 30.6739 24.3977C29.7247 24.4974 29.8336 23.7498 30.0056 23.8558C30.133 23.9367 30.7464 23.7313 29.9867 23.7313C29.3015 23.7313 30.0888 23.4635 29.268 23.4635C28.3624 23.4511 28.5399 23.1755 28.4232 23.233C28.3917 23.258 28.3098 23.233 28.2529 23.1833C28.196 23.1335 28.0133 23.0711 27.8495 23.0464C27.2206 22.9509 27.6798 22.6843 26.9105 22.5234C26.366 22.4126 26.497 22.3957 25.8514 22.1935C25.1848 21.9959 25.478 21.8948 25.0447 21.8948C24.4658 21.8948 25.0135 21.6458 24.364 21.6458C23.7741 21.6458 24.2327 21.4748 23.595 21.4901C23.0401 21.5024 21.7922 21.3406 21.7165 21.2473C21.6788 21.1975 21.6031 21.1849 21.5273 21.2099C21.357 21.2723 20.9474 21.2099 21.0609 21.1413C21.1941 21.0682 20.4244 21.1049 20.3045 21.1725L20.3048 21.1719ZM17.6511 21.1468C17.6511 21.231 17.7772 21.2258 17.7772 21.1468C17.7772 21.0666 17.6511 21.0614 17.6511 21.1468ZM16.3968 21.3149C16.4114 21.5603 16.4189 21.2713 16.5544 21.2713C16.7689 21.2713 16.3831 20.9482 16.3968 21.3149ZM17.0836 21.5206C17.0836 21.5519 17.1466 21.5831 17.2224 21.5766C17.3612 21.5766 17.3612 21.5704 17.2412 21.5206C17.0836 21.4498 17.0836 21.4449 17.0836 21.5206ZM13.5539 21.7134C13.5539 21.7956 13.68 21.7189 13.68 21.6386C13.68 21.5597 13.5539 21.6263 13.5539 21.7134ZM27.6733 22.1308C27.541 22.0437 27.4211 22.1057 27.5284 22.2117C27.6165 22.2988 28.3036 22.355 28.3036 22.2676C28.3036 22.2364 28.3478 22.2052 28.3982 22.2052C28.5204 22.2052 28.535 22.0807 28.3728 22.0807C27.884 22.0807 28.1677 21.7352 27.9318 21.9374C27.7263 22.1035 27.9955 22.3264 27.6733 22.1308ZM26.98 21.8941C26.98 22.0498 27.6197 21.9751 27.2446 21.8756C27.0554 21.8259 26.98 21.832 26.98 21.8941ZM16.6867 22.199C16.2186 22.436 16.9578 22.4194 16.9578 22.199C16.9578 22.0557 16.9705 22.0557 16.6867 22.199ZM13.1947 22.5478C13.0686 22.6723 13.119 22.722 13.3208 22.6723C13.4531 22.6349 13.472 22.6099 13.4089 22.5416C13.3458 22.471 13.2744 22.473 13.1947 22.5478ZM28.9339 22.6973C28.9339 22.776 29.1861 22.6924 29.1861 22.6661C29.1861 22.6382 28.9339 22.6196 28.9339 22.6973ZM20.456 23.0835C20.3064 23.3117 20.7979 23.0279 20.6009 23.0149C20.5444 23.0149 20.4748 23.0461 20.456 23.0835ZM17.9661 23.2015C17.7555 23.3679 17.7356 23.3464 18.0291 23.2639C18.2963 23.1807 18.3022 23.2259 18.2499 23.1394C18.193 23.0523 18.1491 23.0643 17.9661 23.2015ZM17.5881 23.2639C17.5881 23.3448 17.7961 23.3471 17.7457 23.2639C17.709 23.1914 17.5881 23.1722 17.5881 23.2639ZM21.1808 23.457C21.1808 23.3575 20.7521 23.3946 20.7144 23.4943C20.689 23.5568 20.6009 23.5753 20.4118 23.5568C19.892 23.4999 19.8007 23.7622 20.1472 23.7622C20.2291 23.7622 20.2983 23.7996 20.2983 23.8369C20.2983 23.8867 20.3172 23.8929 20.3487 23.8555C20.4179 23.756 20.9286 23.7684 20.9286 23.8678C20.9286 23.9364 21.1304 23.9861 21.1997 23.9302C21.2436 23.9085 21.4331 24.135 21.4331 24.0173C21.4331 23.9202 21.6853 23.9735 21.6853 23.8929C21.6853 23.8122 21.3827 23.7745 21.3134 23.8431C21.172 23.9826 20.9978 23.6377 21.3134 23.6377C21.489 23.6377 21.3846 23.5132 21.5215 23.5132C21.6161 23.5132 21.698 23.3637 21.6411 23.3016C21.5884 23.2496 21.1808 23.547 21.1808 23.457ZM18.7855 23.351C18.7855 23.3978 18.9117 23.4716 18.9117 23.3946C18.9117 23.3042 18.7855 23.3208 18.7855 23.351ZM19.605 23.8616C19.605 23.9549 19.6619 23.9738 19.7626 23.899C19.8195 23.8617 19.8319 23.8057 19.8003 23.6624C19.7877 23.5876 19.605 23.7745 19.605 23.8616ZM23.6392 23.9861C23.4058 24.0359 23.3934 24.173 23.6203 24.229C23.8683 24.278 23.8033 24.4045 24.0491 24.3284C24.2317 24.2849 24.2317 24.2787 24.0868 24.2413C23.9671 24.2101 23.9418 24.1727 23.9733 24.0359C24.0175 23.7992 23.948 23.6312 23.8852 23.8181C23.8537 23.899 23.7588 23.9676 23.6392 23.9861ZM30.8439 23.7992C30.8985 23.8532 31.0935 23.768 30.9258 23.768C30.8565 23.7619 30.8185 23.7804 30.8439 23.7992ZM30.3521 23.9488C30.3017 24.0317 30.4467 24.0294 30.4467 23.9488C30.4467 23.8558 30.3875 23.8789 30.3521 23.9488ZM24.4586 24.2602C24.4586 24.3489 24.6478 24.2452 24.6478 24.2228C24.6478 24.1968 24.4586 24.1721 24.4586 24.2602ZM24.9186 24.4779C25.019 24.6863 25.0639 24.605 25.3912 24.5589C25.5488 24.5404 25.4227 24.4155 25.2085 24.3782C24.8366 24.3096 24.8428 24.3099 24.9186 24.4779ZM12.1672 24.422C12.1672 24.5498 12.3073 24.4536 12.2618 24.3785C12.2049 24.2914 12.1672 24.3099 12.1672 24.422ZM21.8553 24.503C21.8049 24.7022 21.8995 24.777 22.0507 24.6463C22.2272 24.4968 22.2272 24.4594 22.0445 24.4285C21.8654 24.399 21.9024 24.3482 21.8553 24.503ZM22.6936 24.5716C22.6936 24.6557 22.8197 24.6505 22.8197 24.5716C22.8197 24.4913 22.6936 24.4861 22.6936 24.5716ZM27.1058 25.1319C27.1058 25.2135 27.295 25.2135 27.295 25.1319C27.295 25.0494 27.1058 25.0494 27.1058 25.1319ZM32.0856 25.2564C32.0856 25.3422 32.2968 25.2906 32.4763 25.3871C32.5709 25.4368 32.5959 25.4368 32.5582 25.3809C32.4701 25.2441 32.0856 25.1381 32.0856 25.2564ZM29.2869 25.2873C29.1214 25.4063 29.2297 25.3829 29.4507 25.4118C29.6587 25.4368 29.7345 25.3494 29.583 25.2623C29.438 25.1813 29.4319 25.1813 29.2869 25.2873ZM31.9468 26.097C32.0527 25.9836 32.2279 25.7749 32.3628 25.7482C32.5897 25.7047 32.5393 25.5864 32.2998 25.6049C31.9858 25.6211 32.0381 25.5864 31.9468 26.097ZM28.3413 25.7232C28.4327 25.9036 28.5897 25.6299 28.3982 25.6299C28.3413 25.6299 28.3225 25.6673 28.3413 25.7232ZM27.4842 25.6549C27.4842 25.6842 27.7995 25.7495 27.7995 25.6861C27.7995 25.6094 27.4842 25.626 27.4842 25.6549ZM30.6358 25.8789C30.6358 25.9657 30.747 25.9553 30.7935 25.8789C30.838 25.7911 30.6358 25.7999 30.6358 25.8789ZM27.5661 25.8542C27.6207 25.9082 27.8157 25.823 27.648 25.823C27.5788 25.8168 27.5407 25.8353 27.5661 25.8542ZM11.4674 26.7383C11.5698 26.7673 11.7538 26.6181 11.5304 26.6697C11.4485 26.6948 11.417 26.7195 11.4674 26.7383ZM11.2217 27.4976C11.2217 27.5818 11.3478 27.5766 11.3478 27.4976C11.3478 27.4174 11.2217 27.4122 11.2217 27.4976ZM12.3752 29.4031C12.4299 29.457 12.6249 29.3719 12.4572 29.3719C12.3879 29.3657 12.3499 29.3842 12.3752 29.4031ZM12.8732 30.8414C12.8459 30.949 13.1128 30.9581 13.1128 30.8229C13.1128 30.7108 12.9174 30.7296 12.8732 30.8414ZM13.1125 31.2897C13.1125 31.408 13.3078 31.4951 13.4843 31.4639C13.8266 31.3794 13.5506 31.6696 14.0011 31.302C13.7957 31.3088 13.2386 31.3384 13.2386 31.2835C13.2386 31.2211 13.1125 31.2126 13.1125 31.2897ZM14.2787 33.226C14.2284 33.3089 14.3733 33.3066 14.3733 33.226C14.3733 33.1333 14.3142 33.1561 14.2787 33.226ZM14.8271 33.9235C14.8768 34.0379 15.0195 34.0207 15.0478 33.9235C15.0907 33.8244 14.7975 33.8211 14.8271 33.9235ZM17.0586 34.2099C16.8726 34.1699 16.8947 34.2109 16.8947 34.5649C16.8372 34.494 16.6425 34.2375 16.6425 34.3282C16.6425 34.4683 16.3048 34.3383 16.3652 34.5024C16.4094 34.6146 16.6425 34.6269 16.6425 34.5148C16.6487 34.4712 16.6802 34.4836 16.7306 34.5522C16.9006 34.7761 17.0231 34.4014 17.1401 34.5834C17.2123 34.702 17.4148 34.3324 17.3482 34.3656C17.3166 34.3906 17.304 34.3344 17.3166 34.2349C17.3569 33.9824 17.3131 34.257 17.0586 34.2099ZM17.4304 34.272C17.4759 34.3168 17.6807 34.1234 17.5061 34.1972C17.4431 34.2158 17.4116 34.2531 17.4304 34.272ZM16.1192 34.4839C16.2264 34.4215 16.2199 34.4153 16.075 34.3594C15.7561 34.2427 15.8845 34.6087 16.1192 34.4839ZM16.5794 34.7888C16.5794 34.8808 16.7416 34.782 16.6802 34.9942C16.624 35.2439 17.0836 35.6404 17.0836 35.3739C17.0836 35.3242 17.0332 35.2806 16.9701 35.2806C16.8882 35.2744 16.9009 35.2494 17.0332 35.1499C17.2715 34.9881 17.1723 34.8821 17.2854 34.8262C17.3914 34.7813 16.9536 34.8473 16.8443 34.7391C16.7624 34.6581 16.5798 34.6955 16.5798 34.7888H16.5794ZM17.6826 35.0316C17.7291 35.1083 17.8403 35.1181 17.8403 35.0316C17.8403 34.9526 17.6384 34.9439 17.6826 35.0316ZM18.4075 35.6853C18.4075 35.7913 18.4202 35.7974 18.5587 35.7412C18.8645 35.6229 18.4075 35.5033 18.4075 35.6853ZM17.903 35.7165C17.903 35.8007 18.0291 35.7955 18.0291 35.7165C18.0291 35.6362 17.903 35.631 17.903 35.7165ZM17.6761 35.8225C17.7392 35.8849 17.7958 35.7913 17.7392 35.7103C17.6638 35.5738 17.6368 35.7835 17.6761 35.8225ZM19.8572 36.7687C19.8572 36.98 20.3025 36.7697 19.996 36.6939C19.8462 36.6445 19.8572 36.6315 19.8572 36.7687ZM22.1579 36.9556C22.232 37.0167 22.6468 37.1747 22.4982 37.0053C22.3741 36.8675 22.0841 36.8828 22.1579 36.9556ZM20.4056 37.3356C20.3679 37.4851 20.3994 37.4913 20.5252 37.373C20.7332 37.1672 20.4563 37.1513 20.4056 37.3356ZM21.54 37.7711C21.2351 38.1326 21.7321 37.9119 21.748 37.6902C21.748 37.6093 21.6534 37.6466 21.54 37.7711ZM25.8768 39.1783C25.7572 39.228 25.7572 39.3278 25.8768 39.3278C26.0179 39.3278 25.9249 39.2033 26.066 39.2033C26.207 39.2033 26.1141 39.3278 26.2552 39.3278C26.3917 39.3278 26.3182 39.1409 26.4128 39.1409C26.4694 39.1409 26.5942 38.9719 26.2048 38.9852C25.7913 38.9852 26.0692 39.1071 25.8771 39.1783H25.8768ZM24.8997 39.0164C24.8997 39.1084 24.952 39.0856 24.9943 39.0164C25.0398 38.9267 24.8997 38.9394 24.8997 39.0164ZM27.9318 39.8323C27.7176 39.907 27.6922 39.9629 27.8183 40.0627C27.8814 40.1125 27.9695 40.1125 28.146 40.0689C28.6342 39.933 28.3839 40.4014 28.7762 40.2994C28.9401 40.2558 28.9466 40.2496 28.8393 40.1375C28.6615 39.9441 28.5129 40.0816 28.3351 39.8885C28.2028 39.7452 28.1963 39.7448 27.9318 39.8323ZM27.3769 39.9815C27.4338 40.0065 27.5219 39.9815 27.5788 39.9256C27.6733 39.8323 27.6733 39.8261 27.5661 39.8261C27.4588 39.8261 27.1936 39.921 27.3769 39.9815ZM26.6647 39.8882C26.6647 39.9698 26.8539 39.9698 26.8539 39.8882C26.8539 39.8056 26.6647 39.8056 26.6647 39.8882ZM28.0198 40.2617C27.963 40.3462 28.3036 40.3419 28.3036 40.2617C28.3036 40.1749 28.0592 40.184 28.0198 40.2617ZM28.4421 40.6166C28.616 40.6511 28.8373 40.5854 28.5555 40.5854C28.4359 40.5854 28.3852 40.5978 28.4421 40.6166ZM32.9681 41.3577C32.9681 41.4783 33.0942 41.398 33.0942 41.3142C33.0942 41.2475 32.9681 41.2173 32.9681 41.3577ZM34.6889 41.8931C34.735 42.0147 34.7441 41.7104 34.695 41.7748C34.6762 41.7933 34.6697 41.8495 34.6889 41.8931ZM34.2475 41.9119C34.1906 42.0364 34.1971 42.0676 34.2663 42.0676C34.4132 42.0676 34.3008 42.2766 34.449 42.13C34.5943 41.9776 34.4448 41.5219 34.2471 41.9123L34.2475 41.9119ZM37.1407 42.2916C37.2038 42.3475 37.6514 42.4349 37.7079 42.4037C37.796 42.3478 37.7648 42.1921 37.6637 42.1921C37.6133 42.1921 37.5691 42.1609 37.5691 42.1297C37.5691 41.9542 37.0673 42.1947 37.1407 42.2916ZM35.9683 42.1047C35.8454 42.145 35.8366 42.2695 35.9306 42.223C35.9621 42.2045 36.0567 42.2292 36.1324 42.2789C36.3466 42.4284 36.4224 42.3972 36.2459 42.2292C36.0567 42.0488 36.0879 42.0611 35.9683 42.1047ZM38.9561 42.5594C38.9561 42.6491 39.0822 42.7197 39.0822 42.603C39.0822 42.4681 38.9561 42.4892 38.9561 42.5594ZM34.5881 42.5468C34.7087 42.5809 34.8725 42.5155 34.67 42.5155C34.5819 42.5155 34.5504 42.5279 34.5881 42.5468ZM36.8131 42.6901C36.8131 42.7714 37.0842 42.773 37.0338 42.6901C36.9964 42.6163 36.8131 42.5994 36.8131 42.6901ZM35.5587 42.7086C35.5018 42.6215 35.048 42.6901 35.048 42.7834C35.048 42.9196 36.1958 42.8188 36.2267 42.7957C36.2455 42.7707 36.3148 42.7834 36.3843 42.8208C36.5231 42.8955 36.8131 42.8269 36.6869 42.7522C36.566 42.6839 36.3951 42.7915 36.3466 42.6963C36.2439 42.5497 35.6361 42.823 35.5587 42.7086ZM39.4541 43.0324C39.6117 42.9826 39.6368 42.7337 39.4856 42.7645C39.2834 42.8091 39.145 43.138 39.4541 43.0324ZM37.0399 42.9144C36.9879 43.0688 37.1368 43.1881 36.9896 43.0824C36.7851 42.9092 36.6453 43.3431 37.2164 43.1819C37.7606 43.0366 37.1443 42.6345 37.0399 42.9141V42.9144ZM38.3889 43.1198C38.3889 43.1842 38.83 43.3574 38.83 43.1572C38.83 43.0174 38.3889 43.0574 38.3889 43.1198ZM41.5594 43.4374C41.5448 43.6418 41.5718 43.4374 41.7044 43.4374C41.7548 43.4374 41.7925 43.3938 41.7925 43.3379C41.7925 43.176 41.5721 43.2632 41.5594 43.4374ZM42.114 43.4748C42.0824 43.506 42.0886 43.8109 42.1266 43.8483C42.1455 43.8668 42.2905 43.8606 42.4481 43.8421C42.7003 43.8047 42.7192 43.7862 42.6435 43.7052C42.4969 43.5606 42.3782 43.7995 42.4481 43.5372C42.4858 43.3815 42.4796 43.3753 42.3158 43.4127C42.2151 43.4377 42.1266 43.4621 42.114 43.4748ZM43.8728 43.5928C43.8728 43.7907 44.1085 43.6262 44.0178 43.5368C43.9485 43.4683 43.8728 43.4995 43.8728 43.5928ZM45.6186 43.7735C45.5621 43.9129 45.7636 43.8018 45.7636 43.7423C45.7636 43.6552 45.6563 43.6799 45.6186 43.7735ZM41.6036 43.7485C41.6036 43.8294 41.8117 43.8317 41.7613 43.7485C41.7246 43.676 41.6036 43.6568 41.6036 43.7485ZM44.5346 43.8109C44.4767 43.9107 45.133 43.7485 44.7365 43.7485C44.6484 43.7485 44.5538 43.7797 44.5346 43.8109ZM40.7338 44.0348C40.5131 44.0972 40.57 44.2029 40.7969 44.1593C41.1531 44.0872 41.2253 43.9227 40.7338 44.0348ZM43.1291 44.3277C42.5453 44.5026 43.3651 44.6063 43.419 44.446C43.4499 44.3394 43.6209 44.3995 43.6209 44.3092C43.6209 44.2718 43.6839 44.2594 43.772 44.2841C44.1458 44.3693 44.3145 43.9558 43.1291 44.3277ZM47.6736 44.2217C47.7282 44.2757 47.9232 44.1905 47.7555 44.1905C47.6863 44.1843 47.6482 44.2029 47.6736 44.2217ZM41.6036 44.4707C41.6036 44.6969 41.9264 44.3713 41.7044 44.3713C41.6475 44.3713 41.6036 44.4148 41.6036 44.4707ZM45.7701 44.6202C45.6063 44.6202 45.2406 44.9255 45.3983 44.9316C45.5741 44.9316 45.5536 44.6992 45.7324 44.7636C45.9229 44.8471 46.1166 44.4958 45.9531 44.4958C45.8504 44.4958 45.944 44.6202 45.7701 44.6202ZM45.0703 44.838C45.2211 45.0142 44.6292 44.865 44.6292 44.9937C44.6292 45.1536 45.03 44.9102 44.7173 45.2427C44.3656 45.5902 44.5089 45.1153 44.2255 45.3796C44.1374 45.4543 44.0301 45.4917 43.9167 45.4728C43.8221 45.4605 43.7464 45.4728 43.7464 45.504C43.7464 45.5593 43.6202 45.5944 43.6202 45.4605C43.6202 45.3298 43.513 45.3422 43.4753 45.4855C43.4411 45.6266 43.7064 45.9796 44.0109 45.6786C44.1244 45.5726 44.219 45.5541 44.6097 45.5665C45.0384 45.585 45.0635 45.5915 44.9565 45.6786C44.8935 45.7345 44.8492 45.8093 44.8684 45.8528C44.9 45.962 44.6753 45.8899 44.5723 46.0085C44.4654 46.1493 44.1247 45.9838 44.1247 46.108C44.1247 46.2006 44.3922 46.1811 44.5154 46.2013C44.7316 46.2318 44.8879 46.6911 44.9757 46.4317C45.0374 46.1873 44.8791 46.0521 45.0326 46.0521C45.146 46.0521 45.1714 45.8964 45.0703 45.8343C45.0326 45.8093 45.0387 45.7472 45.0956 45.6601C45.2091 45.4858 45.2091 45.1806 45.0956 45.1806C44.9763 45.1806 44.9919 45.0561 45.0641 45.0561C45.1398 45.0561 45.2091 44.8757 45.1587 44.801C45.1158 44.7301 44.9536 44.7087 45.0706 44.8383L45.0703 44.838ZM45.8582 44.8692C45.6765 44.9479 45.8312 44.8998 46.0409 44.9687C46.1101 44.9937 46.1416 44.9749 46.1416 44.9063C46.1416 44.8003 46.0536 44.788 45.8579 44.8689L45.8582 44.8692ZM43.0722 44.9316C42.974 45.3201 43.6206 45.0691 43.6206 44.9004C43.6206 44.7636 43.0911 44.7945 43.0722 44.9316ZM45.3856 45.1556C45.3856 45.3666 45.946 45.3763 45.6313 45.2053C45.4675 45.1182 45.3856 45.0994 45.3856 45.1556ZM43.2741 45.243C43.224 45.3256 43.4317 45.3243 43.4317 45.243C43.4317 45.1507 43.3105 45.1709 43.2741 45.243ZM46.5265 45.3301C46.3659 45.5343 46.7722 45.5027 46.7722 45.3301C46.7722 45.218 46.6211 45.218 46.5265 45.3301ZM47.4782 45.4793C47.4493 45.5791 47.6547 45.5866 47.6547 45.4543C47.6547 45.3483 47.5159 45.3672 47.4782 45.4793ZM45.4106 45.8779C45.4405 46.1444 45.4187 46.16 45.5683 46.0274C45.7548 45.8596 45.7675 46.0417 45.9213 45.9279C46.022 45.847 46.142 45.8905 46.142 46.015C46.142 46.0586 46.2301 46.0898 46.3627 46.0898C46.9133 46.0898 46.2135 45.7732 45.8205 45.8346C45.6628 45.8596 45.5683 45.8408 45.5117 45.7722C45.3983 45.6354 45.3729 45.6539 45.4109 45.8782L45.4106 45.8779ZM41.1434 45.7225C41.264 45.7566 41.4278 45.6913 41.2253 45.6913C41.1372 45.6913 41.1057 45.7036 41.1434 45.7225ZM39.1011 45.7784C39.1557 45.8323 39.3507 45.7472 39.183 45.7472C39.1138 45.741 39.0757 45.7595 39.1011 45.7784ZM39.2714 45.9403C39.2714 46.0212 39.4164 45.9715 39.4479 45.8779C39.4791 45.7699 39.2714 45.8648 39.2714 45.9403ZM42.1078 45.9653C42.1078 45.9932 42.3877 46.0154 42.3285 45.9279C42.297 45.8782 42.1078 45.9094 42.1078 45.9653ZM39.0192 46.1831C39.0192 46.1145 38.7669 45.9838 38.7039 46.0212C38.6168 46.0787 38.4932 45.8564 38.3509 45.9091C38.1558 45.9734 39.0192 46.4262 39.0192 46.1831ZM41.0992 46.158C41.0992 46.3349 41.3169 46.1051 41.4522 46.2887C41.5152 46.3635 41.5341 46.3697 41.5402 46.3072C41.5402 46.1447 41.8351 46.3814 42.0129 46.1766C42.1263 46.0521 42.1201 46.0521 41.8679 46.0521C41.458 46.0521 41.7428 45.9182 41.3511 46.0023C41.1999 46.0397 41.0988 46.1018 41.0988 46.158H41.0992ZM39.6179 45.9962C39.4941 46.1798 39.8669 46.1086 39.8071 45.99C39.7567 45.9091 39.6683 45.9091 39.6179 45.9962ZM36.9392 46.3137C36.9392 46.4831 37.3331 46.4334 37.286 46.3635C37.2239 46.2406 37.0653 46.3875 37.0653 46.158C37.0653 45.9305 36.9392 46.2114 36.9392 46.3137ZM40.6139 46.1519C40.6685 46.2058 40.8635 46.1207 40.6958 46.1207C40.6265 46.1145 40.5885 46.133 40.6139 46.1519ZM48.3858 46.3947C48.4914 46.6424 49.0593 46.4821 48.6757 46.3947C48.5623 46.3762 48.4739 46.3261 48.4739 46.2952C48.4739 46.2123 48.3399 46.2747 48.3858 46.3947ZM45.4675 46.4382C45.5136 46.5598 45.5227 46.2556 45.4737 46.3199C45.4548 46.3385 45.4483 46.3947 45.4675 46.4382ZM36.6554 46.3635C36.8257 46.4382 36.8761 46.4382 36.8761 46.3635C36.8761 46.3261 36.8004 46.3011 36.6996 46.3076C36.5485 46.3076 36.542 46.3137 36.6554 46.3635ZM34.2728 46.5257C34.4305 46.538 34.4366 46.5319 34.342 46.4633C34.279 46.4197 34.2475 46.3638 34.2728 46.3449C34.4129 46.2065 33.6962 46.4603 34.2728 46.5257ZM37.7271 46.619C37.7271 46.9941 37.4635 46.9434 37.7648 47.0113C37.8844 47.0298 38.0044 47.0175 38.0548 46.9801C38.187 46.868 38.515 46.8494 38.515 46.9489C38.515 47.126 39.0894 46.8683 38.6853 46.8556C38.6096 46.8556 38.5846 46.8371 38.6223 46.8182C38.7484 46.7685 38.5465 46.6066 38.4204 46.6563C38.2407 46.721 38.2777 46.4883 38.0424 46.4883C37.9605 46.4883 37.8721 46.4571 37.8532 46.4259C37.7713 46.3014 37.7271 46.37 37.7271 46.619ZM36.1197 46.4883C36.1197 46.5741 36.2936 46.565 36.3404 46.4883C36.3843 46.4012 36.1197 46.4083 36.1197 46.4883ZM41.761 46.5504C41.7106 46.6333 41.8555 46.631 41.8555 46.5504C41.8555 46.4577 41.7964 46.4805 41.761 46.5504ZM37.103 46.7808C37.2164 46.8244 37.3991 46.6375 37.3426 46.5442C37.3071 46.486 36.7984 46.6472 37.103 46.7808ZM48.1589 46.6128C48.1589 46.694 48.43 46.6957 48.3796 46.6128C48.3422 46.539 48.1589 46.5221 48.1589 46.6128ZM35.3633 46.6437C35.3633 46.7886 35.3991 46.7477 35.4514 46.6437C35.4986 46.5198 35.3633 46.5185 35.3633 46.6437ZM34.9788 46.6563C34.8361 46.8325 35.0279 46.6749 35.1807 46.6749C35.2122 46.6749 35.2376 46.6437 35.2376 46.6125C35.2376 46.513 35.0737 46.5377 34.9791 46.656L34.9788 46.6563Z" fill="black" transform="translate(24, 11)"/>
</svg>
