<svg width="100" height="97" viewBox="0 0 100 97" fill="none" xmlns="http://www.w3.org/2000/svg">
  <path d="M63.476 85.3752C34.7779 109.044 11.3461 93.0083 6.19823 69.044C1.05034 45.0796 -8.23955 22.772 15.3698 3.60056C24.6597 -3.97335 49.7483 2.18045 58.5648 5.90824C81.8782 15.7898 103.239 18.2159 98.8012 33.7779C92.7658 54.902 81.5232 70.4641 63.476 85.3752Z" fill="#FF7AB8"/>
  <path d="M14.2227 67.8053C14.2227 67.8752 14.2592 67.9095 14.3039 67.882C14.3486 67.8545 14.3852 67.7972 14.3852 67.7551C14.3852 67.713 14.3486 67.6783 14.3039 67.6783C14.2596 67.6783 14.2227 67.7353 14.2227 67.8053Z" fill="#010101"/>
  <path d="M36.8517 56.2017C36.8045 56.2017 36.7656 56.2382 36.7656 56.2829C36.7656 56.3279 36.7818 56.3642 36.8016 56.3642C36.8213 56.3642 36.8602 56.3276 36.8877 56.2829C36.9152 56.2382 36.8993 56.2017 36.8517 56.2017Z" fill="#010101"/>
  <path d="M27.241 62.8759C27.2882 62.8759 27.3271 62.8393 27.3271 62.7946C27.3271 62.75 27.3109 62.7134 27.2912 62.7134C27.2717 62.7134 27.2326 62.75 27.205 62.7946C27.1772 62.8396 27.1934 62.8759 27.241 62.8759Z" fill="#010101"/>
  <path d="M51.84 47.4116C51.8037 47.4116 51.7843 47.0467 51.7966 46.6006C51.8128 46.013 51.7892 45.7601 51.7115 45.6824C51.6525 45.6235 51.6124 45.448 51.6228 45.2926C51.6328 45.1376 51.6205 44.9754 51.5956 44.9323C51.5703 44.8893 51.5392 44.7795 51.5263 44.6882C51.4823 44.379 51.4541 44.278 51.377 44.1556C51.3273 44.0671 51.2929 43.9708 51.2751 43.8707C51.2375 43.626 51.0617 43.2605 50.9821 43.2605C50.9432 43.2605 50.9348 43.1695 50.9626 43.0581C51.0002 42.9089 50.9484 42.7658 50.7655 42.5133C50.6289 42.3249 50.5376 42.118 50.5625 42.0532C50.5874 41.9885 50.5489 41.8457 50.4773 41.7363C50.4055 41.6269 50.366 41.5184 50.3893 41.4948C50.4126 41.4711 50.3618 41.3776 50.2766 41.286C50.1912 41.1943 50.1455 41.0794 50.175 41.0302C50.2044 40.981 50.1646 40.9926 50.0866 41.0558C49.9636 41.1558 49.9273 41.1532 49.8104 41.0364C49.6855 40.9114 49.6887 40.89 49.8551 40.7349C50.0866 40.519 50.0811 40.4795 49.7952 40.317C49.6265 40.2208 49.5692 40.1367 49.5981 40.0266C49.6204 39.9411 49.5812 39.8236 49.511 39.7653C49.4407 39.7071 49.3834 39.5866 49.3834 39.4979C49.3834 39.3856 49.3452 39.3509 49.2572 39.3849C49.1875 39.4115 49.1516 39.3998 49.1772 39.3584C49.2028 39.3169 49.1448 39.2282 49.0487 39.1609C48.9422 39.0864 48.8929 38.989 48.9224 38.9116C48.9506 38.8384 48.8997 38.7187 48.8023 38.6277C48.7097 38.5412 48.6547 38.4367 48.6802 38.3949C48.7382 38.3013 48.4264 37.8711 48.0667 37.5486C47.9181 37.4153 47.8064 37.2566 47.8188 37.1964C47.8311 37.1362 47.8039 37.0633 47.7576 37.0349C47.7116 37.0064 47.674 36.9209 47.674 36.8448C47.674 36.7687 47.6035 36.6622 47.517 36.6085C47.4306 36.5547 47.3092 36.4084 47.247 36.2838C47.1849 36.1591 47.0906 36.0659 47.0379 36.0772C46.9848 36.0882 46.9417 36.0607 46.9417 36.016C46.9417 35.9714 46.9786 35.9348 47.0236 35.9348C47.0725 35.9348 47.0647 35.869 47.0045 35.7729C46.9488 35.6839 46.8663 35.6149 46.8206 35.6198C46.6332 35.6398 46.5277 35.6049 46.5694 35.5372C46.594 35.4977 46.5594 35.42 46.4927 35.3643C46.426 35.309 46.3716 35.207 46.3716 35.1377C46.3716 34.9548 46.1314 34.7175 45.9977 34.769C45.9213 34.7987 45.8832 34.7546 45.8834 34.6365C45.8834 34.5397 45.8559 34.4769 45.8222 34.4973C45.7885 34.5177 45.7141 34.4831 45.6561 34.4206C45.5985 34.3581 45.5674 34.307 45.5872 34.307C45.6066 34.307 45.5166 34.193 45.3868 34.0541C45.257 33.9152 45.1508 33.7521 45.1508 33.6919C45.1508 33.6316 45.0196 33.5199 44.8594 33.4439C44.6496 33.3442 44.5787 33.2652 44.6062 33.1603C44.6571 32.9657 44.4466 32.6789 44.2527 32.6789C44.1624 32.6789 44.0445 32.5782 43.9733 32.4406C43.9056 32.3095 43.7765 32.1787 43.6865 32.1502C43.5965 32.1217 43.5226 32.0469 43.5226 31.9841C43.5226 31.919 43.4731 31.8892 43.4071 31.9145C43.3407 31.9401 43.197 31.8533 43.0707 31.7115C42.8962 31.5153 42.8198 31.4804 42.7032 31.5425C42.5262 31.637 42.3847 31.4765 42.553 31.3725C42.6421 31.3175 42.6385 31.2787 42.5336 31.1579C42.463 31.0766 42.3831 30.9161 42.3559 30.8005C42.308 30.5988 42.0172 30.4 41.7696 30.4C41.7045 30.4 41.6511 30.3725 41.6511 30.3388C41.6507 30.2349 41.271 29.8302 41.1735 29.8302C41.1227 29.8302 41.0813 29.7936 41.0813 29.749C41.0813 29.7043 41.0269 29.6677 40.9602 29.6677C40.7659 29.6677 40.1923 29.2329 40.189 29.083C40.1874 29.0079 40.1175 28.9244 40.034 28.8978C39.9504 28.8713 39.8164 28.7774 39.7364 28.689C39.6565 28.6006 39.504 28.5281 39.3975 28.5281C39.2881 28.5281 39.1806 28.4663 39.1501 28.3857C39.089 28.2241 38.8882 28.004 38.7879 27.9888C38.7509 27.9831 38.7148 27.9729 38.6804 27.9583C38.6163 27.9266 38.4878 27.8981 38.3547 27.8871C38.3217 27.8837 38.2911 27.8684 38.2686 27.844C38.2461 27.8196 38.2333 27.7878 38.2326 27.7547C38.2326 27.6877 38.1834 27.6326 38.1232 27.6326C38.063 27.6326 37.9474 27.5591 37.8665 27.4698C37.7852 27.3801 37.6658 27.3069 37.601 27.3069C37.5272 27.3069 37.5013 27.259 37.5311 27.1807C37.5589 27.1085 37.5453 27.0755 37.4994 27.104C37.455 27.1312 37.4187 27.1208 37.4187 27.0803C37.4187 27.0399 37.2663 26.9615 37.0801 26.9055C36.7564 26.8084 36.2688 26.5196 36.2115 26.3911C36.1966 26.3574 36.114 26.3299 36.0283 26.3299C35.9425 26.3299 35.8722 26.291 35.8722 26.2438C35.8722 26.1965 35.8356 26.1803 35.791 26.2078C35.7459 26.2353 35.7097 26.2075 35.7097 26.1453C35.7097 26.0835 35.4387 25.9074 35.1075 25.7539C34.7763 25.6008 34.5219 25.448 34.5426 25.4143C34.5633 25.3807 34.4837 25.39 34.3665 25.4347C34.2493 25.4794 34.1188 25.516 34.077 25.516C33.9644 25.516 33.9848 25.2932 34.1026 25.2372C34.1586 25.2107 34.0887 25.2058 33.9472 25.2269C33.7666 25.2538 33.6762 25.2282 33.6426 25.1411C33.6164 25.0731 33.559 25.0394 33.515 25.0666C33.4713 25.0938 33.3713 25.041 33.2929 24.9498C33.2146 24.8581 33.0676 24.7837 32.9659 24.7837C32.8643 24.7837 32.5949 24.7128 32.3667 24.626C32.1385 24.5392 31.9002 24.4884 31.8367 24.5127C31.7733 24.537 31.7215 24.5253 31.7215 24.4868C31.7215 24.3508 30.9387 24.0977 30.8687 24.211C30.8357 24.2644 30.4106 24.1647 29.9308 23.9915C29.851 23.9635 29.7695 23.9408 29.6867 23.9235C29.3591 23.8594 29.2866 23.8328 29.1639 23.7309C29.091 23.6703 28.9259 23.6169 28.7968 23.6124C28.6294 23.6062 28.5844 23.5767 28.6397 23.5097C28.6977 23.4398 28.6436 23.4327 28.4293 23.4809C28.2512 23.5211 28.1408 23.5156 28.1408 23.4664C28.1408 23.4226 28.0952 23.4022 28.0392 23.4213C27.9832 23.4405 27.8602 23.3666 27.7653 23.2575C27.5995 23.0662 27.584 23.0636 27.3418 23.1889C27.0414 23.3443 26.705 23.3579 26.6481 23.2171C26.617 23.1403 26.5856 23.1455 26.5205 23.2375C26.4648 23.3161 26.4337 23.3245 26.4331 23.2604C26.4324 23.2054 26.3768 23.1824 26.3084 23.2083C26.2408 23.2342 26.131 23.2103 26.0643 23.1552C25.998 23.0999 25.9433 23.0866 25.9433 23.1258C25.9433 23.1649 25.806 23.1986 25.638 23.2009C25.4525 23.2054 25.2679 23.2266 25.0863 23.2643C24.8937 23.3106 24.7991 23.2857 24.6538 23.1504C24.4896 22.9972 24.4518 22.9908 24.3307 23.0947C24.1416 23.2566 23.9422 23.3184 23.8574 23.2413C23.711 23.1083 23.3504 23.0743 23.2416 23.1834C23.1817 23.2436 23.0325 23.3116 22.9101 23.3349C22.7184 23.3715 22.6877 23.3508 22.6877 23.1853C22.6877 22.9623 22.5553 22.9403 22.2972 23.1209C22.1969 23.1912 21.9327 23.2553 21.71 23.2634C21.4875 23.2711 21.3046 23.3067 21.3046 23.3417C21.3043 23.3767 21.2366 23.3696 21.1544 23.3255C20.9848 23.2349 20.6992 23.2893 20.4289 23.4634C20.3279 23.5285 20.0945 23.5797 19.9103 23.5771C19.6917 23.5742 19.4946 23.6318 19.3443 23.7432C19.1598 23.8794 19.0899 23.894 18.9953 23.8157C18.9147 23.749 18.8603 23.7448 18.8244 23.803C18.7953 23.85 18.6619 23.8885 18.5275 23.8885C18.3874 23.8885 18.3045 23.9228 18.333 23.9688C18.3608 24.0141 18.3301 24.029 18.2627 24.0034C18.1258 23.951 17.8153 24.097 17.657 24.2883C17.577 24.3848 17.5395 24.3919 17.5077 24.3159C17.444 24.1631 17.3345 24.1899 16.9412 24.4557C16.6673 24.6406 16.5404 24.6814 16.4009 24.6299C16.2636 24.5791 16.0972 24.6273 15.7294 24.8248C14.8825 25.2796 14.7128 25.3917 14.7122 25.4962C14.7119 25.5522 14.6186 25.5979 14.505 25.5979C14.3914 25.5979 14.2195 25.6714 14.1233 25.7607C14.0271 25.8504 13.9044 25.9236 13.8507 25.9236C13.797 25.9236 13.7322 25.9764 13.7076 26.0411C13.683 26.1058 13.5049 26.2049 13.3123 26.2609C13.1197 26.3169 12.9397 26.3959 12.9118 26.4357C12.8843 26.4756 12.7195 26.527 12.5457 26.55C12.3718 26.573 12.2151 26.631 12.1977 26.6786C12.1501 26.8084 11.7065 27.226 11.6162 27.226C11.5728 27.226 11.5375 27.2823 11.5375 27.351C11.5375 27.4216 11.3783 27.5443 11.1714 27.633C10.97 27.7191 10.8052 27.8211 10.8052 27.8596C10.8052 27.8981 10.7003 28.0467 10.5725 28.1901C10.4167 28.3646 10.2953 28.4336 10.2053 28.3989C10.0389 28.3352 9.80615 28.5152 9.86281 28.6634C9.88838 28.7295 9.84727 28.7725 9.75921 28.7725C9.67924 28.7725 9.4701 28.9373 9.29528 29.139C9.10298 29.3601 8.90776 29.5052 8.80222 29.5052C8.58919 29.5052 8.51344 29.5994 8.33214 30.0902C8.23307 30.3586 8.14016 30.4793 8.0194 30.4971C7.81868 30.5266 7.72058 30.726 7.90641 30.726C8.00418 30.726 7.9922 30.7675 7.85235 30.9122C7.74583 31.0219 7.60857 31.0834 7.51695 31.0621C7.39425 31.0336 7.37061 31.0605 7.40461 31.1906C7.43828 31.3198 7.38842 31.3784 7.17345 31.4629C7.02259 31.5221 6.89892 31.6186 6.89892 31.6775C6.89892 31.7361 6.84032 31.7843 6.76812 31.7843C6.68557 31.7843 6.65449 31.8293 6.68395 31.9054C6.70953 31.9721 6.70434 32.0226 6.67229 32.0181C6.44405 31.9841 6.33107 32.0683 6.21452 32.3596C6.14167 32.5416 6.10347 32.7248 6.12905 32.7666C6.15462 32.8084 6.1229 32.8427 6.05815 32.8427C5.9934 32.8427 5.94516 32.9045 5.95164 32.9803C5.95811 33.056 5.87135 33.1651 5.75933 33.2231C5.64311 33.2833 5.56703 33.3846 5.58159 33.4597C5.59649 33.5365 5.57123 33.5692 5.52041 33.5378C5.46958 33.5064 5.43364 33.5536 5.43364 33.6517C5.43364 33.7462 5.38055 33.8194 5.31159 33.8194C5.24393 33.8194 5.18954 33.8916 5.18954 33.9823C5.18954 34.0716 5.15198 34.1451 5.10601 34.1451C5.06004 34.1451 4.99076 34.2286 4.95223 34.3306C4.91112 34.4387 4.80622 34.5216 4.70068 34.5297C4.45561 34.5482 4.42841 34.5906 4.5346 34.7894C4.6123 34.9347 4.60226 34.959 4.46532 34.959C4.2973 34.959 4.14255 35.2662 4.26524 35.3559C4.37143 35.4333 4.341 35.735 4.22931 35.712C4.17557 35.701 4.13089 35.7376 4.13024 35.7933C4.12927 35.8671 4.10952 35.8642 4.05805 35.7829C3.93761 35.5929 3.78481 35.7693 3.83822 36.0367C3.89553 36.3229 3.60739 36.9089 3.4044 36.919C3.32023 36.9233 3.31171 36.9391 3.37883 36.9665C3.4957 37.0135 3.51804 37.2382 3.4057 37.2382C3.36491 37.2382 3.31246 37.1922 3.29012 37.1365C3.26034 37.063 3.24771 37.0617 3.24253 37.1317C3.24255 37.1611 3.24975 37.1902 3.26352 37.2162C3.27728 37.2423 3.29719 37.2646 3.32153 37.2812C3.4316 37.3492 3.26293 37.5639 3.09944 37.5639C3.03501 37.5639 3.00684 37.603 3.03663 37.6513C3.06641 37.6995 3.00944 37.8251 2.90972 37.931C2.70965 38.144 2.57626 38.866 2.73716 38.866C2.78767 38.866 2.82911 38.9048 2.82911 38.9521C2.82911 38.9993 2.79673 39.0181 2.75691 38.9935C2.71742 38.9689 2.69022 39.0084 2.69605 39.0809C2.7022 39.1534 2.64004 39.2237 2.55846 39.2367C2.27615 39.2813 2.17838 39.3493 2.17838 39.5008C2.17838 39.5844 2.15086 39.6799 2.11719 39.7135C2.08352 39.7472 2.05341 39.799 2.04921 39.8288C2.04564 39.8586 1.99449 39.9929 1.93557 40.1273C1.87665 40.2616 1.81935 40.5067 1.80801 40.6718C1.79636 40.8372 1.72837 41.0558 1.65715 41.1581C1.58528 41.2597 1.52668 41.4443 1.52668 41.5676C1.52668 41.691 1.40819 42.0319 1.2638 42.3249C1.06049 42.737 1.02067 42.8885 1.08736 42.9947C1.17121 43.1274 1.07862 43.5638 0.944585 43.6671C0.864943 43.7286 0.843253 44.0967 0.910268 44.2518C0.947823 44.3389 0.904764 44.4765 0.790482 44.6306C0.692063 44.7636 0.636379 44.9129 0.666811 44.9618C0.697567 45.0116 0.666164 45.0508 0.595587 45.0508C0.466736 45.0508 0.457348 45.2457 0.577133 45.4374C0.594308 45.4685 0.603316 45.5035 0.603316 45.539C0.603316 45.5746 0.594308 45.6095 0.577133 45.6407C0.538466 45.7054 0.511404 45.7764 0.497168 45.8505C0.480579 45.9345 0.454513 46.0164 0.419469 46.0946C0.3858 46.1693 0.350836 46.417 0.341447 46.6449C0.332058 46.8728 0.285439 47.1331 0.237201 47.2235C0.174718 47.34 0.174394 47.4782 0.235582 47.7C0.299684 47.9328 0.295475 48.0966 0.217776 48.3423C0.109321 48.6884 0.112235 48.9811 0.225222 49.0228C0.261805 49.0364 0.266338 49.1465 0.235582 49.2669C0.165329 49.5399 0.180869 50.1236 0.261482 50.254C0.294504 50.3078 0.294827 50.4865 0.262129 50.6516C0.23051 50.8103 0.203305 50.9699 0.180545 51.1301C0.168243 51.2282 0.136839 51.3431 0.110616 51.3855C0.0843925 51.4276 0.117091 51.5073 0.183459 51.562C0.249503 51.617 0.285439 51.6918 0.262777 51.7284C0.240115 51.765 0.260187 51.8187 0.307454 51.8478C0.392599 51.9006 0.395189 52.5387 0.30972 52.5387C0.284792 52.5387 0.264719 52.6857 0.264719 52.865C0.264719 53.0674 0.298388 53.1788 0.353425 53.1574C0.402311 53.1386 0.493607 53.1561 0.556738 53.1959C0.64771 53.2535 0.640264 53.2688 0.519507 53.2697C0.38062 53.271 0.372526 53.3176 0.425945 53.8152C0.457995 54.1144 0.535371 54.4375 0.597853 54.5327C0.694653 54.6809 0.694653 54.7285 0.596882 54.8619C0.500082 54.9943 0.499758 55.05 0.594616 55.2332C0.655804 55.3517 0.762316 55.4702 0.83095 55.4968C0.899908 55.5233 0.955916 55.592 0.955916 55.6499C0.955916 55.7079 1.02326 55.7972 1.10581 55.8484C1.21653 55.9173 1.24696 56.0135 1.22203 56.2139C1.19743 56.4133 1.21038 56.4544 1.27027 56.3676C1.31527 56.3026 1.33081 56.211 1.30491 56.164C1.27901 56.1171 1.30621 56.1235 1.36513 56.1786C1.45416 56.2611 1.4506 56.3032 1.34409 56.4227C1.27319 56.502 1.20455 56.6402 1.19096 56.7299C1.15923 56.9433 1.36222 57.2541 1.49949 57.2013C1.55873 57.1786 1.60697 57.2007 1.60697 57.2502C1.60697 57.2997 1.57298 57.3405 1.53121 57.3405C1.37646 57.3405 1.40851 57.7157 1.58593 57.9825C1.68693 58.134 1.8051 58.3904 1.84881 58.5523C1.89251 58.7138 2.00129 58.8919 2.09064 58.9473C2.18226 59.0042 2.30885 59.2406 2.38137 59.4895C2.45195 59.732 2.56655 59.9525 2.63648 59.9794C2.71418 60.0091 2.74332 60.0797 2.71224 60.161C2.64166 60.3455 2.82166 60.7178 3.02465 60.8072C3.1221 60.8499 3.20465 60.9733 3.2189 61.0976C3.23541 61.2381 3.30631 61.3313 3.42253 61.364C3.53196 61.3951 3.6825 61.579 3.812 61.8396C3.92823 62.0737 4.06841 62.2546 4.12344 62.2423C4.1788 62.23 4.20308 62.2524 4.1788 62.2922C4.1542 62.3317 4.29794 62.5178 4.49834 62.7056C4.69874 62.8934 4.86255 63.0815 4.86255 63.1239C4.86255 63.166 4.915 63.2006 4.97878 63.2006C5.04288 63.2006 5.16688 63.2922 5.25526 63.4043C5.34332 63.5163 5.45792 63.6076 5.51005 63.6076C5.56217 63.6076 5.57965 63.6484 5.5489 63.6979C5.51814 63.7474 5.54339 63.8196 5.60523 63.8578C5.66674 63.896 5.71724 63.9702 5.71724 64.0229C5.71724 64.0757 5.82376 64.1298 5.95423 64.1437C6.2006 64.1699 6.35017 64.315 6.29286 64.472C6.24916 64.5921 6.61596 64.8582 6.99928 64.9845C7.1673 65.0398 7.30424 65.1175 7.30424 65.1573C7.30424 65.1972 7.35637 65.2098 7.42015 65.1855C7.53313 65.1418 7.74713 65.4163 7.66457 65.4989C7.64191 65.5216 7.69824 65.5594 7.78954 65.5834C7.88084 65.6073 7.95562 65.5934 7.95562 65.5523C7.95562 65.5112 8.02879 65.5235 8.11847 65.5795C8.20814 65.6352 8.28131 65.7294 8.28131 65.7883C8.28131 65.8472 8.31304 65.8761 8.35189 65.8521C8.39074 65.8281 8.49142 65.8861 8.57559 65.9806C8.76466 66.193 9.23345 66.3992 9.3555 66.3238C9.41021 66.2901 9.42316 66.305 9.38755 66.362C9.29949 66.5048 9.73428 66.6485 9.88223 66.5258C9.97612 66.4478 10.0075 66.4633 10.0448 66.6064C10.0917 66.7868 10.4009 66.9205 10.5527 66.8266C10.599 66.7981 10.7201 66.8285 10.8217 66.8939C10.9237 66.9593 11.1319 67.0318 11.2841 67.0548C11.4362 67.0778 11.5855 67.1364 11.6156 67.1853C11.6768 67.284 11.9419 67.3527 12.3094 67.3646C12.4437 67.3692 12.593 67.4035 12.6409 67.4414C12.6888 67.4792 12.8154 67.4935 12.9219 67.4731C13.0297 67.4524 13.2359 67.5071 13.3884 67.5971C13.6853 67.7722 14.0443 67.8325 13.8151 67.6686C13.7189 67.5997 13.7351 67.5906 13.8921 67.6259C14.0019 67.6502 14.1337 67.635 14.1851 67.5922C14.2936 67.5022 14.7915 67.6476 14.7915 67.769C14.7915 67.8108 14.8741 67.8787 14.9748 67.9195H14.976C15.0767 67.9607 15.269 67.9717 15.4034 67.9441C15.5377 67.9166 15.7155 67.8982 15.7984 67.9034C15.9094 67.9098 15.9382 67.8703 15.9078 67.7541C15.8563 67.5573 16.0311 67.5437 16.2173 67.7298C16.3254 67.838 16.3306 67.8768 16.2435 67.9322C16.082 68.0345 16.2419 68.0167 16.4462 67.9095C16.5439 67.8584 16.6534 67.7667 16.6893 67.7059C16.7249 67.6453 16.7913 67.5958 16.8366 67.5958C16.8816 67.5958 16.902 67.6233 16.8816 67.657C16.8612 67.6907 16.8923 67.7622 16.9509 67.8163C17.0338 67.893 17.0655 67.8923 17.0956 67.814C17.1167 67.7583 17.2992 67.7065 17.5039 67.6975C17.9765 67.6767 18.0756 67.655 18.1488 67.555C18.1831 67.5087 18.209 67.5323 18.2099 67.6107C18.2106 67.6858 18.2915 67.7729 18.3896 67.8043C18.5217 67.8464 18.612 67.8101 18.7376 67.6638C18.9073 67.4669 19.209 67.4171 19.4253 67.5508C19.4871 67.589 19.5564 67.577 19.5904 67.5223C19.6224 67.4705 19.7063 67.4498 19.7765 67.4767C19.8555 67.5068 19.9569 67.4537 20.043 67.3368C20.1354 67.2114 20.1946 67.1825 20.2207 67.25C20.2673 67.3708 20.4904 67.3876 20.4904 67.2704C20.4904 67.2258 20.5454 67.1892 20.6125 67.1892C20.6798 67.1892 20.7345 67.2432 20.7345 67.3093C20.7345 67.4006 20.7976 67.4174 20.999 67.3799C21.1444 67.3527 21.2982 67.2986 21.3409 67.2598C21.3833 67.2209 21.4642 67.1892 21.5212 67.1892C21.5782 67.1892 21.7391 67.0768 21.8796 66.9396C22.0499 66.7729 22.1797 66.7082 22.2691 66.7453C22.5679 66.869 22.6941 66.8784 22.8065 66.7855C22.8712 66.7317 23.0454 66.6984 23.1937 66.711C23.3423 66.7239 23.5087 66.7065 23.564 66.6722C23.6197 66.6378 23.6997 66.6317 23.7428 66.6579C23.8389 66.7175 24.1037 66.33 24.0387 66.2247C23.9852 66.1383 24.1701 66.0499 24.4038 66.0499C24.4974 66.0499 24.5609 65.9929 24.5625 65.9075C24.5651 65.7786 24.5764 65.7799 24.6845 65.923C24.7503 66.0101 24.804 66.0512 24.804 66.0146C24.804 65.978 24.859 65.9939 24.926 66.0496C25.007 66.1165 25.0477 66.1207 25.0481 66.0622C25.0481 66.0133 25.0992 65.9929 25.1621 66.0172C25.3213 66.0784 25.4081 65.9042 25.2893 65.7615C25.1634 65.6099 25.32 65.6009 25.4703 65.7511C25.6001 65.8809 25.7807 65.8375 25.7807 65.6766C25.7807 65.5675 25.8248 65.5513 26.1673 65.5339C26.2453 65.5297 26.3709 65.4588 26.446 65.3759C26.5211 65.293 26.603 65.227 26.6286 65.2286C26.7617 65.2383 27.1644 65.1266 27.1644 65.08C27.1644 65.0505 27.2285 65.0214 27.3069 65.0152C27.3852 65.0094 27.6659 64.8741 27.9311 64.7141C28.1959 64.5545 28.4798 64.4027 28.5617 64.3768C28.6439 64.3506 28.711 64.2832 28.711 64.2269C28.711 64.1599 28.7932 64.1366 28.9479 64.1592C29.1276 64.1855 29.2069 64.1524 29.2772 64.0213C29.3277 63.9265 29.3484 63.8148 29.3228 63.773C29.2973 63.7316 29.3468 63.6597 29.4329 63.6134C29.5527 63.5493 29.6009 63.558 29.6359 63.65C29.7062 63.8326 29.9007 63.7947 30.083 63.5629C30.173 63.4486 30.2581 63.3606 30.2721 63.367C30.3358 63.3962 30.7962 63.1498 30.8846 63.0391C30.9387 62.9714 30.9639 62.852 30.9403 62.7736C30.9128 62.6826 30.9409 62.6312 31.0183 62.6312C31.0847 62.6312 31.1607 62.5855 31.1876 62.5295C31.2142 62.4735 31.2197 62.514 31.1999 62.6189C31.1802 62.7241 31.1853 62.7885 31.2119 62.762C31.2384 62.7354 31.31 62.7555 31.3712 62.806C31.5185 62.9284 31.6095 62.8296 31.4861 62.681C31.4065 62.5849 31.434 62.5544 31.6428 62.5085C31.7823 62.478 31.916 62.4016 31.94 62.3388C31.964 62.2763 32.0164 62.2453 32.0565 62.2699C32.0964 62.2945 32.1294 62.2589 32.1294 62.1905C32.1294 62.1132 32.176 62.084 32.2514 62.1132C32.3185 62.1387 32.3735 62.1158 32.3735 62.061C32.3735 62.007 32.425 61.9821 32.4878 62.0063C32.6373 62.0636 32.8617 61.8118 32.8617 61.5868C32.8617 61.397 33.0611 61.3433 33.1398 61.5116C33.1754 61.5877 33.201 61.5825 33.2415 61.4913C33.326 61.3002 34.0036 60.6871 34.1952 60.6285C34.2901 60.5997 34.417 60.5362 34.4772 60.4876C34.5374 60.4394 34.6549 60.3892 34.7378 60.3766C34.8207 60.364 35.0013 60.2432 35.1396 60.1082C35.2775 59.9732 35.4267 59.8628 35.4711 59.8628C35.5154 59.8628 35.5867 59.7712 35.6291 59.6595C35.6804 59.5237 35.7687 59.4559 35.8939 59.4559C36.0771 59.4559 36.3617 59.2079 36.3617 59.0479C36.3617 59.0036 36.4187 58.9673 36.4886 58.9673C36.5586 58.9673 36.5948 58.934 36.5699 58.8935C36.4854 58.7566 36.622 58.5604 36.802 58.5604C36.9001 58.5604 37.0251 58.516 37.0791 58.4616C37.1332 58.4072 37.333 58.3053 37.5227 58.2353C37.7153 58.1641 37.8671 58.055 37.8665 57.9883C37.8662 57.9223 37.9668 57.7737 38.0902 57.6578C38.2135 57.5419 38.3149 57.4046 38.3149 57.3525C38.3149 57.3004 38.3699 57.2579 38.4369 57.2579C38.5088 57.2579 38.5593 57.1828 38.5603 57.0747C38.5612 56.9274 38.5768 56.9154 38.6393 57.0135C38.7034 57.1142 38.7458 57.1178 38.8811 57.0339C39.1411 56.8727 39.21 56.9141 39.0838 57.156C39.0197 57.279 38.9666 57.4299 38.9666 57.4914C38.9663 57.5749 38.9391 57.5804 38.8581 57.5134C38.7752 57.4444 38.7085 57.4804 38.5697 57.6678C38.4703 57.8022 38.4104 57.9469 38.4369 57.9893C38.4632 58.0317 38.4266 58.1551 38.356 58.2629C38.2854 58.3707 38.233 58.4908 38.2401 58.5296C38.2793 58.7446 38.2236 58.876 38.1116 58.833C38.0335 58.8029 37.9895 58.8343 37.9895 58.9194C37.9895 58.9929 38.0442 59.0738 38.1112 59.0994C38.1779 59.125 38.211 59.1813 38.1844 59.2244C38.1579 59.2674 38.0879 59.2843 38.029 59.2619C37.9134 59.2176 37.299 59.8861 37.2964 60.0584C37.2957 60.1157 37.1931 60.296 37.0685 60.4598C36.9438 60.6233 36.8671 60.757 36.8975 60.757C36.9283 60.757 36.8295 60.8664 36.678 60.9998C36.5265 61.1335 36.452 61.2433 36.5129 61.2439C36.5848 61.2449 36.6042 61.2951 36.5679 61.3877C36.5375 61.466 36.5064 61.5667 36.498 61.6117C36.4902 61.6564 36.3921 61.7124 36.2801 61.7363C36.1053 61.7732 36.0775 61.8218 36.0856 62.0801C36.0911 62.265 36.0629 62.3612 36.0121 62.3298C35.9645 62.3003 35.9541 62.3191 35.9878 62.3735C36.0525 62.4784 35.9667 62.8316 35.8939 62.759C35.7958 62.6609 35.6433 62.9931 35.7204 63.1372C35.7774 63.244 35.7667 63.2809 35.6783 63.2809C35.6129 63.2809 35.4827 63.378 35.3892 63.4969C35.2331 63.6953 35.2299 63.7248 35.3487 63.8559C35.4675 63.9877 35.4646 64.0032 35.3092 64.0524C35.125 64.111 35.0904 64.2175 35.228 64.3023C35.2843 64.3373 35.2587 64.4092 35.1558 64.505C35.0369 64.6157 34.9965 64.7614 34.9965 65.0761C34.9965 65.3322 34.9554 65.5238 34.8919 65.563C34.7838 65.63 34.7352 65.868 34.7219 66.3944C34.7177 66.5624 34.6821 66.6997 34.6426 66.6997C34.5254 66.6997 34.5601 66.9292 34.7355 67.3145C34.8806 67.633 35.1405 67.8143 35.1405 67.5974C35.1405 67.554 35.2014 67.5421 35.2759 67.5705C35.3665 67.6057 35.3921 67.5913 35.3526 67.5272C35.3202 67.4747 35.3335 67.432 35.3821 67.432C35.4303 67.432 35.4921 67.5417 35.519 67.6761C35.5459 67.8104 35.5805 67.9202 35.5957 67.9202C35.611 67.9202 35.7987 67.8613 36.013 67.7894C36.5343 67.6139 36.6233 67.5353 36.52 67.342C36.4624 67.2339 36.4643 67.1879 36.5275 67.1879C36.577 67.1879 36.5964 67.1218 36.5705 67.0409C36.5427 66.9538 36.5903 66.8227 36.6871 66.7188C36.7768 66.6223 36.8502 66.4342 36.8502 66.3005C36.8502 66.1564 36.9118 66.0143 37.0011 65.9512C37.1232 65.8651 37.2543 65.4057 37.2753 64.9903C37.2766 64.9676 37.3459 64.8621 37.4301 64.7556C37.5143 64.6487 37.5829 64.4645 37.5829 64.3464C37.5829 64.2282 37.6593 64.066 37.7525 63.986C37.8503 63.9022 37.9018 63.7879 37.8743 63.7164C37.8435 63.6361 37.8833 63.5768 37.9869 63.5496C38.075 63.5266 38.1692 63.4383 38.1961 63.3538C38.2229 63.2689 38.2974 63.1997 38.3615 63.1997C38.4256 63.1997 38.478 63.1242 38.478 63.032C38.478 62.94 38.4415 62.8869 38.3968 62.9148C38.3521 62.9423 38.3155 62.9067 38.3155 62.8354C38.3155 62.7642 38.3725 62.6843 38.4424 62.6574C38.512 62.6305 38.5499 62.5586 38.5263 62.4971C38.5026 62.4356 38.5114 62.3854 38.5454 62.3854C38.5794 62.3854 38.6056 62.287 38.604 62.1666C38.6014 61.9995 38.649 61.9354 38.8041 61.8966C38.9396 61.8627 38.9992 61.7985 38.9828 61.704C38.9433 61.4806 39.1543 61.0833 39.3123 61.0833C39.391 61.0833 39.4551 61.037 39.4551 60.9807C39.4551 60.9244 39.5283 60.8324 39.6179 60.7764C39.7073 60.7204 39.7808 60.6359 39.7808 60.5886C39.7808 60.5414 39.8769 60.3766 39.9941 60.2225C40.1576 60.0085 40.1965 59.8851 40.1592 59.6987C40.1317 59.5614 40.145 59.4552 40.1897 59.4552C40.2334 59.4552 40.269 59.3843 40.269 59.2972C40.269 59.2105 40.3082 59.1153 40.3561 59.0855C40.404 59.0557 40.4218 58.9764 40.3959 58.9087C40.3646 58.8267 40.3866 58.8002 40.462 58.8291C40.5241 58.8531 40.6161 58.8314 40.6662 58.7812C40.7339 58.7138 40.7575 58.7261 40.7575 58.8281C40.7575 58.9042 40.7951 58.9664 40.8417 58.9664C40.9796 58.9664 41.024 58.7401 40.9356 58.4862C40.8621 58.2752 40.8725 58.2431 41.0292 58.2036C41.126 58.179 41.2535 58.0495 41.3121 57.9161C41.3778 57.7666 41.4614 57.6895 41.53 57.7157C41.6093 57.7462 41.6287 57.7099 41.5973 57.5901C41.5698 57.4855 41.5983 57.4046 41.6724 57.3761C41.7488 57.347 41.7777 57.2586 41.7537 57.131C41.7317 57.0158 41.7537 56.9316 41.8065 56.9316C42.0078 56.9316 42.2332 56.7733 42.1729 56.6736C42.1548 56.6435 42.1976 56.5613 42.2681 56.491C42.3384 56.4204 42.3756 56.3298 42.3507 56.2896C42.3258 56.2492 42.3623 56.1941 42.4319 56.1676C42.5019 56.1407 42.5381 56.0853 42.5126 56.0442C42.4339 55.9167 42.5553 55.7185 42.6822 55.7671C42.7593 55.7969 42.8188 55.7506 42.848 55.6389C42.8729 55.5431 42.9807 55.4427 43.0872 55.4162C43.2131 55.3844 43.2808 55.3087 43.2808 55.1989C43.2808 54.9752 43.4595 54.4896 43.5414 54.4896C43.5774 54.4896 43.6065 54.4281 43.6065 54.353C43.6065 54.2779 43.7732 54.0613 43.9765 53.8716C44.207 53.6569 44.3123 53.5061 44.2559 53.4711C44.2061 53.4403 44.1899 53.3549 44.2203 53.2811C44.3223 53.0331 44.3051 52.8226 44.1617 52.5598C44.0368 52.3299 44.0338 52.2833 44.1384 52.179C44.3249 51.9926 44.2828 51.9016 43.926 51.7196C43.7185 51.6138 43.5524 51.4535 43.4815 51.2907C43.4174 51.1434 43.3669 51.0916 43.3653 51.1712C43.3627 51.2852 43.3125 51.3023 43.0976 51.2619C42.9522 51.2343 42.7761 51.1628 42.7065 51.1026C42.6003 51.011 42.5537 51.0116 42.42 51.1052C42.2296 51.2385 41.7511 51.2305 41.666 51.0925C41.5692 50.9355 40.6685 51.0242 40.5698 51.2003C40.4943 51.3354 40.4846 51.335 40.3843 51.1974C40.2836 51.0598 40.2629 51.0621 39.9741 51.2405C39.7568 51.3748 39.66 51.3998 39.6358 51.3273C39.6102 51.2509 39.5526 51.2583 39.4014 51.3574C39.291 51.4296 39.0326 51.5027 38.8274 51.5192C38.6221 51.5361 38.4275 51.5924 38.3955 51.6442C38.3515 51.7154 38.2942 51.7158 38.164 51.6461C38.0688 51.595 37.9908 51.584 37.9908 51.6209C37.9908 51.6581 37.7901 51.6931 37.545 51.6989C36.9538 51.7125 36.2235 51.931 36.0985 52.1314C35.9975 52.293 35.4679 52.3687 35.4679 52.2218C35.4679 52.1832 35.3762 52.1693 35.2642 52.1907C35.1525 52.2121 35.0609 52.2619 35.0609 52.3014C35.0609 52.3409 34.9874 52.3733 34.8981 52.3733C34.8084 52.3733 34.7352 52.4063 34.7352 52.4464C34.7352 52.4866 34.606 52.5199 34.4481 52.5199C34.1583 52.5199 33.6445 52.7177 33.5539 52.8641C33.5267 52.9078 33.4383 52.9434 33.357 52.9434C33.2758 52.9434 33.1631 52.9988 33.1068 53.0667C33.0504 53.1344 32.9637 53.1826 32.9138 53.1739C32.864 53.1652 32.5114 53.1875 32.131 53.2238C31.6554 53.2691 31.3786 53.3374 31.2452 53.4423C31.1384 53.5261 31.0076 53.5948 30.9545 53.5948C30.9014 53.5948 30.7166 53.6634 30.5437 53.7476C30.2348 53.8978 30.2326 53.9023 30.4071 54.0111C30.5045 54.0723 30.5845 54.205 30.5845 54.306C30.5845 54.5068 30.5275 54.5301 30.3404 54.4074C30.2319 54.3361 30.2319 54.3183 30.3404 54.2471C30.4449 54.1785 30.442 54.1668 30.3203 54.1659C30.1808 54.1646 29.9201 54.6291 29.9904 54.7548C30.0092 54.7881 30.116 54.8156 30.228 54.8156C30.3672 54.8156 30.4135 54.7832 30.3747 54.714C30.3433 54.6579 30.387 54.6787 30.4715 54.7596C30.6227 54.904 30.6224 54.9092 30.4673 55.0241C30.343 55.1164 30.2954 55.1196 30.2436 55.0393C30.1416 54.8817 30.0205 55.1245 30.0574 55.4139C30.0888 55.6638 30.2112 55.7898 30.422 55.7898C30.5162 55.7898 30.52 55.7746 30.4394 55.7234C30.3109 55.6418 30.3967 55.3854 30.5527 55.3854C30.6152 55.3854 30.6693 55.468 30.6725 55.5686C30.6758 55.6693 30.6962 55.7098 30.7172 55.6587C30.7606 55.5528 31.073 55.6094 31.073 55.7234C31.073 55.7645 31.1468 55.7584 31.2375 55.7101C31.3278 55.6619 31.4421 55.647 31.4913 55.6771C31.715 55.8153 32.1284 55.8529 32.2194 55.7431C32.2705 55.6816 32.3398 55.6483 32.3738 55.669C32.4078 55.6897 32.5004 55.6344 32.5807 55.546C32.6607 55.4576 32.7723 55.3851 32.8287 55.3851C32.8591 55.3832 32.8883 55.3727 32.9129 55.3546C32.9375 55.3366 32.9563 55.3119 32.9672 55.2834C32.9941 55.2073 33.0695 55.22 33.2651 55.3323C33.5399 55.4903 33.5781 55.4764 34.0023 55.0594C34.0249 55.0371 34.1719 55.0099 34.3283 54.9985L34.9997 54.9503C35.2121 54.9348 35.4533 54.8616 35.5349 54.7874C35.6168 54.7133 35.7411 54.6525 35.8113 54.6525C35.8816 54.6525 35.9574 54.6032 35.9807 54.5433C36.0075 54.4731 36.1105 54.4472 36.2682 54.4702C36.4032 54.4899 36.6466 54.4624 36.8088 54.409C36.971 54.3552 37.1947 54.3015 37.3061 54.2895C37.5285 54.2652 37.5278 54.2656 37.6353 54.0645C37.7033 53.9373 37.7318 53.9354 37.9432 54.0451C38.1054 54.1293 38.2061 54.1406 38.2767 54.0823C38.3086 54.0589 38.3457 54.0434 38.3848 54.0372C38.424 54.0309 38.464 54.0341 38.5017 54.0464C38.57 54.0726 38.6499 54.0551 38.6794 54.0072C38.7089 53.9593 38.8296 53.9201 38.9475 53.9201C39.1537 53.9201 39.156 53.9247 39.0035 54.0422C38.8717 54.1442 38.8691 54.1565 38.9879 54.115C39.1006 54.0759 39.1304 54.1111 39.1304 54.2831C39.1304 54.453 39.0993 54.4909 38.9879 54.4563C38.8206 54.4041 38.6011 54.5204 38.6665 54.6262C38.6914 54.6667 38.6046 54.7713 38.4735 54.859C38.3424 54.9467 38.2352 55.0704 38.2352 55.1339C38.2352 55.1973 38.2132 55.2271 38.1863 55.2002C38.1242 55.1377 37.7538 55.5156 37.5217 55.8782C37.4233 56.0319 37.342 56.1077 37.3414 56.0462C37.3404 55.9562 37.3164 55.9542 37.218 56.0358C37.1507 56.0915 37.0943 56.1051 37.0927 56.0662C37.0911 56.0271 37.0377 56.1145 36.9742 56.2602C36.9108 56.4059 36.7658 56.5606 36.6521 56.604C36.5382 56.6474 36.4449 56.706 36.4449 56.7341C36.4449 56.7623 36.509 56.761 36.5874 56.7312C36.6991 56.6888 36.7088 56.6985 36.6317 56.7762C36.5543 56.8539 36.5064 56.8529 36.408 56.771C36.3057 56.6859 36.2571 56.6875 36.1455 56.7785C35.8729 57.0009 35.6313 57.2654 35.6313 57.3415C35.6313 57.3842 35.5763 57.4192 35.5093 57.4192C35.4423 57.4192 35.3872 57.4506 35.3872 57.4888C35.3872 57.527 35.2684 57.5934 35.1227 57.6361C34.9337 57.6918 34.8657 57.7552 34.8838 57.8595C34.8994 57.9466 34.8748 57.9835 34.823 57.9514C34.775 57.922 34.7359 57.9326 34.7359 57.9751C34.7359 58.0178 34.652 58.0735 34.55 58.099C34.4361 58.1275 34.3593 58.2127 34.3509 58.3179C34.3325 58.5652 34.167 58.7326 33.9951 58.6779C33.898 58.6471 33.785 58.7025 33.6665 58.8388C33.5671 58.9531 33.4273 59.0466 33.3557 59.0466C33.2075 59.0466 32.8993 59.3704 32.9264 59.4976C32.9365 59.5442 32.8258 59.5899 32.6804 59.5996C32.3123 59.6242 32.0688 59.7676 31.9536 60.0279C31.8995 60.1503 31.8121 60.2338 31.7597 60.2134C31.6538 60.173 31.399 60.3938 31.399 60.5262C31.399 60.5728 31.3453 60.5899 31.2792 60.5647C31.2132 60.5394 31.1034 60.5747 31.0351 60.643C30.9668 60.7113 30.9108 60.7444 30.9108 60.7162C30.9108 60.688 30.8652 60.6935 30.8088 60.7288C30.7528 60.7638 30.6463 60.7826 30.5718 60.7706C30.4974 60.7586 30.3844 60.823 30.3206 60.9147C30.2565 61.006 30.1753 61.0535 30.1393 61.0202C30.1037 60.9872 30.1176 61.0422 30.1698 61.1429C30.2695 61.3349 30.208 61.3711 29.8344 61.3404C29.678 61.3274 29.4928 61.6084 29.5537 61.7668C29.5754 61.8228 29.5417 61.8691 29.4786 61.8691C29.4154 61.8691 29.3643 61.8386 29.3643 61.8014C29.3643 61.7638 29.3092 61.7337 29.2422 61.7337C29.1749 61.7337 29.1202 61.7745 29.1202 61.8247C29.1202 61.8746 29.0496 61.8969 28.9635 61.8746C28.8609 61.8477 28.7058 61.9257 28.5161 62.0999C28.3561 62.2462 28.2221 62.3246 28.2189 62.2737C28.2156 62.2229 28.1761 62.2799 28.1321 62.4003C28.0716 62.5658 27.9884 62.6257 27.7928 62.6444C27.605 62.6626 27.5364 62.7085 27.5448 62.8112C27.551 62.8889 27.5299 62.9368 27.4982 62.917C27.3995 62.8562 26.9229 63.1893 26.9229 63.3194C26.9229 63.4557 26.8789 63.4629 26.638 63.3661C26.5483 63.3301 26.4111 63.334 26.3327 63.3748C26.2327 63.4269 26.19 63.4175 26.189 63.3441C26.188 63.2689 26.1708 63.2657 26.1281 63.333C26.0951 63.3845 25.8759 63.4894 25.6409 63.5661C25.3984 63.6455 25.2135 63.7546 25.2135 63.8187C25.2135 63.8805 25.177 63.9313 25.1323 63.9313C25.0876 63.9313 25.051 63.8695 25.051 63.7937C25.051 63.6762 25.028 63.6811 24.8917 63.8271C24.804 63.921 24.6185 64.0229 24.479 64.0537C24.3174 64.0893 24.24 64.1479 24.2663 64.2156C24.2889 64.2745 24.2371 64.3402 24.1497 64.3629C24.0633 64.3855 23.9927 64.3697 23.9927 64.3276C23.9927 64.2855 23.8603 64.2602 23.6984 64.2709C23.4841 64.2855 23.3692 64.347 23.2753 64.4976C23.2047 64.6112 23.1351 64.72 23.1208 64.7391C23.1066 64.7585 22.9583 64.7863 22.7909 64.8016C22.3079 64.8449 22.1645 64.8708 22.0654 64.9323C22.0143 64.9641 21.9191 64.9692 21.8537 64.9443C21.7883 64.9194 21.6795 64.954 21.6119 65.0214C21.5442 65.089 21.4665 65.1217 21.4387 65.0939C21.4108 65.0661 21.3882 65.0829 21.3882 65.1308C21.3882 65.1787 21.3137 65.1988 21.2227 65.1748C21.1317 65.1509 20.9945 65.1865 20.9174 65.2532C20.7656 65.3856 20.3302 65.4915 20.3302 65.3959C20.3302 65.2742 19.4263 65.3785 19.2725 65.5177C19.1303 65.6465 19.0099 65.6656 18.5803 65.6284C18.491 65.6206 18.2909 65.6365 18.1358 65.6634C17.9762 65.6912 17.8075 65.674 17.7467 65.6235C17.667 65.5575 17.6139 65.5666 17.5401 65.6595C17.3983 65.8385 16.8489 66.0004 16.7259 65.8994C16.5592 65.7627 16.2934 65.756 16.1357 65.8842C16.0493 65.9547 16.0114 65.9635 16.0467 65.9042C16.0891 65.8336 16.057 65.81 15.9424 65.8275C15.8515 65.8414 15.7527 65.877 15.7233 65.9062C15.6938 65.9356 15.597 65.9207 15.5083 65.8731C15.4196 65.8256 15.2412 65.8022 15.112 65.8213C14.978 65.8408 14.8763 65.8181 14.8747 65.7683C14.8734 65.72 14.8349 65.7446 14.7892 65.823C14.6801 66.0104 14.4937 66.0046 14.4325 65.8113C14.3752 65.631 14.1136 65.5407 13.9941 65.6601C13.9378 65.7168 13.8682 65.7006 13.7775 65.6096C13.695 65.5271 13.5632 65.4908 13.4315 65.5148C13.3146 65.5358 13.1712 65.5135 13.1126 65.4649C13.054 65.4163 12.8503 65.3681 12.66 65.3577C12.4693 65.3474 12.1854 65.2839 12.0287 65.2166C11.4213 64.9557 11.4398 64.9625 10.9503 64.83C10.7376 64.7724 10.5637 64.6892 10.5637 64.6452C10.5637 64.6008 10.5097 64.5853 10.4439 64.6105C10.3779 64.6361 10.2869 64.594 10.2419 64.5176C10.1755 64.405 10.1461 64.3995 10.0875 64.4882C9.98389 64.6458 9.72392 64.5707 9.67212 64.3681C9.61903 64.1618 9.21888 63.8141 8.93592 63.7287C8.82423 63.6947 8.67078 63.6131 8.59502 63.5467C8.51959 63.4807 8.4189 63.4506 8.37131 63.4797C8.32372 63.5088 8.28487 63.4978 8.28487 63.4551C8.28487 63.412 8.1217 63.3094 7.9226 63.2272C7.684 63.1284 7.54447 63.0145 7.51403 62.8934C7.48878 62.7924 7.43213 62.7095 7.3881 62.7095C7.34439 62.7095 7.30845 62.6707 7.30845 62.6234C7.30845 62.5761 7.35443 62.5603 7.41011 62.5887C7.52148 62.6451 7.33209 62.4955 6.92417 62.2048C6.7801 62.1022 6.66096 61.9811 6.65902 61.9364C6.6574 61.8917 6.54441 61.7914 6.40747 61.7133C6.2634 61.6314 6.18214 61.5333 6.21484 61.4809C6.25434 61.4171 6.29157 61.4229 6.34078 61.5003C6.3793 61.5612 6.41136 61.5777 6.412 61.5372C6.41362 61.4521 5.79009 60.8599 5.579 60.746C5.53787 60.7209 5.50342 60.6863 5.47861 60.645C5.4538 60.6038 5.43937 60.5571 5.43656 60.509C5.43656 60.4209 5.39771 60.3491 5.35044 60.3491C5.30317 60.3491 5.28666 60.3125 5.3145 60.2678C5.34202 60.2231 5.2708 60.1441 5.15652 60.092C4.9422 59.9943 4.87615 59.8605 5.04223 59.8605C5.09403 59.8605 5.05713 59.7922 4.96097 59.7087C4.86482 59.6252 4.78583 59.497 4.78583 59.4238C4.78583 59.3481 4.72011 59.2908 4.63302 59.2908C4.38568 59.2908 4.26686 59.0641 4.26686 58.5924C4.26686 58.2136 4.24517 58.1512 4.11276 58.1512C4.02697 58.1512 3.97323 58.1068 3.99168 58.0511C4.00981 57.9961 3.95574 57.877 3.87092 57.7866C3.7861 57.6963 3.69642 57.5215 3.67117 57.3981C3.64624 57.2751 3.58085 57.1744 3.52581 57.1744C3.4562 57.1744 3.43678 57.0588 3.46171 56.7879C3.5012 56.3599 3.38271 55.9536 3.2176 55.9536C3.15901 55.9536 3.10494 55.8746 3.09749 55.7778C3.09005 55.681 3.03663 55.5712 2.97868 55.5337C2.89224 55.4783 2.89386 55.4515 2.98613 55.3922C3.14573 55.2893 3.04958 54.882 2.80288 54.6159C2.63972 54.4397 2.61155 54.3433 2.64684 54.0801C2.67954 53.8379 2.65914 53.7473 2.56461 53.711C2.46813 53.6741 2.45486 53.6084 2.50731 53.4258C2.54486 53.2953 2.54551 53.1703 2.50892 53.1477C2.36291 53.0574 2.33896 52.6909 2.47007 52.5594C2.55749 52.472 2.58857 52.3432 2.56169 52.1761C2.49371 51.7546 2.35871 51.2933 2.28813 51.2411C2.19489 51.1728 2.1596 50.966 2.25058 51.0223C2.29137 51.0475 2.34284 50.9724 2.36518 50.8556C2.39561 50.695 2.36809 50.6331 2.25252 50.6027C2.16802 50.5807 2.09939 50.5396 2.10036 50.5111C2.10262 50.425 2.23601 50.2417 2.29137 50.2492C2.31986 50.2531 2.34705 50.2288 2.35126 50.1951C2.35547 50.1614 2.39173 50.0737 2.4309 49.9996C2.48141 49.905 2.46554 49.851 2.37716 49.817C2.30755 49.7904 2.2768 49.7276 2.30755 49.6778C2.33863 49.6276 2.3205 49.5599 2.26741 49.5272C2.19521 49.4826 2.20525 49.3832 2.30658 49.1293C2.38104 48.9432 2.47169 48.791 2.50828 48.791C2.54486 48.791 2.51443 48.6722 2.44094 48.5265C2.36745 48.3808 2.31727 48.2012 2.32892 48.1267C2.34058 48.0522 2.315 47.9694 2.2713 47.9425C2.22144 47.9117 2.21917 47.7981 2.26482 47.6388C2.30529 47.4986 2.3218 47.3581 2.30205 47.3261C2.2823 47.294 2.35871 47.226 2.47169 47.1746C2.6054 47.1137 2.65493 47.0454 2.61382 46.9794C2.51896 46.8275 2.51054 46.6809 2.59375 46.6294C2.70932 46.5578 2.68083 46.4303 2.54939 46.4303C2.44579 46.4303 2.44579 46.3882 2.5468 46.101C2.61058 45.9201 2.68634 45.5811 2.71547 45.348C2.74429 45.1149 2.82069 44.8821 2.88512 44.8303C2.96087 44.7701 2.97253 44.7177 2.91814 44.6843C2.86407 44.651 2.86084 44.5817 2.90843 44.4933C3.01947 44.2877 3.2312 43.0905 3.18005 42.9575C3.15318 42.8882 3.18005 42.8519 3.24771 42.8662C3.30922 42.8791 3.36005 42.8305 3.3607 42.7584C3.36135 42.6862 3.40538 42.5745 3.45879 42.51C3.51221 42.4456 3.5352 42.3132 3.50962 42.2154C3.47369 42.0772 3.51027 42.0199 3.6757 41.9571C3.91463 41.8661 3.92305 41.8447 3.80294 41.6204C3.73592 41.4954 3.75502 41.4083 3.89002 41.2189C3.98488 41.0859 4.02664 40.9771 3.98261 40.9771C3.85797 40.9771 3.91528 40.7984 4.13445 40.5028C4.25489 40.3403 4.32481 40.1509 4.30863 40.0292C4.2892 39.8819 4.36399 39.7465 4.58057 39.5364C4.83957 39.2849 4.87259 39.2114 4.82921 38.9806C4.79327 38.7883 4.82727 38.6335 4.95223 38.4215C5.04741 38.2602 5.15457 38.1285 5.19051 38.1285C5.22644 38.1285 5.29217 38.0278 5.3362 37.9044C5.38055 37.7811 5.4958 37.5978 5.5926 37.4965C5.6894 37.3952 5.74638 37.2767 5.71951 37.233C5.69232 37.1893 5.72339 37.1741 5.78847 37.199C5.85354 37.2239 5.93092 37.2051 5.96038 37.1572C5.98984 37.1093 5.97527 37.0701 5.928 37.0701C5.88074 37.0701 5.84189 36.9967 5.84189 36.9073C5.84189 36.8176 5.89304 36.7445 5.9552 36.7445C6.0821 36.7445 6.1925 36.5253 6.1229 36.4123C6.09797 36.3721 6.13876 36.3628 6.21322 36.3912C6.32232 36.4333 6.33786 36.4094 6.29351 36.2689C6.25013 36.1319 6.26567 36.1047 6.36571 36.1433C6.45571 36.1779 6.49326 36.1433 6.49326 36.0264C6.49326 35.9354 6.55736 35.7965 6.63571 35.7182C6.71406 35.6395 6.78075 35.5362 6.78496 35.4883C6.79726 35.3261 7.01805 34.9137 7.16309 34.7816C7.24241 34.7094 7.30716 34.6136 7.30716 34.5692C7.30716 34.5249 7.39716 34.4209 7.50691 34.3384C7.65681 34.2257 7.68465 34.1619 7.61893 34.0829C7.55288 34.0036 7.56518 33.9774 7.66878 33.9774C7.8067 33.9774 8.36516 33.4461 8.36516 33.315C8.36516 33.202 8.98837 32.5927 9.04535 32.65C9.07384 32.6789 9.09747 32.6413 9.09747 32.5665C9.09747 32.4921 9.13147 32.4309 9.17323 32.4309C9.21499 32.4309 9.26064 32.3516 9.27521 32.2548C9.2901 32.1524 9.41086 32.0246 9.56302 31.9498C9.71227 31.8763 9.86054 31.7206 9.90781 31.5878C9.96328 31.4331 10.0306 31.3706 10.1098 31.4004C10.2406 31.4506 10.3646 31.189 10.328 30.9397C10.3148 30.8494 10.3685 30.7749 10.4656 30.7497C10.5692 30.7225 10.612 30.658 10.5877 30.5648C10.5576 30.4505 10.6042 30.4201 10.8169 30.4139C11.1879 30.4032 11.4009 30.2705 11.58 29.9377C11.7428 29.6353 11.9778 29.4608 12.1112 29.5434C12.2514 29.6298 12.5159 29.4961 12.5159 29.3388C12.5159 29.241 12.6286 29.1377 12.8341 29.0471C13.009 28.97 13.1916 28.8208 13.2395 28.7156C13.2874 28.6103 13.3667 28.5246 13.4153 28.5246C13.5681 28.5246 13.7387 28.2986 13.6872 28.1642C13.6264 28.0053 13.7649 27.9959 13.8931 28.1503C13.9741 28.2481 14.0229 28.2468 14.2318 28.1429C14.3658 28.0758 14.5277 28.0412 14.5908 28.0655C14.6674 28.0946 14.7396 28.0157 14.8074 27.8288C14.8831 27.6194 14.9566 27.5478 15.0962 27.5478C15.2082 27.5478 15.2833 27.5967 15.2833 27.6699C15.2833 27.7372 15.3244 27.7919 15.3749 27.7919C15.4329 27.7919 15.4487 27.7039 15.4183 27.5514C15.3788 27.3532 15.393 27.3199 15.5012 27.361C15.5782 27.3908 15.6747 27.3536 15.7352 27.2707C15.7919 27.1933 15.8599 27.1324 15.8864 27.1354C16.1072 27.1603 16.1839 27.1053 16.2503 26.8764C16.2956 26.7193 16.33 26.676 16.3342 26.7695C16.341 26.9142 16.3597 26.91 16.5653 26.7187C16.6883 26.6041 16.835 26.527 16.8907 26.5474C16.9467 26.5682 16.9927 26.5474 16.9927 26.5015C16.9927 26.4513 17.0752 26.461 17.2015 26.5264C17.4582 26.6595 17.7036 26.6047 17.7687 26.3998C17.7955 26.315 17.8538 26.2457 17.8982 26.2457C17.9425 26.2457 17.9561 26.2823 17.9286 26.327C17.8341 26.4798 18.1118 26.4089 18.2239 26.2515C18.2854 26.1654 18.4638 26.0777 18.6204 26.057C18.7771 26.0362 19.0093 25.9786 19.1359 25.9284C19.2628 25.8786 19.4059 25.8617 19.4538 25.8915C19.5088 25.9252 19.5169 25.9064 19.4761 25.8404C19.4269 25.7607 19.4729 25.7445 19.6668 25.773C19.8659 25.8022 19.9226 25.7805 19.9226 25.6753C19.9226 25.4949 20.0093 25.4176 20.1184 25.5011C20.3457 25.6753 20.4969 25.6639 20.6876 25.458C20.8316 25.303 20.9245 25.2631 21.0343 25.3107C21.1169 25.3463 21.2483 25.3677 21.3266 25.358C21.405 25.3483 21.4691 25.3794 21.4691 25.427C21.4691 25.4745 21.5057 25.5134 21.5504 25.5134C21.5954 25.5134 21.6316 25.4584 21.6316 25.3913C21.6316 25.324 21.5889 25.2693 21.5368 25.2693C21.484 25.2693 21.4587 25.2525 21.4791 25.2317C21.5368 25.1741 21.8786 25.28 21.8395 25.3434C21.8207 25.3739 21.8327 25.4438 21.8666 25.4985C21.9094 25.5675 21.9615 25.5351 22.0379 25.393C22.1622 25.1608 22.3231 25.1259 22.396 25.3156C22.4497 25.4554 22.7152 25.4127 22.934 25.2288C23.0703 25.1145 23.4271 25.145 23.5093 25.278C23.5401 25.3276 23.5806 25.2952 23.6052 25.2013C23.6285 25.1119 23.6061 24.9925 23.5553 24.9365C23.5045 24.8801 23.5631 24.9093 23.6851 25.0012C23.8836 25.1502 24.0092 25.166 24.8652 25.1492C25.3919 25.1388 25.8931 25.1006 25.9789 25.064C26.0893 25.0168 26.1174 25.0252 26.076 25.0928C26.0378 25.155 26.0825 25.1884 26.2052 25.1893C26.3564 25.1903 26.3693 25.2058 26.2709 25.2693C26.1993 25.3156 26.1883 25.3486 26.2447 25.3496C26.2974 25.3502 26.3933 25.2981 26.4577 25.234C26.5356 25.1557 26.6018 25.1439 26.6561 25.1987C26.7109 25.2534 26.842 25.2369 27.0524 25.1492C27.2499 25.0666 27.3774 25.0488 27.3949 25.1013C27.4101 25.1472 27.5785 25.29 27.7689 25.4185C28.0295 25.5943 28.1803 25.6426 28.3798 25.6134C28.5255 25.5921 28.7236 25.6134 28.821 25.661C29.2743 25.8825 30.0976 26.1104 30.5032 26.1269C31.1054 26.1512 31.0966 26.1486 31.0455 26.282C31.0099 26.3752 31.0746 26.395 31.3595 26.3781C31.5975 26.3642 31.7322 26.393 31.7597 26.4642C31.7823 26.5232 31.8727 26.5714 31.9604 26.5714C32.0481 26.5714 32.1767 26.6277 32.2456 26.697C32.3793 26.8307 32.7778 26.8288 32.8921 26.6934C32.9332 26.6449 32.9449 26.6627 32.9216 26.7375C32.8604 26.9327 33.0747 27.1687 33.2674 27.1185C33.359 27.0946 33.4338 27.1043 33.4338 27.1396C33.4338 27.1752 33.4979 27.1991 33.5762 27.193C33.6546 27.1868 33.7096 27.2276 33.6983 27.2833C33.6769 27.3901 33.8566 27.4209 34.3289 27.3901C34.6009 27.3727 34.6064 27.3775 34.451 27.498C34.2894 27.6232 34.2894 27.6242 34.4655 27.6268C34.563 27.6284 34.7171 27.7239 34.8081 27.8398C34.899 27.9554 35.0091 28.0279 35.0528 28.0011C35.0965 27.9739 35.2244 28.0444 35.3371 28.1571C35.4501 28.2698 35.6356 28.3624 35.7495 28.3624C35.8722 28.3624 35.9567 28.4083 35.9567 28.4757C35.9567 28.5378 36.0483 28.612 36.1603 28.6398C36.2941 28.6735 36.3637 28.7476 36.3637 28.857C36.3637 28.9483 36.4002 29.0005 36.4449 28.9726C36.4896 28.9451 36.5268 28.9703 36.5275 29.0289C36.5284 29.1063 36.5501 29.1021 36.6074 29.0134C36.6589 28.9338 36.6868 28.9263 36.6877 28.992C36.6884 29.0474 36.8169 29.1461 36.9736 29.2115C37.1303 29.2769 37.2585 29.3692 37.2585 29.4161C37.2585 29.4631 37.3155 29.5016 37.3854 29.5016C37.4553 29.5016 37.4896 29.465 37.4618 29.4204C37.4343 29.3757 37.4514 29.3391 37.5003 29.3391C37.5492 29.3391 37.6101 29.3941 37.636 29.4611C37.6619 29.5282 37.726 29.5832 37.7784 29.5832C37.8309 29.5832 37.9251 29.6544 37.9879 29.7415C38.0507 29.8286 38.1336 29.8804 38.1721 29.8568C38.2615 29.8014 38.4907 29.9876 38.4382 30.0724C38.3825 30.1624 38.6147 30.2378 38.7843 30.185C38.9196 30.143 38.9196 30.1452 38.7843 30.2323C38.6525 30.3171 38.6571 30.3385 38.8455 30.5269C38.9575 30.6386 39.0488 30.7652 39.0488 30.8079C39.0488 30.8507 39.1951 30.8856 39.3742 30.8856C39.6021 30.8856 39.6999 30.9206 39.6999 31.0019C39.6999 31.1828 39.9349 31.3742 40.1576 31.3742C40.3088 31.3742 40.381 31.4357 40.4448 31.6183C40.4914 31.7526 40.5811 31.8624 40.6442 31.8624C40.707 31.8624 40.7627 31.899 40.7685 31.9436C40.7744 31.9886 40.7831 32.0586 40.7889 32.0997C40.8051 32.2182 40.9213 32.3069 40.9213 32.2007C40.9213 32.1288 40.9608 32.1298 41.0806 32.2049C41.1917 32.2742 41.2111 32.3224 41.1444 32.3635C41.0822 32.4021 41.1224 32.4506 41.2587 32.5027C41.3743 32.5464 41.4898 32.6377 41.5154 32.7051C41.541 32.7724 41.6621 32.8394 41.7838 32.8537C41.9288 32.8708 42.013 32.9343 42.0279 33.0369C42.0642 33.2901 42.3436 33.6067 42.598 33.6834C42.9176 33.7796 43.3044 33.979 43.4035 34.0985C43.4482 34.1525 43.5398 34.2179 43.6068 34.2442C43.6758 34.271 43.623 34.295 43.4848 34.2995L43.2407 34.3073L43.668 34.7049C43.903 34.9234 44.0954 35.1235 44.0954 35.1494C44.0954 35.1749 44.2996 35.3974 44.5492 35.6431C44.7988 35.8888 44.9801 36.1277 44.9513 36.1737C44.9228 36.22 44.9478 36.2575 45.0067 36.2575C45.0653 36.2575 45.1614 36.3657 45.22 36.4981C45.2786 36.6302 45.3942 36.7597 45.4768 36.7862C45.6484 36.8406 45.9132 37.2094 45.9132 37.3939C45.9132 37.5554 46.065 37.704 46.1884 37.6629C46.2492 37.6428 46.2735 37.694 46.2534 37.7989C46.2353 37.8915 46.2512 37.9672 46.2881 37.9672C46.325 37.9672 46.3745 38.0407 46.3978 38.1301C46.425 38.234 46.5095 38.2933 46.6309 38.2942C46.7841 38.2952 46.7977 38.3111 46.6996 38.3742C46.6325 38.4176 46.618 38.4535 46.6675 38.4545C46.7792 38.4561 47.2166 38.8553 47.2396 38.9767C47.2486 39.0259 47.271 39.1489 47.2881 39.2502C47.3056 39.3513 47.4374 39.5552 47.5808 39.7032C47.7242 39.8511 47.8165 39.9975 47.786 40.0279C47.7553 40.0583 47.7679 40.0836 47.8139 40.0836C47.8599 40.0836 47.9842 40.2849 48.0904 40.5313C48.2607 40.9263 48.3112 40.979 48.5187 40.979C48.7184 40.979 48.7385 40.9972 48.6527 41.1011C48.5702 41.2005 48.5744 41.2232 48.6747 41.2232C48.8596 41.2232 48.9146 41.4611 48.7647 41.6113C48.6433 41.7327 48.6466 41.7541 48.8055 41.8829C48.9004 41.9597 48.9784 42.0843 48.9784 42.1594C48.9784 42.3262 49.2623 42.703 49.3339 42.6314C49.3624 42.603 49.3854 42.6628 49.3854 42.7639C49.3854 42.9659 49.6249 43.4207 49.7311 43.4207C49.7677 43.4207 49.7603 43.4907 49.7146 43.5765C49.6544 43.6888 49.6641 43.8076 49.7492 44.0038C49.814 44.1534 49.8684 44.2204 49.871 44.1534C49.8729 44.086 49.9286 44.1346 49.9943 44.2609C50.06 44.3871 50.1057 44.5335 50.0957 44.5865C50.0853 44.6393 50.1177 44.6753 50.1672 44.6662C50.2197 44.6568 50.2472 44.7416 50.2332 44.8676C50.2203 44.9873 50.2417 45.1246 50.2815 45.1722C50.3744 45.2839 50.5275 45.967 50.5411 46.3296C50.5473 46.4843 50.5952 46.6274 50.6486 46.6478C50.702 46.6682 50.7357 46.7754 50.7237 46.8855C50.7117 46.9955 50.7532 47.1373 50.816 47.2001C50.9037 47.2879 50.9066 47.3232 50.8293 47.352C50.7733 47.373 50.8276 47.429 50.952 47.4786C51.075 47.5278 51.1757 47.5909 51.1757 47.6191C51.1757 47.6472 51.1226 47.6502 51.0578 47.6252C50.9843 47.5971 50.9549 47.6191 50.9795 47.6832C51.0339 47.825 51.7396 47.7932 51.8338 47.6446C51.9216 47.5045 51.9251 47.4116 51.84 47.4116ZM0.771057 50.739C0.623753 50.7487 0.487456 50.5393 0.580371 50.4463C0.608213 50.4185 0.631199 50.4541 0.631199 50.5253C0.631199 50.5966 0.695301 50.6717 0.773647 50.6921C0.90703 50.7274 0.906707 50.7303 0.771057 50.739ZM1.23466 50.7422C1.1398 50.7384 1.12038 50.7189 1.18545 50.693C1.24405 50.6694 1.3143 50.6723 1.3415 50.6995C1.36869 50.7264 1.32045 50.7458 1.23466 50.7422ZM1.60794 45.2952C1.51697 45.4655 1.28225 45.5206 1.28225 45.372C1.28225 45.3244 1.31916 45.3085 1.36448 45.3363C1.40948 45.3642 1.46808 45.3299 1.49528 45.2596C1.52215 45.1897 1.57783 45.1324 1.61959 45.1324C1.66201 45.1324 1.65683 45.2033 1.60794 45.2952ZM43.1749 51.7151C43.2303 51.6594 43.2957 51.6345 43.321 51.6594C43.3459 51.6847 43.3009 51.73 43.2206 51.7604C43.1044 51.8048 43.0953 51.7954 43.1749 51.7151ZM40.0226 60.0273C40.0226 60.0719 39.9219 60.1063 39.7989 60.103C39.6008 60.0979 39.5937 60.0894 39.7377 60.0273C39.9601 59.9318 40.0226 59.9318 40.0226 60.0273ZM39.7895 59.6375C39.8504 59.6579 39.8135 59.6948 39.7034 59.7236C39.5681 59.7589 39.5364 59.7485 39.5969 59.688C39.6442 59.6407 39.7309 59.6181 39.7895 59.6375ZM39.5937 53.8735C39.6205 53.9007 39.5726 53.9198 39.4868 53.9163C39.3923 53.9124 39.3729 53.8929 39.4376 53.867C39.4962 53.8437 39.5665 53.8466 39.5937 53.8735ZM38.0433 57.3259C38.0666 57.3849 38.064 57.4551 38.0371 57.482C38.0099 57.5092 37.9911 57.4609 37.9944 57.3751C37.9982 57.2803 38.0177 57.2612 38.0433 57.3259ZM32.4405 61.6868C32.4946 61.6761 32.5014 61.6861 32.4551 61.7091C32.4091 61.7321 32.3919 61.7842 32.4172 61.825C32.4425 61.8658 32.4214 61.8995 32.3703 61.8995C32.2495 61.8995 32.3113 61.712 32.4405 61.6868ZM30.5003 61.0448C30.5453 61.0726 30.5816 61.1112 30.5816 61.1309C30.5816 61.1507 30.545 61.1669 30.5003 61.1669C30.4556 61.1669 30.419 61.128 30.419 61.0807C30.4187 61.0331 30.4556 61.017 30.5003 61.0448ZM28.9541 63.6901C28.9988 63.6901 29.0354 63.7452 29.0354 63.8122C29.0354 63.8795 28.9988 63.9342 28.9541 63.9342C28.9094 63.9342 28.8728 63.8792 28.8728 63.8122C28.8725 63.7448 28.9091 63.6901 28.9541 63.6901ZM17.4378 67.3527C17.5003 67.4537 17.4721 67.4537 17.3158 67.3527C17.2426 67.3054 17.2326 67.2733 17.2905 67.2724C17.3195 67.2737 17.3479 67.2816 17.3734 67.2955C17.399 67.3094 17.421 67.329 17.4378 67.3527ZM9.02754 65.7249C9.06477 65.7249 9.09521 65.7595 9.09521 65.8016C9.09521 65.8437 9.06477 65.8971 9.02754 65.9201C8.99031 65.9431 8.95988 65.9084 8.95988 65.8434C8.95988 65.778 8.99031 65.7249 9.02754 65.7249ZM4.37985 61.3297C4.42194 61.3297 4.45658 61.3663 4.45658 61.411C4.45658 61.4556 4.3996 61.4922 4.32967 61.4922C4.25974 61.4922 4.22542 61.4556 4.25294 61.411C4.28046 61.3663 4.33776 61.3297 4.37985 61.3297ZM6.57388 32.2298C6.45668 32.371 6.40941 32.3859 6.40941 32.281C6.40941 32.2408 6.46963 32.1851 6.54312 32.157C6.65481 32.1142 6.65999 32.1262 6.57388 32.2298ZM51.4246 47.2536C51.3434 47.2034 51.3414 47.1733 51.4152 47.1276C51.4434 47.1117 51.476 47.1052 51.5081 47.1091C51.5402 47.1129 51.5703 47.1269 51.5939 47.149C51.6998 47.2549 51.5635 47.3394 51.4246 47.2536Z" fill="#010101" transform="translate(21, 1)"/>
</svg>
