<svg width="91" height="110" viewBox="0 0 91 110" fill="none" xmlns="http://www.w3.org/2000/svg">
<path fill-rule="evenodd" clip-rule="evenodd" d="M54.0286 13.0026C66.0656 12.8686 77.731 17.8629 84.5809 28.0024C92.3397 39.4871 89.5722 52.7402 90.2439 65.526C91.9687 98.3239 67.6345 102.294 40.4426 108.763C12.0024 115.529 -3.72245 93.5388 0.754675 67.1131C3.0378 53.6387 10.4304 41.0082 19.3313 30.8008C29.5968 19.0305 40.311 18.4607 54.0286 13.0026Z" fill="#CFA3F7"/>
<path d="M29.6365 81.5625C30.7918 82.4966 32.3648 81.8881 32.8993 80.5766C33.4536 79.2168 32.542 77.6548 31.0248 77.6533C29.5373 77.6519 28.5842 79.1573 28.9553 80.5295C29.0677 80.9371 29.3061 81.2987 29.6365 81.5625Z" fill="black"/>
<path d="M40.8549 44.0126C40.7358 43.9191 40.6006 43.8429 40.466 43.7716C40.2362 43.6496 37.3235 42.6761 37.3235 42.6761C37.3235 42.6761 36.8908 38.9243 36.2761 37.1313C35.8167 35.7913 34.6824 35.4918 34.1513 36.967C33.8236 37.878 33.5674 38.8132 33.3853 39.764C33.3119 40.1478 33.2817 40.5436 33.2342 40.9311C33.1983 41.2254 33.0714 42.2944 33.0714 42.2944C33.0714 42.2944 31.2703 42.6042 30.7936 42.7265C30.0664 42.9132 28.9051 43.1738 28.345 43.7034C27.677 44.3351 28.2334 45.1087 28.889 45.4349C29.5983 45.7874 30.3413 46.0674 31.1069 46.2706C31.2622 46.3117 33.1137 46.6296 33.1137 46.6296C33.1137 46.6296 33.1606 47.1016 33.1919 47.3326C33.37 48.8797 33.7236 50.4056 34.2601 51.8684C34.7621 53.2383 35.7456 52.8861 36.165 51.705C36.4784 50.8219 36.7279 49.9176 36.9118 48.9988C36.9475 48.8205 37.2599 46.5249 37.2599 46.5249C37.2599 46.5249 39.4905 46.0358 40.5212 45.5364C41.0126 45.2982 41.4705 44.7675 41.0635 44.2226C41.0034 44.1438 40.9333 44.0732 40.8549 44.0126Z" fill="black"/>
<path d="M32.2133 62.9103C32.1366 62.8526 32.0549 62.802 31.9691 62.759C31.8247 62.6824 29.9948 62.0706 29.9948 62.0706C29.9948 62.0706 29.7229 59.7134 29.3366 58.5869C29.0478 57.7449 28.3352 57.5567 28.0018 58.4836C27.7958 59.056 27.6349 59.6435 27.5205 60.241C27.4745 60.482 27.4555 60.7309 27.4256 60.974C27.4029 61.1589 27.3235 61.8307 27.3235 61.8307C27.3235 61.8307 26.1918 62.0251 25.8923 62.1022C25.4355 62.2196 24.7059 62.3833 24.3538 62.7161C23.9341 63.1131 24.2836 63.5993 24.6956 63.8041C25.1412 64.0257 25.608 64.2016 26.0891 64.3291C26.1869 64.355 27.3499 64.5546 27.3499 64.5546C27.3499 64.5546 27.3796 64.8512 27.3991 64.9962C27.5093 65.9692 27.7345 66.9258 28.07 67.8459C28.3856 68.7066 29.0035 68.4854 29.2667 67.7432C29.4634 67.1884 29.6202 66.6202 29.7359 66.043C29.7583 65.9308 29.9545 64.4884 29.9545 64.4884C29.9545 64.4884 31.3558 64.1812 32.0036 63.8674C32.3123 63.7178 32.5999 63.3844 32.3442 63.042C32.3066 62.9925 32.2626 62.9482 32.2133 62.9103Z" fill="black"/>
<path d="M58.7901 51.0575C58.9248 52.8157 61.3872 53.104 61.9065 51.4173C62.1792 50.5316 61.5615 49.477 60.6459 49.3041C59.5812 49.103 58.7113 50.0262 58.7901 51.0575Z" fill="black"/>
<path d="M44.1873 62.2678C45.3426 63.2018 46.9156 62.5934 47.4501 61.2822C48.0041 59.9224 47.0925 58.3603 45.5756 58.3589C44.0881 58.3574 43.135 59.8628 43.5061 61.2353C43.6183 61.6516 43.8651 62.0074 44.1873 62.2678Z" fill="black"/>
<path d="M56.0119 77.9568C54.7838 75.2089 54.2088 72.7419 54.3031 70.6243C54.3751 69.0093 54.825 67.621 55.6425 66.4862C53.7071 63.5968 53.7842 59.9782 55.9049 56.3857L57.4882 57.3184C55.3992 60.8573 56.009 63.4872 56.9609 65.1232C58.9942 63.5528 61.7328 63.3166 63.6272 63.9711C65.1325 64.4912 66.0514 65.5184 66.148 66.7897C66.2711 68.4069 65.5802 69.6531 64.252 70.2089C62.1833 71.0745 59.0667 70.0924 56.8769 67.9634C55.6707 70.0746 55.9449 73.3028 57.6905 77.2082L56.0119 77.9568ZM58.086 66.5753C59.861 68.3462 62.3139 69.0292 63.542 68.5151C63.914 68.3595 64.3987 68.0258 64.3153 66.9289C64.2606 66.2083 63.3956 65.8337 63.0265 65.706C61.658 65.2336 59.5897 65.416 58.086 66.5753Z" fill="black"/>
</svg>
