<svg width="57" height="63" viewBox="0 0 57 63" fill="none" xmlns="http://www.w3.org/2000/svg">
<path d="M28.2375 10.85C26.05 9.975 24.3437 8.225 23.5125 6.0375L21.9375 0L20.1 6.78125C19.4438 8.53125 18.0875 9.8875 16.3813 10.5875L9.46875 12.9062L16.2937 14.7C18 15.05 19.3562 16.275 19.8375 17.9375L21.9375 24.85L23.9937 17.9375C24.475 16.275 25.875 15.05 27.5375 14.7L34.3625 12.9062L28.2375 10.85Z" fill="#FFFCFA"/>
<path d="M8.2875 51.45L7.9375 47.2937L7.5 52.3687C7.4125 53.6375 6.40625 54.6 5.1375 54.7312L0.0625 55.1687L4.35 55.5187C6.05625 55.65 7.4125 57.0062 7.54375 58.7125L7.89375 63L8.2 59.5437C8.375 57.3562 10.125 55.65 12.3125 55.475L15.8125 55.1687L11.6125 54.8188C9.8625 54.6438 8.4625 53.2 8.2875 51.45Z" fill="#FFFCFA"/>
<path d="M49.0187 36.4C46.7875 36.05 44.95 34.3875 44.425 32.2L43.375 28.0875L42.15 32.8562C41.7125 34.6062 40.2687 35.9625 38.4312 36.225L29.8125 37.7125L39 39.2437C40.4875 39.5062 41.7125 40.6 42.0625 42.0437L43.375 47.3375L44.2062 43.9687C44.8625 41.3437 47.05 39.375 49.7188 38.9375L56.9375 37.7125L49.0187 36.4Z" fill="#FFFCFA"/>
</svg>
