<svg width="100" height="107" viewBox="0 0 100 107" fill="none" xmlns="http://www.w3.org/2000/svg">
<path d="M45.2474 100.389C60.129 118.934 100 90.2713 100 65.2442C100 46.6072 81.9172 18.3837 56.9422 16.7882C34.661 15.365 1.65772 28.5026 0.0627144 54.0621C-1.53229 79.6216 27.6688 78.4824 45.2474 100.389Z" fill="#FC8CC7"/>
<path d="M49.9947 69.9882C43.6858 69.9882 38.5195 64.8219 38.5195 58.5379C38.5195 52.2539 43.6858 47.3359 49.9947 47.3359C56.3035 47.3359 61.4698 52.2787 61.4698 58.5627C61.4698 64.8467 56.3035 69.9882 49.9947 69.9882ZM49.9947 48.9256C44.5055 48.9256 40.134 53.0735 40.134 58.5379C40.134 64.0022 44.5055 68.175 49.9947 68.175C55.4839 68.175 59.8553 64.027 59.8553 58.5379C59.8553 53.0487 55.4839 48.9256 49.9947 48.9256Z" fill="black"/>
<path d="M50.6669 39.7358V43.4119H49.3008V39.7358H50.6669Z" fill="black"/>
<path d="M41.6491 45.8957L39.8359 42.791L41.1275 42.021L42.9407 45.1754L41.6491 45.8957Z" fill="black"/>
<path d="M36.2858 51.807L33.1562 50.0186L33.9014 48.7271L37.031 50.5154L36.2858 51.807Z" fill="black"/>
<path d="M34.6448 58.0908V59.4569H30.9688V58.0908H34.6448Z" fill="black"/>
<path d="M33.9014 69.0197L33.1562 67.7281L36.2858 65.9149L37.031 67.2065L33.9014 69.0197Z" fill="black"/>
<path d="M66.0905 69.0198L62.9609 67.2066L63.7061 65.915L66.8357 67.7282L66.0905 69.0198Z" fill="black"/>
<path d="M69.0471 58.0909V59.457H65.3711V58.0909H69.0471Z" fill="black"/>
<path d="M63.7061 51.807L62.9609 50.5154L66.0905 48.7271L66.8357 50.0186L63.7061 51.807Z" fill="black"/>
<path d="M58.341 45.8957L57.0742 45.1754L58.8874 42.021L60.1541 42.791L58.341 45.8957Z" fill="black"/>
<path d="M45.1305 37.9116L46.7214 43.8367L45.2823 44.2232L43.6914 38.2979L45.1305 37.9116Z" fill="black"/>
<path d="M38.5718 48.5037L34.25 44.1819L35.2932 43.1387L39.6398 47.4605L38.5718 48.5037Z" fill="black"/>
<path d="M29.385 52.5677L35.3113 54.1532L34.9263 55.5928L29 54.0074L29.385 52.5677Z" fill="black"/>
<path d="M34.9446 62.1118L35.3311 63.5512L29.4058 65.142L29.0195 63.7027L34.9446 62.1118Z" fill="black"/>
<path d="M65.0647 62.1246L70.9913 63.7103L70.6063 65.1499L64.6797 63.5645L65.0647 62.1246Z" fill="black"/>
<path d="M70.6126 52.5742L70.9991 54.0136L65.074 55.6042L64.6875 54.1648L70.6126 52.5742Z" fill="black"/>
<path d="M61.4221 48.5036L60.3789 47.4604L64.7007 43.1385L65.7687 44.1817L61.4221 48.5036Z" fill="black"/>
<path d="M54.8706 37.8848L56.3102 38.2698L54.7248 44.1963L53.2852 43.8114L54.8706 37.8848Z" fill="black"/>
<path d="M56.1818 60.376H49.0781V51.9062H50.4691V59.0099H56.1818V60.376Z" fill="black"/>
<path d="M50.6669 74.6084V78.0609H49.3008V74.6084H50.6669Z" fill="black"/>
<path d="M58.8874 75.9992L57.0742 72.8447L58.341 72.0996L60.1541 75.2292L58.8874 75.9992Z" fill="black"/>
<path d="M41.1275 75.9992L39.8359 75.2292L41.6491 72.0996L42.9407 72.8447L41.1275 75.9992Z" fill="black"/>
<path d="M54.7128 73.7974L56.3037 79.7225L54.8643 80.1089L53.2734 74.1838L54.7128 73.7974Z" fill="black"/>
<path d="M64.7007 74.8814L60.3789 70.5596L61.4221 69.5164L65.7687 73.8382L64.7007 74.8814Z" fill="black"/>
<path d="M35.2932 74.8816L34.25 73.8384L38.5718 69.5166L39.6398 70.5598L35.2932 74.8816Z" fill="black"/>
<path d="M45.2768 73.8032L46.7164 74.1885L45.131 80.115L43.6914 79.7301L45.2768 73.8035V73.8032Z" fill="black"/>
</svg>
