<svg width="171" height="68" viewBox="0 0 171 68" fill="none" xmlns="http://www.w3.org/2000/svg">
<path d="M12.8392 1.88735L12.895 1.88055C13.1078 1.85385 13.3172 1.8201 13.5232 1.7793C25.6584 -0.605289 37.5291 -0.312127 49.6051 1.01768C52.0412 1.28364 54.4865 1.5904 57.0207 1.83672C63.4776 2.4918 70.0109 2.4918 76.5442 2.03468C86.1304 1.17711 95.3222 1.27231 104.695 2.58474C106.569 2.84617 108.454 3.15293 110.381 3.46951C114.321 3.97801 118.155 4.0921 122.274 3.52089C128.238 2.70638 134.064 2.40642 139.824 2.43967C141.745 2.451 143.659 2.49936 145.571 2.57869C151.714 2.78043 157.773 3.38942 163.814 4.03015C165.226 4.17913 166.523 4.63398 167.503 5.32355C168.483 6.01312 169.09 6.89851 169.23 7.84125C169.321 8.45881 169.408 9.07636 169.491 9.69392C169.724 11.4091 169.924 13.125 170.093 14.8416C170.703 21.9251 171.413 29.0131 170.703 36.1004C169.836 44.9822 168.86 53.8632 168.53 62.7449C168.489 63.8188 167.839 64.8431 166.711 65.6143C165.582 66.3854 164.058 66.847 162.439 66.9074C154.677 67.1967 146.964 67.2028 139.138 67.2345C135.259 67.2442 131.38 67.2231 127.502 67.1711C114.476 67.0917 101.649 68.3951 88.5598 67.879C86.7363 67.8081 84.9168 67.699 83.1038 67.5519C82.9898 67.5423 82.8761 67.531 82.7629 67.5179C75.6471 66.6784 68.4959 66.5379 61.3459 66.5946C58.9439 66.6135 56.5408 66.655 54.14 66.6996C40.1899 67.233 26.2683 67.4748 12.3501 66.9142L12.1164 66.9043C10.5731 66.8399 9.11567 66.4109 8.00877 65.6952C6.90186 64.9794 6.21882 64.0244 6.08359 63.0033C5.26508 56.8054 3.03753 50.8447 1.4347 44.6142C1.05167 43.1272 0.70511 41.6252 0.421252 40.1012C-0.430323 36.2145 0.137393 32.4419 0.988967 28.4404C2.12554 23.4869 4.33484 18.9391 5.89321 14.2636C6.28309 13.0947 6.63193 11.9176 6.91351 10.7245C7.19509 9.53147 7.40826 8.3218 7.52796 7.08719C7.54848 6.6958 7.56558 6.32709 7.57926 5.98104C7.61826 5.00303 8.16113 4.06334 9.11763 3.31818C10.0741 2.57302 11.3866 2.06729 12.8369 1.88508L12.8392 1.88735Z" fill="#FFD507"/>
</svg>
