<svg width="119" height="28" viewBox="0 0 119 28" fill="none" xmlns="http://www.w3.org/2000/svg">
<path d="M118.385 17.3109C118.393 16.7056 118.316 16.1142 118.214 15.996C117.837 15.5578 117.489 15.3479 117.246 15.4129C117.108 15.4496 116.732 15.2899 116.41 15.0582C116.023 14.7807 115.59 14.6461 115.139 14.6642C114.661 14.6833 114.31 14.5668 113.974 14.2764C113.709 14.0484 113.369 13.8609 113.218 13.8601C113.067 13.8593 112.814 13.7275 112.656 13.5674C112.497 13.4073 112.073 13.2254 111.714 13.1633C111.356 13.1013 111.03 13.0278 110.991 12.9999C110.706 12.7983 110.284 12.7371 110.142 12.8771C110.049 12.9694 109.897 12.9841 109.804 12.9106C109.712 12.8371 109.544 12.7053 109.431 12.6185C109.318 12.5316 109.072 12.3222 108.885 12.1525C108.699 11.9828 108.379 11.8438 108.175 11.8428C107.784 11.8404 106.436 11.2496 106.555 11.1322C106.593 11.0945 106.402 11.016 106.131 10.9582C105.861 10.9001 105.568 10.7828 105.484 10.6972C105.398 10.6116 105.118 10.4743 104.861 10.3921C104.604 10.3101 104.173 10.0938 103.903 9.91189C103.634 9.73002 103.251 9.5714 103.054 9.55866C102.857 9.54667 102.413 9.36958 102.066 9.16574C101.718 8.9619 101.286 8.80832 101.104 8.82441C100.922 8.8405 100.62 8.69743 100.431 8.50728C100.243 8.31674 99.605 8.00018 99.0134 7.80416C98.4223 7.60777 97.8846 7.39235 97.818 7.32504C97.7514 7.25772 97.5454 7.21618 97.3599 7.23262C97.1748 7.24869 96.9616 7.14279 96.8874 6.99712C96.8132 6.85144 96.4403 6.6838 96.0596 6.62394C95.6789 6.56409 95.1234 6.34064 94.826 6.12685C94.4083 5.82654 94.2571 5.79852 94.1653 6.00236C94.0895 6.16996 94.0277 6.18818 93.9959 6.05181C93.9685 5.93362 93.8565 5.85699 93.747 5.88178C93.6376 5.90732 93.4375 5.81624 93.3027 5.68009C93.168 5.54394 92.784 5.38494 92.4494 5.32683C92.1149 5.26873 91.7926 5.11043 91.7331 4.97505C91.6737 4.83966 91.2378 4.60851 90.766 4.46116C90.2934 4.31381 89.8404 4.12607 89.7591 4.04393C89.6778 3.96178 89.4616 3.9077 89.2795 3.92379C89.0967 3.93987 88.8211 3.82569 88.6671 3.67015C88.5132 3.5146 88.2723 3.41423 88.1318 3.44718C87.9912 3.48013 87.6537 3.40234 87.382 3.27456C87.1102 3.14679 86.7384 2.97272 86.5565 2.88854C86.1096 2.68116 85.95 2.59445 85.6751 2.41028C85.5469 2.32411 85.2555 2.25261 85.0278 2.25144C84.8 2.25027 84.5608 2.19568 84.4964 2.13065C84.432 2.06561 83.7845 1.79326 83.0576 1.52503C82.3306 1.25757 81.731 1.01686 81.7247 0.989965C81.6951 0.855116 79.3211 0.225763 79.1406 0.30429C79.0249 0.354772 78.8281 0.292085 78.7031 0.165824C78.5778 0.0391811 78.4283 -0.0296927 78.3706 0.0123851C77.5939 0.584635 77.3562 0.897453 77.3832 1.31039C77.4004 1.56966 77.3026 1.8132 77.1566 1.8779C76.9981 1.94746 76.9677 2.05893 77.0768 2.16922C77.1234 2.2163 77.1496 2.27985 77.1496 2.34609C77.1496 2.41233 77.1235 2.4759 77.0769 2.52299C76.7993 2.79777 77.4545 3.61728 78.2837 4.03132C78.6837 4.23089 79.0889 4.52924 79.1838 4.69356C79.2813 4.86206 79.5092 4.97977 79.7045 4.96261C79.8957 4.94582 80.0114 4.89155 79.9625 4.84211C79.9135 4.79267 80.0247 4.73838 80.2102 4.72193C80.3964 4.70549 80.6122 4.81935 80.692 4.97603C80.7718 5.13195 80.929 5.23833 81.0412 5.21242C81.1533 5.18651 81.3436 5.26468 81.464 5.38638C81.5845 5.50807 81.8326 5.59448 82.0147 5.57839C82.1975 5.56231 82.5221 5.72593 82.7355 5.94156C83.3731 6.5858 84.0767 6.84634 84.5021 6.59464C84.7644 6.43898 84.9202 6.4481 84.9977 6.62292C85.059 6.76324 85.4387 6.94302 85.8412 7.02191C86.2434 7.10041 86.5871 7.22931 86.6052 7.30773C86.6233 7.38614 86.7459 7.40342 86.8774 7.34546C87.0481 7.27066 87.2645 7.41177 87.6313 7.83554C88.0409 8.30872 88.2174 8.40952 88.4929 8.32732C88.6835 8.27041 88.8701 8.27175 88.908 8.32984C89.0116 8.48929 89.6112 8.72242 90.0027 8.75585C90.2264 8.78452 90.4403 8.86518 90.6273 8.99138C90.7792 9.10454 91.2512 9.28177 91.6756 9.38498C92.6245 9.61652 93.9424 10.2559 94.4421 10.7281C94.8627 11.1249 96.0535 11.3232 96.1297 11.0084C96.1567 10.8951 96.2751 10.8983 96.3952 11.0159C97.7584 12.3596 97.9469 12.4953 98.23 12.3318C98.5537 12.1447 98.5246 12.1328 99.1822 12.7158C99.5167 13.0127 99.613 13.1922 99.4985 13.3055C99.408 13.395 98.9986 13.3937 98.5897 13.3023C98.1804 13.2105 97.6533 13.1442 97.4183 13.1547C96.9361 13.1757 96.6324 13.1511 95.1649 12.9713C94.597 12.9018 94.103 12.8058 94.0657 12.7583C94.0285 12.7101 93.8169 12.729 93.5952 12.8002C93.3735 12.8713 92.9253 12.8459 92.5996 12.7451C91.7591 12.4839 90.7158 12.3759 90.5542 12.5336C90.4781 12.6074 90.2212 12.5365 89.9825 12.3752C89.7438 12.2147 89.4762 12.1543 89.3884 12.2412C89.2001 12.4275 87.1152 12.3846 86.675 12.1856C86.4882 12.101 86.3268 12.1479 86.2556 12.3064C86.1916 12.448 86.1211 12.4862 86.0989 12.3907C86.077 12.2957 85.9463 12.267 85.8086 12.3279C85.6709 12.3882 85.4522 12.3307 85.3223 12.1994C85.1924 12.0682 84.8478 11.9885 84.5555 12.0218C84.2632 12.0551 83.817 12.0036 83.5637 11.9074C83.3103 11.8111 82.9823 11.7946 82.834 11.8707C82.6853 11.9463 82.3572 11.9443 82.1041 11.8665C81.8506 11.7884 81.5957 11.772 81.5368 11.8303C81.4778 11.8887 81.0621 11.9395 80.613 11.9436C80.0049 11.9492 79.7972 11.8815 79.7978 11.6776C79.7996 11.3386 79.2968 11.255 78.7968 11.5112C78.4819 11.6723 77.719 11.7581 77.8624 11.6162C77.9875 11.4923 76.1012 11.5261 75.8119 11.6529C75.6507 11.7236 75.3289 11.695 75.0971 11.5894C74.6165 11.3709 72.3581 11.2874 72.1623 11.4812C72.0912 11.5516 71.9516 11.4684 71.8518 11.2969C71.7524 11.1249 71.6341 11.0426 71.5883 11.1143C71.417 11.3847 70.8561 11.4836 70.4768 11.311C70.2601 11.2122 69.9998 11.2147 69.8978 11.3155C69.7887 11.4236 69.6054 11.3905 69.4514 11.2349C69.1589 10.9394 68.4273 10.8452 68.1968 11.0733C68.0337 11.2348 66.648 11.3196 66.5069 11.177C66.4595 11.1291 66.0716 11.065 65.6449 11.0356C65.2183 11.0054 64.8169 10.9284 64.7529 10.8637C64.6889 10.7991 64.5674 10.8132 64.4841 10.8956C64.2643 11.1109 61.0916 11.053 60.8706 10.8297C60.8228 10.7814 60.6521 10.8089 60.492 10.8906C60.3315 10.9726 59.9472 10.9396 59.638 10.8173C59.2128 10.6494 58.9758 10.6732 58.67 10.9149C58.1393 11.3333 57.8611 11.3451 56.9466 10.9854C56.5282 10.8213 56.1051 10.7673 56.0054 10.8659C55.9058 10.9646 55.545 10.9964 55.2041 10.9371C54.8631 10.8778 54.5035 10.9085 54.4057 11.0053C54.308 11.102 54.1156 11.1305 53.9782 11.0685C53.8408 11.0065 53.7109 11.0297 53.6889 11.12C53.6672 11.2099 53.2595 11.1798 52.7827 11.0525C52.3058 10.9252 51.8379 10.899 51.7417 10.9942C51.6455 11.0894 51.4569 11.1172 51.3225 11.0567C51.1882 10.9962 50.9413 11.0169 50.7737 11.1023C50.5973 11.1926 50.3576 11.1475 50.2055 10.9938C49.924 10.7109 49.1073 10.8906 48.9343 11.2726C48.8727 11.4088 48.675 11.3787 48.3952 11.1903C48.1188 11.0039 47.8787 10.9659 47.7548 11.0887C47.6365 11.2057 47.5155 11.1922 47.4553 11.0546C47.3973 10.9222 47.1633 10.8805 46.9068 10.9568C46.6612 11.0297 46.3389 11.0257 46.1909 10.9485C46.0426 10.871 45.6301 10.8931 45.2739 10.9979C44.9173 11.1032 44.5566 11.1191 44.4723 11.0339C44.388 10.9487 44.2461 10.9521 44.156 11.0414C43.9639 11.2314 41.9397 11.1578 41.9407 10.9611C41.9411 10.8869 41.8539 10.913 41.747 11.0187C41.6402 11.1245 41.4165 11.1396 41.2508 11.0521C41.0848 10.965 40.7945 10.9798 40.6052 11.0851C40.4166 11.1905 39.8867 11.2256 39.4284 11.1634C38.9702 11.1013 38.2614 11.1275 37.8541 11.2219C37.4465 11.3159 36.9027 11.4115 36.6453 11.4351C36.3879 11.458 36.1306 11.5229 36.074 11.579C36.0173 11.6351 35.8896 11.5988 35.7906 11.4988C35.5576 11.2634 34.7377 11.2603 34.2117 11.4933C33.9853 11.5932 33.7137 11.588 33.6083 11.4815C33.3501 11.2206 32.9387 11.2348 32.0915 11.535C31.1799 11.8576 30.5373 11.8777 30.4102 11.588C30.3526 11.4568 30.0596 11.4065 29.7244 11.471C29.4025 11.5329 29.05 11.494 28.9412 11.3841C28.7214 11.1627 28.3572 11.2747 27.934 11.6937C27.7807 11.8454 27.5013 11.9548 27.3133 11.936C27.1257 11.9177 26.9293 11.9961 26.8773 12.1109C26.8226 12.232 26.6172 12.2185 26.3875 12.0792C25.9092 11.7892 25.0706 11.8166 24.9305 12.1269C24.8746 12.2507 24.7177 12.3014 24.5822 12.2405C24.4467 12.1789 24.3206 12.19 24.3029 12.2641C24.2847 12.3385 24.1363 12.4229 23.972 12.4515C23.7455 12.4912 23.6957 12.4524 23.7647 12.2916C23.8149 12.1749 23.8028 12.0265 23.738 11.9611C23.6733 11.8957 23.5993 11.9313 23.573 12.0393C23.5471 12.1478 23.4149 12.1861 23.2797 12.1248C23.1442 12.064 22.8681 12.1121 22.6658 12.2318C22.4503 12.3593 22.2092 12.3607 22.0858 12.236C21.8065 11.9538 20.4802 12.0416 20.1119 12.3662C19.9527 12.5073 19.7771 12.5771 19.7229 12.5223C19.5325 12.3307 18.9879 12.4217 18.5062 12.7261C18.1505 12.9509 17.895 12.9711 17.5489 12.8017C17.1998 12.6308 16.9988 12.6475 16.7759 12.8681C16.4314 13.2091 16.0048 13.2444 15.4893 12.9739C15.292 12.8703 15.088 12.8681 15.0372 12.9696C14.986 13.0708 14.679 13.1623 14.3559 13.1727C13.8113 13.19 13.7722 13.2174 13.8216 13.5487C13.8684 13.863 13.8298 13.8613 13.5053 13.5334C13.1044 13.1284 12.8083 13.1038 12.196 13.4253C11.9782 13.5392 11.6279 13.6021 11.4173 13.5643C11.2075 13.5265 10.9815 13.5492 10.9154 13.6147C10.8492 13.6802 10.5087 13.7401 10.1591 13.7481C9.80867 13.7562 9.19848 13.8798 8.80235 14.0227C8.40623 14.1655 7.87971 14.2056 7.63237 14.1116C7.38502 14.0176 7.1096 14.0132 7.02061 14.1012C6.93161 14.1893 6.65763 14.2708 6.41239 14.2816C6.16677 14.2928 5.84658 14.3854 5.70038 14.4879C5.44976 14.663 5.2456 14.7062 4.48678 14.7435C4.31079 14.7521 4.02665 14.8985 3.85475 15.0687C3.68285 15.2388 3.33896 15.3767 3.09076 15.3754C2.84256 15.3741 2.34997 15.5846 1.99638 15.8435C1.64203 16.1023 1.27024 16.2941 1.16859 16.2698C1.06693 16.2454 0.768922 16.4387 0.50575 16.6992C0.161192 17.0402 0.0773793 17.2241 0.207616 17.3556C0.310751 17.4599 0.278385 17.6462 0.131971 17.7911C-0.032321 17.9537 -0.0435735 18.0808 0.0998697 18.1459C0.222929 18.2018 0.348884 18.3564 0.379603 18.4894C0.502473 19.0227 1.33057 19.346 2.02747 19.1343C2.40643 19.0189 2.7322 19.0195 2.76339 19.1354C2.7942 19.2495 2.82401 19.2659 2.82942 19.1709C2.83483 19.076 3.12802 18.8626 3.48076 18.6964C3.96549 18.4674 4.08752 18.3571 3.98103 18.2434C3.90313 18.1609 4.01459 18.1184 4.22821 18.1486C4.55223 18.1953 4.63766 18.1364 4.74271 17.796C4.81198 17.5716 4.88816 17.4713 4.91185 17.5736C4.93554 17.6759 5.20445 17.7696 5.50974 17.7822C5.81539 17.7943 6.06642 17.8335 6.06776 17.8683C6.0691 17.9031 6.14126 17.9965 6.22825 18.0761C6.31524 18.1556 6.3139 18.0485 6.22531 17.8381C6.03991 17.3982 6.22299 17.1146 6.50642 17.401C6.61182 17.5075 6.94531 17.6253 7.24705 17.6632C7.65353 17.7141 7.74489 17.6802 7.59922 17.533C7.32294 17.2538 7.5645 17.0757 7.94713 17.2767C8.22523 17.4231 8.47259 17.3657 8.50057 17.1506C8.51751 17.0194 9.22161 17.1002 9.69928 17.2877C10.1853 17.4782 10.5469 17.3514 10.2815 17.0833C10.2017 17.0027 10.5921 16.9551 11.1485 16.9773C11.7054 16.9998 12.1615 16.9496 12.1616 16.866C12.1616 16.7824 12.352 16.7054 12.5844 16.6952C12.8163 16.6847 12.9612 16.631 12.9066 16.5758C12.8516 16.5203 13.0702 16.4681 13.3934 16.4599C13.7158 16.4517 14.0552 16.5208 14.1474 16.614C14.2603 16.7281 14.3692 16.6799 14.4815 16.4655C14.5985 16.2429 14.7031 16.2033 14.8307 16.3322C14.9312 16.4338 15.125 16.4927 15.2614 16.4639C15.3977 16.4351 15.6175 16.5202 15.75 16.6541C15.9243 16.8301 16.0772 16.8165 16.3038 16.6058C16.7893 16.1539 17.3501 15.9241 17.4489 16.1365C17.5809 16.4221 18.1516 16.5635 18.3558 16.3614C18.4539 16.2643 18.5861 16.2381 18.6504 16.3031C18.7148 16.3682 18.8119 16.321 18.867 16.1987C18.9221 16.0764 19.3715 15.9561 19.8654 15.931C20.3593 15.9059 20.8858 15.8772 21.0353 15.8663C21.1848 15.8561 21.3915 15.7637 21.4945 15.6617C21.5976 15.5597 21.7505 15.5438 21.8337 15.6264C21.9369 15.7283 21.9697 15.677 21.9344 15.4665C21.8955 15.2332 21.9352 15.1789 22.0949 15.2475C22.2115 15.2976 22.3861 15.2595 22.4831 15.1636C22.6219 15.0262 22.6834 15.0685 22.77 15.3607C22.831 15.5653 22.9242 15.6906 22.9782 15.6402C23.0314 15.589 23.0457 15.6818 23.0101 15.8458C22.9624 16.0624 22.9883 16.1015 23.1054 15.9886C23.194 15.9032 23.2826 15.9021 23.3018 15.9862C23.3214 16.0707 23.48 15.9951 23.6546 15.8177C23.8847 15.5847 24.1081 15.5435 24.465 15.6691C24.7366 15.7647 25.013 15.7884 25.0804 15.7218C25.1473 15.6556 25.2228 15.6892 25.2476 15.7972C25.2724 15.9052 25.4057 15.8816 25.5434 15.7454C25.6848 15.6054 25.8719 15.5768 25.9739 15.6799C26.1489 15.8567 26.4099 15.7234 26.8131 15.2513C26.9326 15.1112 27.0919 15.1079 27.224 15.2414C27.5361 15.5566 28.2246 15.643 28.1587 15.3582C28.1299 15.2339 28.2275 15.0146 28.375 14.8708C28.577 14.674 28.6276 14.6773 28.58 14.8832C28.5309 15.099 28.705 15.1586 29.3974 15.1621C29.8817 15.1646 30.3569 15.2469 30.454 15.345C30.5511 15.4431 30.7081 15.4466 30.8028 15.3529C30.8975 15.2591 31.0672 15.2267 31.18 15.2807C31.2921 15.3346 31.3877 15.2912 31.392 15.1838C31.3964 15.0763 31.1425 14.921 30.8289 14.8384C30.3755 14.7196 30.2933 14.6541 30.4276 14.5212C30.5204 14.4293 30.6782 14.3545 30.778 14.355C30.8983 14.3464 31.0122 14.2974 31.1011 14.2159C31.1817 14.1361 31.4852 14.2875 31.8023 14.5646C32.2261 14.9357 32.3881 14.9959 32.47 14.814C32.5427 14.6524 32.6604 14.6564 32.8301 14.8279C33.0402 15.0401 33.0271 15.087 32.7492 15.1113C32.5119 15.1324 32.4568 15.1802 32.555 15.2794C32.631 15.3562 32.8737 15.339 33.0951 15.241C33.3162 15.1434 33.5916 15.0861 33.7076 15.1143C33.824 15.1422 33.9382 15.0834 33.9625 14.9832C33.9869 14.8831 34.0777 14.8737 34.1651 14.9619C34.2524 15.0502 34.5012 15.0825 34.7171 15.0337C34.9338 14.9848 35.1912 15.0266 35.2899 15.1263C35.3885 15.2259 35.5166 15.261 35.574 15.2042C35.6314 15.1473 36.103 15.0533 36.622 14.9958C37.3197 14.918 37.5726 14.8176 37.5934 14.6088C37.6086 14.4538 37.551 14.3097 37.466 14.2892C37.381 14.2687 37.4557 14.1684 37.6317 14.0664C37.8917 13.9161 38.0046 13.9594 38.2254 14.2942C38.4345 14.6113 38.5843 14.682 38.8689 14.5976C39.2024 14.4987 39.2397 14.525 39.2376 14.8583C39.2369 15.0622 39.3309 15.2523 39.4473 15.2801C39.5811 15.3126 39.6409 15.1525 39.61 14.8451L39.5614 14.3594L39.965 14.4553C40.1872 14.5079 40.434 14.4857 40.5143 14.4063C40.7428 14.1801 41.0656 14.3289 41.096 14.673C41.1331 15.0947 41.4666 15.1487 41.8282 14.7907C41.9914 14.6292 42.1772 14.55 42.2412 14.6146C42.3052 14.6793 42.4088 14.6196 42.4708 14.4822C42.5461 14.3159 42.6595 14.3065 42.8111 14.4541C43.1744 14.8082 43.771 14.8245 43.9248 14.484C44.0129 14.2893 44.0766 14.2593 44.1092 14.3987C44.1366 14.5162 44.403 14.5845 44.7013 14.5505C44.9996 14.5165 45.3575 14.6042 45.4967 14.7449C45.6725 14.9225 45.8273 14.9252 46.0007 14.7536C46.1384 14.6173 46.2694 14.5854 46.2916 14.6824C46.3142 14.7798 46.5637 14.7489 46.8463 14.6145C47.2779 14.4086 47.3518 14.3106 47.3118 13.9964C47.2707 13.6749 47.305 13.632 47.5579 13.6851C47.8958 13.7572 47.9978 14.2201 47.7335 14.4817C47.6415 14.5728 47.6475 14.7295 47.7468 14.8299C47.8458 14.9299 47.9853 14.9545 48.0561 14.8845C48.1268 14.8145 48.2013 14.8266 48.2205 14.9114C48.2397 14.9963 48.3982 14.9471 48.5711 14.8016C48.8553 14.5632 48.8461 14.5189 48.4724 14.349C47.7336 14.0126 48.246 13.9225 49.0658 14.2442C49.69 14.4892 49.8758 14.4905 49.986 14.2512C50.1061 13.99 50.1291 13.998 50.1597 14.3104C50.1989 14.709 50.7543 15.086 51.0035 14.883C51.1335 14.7677 51.2538 14.642 51.3634 14.5073C51.4746 14.3716 51.5845 14.3419 51.6078 14.4415C51.6311 14.5412 52.0008 14.6036 52.43 14.5801C52.8592 14.5566 53.2119 14.6163 53.2144 14.7132C53.217 14.81 53.3219 14.7198 53.4482 14.5135C53.5745 14.3071 53.6449 14.2292 53.6038 14.3406C53.5631 14.4524 53.6621 14.6224 53.824 14.7182C54.1955 14.9384 55.1361 14.6535 55.1382 14.3201C55.1395 14.0712 55.769 14.2995 55.8429 14.5757C55.8641 14.6549 56.1533 14.6931 56.4857 14.66C57.0005 14.6082 57.086 14.553 57.0624 14.2843C57.027 13.8804 57.4464 13.6911 57.7336 13.9812C57.8552 14.1041 58.044 14.1838 58.1535 14.1582C58.2626 14.133 58.3712 14.1934 58.3942 14.2934C58.4171 14.3926 58.5871 14.515 58.7719 14.5647C58.9578 14.6149 59.0423 14.5854 58.961 14.4995C58.7401 14.2657 59.0264 14.0719 59.2538 14.3016C59.5662 14.6173 60.7369 14.8356 60.8437 14.5981C60.8972 14.4796 61.0948 14.3977 61.2827 14.4165C61.7623 14.4636 61.8725 14.2958 61.5055 14.0779C61.2075 13.9015 61.2181 13.8933 61.7733 13.864C62.2948 13.8364 62.3454 13.8669 62.2957 14.1765C62.2656 14.3652 62.1739 14.535 62.0914 14.5535C62.0088 14.572 62.0328 14.6792 62.1427 14.7902C62.2718 14.9207 62.3839 14.9031 62.4563 14.7426C62.5252 14.5901 62.6384 14.5616 62.7461 14.6704C62.8432 14.7685 62.9774 14.7953 63.0447 14.7286C63.1116 14.6624 63.2477 14.6903 63.3471 14.7907C63.4461 14.8908 63.562 14.9258 63.604 14.8685C63.8947 14.4731 64.2846 14.2912 64.5468 14.4284C64.7215 14.5205 65.0468 14.4673 65.3031 14.3055C65.6933 14.0586 65.7825 14.0712 65.9761 14.3983C66.1438 14.6818 66.2151 14.7136 66.2626 14.5258C66.3132 14.3259 66.3324 14.3423 66.3594 14.6099C66.386 14.8764 66.4738 14.9567 66.794 15.0079C67.0148 15.0431 67.2407 15.0272 67.2966 14.9727C67.4625 14.8085 69.3804 14.8105 69.5434 14.9752C69.6266 15.0585 69.7487 15.0723 69.8153 15.0065C69.8818 14.9406 69.8831 14.8316 69.8165 14.7643C69.7503 14.6974 69.7539 14.5854 69.825 14.515C69.8957 14.445 69.9743 14.4764 69.9994 14.5855C70.0242 14.6942 70.2213 14.7838 70.4369 14.7849C70.6526 14.786 70.8745 14.8908 70.9303 15.0171C71.0832 15.3656 71.4972 15.4941 71.6163 15.2303C71.6974 15.0506 71.6358 14.9701 71.3479 14.8815C71.0548 14.7907 71.021 14.7429 71.192 14.6586C71.3119 14.5995 71.5532 14.6851 71.7283 14.8491C72.1681 15.26 73.0259 15.2587 73.5464 14.8452C73.9784 14.502 74.3304 14.475 74.6218 14.7618C74.7057 14.8444 74.6844 15.013 74.5756 15.1366C74.386 15.3505 74.3894 15.3539 74.6445 15.2061C74.7917 15.1206 74.9542 15.0939 75.0057 15.146C75.1307 15.2722 76.5626 15.308 76.6843 15.1875C76.7368 15.1356 77.0785 15.1256 77.4431 15.1661C77.7575 15.2017 78.0724 15.2326 78.3877 15.2587C78.5428 15.2694 78.8622 15.3372 79.0975 15.41C79.3329 15.4827 79.5703 15.4419 79.6254 15.3204C79.6855 15.1871 79.9254 15.1823 80.2263 15.3083C80.7591 15.5324 80.9766 15.4624 80.8308 15.1151C80.7467 14.9145 81.1713 15.1967 81.3553 15.4632C81.4015 15.5304 81.5787 15.6585 81.7493 15.7479C81.9987 15.879 82.0651 15.8486 82.0902 15.5919C82.1298 15.1868 82.3326 15.1894 82.769 15.5991C83.071 15.883 83.152 15.8766 83.414 15.5487C83.6851 15.2089 83.7347 15.2095 83.9376 15.5522C84.1994 15.9947 84.8188 15.9222 84.931 15.437C84.9674 15.2798 85.0512 15.0975 85.1182 15.0312C85.1851 14.965 85.2104 15.0385 85.1745 15.1938C85.1203 15.4281 85.1692 15.4829 85.4577 15.5112C85.7519 15.54 85.7741 15.5776 85.5991 15.7507C85.485 15.8636 85.4824 16.0017 85.593 16.0572C85.7036 16.1126 85.9539 15.9928 86.1491 15.7899C86.4583 15.4687 86.5329 15.4642 86.73 15.7569C86.857 15.946 87.015 16.0342 87.0915 15.9586C87.166 15.8848 87.3044 15.9021 87.3989 15.9976C87.627 16.2281 88.324 16.2241 88.3796 15.9928C88.404 15.8919 88.3334 15.7879 88.2223 15.7608C88.0866 15.728 88.133 15.6775 88.3642 15.6045C88.553 15.545 88.7455 15.4169 88.7914 15.3196C88.8376 15.2226 89.0791 15.22 89.3275 15.3144C89.8849 15.5261 90.0882 15.7171 89.8223 15.7785C89.5136 15.85 89.9638 16.085 90.3276 16.0426C90.504 16.0215 90.6633 15.9444 90.6811 15.8696C90.7279 15.6757 91.0217 15.7756 91.4301 16.1251C91.6313 16.2971 91.9811 16.3882 92.2395 16.3358C92.4898 16.2853 92.7907 16.3406 92.9078 16.4588C93.0248 16.5771 93.3576 16.6257 93.6469 16.5675C94.0829 16.4793 94.1657 16.4124 94.1279 16.1795C94.0931 15.964 94.1158 15.9626 94.2226 16.1739C94.4267 16.5749 95.1098 16.5485 95.1497 16.1378C95.1761 15.8701 95.2112 15.8911 95.3814 16.2752C95.5115 16.5687 95.5984 16.6596 95.629 16.533C95.6553 16.4257 95.733 16.3962 95.8034 16.4673C95.9641 16.6297 96.8577 16.6419 96.8589 16.4819C96.8589 16.4164 97.0252 16.4506 97.2275 16.5583C97.4301 16.6657 97.6563 16.7474 97.7305 16.7402C97.8047 16.733 98.0345 16.7766 98.2408 16.8374C98.744 16.9853 99.1595 16.6818 99.0896 16.2179C99.0585 16.0108 99.0868 15.8948 99.1526 15.9613C99.2181 16.0275 99.2714 16.1999 99.2706 16.3445C99.2696 16.5336 99.3291 16.5937 99.4821 16.5582C99.5992 16.5312 99.6284 16.442 99.5475 16.3603C99.4666 16.2785 99.4699 16.2119 99.5554 16.2124C99.641 16.2128 99.7242 16.3646 99.7402 16.5504C99.7731 16.9214 99.9939 16.8121 99.9955 16.4242C99.9964 16.2628 100.192 16.2752 100.583 16.4613C100.968 16.6442 101.206 16.6609 101.274 16.5095C101.398 16.2347 102.176 16.3428 102.511 16.6809C102.739 16.9113 102.733 16.9181 102.363 16.8587C101.996 16.7997 101.988 16.8133 102.178 17.1411C102.438 17.5912 102.133 17.6479 101.523 17.2634C101.233 17.0807 101.094 17.0561 101.18 17.2018C101.357 17.5062 100.694 18.0056 100.446 17.755C100.355 17.6626 100.225 17.6404 100.158 17.707C100.091 17.7732 99.9498 17.7403 99.844 17.6335C99.7386 17.527 99.515 17.5194 99.3465 17.6169C99.1784 17.714 99.006 17.7589 98.9635 17.716C98.921 17.673 98.635 17.7392 98.3275 17.8629C98.02 17.9865 97.4507 18.0952 97.0632 18.1046C95.5674 18.1411 94.4967 18.2559 94.3568 18.3945C94.1526 18.5966 93.5553 18.5712 93.3377 18.3514C93.1427 18.1544 92.7956 18.1847 92.4523 18.4289C92.3357 18.5112 91.9186 18.6808 91.5256 18.8048C91.1326 18.9287 90.7954 19.0946 90.7768 19.1732C90.7583 19.2518 90.3951 19.1762 89.9706 19.006C89.3673 18.7638 89.0011 18.7551 88.2962 18.9663C87.7998 19.1151 87.1166 19.238 86.7768 19.2393C86.437 19.2405 85.5896 19.3641 84.8926 19.5133C84.196 19.663 83.3614 19.7941 83.0383 19.8046C82.7151 19.815 82.4507 19.8787 82.4499 19.9464C82.4492 20.0142 82.1531 20.0528 81.7911 20.0331C81.3924 20.0114 80.9161 20.1447 80.582 20.3731C80.2198 20.6202 79.7583 20.7358 79.2337 20.7108C78.7907 20.6892 78.3184 20.7893 78.1704 20.9358C78.0069 21.0976 77.7759 21.1312 77.571 21.0239C77.0061 20.7277 76.3897 20.8138 76.0125 21.2421C75.82 21.4613 75.6214 21.5991 75.5717 21.5489C75.522 21.4987 75.2801 21.5153 75.0342 21.5855C74.7887 21.6561 74.0244 21.7861 73.3361 21.8749C72.6478 21.9637 72.0259 22.0861 71.9537 22.147C71.6041 22.4426 70.9474 22.7101 70.8393 22.601C70.7727 22.5337 70.6072 22.6403 70.4718 22.8375C70.3365 23.0347 70.1748 23.1451 70.1134 23.0831C69.9598 22.9279 69.3166 22.9359 69.2344 23.0933C69.1538 23.2469 68.2572 23.6532 67.2998 23.9698C66.9167 24.0969 66.5264 24.2761 66.4321 24.3695C66.3381 24.4624 66.2162 24.4928 66.1612 24.4373C66.1062 24.3818 65.7608 24.5227 65.393 24.7504C64.8726 25.0735 64.709 25.2535 64.6517 25.5684C64.6116 25.7903 64.5273 26.0078 64.4642 26.0521C64.1418 26.2786 64.0843 26.4951 64.3052 26.6552C64.4402 26.7535 64.5791 26.9608 64.6146 27.1169C64.6561 27.3002 64.7454 27.3677 64.8671 27.3074C64.9995 27.2418 65.0866 27.3168 65.1591 27.5597C65.2286 27.7943 65.3288 27.8902 65.4712 27.8568C65.7118 27.8017 65.7472 27.5431 65.542 27.3358C65.3869 27.1791 65.4893 27.0688 66.0355 26.8015C66.2411 26.7011 66.499 26.7229 66.627 26.8522C66.8976 27.1256 66.7395 27.3424 66.3862 27.1824C66.2484 27.1208 66.0701 27.1429 65.9898 27.2329C65.8752 27.3614 65.8895 27.3773 66.0564 27.3078C66.1731 27.2585 66.3782 27.3295 66.5122 27.4649C66.6869 27.6414 66.7902 27.6347 66.8771 27.4411C66.977 27.2202 67.0559 27.249 67.3156 27.6011C67.5835 27.9653 67.6571 27.988 67.7976 27.7512C67.8892 27.5973 68.077 27.504 68.2152 27.5441C68.3543 27.5841 68.6458 27.4823 68.8642 27.3174C69.0826 27.1524 69.4002 27.0345 69.5712 27.055C69.7421 27.0756 70.0839 27.0376 70.3306 26.9712C70.7061 26.8698 70.77 26.8066 70.7216 26.5842C70.6776 26.3838 70.7189 26.3738 70.8909 26.5446C71.072 26.7245 71.1243 26.7074 71.1482 26.46C71.1714 26.2218 71.2315 26.1699 71.4055 26.2362C71.5302 26.2838 71.4982 26.2386 71.3349 26.136C70.9646 25.9033 70.8414 25.4229 71.1343 25.3551C71.293 25.3185 71.3833 25.4083 71.4652 25.6826C71.7192 26.5379 72.742 26.5818 73.2295 25.7583C73.3428 25.567 73.4334 25.5399 73.4944 25.6791C73.5946 25.9074 74.1133 25.7553 74.1802 25.4783C74.203 25.385 74.0982 25.2448 73.9476 25.1665C73.7344 25.0553 73.7368 25.0348 73.9595 25.0734C74.1163 25.1004 74.2685 25.0251 74.2971 24.9057C74.3837 24.5467 74.5279 24.8338 74.5428 25.395C74.557 25.932 74.8442 26.1529 75.1431 25.8571C75.2351 25.766 75.4482 25.7644 75.6168 25.8527C75.7889 25.9429 76.1153 25.8924 76.3609 25.7374C76.6012 25.5854 76.8521 25.5155 76.9179 25.5821C76.9838 25.6486 77.177 25.5335 77.3464 25.3259C77.6998 24.8941 78.6364 24.6446 78.9006 24.9116C78.9981 25.0101 79.1574 25.0128 79.2536 24.9176C79.3498 24.8224 79.5968 24.7707 79.8021 24.8031C80.0074 24.8356 80.2524 24.7827 80.3471 24.6852C80.4419 24.5877 80.9848 24.5073 81.5543 24.5061C82.182 24.5051 82.7025 24.3928 82.8759 24.2212C83.0368 24.0619 83.3865 23.971 83.6749 24.0138C83.957 24.0553 84.5205 23.953 84.927 23.7864C85.3334 23.6197 85.7078 23.5256 85.7582 23.5765C85.8086 23.6275 85.9063 23.5444 85.9756 23.3915C86.059 23.205 86.1185 23.1888 86.154 23.3428C86.1881 23.4891 86.2971 23.4828 86.4572 23.3243C86.5949 23.1881 86.7823 23.1524 86.8738 23.2448C87.0876 23.4608 87.6682 23.1308 87.6009 22.8315C87.5732 22.7062 87.4394 22.5239 87.3045 22.4256C87.1695 22.3272 87.1153 22.1911 87.1842 22.123C87.253 22.0549 87.3594 22.1122 87.4196 22.2506C87.4847 22.3977 87.5999 22.435 87.6969 22.3406C87.8113 22.2295 87.8487 22.2498 87.8154 22.404C87.789 22.5272 87.9047 22.8448 88.0724 23.1087C88.316 23.4917 88.4167 23.5501 88.5696 23.3988C88.6753 23.2942 88.8189 23.2665 88.8893 23.3376C88.9593 23.4084 89.0381 23.377 89.0644 23.2682C89.0907 23.1593 89.5463 23.0811 90.0767 23.0944C90.6071 23.1077 91.1004 23.0607 91.1722 22.9896C91.2441 22.9184 91.3456 22.9023 91.3972 22.9544C91.4491 23.0069 91.7165 22.9492 91.9919 22.8266C92.3464 22.6683 92.573 22.6843 92.7669 22.8801C93.0266 23.1425 93.0383 23.1369 92.9827 22.7696C92.9279 22.4016 92.943 22.3933 93.2901 22.6002C93.6367 22.8074 94.4325 22.6507 94.7801 22.3067C94.8691 22.2186 95.4105 22.1495 95.9844 22.1528C96.558 22.1558 97.2706 22.0588 97.569 21.9374C97.8674 21.816 98.1816 21.7881 98.2682 21.8755C98.3551 21.9634 98.5697 21.9618 98.7453 21.8716C98.921 21.782 99.1487 21.7931 99.2514 21.8969C99.3854 22.0323 99.5072 21.9841 99.684 21.7262C99.8636 21.4649 99.9842 21.4194 100.128 21.5597C100.353 21.7781 100.93 21.89 101.162 21.7614C101.586 21.5249 101.724 21.5195 101.819 21.738C101.877 21.8684 101.984 21.9159 102.058 21.8432C102.131 21.7702 102.742 21.7075 103.414 21.7042C104.086 21.7008 104.675 21.66 104.722 21.6129C104.951 21.3863 104.909 20.7417 104.658 20.6285C104.353 20.4903 104.418 20.3669 104.846 20.2734C105.08 20.2216 105.135 20.2718 105.16 20.5573C105.194 20.9456 105.932 21.4875 106.007 21.1787C106.032 21.0737 106.186 21.0525 106.349 21.1317C106.711 21.3072 107.511 21.2478 107.74 21.0273C107.855 20.9174 107.792 20.785 107.545 20.615C107.314 20.4568 107.246 20.3319 107.361 20.275C107.461 20.2259 107.702 20.3437 107.897 20.5366C108.092 20.7294 108.532 21.0154 108.876 21.1723C109.429 21.4253 109.546 21.4111 109.914 21.0468C110.273 20.6915 110.287 20.6109 110.017 20.4502C109.817 20.3327 109.773 20.231 109.894 20.1719C109.998 20.121 110.245 20.2426 110.443 20.4419C110.816 20.8191 111.308 20.9004 111.827 20.6703C111.993 20.5966 112.15 20.6255 112.176 20.7346C112.242 21.0198 112.931 20.6681 113.358 20.1307C113.674 19.7324 113.725 19.7168 113.751 20.0109C113.785 20.3959 113.784 20.3955 114.241 19.9926C114.427 19.8286 114.74 19.6804 114.936 19.6633C115.132 19.6461 115.372 19.4975 115.469 19.3327C115.567 19.1678 115.785 19.0467 115.954 19.0635C116.141 19.0819 116.345 18.9543 116.478 18.734C116.64 18.4666 116.746 18.4247 116.889 18.57C116.996 18.6773 117.165 18.6842 117.265 18.5852C117.366 18.4858 117.656 18.406 117.912 18.4077C118.366 18.4115 118.372 18.3956 118.385 17.3109ZM77.7864 3.30608C77.6431 3.14 77.544 2.92949 77.566 2.83842C77.6371 2.54366 77.7727 2.66241 77.9114 3.141L78.0467 3.60784L77.7864 3.30608ZM97.9576 12.3221C97.8233 12.0297 97.8193 11.6195 97.9512 11.5892C98.2069 11.5303 98.3481 11.9552 98.1408 12.1603C98.0431 12.2571 97.9606 12.3297 97.9576 12.3221ZM9.40331 16.4227C9.43115 16.3078 9.50579 16.2144 9.5686 16.2147C9.63216 16.215 9.63157 16.3315 9.56765 16.4731C9.43484 16.7672 9.32793 16.7345 9.40331 16.4227ZM14.8839 16.062C14.8363 16.0149 14.8093 15.951 14.8086 15.8841C14.808 15.8172 14.8338 15.7528 14.8805 15.7048C15.0242 15.5625 15.063 15.5926 15.0862 15.8617C15.1023 16.0446 15.1041 16.2054 15.0901 16.2193C15.0764 16.2329 14.9833 16.1624 14.8839 16.062ZM25.6279 15.1964C25.6026 15.1915 25.5786 15.1815 25.5573 15.1671C25.536 15.1527 25.5178 15.1341 25.5039 15.1124C25.49 15.0907 25.4806 15.0665 25.4763 15.0411C25.4721 15.0157 25.473 14.9897 25.479 14.9647C25.485 14.9397 25.4961 14.9162 25.5115 14.8955C25.5269 14.8749 25.5463 14.8576 25.5686 14.8447C25.5908 14.8317 25.6155 14.8235 25.641 14.8203C25.6666 14.8172 25.6925 14.8193 25.7172 14.8265C25.7643 14.8401 25.8043 14.8714 25.8289 14.9138C25.8535 14.9562 25.8609 15.0065 25.8494 15.0541C25.8378 15.1018 25.8084 15.1432 25.7672 15.1697C25.7259 15.1962 25.676 15.2058 25.6279 15.1964ZM27.3653 15.1414C27.299 15.0745 27.303 14.9621 27.3738 14.8921C27.4445 14.8221 27.5227 14.8524 27.5478 14.9608C27.5726 15.0687 27.569 15.1807 27.5394 15.2101C27.5097 15.2394 27.4315 15.2084 27.3653 15.1414ZM28.0931 14.662C28.0693 14.6379 28.0531 14.6073 28.0467 14.5741C28.0402 14.5409 28.0438 14.5064 28.0569 14.4752C28.0701 14.444 28.0921 14.4174 28.1204 14.3987C28.1486 14.38 28.1818 14.3702 28.2157 14.3703C28.2495 14.3705 28.2826 14.3807 28.3106 14.3997C28.3387 14.4186 28.3605 14.4455 28.3733 14.4769C28.3861 14.5082 28.3893 14.5427 28.3825 14.5758C28.3758 14.609 28.3593 14.6394 28.3352 14.6633C28.303 14.6952 28.2593 14.713 28.2139 14.7128C28.1685 14.7125 28.125 14.6943 28.0931 14.662ZM29.9807 14.6082C29.8655 14.6348 29.6835 14.5673 29.5754 14.4581C29.4109 14.292 29.4451 14.2702 29.7846 14.3249C30.2231 14.3953 30.3167 14.5308 29.9807 14.6082ZM34.5102 14.582C34.4481 14.5192 34.4178 14.3798 34.4441 14.2725C34.47 14.1648 34.5756 14.1619 34.6791 14.2665C34.7826 14.3711 34.8121 14.5097 34.7448 14.5764C34.6779 14.6426 34.5723 14.6447 34.5102 14.582ZM35.2284 14.5788C35.1621 14.5119 35.1931 14.3728 35.2977 14.2693C35.4019 14.1662 35.5074 14.1701 35.5326 14.2777C35.5574 14.3857 35.5264 14.5248 35.4637 14.5869C35.4002 14.6497 35.2946 14.6458 35.2284 14.5788ZM66.4859 13.6332C66.5072 13.5452 66.6606 13.6576 66.8267 13.8832C66.9927 14.1088 67.1075 14.3145 67.0816 14.3401C66.9892 14.4323 66.4484 13.7901 66.4859 13.6332ZM67.3448 14.2143C67.3158 14.185 67.313 14.0726 67.3389 13.9649C67.3652 13.8576 67.4437 13.8273 67.5137 13.8981C67.5837 13.9688 67.5865 14.0812 67.5196 14.1475C67.4527 14.2137 67.3742 14.2439 67.3448 14.2143ZM68.3657 14.2729C68.3036 14.2101 68.2019 14.2717 68.1399 14.4091C68.0687 14.5676 67.9559 14.5882 67.8335 14.4646C67.6145 14.2433 67.7632 14.017 68.0776 14.0936C68.1925 14.1214 68.3336 14.0389 68.3918 13.9106C68.4496 13.7818 68.5438 13.7241 68.601 13.7819C68.6582 13.8397 68.6536 13.9993 68.5912 14.1371C68.5292 14.2745 68.4278 14.3357 68.3657 14.2729ZM75.5602 14.8109C75.1077 14.8109 74.8291 14.6153 75.0162 14.4301C75.0832 14.3639 75.1876 14.3599 75.2482 14.4211C75.3092 14.4827 75.4959 14.5953 75.6635 14.6719C75.9493 14.8023 75.9428 14.811 75.5602 14.8109ZM76.2822 14.5105C76.3066 14.4103 76.4155 14.35 76.5247 14.3766C76.6343 14.4029 76.6379 14.5093 76.5341 14.612C76.3207 14.8232 76.2172 14.7818 76.2822 14.5105ZM77.4242 14.928C77.0554 14.8429 76.9198 14.712 77.0587 14.5746C77.1933 14.4414 77.7158 14.6643 77.7148 14.855C77.7148 14.9318 77.5837 14.9644 77.4242 14.928ZM78.6818 14.8736C78.0694 14.6945 77.9935 14.5995 78.3341 14.4401C78.8427 14.2017 78.9001 14.2163 79.0188 14.6146C79.1356 15.0064 79.1356 15.0064 78.6818 14.8736ZM79.2445 15.2991C79.1783 15.2322 79.1788 15.1232 79.2458 15.057C79.3127 14.9907 79.4217 14.9913 79.4879 15.0582C79.5542 15.1251 79.5536 15.2341 79.4867 15.3004C79.4197 15.3666 79.3108 15.366 79.2445 15.2991ZM79.6266 14.8005C79.4888 14.7389 79.4223 14.642 79.479 14.586C79.5357 14.5299 79.7314 14.4987 79.9134 14.5167C80.1834 14.543 80.2108 14.5829 80.0606 14.7316C79.9598 14.8313 79.7644 14.8629 79.6266 14.8005ZM91.4601 15.5834C91.2974 15.5103 91.2699 15.4277 91.3878 15.3696C91.6295 15.2502 92.0031 15.4277 91.8434 15.5858C91.778 15.6497 91.6055 15.6489 91.4601 15.5834ZM92.4903 16.0424C92.3951 15.9462 92.3381 15.7798 92.3644 15.6717C92.3903 15.564 92.5229 15.5885 92.6592 15.7262C92.7955 15.8638 92.8521 16.0306 92.7852 16.0969C92.7186 16.1635 92.5856 16.1386 92.4903 16.0424ZM93.2664 16.3366C93.0255 16.0879 92.9279 15.5739 93.122 15.5746C93.209 15.575 93.3169 15.7875 93.3613 16.0461C93.4131 16.3502 93.3793 16.4529 93.2664 16.3366ZM99.8177 12.7471C99.765 12.4854 99.7939 12.4545 100.045 12.5107C100.391 12.5877 100.471 12.8235 100.231 13.061C100.027 13.2624 99.903 13.1687 99.8177 12.7471ZM66.3177 26.3023C66.2887 26.273 66.2859 26.1607 66.3118 26.053C66.3381 25.9456 66.4165 25.9154 66.4866 25.9861C66.5566 26.0569 66.5598 26.1689 66.4925 26.2355C66.4255 26.3018 66.3471 26.332 66.3177 26.3023ZM68.4367 26.4983C68.5333 26.3951 68.7469 26.2831 68.9113 26.2484C69.0757 26.2136 69.1527 26.2367 69.0824 26.2996C68.8392 26.5147 68.251 26.6956 68.4367 26.4983ZM97.7318 21.3381C97.6655 21.2712 97.6322 21.1288 97.6589 21.0211C97.6848 20.9134 97.7602 20.8801 97.8265 20.947C97.8927 21.014 97.9257 21.1568 97.8998 21.2645C97.8735 21.3718 97.798 21.4051 97.7318 21.3381ZM103.333 17.5323C103.208 17.5316 103.156 17.3694 103.21 17.1434C103.285 16.8249 103.332 16.7873 103.476 16.9322C103.572 17.0291 103.627 17.2042 103.599 17.321C103.57 17.4378 103.451 17.5329 103.333 17.5323Z" fill="#010101"/>
</svg>
