<svg width="91" height="94" viewBox="0 0 91 94" fill="none" xmlns="http://www.w3.org/2000/svg">
<path d="M87.6747 55.9797L87.4127 55.4374C84.4632 49.3509 81.2955 43.3625 78.2255 37.3324C77.4637 35.8361 76.6871 34.3473 75.9259 32.8504L73.3884 27.859L72.5423 26.1946C69.3863 19.9871 66.1447 13.665 60.6786 8.532C55.2125 3.39901 47.049 -0.437947 38.5307 0.0402782C31.2618 0.448591 24.7191 3.94245 20.1611 8.38983C15.6032 12.8372 12.76 18.1905 10.1758 23.5203C5.39278 33.3827 1.25661 43.5611 0.231641 54.0785C-0.793332 64.5959 1.50071 75.5628 8.76591 84.4487C10.458 86.5185 12.4391 88.4872 14.9785 89.9342C18.6221 92.011 23.1592 92.8759 27.62 93.3835C38.0431 94.5696 48.781 94.0391 58.9306 91.8354C69.9353 89.4466 80.688 84.7531 86.5144 77.0697C89.3938 73.2727 91.7346 69.2155 90.7852 64.3938C90.2061 61.4528 88.9763 58.6875 87.6747 55.9797Z" fill="#B659CB"/>
<path d="M40.5 66.8643C31.4017 66.8643 24 59.5226 24 50.499C24 41.4756 31.4017 34.1348 40.5 34.1348C49.5977 34.1348 57 41.4756 57 50.499C57 59.5226 49.5977 66.8643 40.5 66.8643ZM40.5 36.4142C32.669 36.4142 26.2976 42.7326 26.2976 50.499C26.2976 58.267 32.6687 64.5859 40.5 64.5859C48.3315 64.5859 54.7022 58.267 54.7022 50.499C54.7024 42.7326 48.3315 36.4142 40.5 36.4142Z" fill="black"/>
<path d="M41.6518 55.5889H39.3548V53.745C39.3548 51.7187 40.8798 50.2335 42.1049 49.0398C42.2274 48.9197 42.3486 48.8023 42.466 48.6852C42.7243 48.4312 42.9294 48.1281 43.0691 47.7939C43.2088 47.4596 43.2804 47.1008 43.2796 46.7384C43.2796 45.2207 42.0348 43.9859 40.5033 43.9859C38.9729 43.9859 37.7275 45.2204 37.7275 46.7384H35.4297C35.4297 43.9643 37.7056 41.707 40.5033 41.707C43.301 41.707 45.5775 43.9643 45.5775 46.7384C45.5775 48.0823 45.0495 49.346 44.0908 50.2965C43.9683 50.4179 43.8431 50.5405 43.7151 50.6649C42.7005 51.653 41.6518 52.6739 41.6518 53.7447V55.5889Z" fill="black"/>
<path d="M41.648 57.7236V60.0012H39.3516V57.7236H41.648Z" fill="black"/>
</svg>
