<svg width="90" height="111" viewBox="0 0 90 111" fill="none" xmlns="http://www.w3.org/2000/svg">
<path d="M10.0702 80.2439C10.2829 80.1166 10.6197 80.5803 10.687 80.1534C10.7078 80.0114 10.7238 79.9712 10.727 80.053C10.7452 80.3037 11.0228 80.3213 11.1145 80.0912C11.2087 79.8549 11.6529 79.479 11.7252 79.7781C11.7799 80.063 11.4128 80.4204 11.5239 80.5792C11.6576 80.7265 11.3167 80.8295 11.543 81.0969C11.6249 81.1877 11.7236 81.2387 11.7637 81.1965C11.8799 81.0666 12.8693 81.3232 12.228 81.6367C11.9156 81.7671 11.7792 82.4662 12.0448 82.5721C12.2185 82.6414 12.2153 82.7099 12.009 83.1377C11.8374 83.5095 11.7297 83.6294 11.5608 83.6086C11.408 83.6059 11.3711 83.6377 11.4213 83.7499C11.4771 83.8768 11.5321 83.8871 11.6479 83.8053C11.943 83.6062 11.5644 84.0441 11.7371 84.2347C11.9689 84.4165 10.9845 84.475 11.5187 84.6343C12.267 84.8718 10.8103 86.4852 11.3979 86.7195C11.6017 86.8007 11.2702 87.2484 11.4331 87.3134C11.5744 87.3697 11.4161 87.8005 11.5582 88.0702C11.6864 88.2761 11.5161 88.2341 11.2514 88.8981C10.9732 89.6767 10.6934 89.4515 10.8026 89.7858C10.8805 90.037 10.4419 91.1955 10.2482 91.2346C10.0694 91.268 9.87427 91.8157 9.97424 92.0408C10.1908 92.4537 9.60589 92.6706 10.1023 92.9965C10.6014 93.3181 10.0391 93.5502 10.1357 93.9834C10.1426 94.0559 10.1097 94.0777 10.0319 94.035C9.86413 93.9216 9.65974 94.3153 9.76944 94.5452C9.97178 94.9534 8.93239 95.0937 8.94739 95.8057C8.94665 96.3889 9.26792 96.1733 9.03639 96.4443C8.84942 96.6731 8.98799 98.0223 9.31715 97.1361C9.4803 96.7269 9.63359 96.8766 9.56063 97.0596C9.47629 97.2712 9.70171 97.3297 9.77528 97.1452C10.1229 96.4686 10.2098 97.1439 10.6881 96.0139C10.8757 95.6466 11.3001 95.8525 11.1399 95.5336C11.082 95.3826 11.0612 95.3743 11.0172 95.4847C10.9116 95.7495 10.658 94.8932 11.1416 94.8157C11.399 94.7716 11.5529 93.2724 11.8347 93.91C12.068 94.3887 12.1351 93.6593 12.327 94.2799C12.4816 94.7809 12.5761 94.3264 12.4577 94.1002C12.3137 93.8263 12.5468 93.5559 12.4016 93.498C12.2519 93.4383 12.2441 93.7833 12.0263 93.6965C11.6241 93.5361 12.5868 92.7576 12.8544 92.6003C13.419 92.2795 13.0845 91.9448 13.2801 91.3553C13.4196 90.9268 13.1341 90.77 13.216 90.5646C13.2597 90.455 13.2396 90.447 13.0992 90.5297C12.9589 90.6124 12.9496 90.6087 13.0603 90.4793C13.3587 90.1079 13.3686 89.5937 13.6319 89.6987C13.9191 89.8132 13.6578 89.4227 14.131 89.2481C14.3179 89.1946 14.3805 89.1274 14.3106 89.0646C14.1838 88.9675 14.3044 88.5754 14.4472 88.6323C14.58 88.6853 14.8133 88.338 14.7066 88.2489C14.6206 88.1681 15.3917 86.6787 15.5942 86.5277C15.7558 86.4185 15.8897 86.5292 15.8137 86.7199C15.5474 87.3878 16.5981 87.5042 16.0261 86.3062C15.8972 86.0347 15.8911 85.9624 16.0131 86.0111C16.1969 86.0843 16.2617 85.7737 16.1088 85.5624C16.057 85.4836 16.1099 85.4698 16.2327 85.5188C16.3963 85.584 16.4144 85.5679 16.3236 85.4387C16.0797 85.1168 16.7965 85.3391 16.6599 84.9813C16.5483 84.7292 17.1185 84.5718 17.1969 84.6737C17.3437 84.8754 17.9799 84.7971 17.591 84.3091C17.4549 84.1162 17.4861 83.9774 17.779 83.2136C18.197 82.098 17.916 82.3359 18.0259 82.0602C18.0776 81.9305 18.1486 81.9006 18.2353 81.9817C18.3219 82.0628 18.3889 82.043 18.4486 81.8932C18.5721 81.5836 18.2556 81.8521 18.1829 81.3702C18.1025 80.7503 18.7571 81.1016 18.4862 80.6679C18.3702 80.483 18.3842 80.4769 18.5828 80.5445C18.8175 80.6381 18.998 80.5132 19.1457 80.1425C19.2984 79.7596 19.6724 79.8675 19.4779 79.637C19.3266 79.4218 19.6603 79.4511 19.7294 79.5404C19.7684 79.5908 19.8562 79.5793 19.9231 79.5013C20.1027 79.3179 20.1007 79.2938 19.9269 79.2245C19.6529 79.1152 20.0158 78.647 19.9477 78.3398C19.8946 78.0868 20.0949 77.4365 20.2068 77.4811C20.2678 77.5054 20.3528 77.4114 20.4085 77.2716C20.5507 76.9149 21.0544 76.841 21.1169 76.6843C21.1742 76.5407 21.336 76.7296 21.4253 76.5056C21.473 76.386 21.4132 76.3272 21.1665 76.2638C20.809 76.1794 20.6773 75.9757 20.9726 75.978C21.3008 75.9987 21.242 75.4527 21.3689 75.9042C21.434 76.127 21.4508 76.1454 21.5105 75.9956C21.6013 75.7678 21.805 75.8517 21.7111 76.0872C21.6614 76.241 21.6715 76.245 21.8319 76.1121C21.9654 76.015 21.9934 75.9447 21.9316 75.8619C21.8469 75.7467 21.9334 75.5611 22.501 74.582C22.7442 74.1806 22.7374 74.1662 22.4438 74.1306C22.0744 74.0764 22.13 73.8784 22.5375 73.8664C22.6943 73.8591 22.8259 73.7962 22.805 73.7297C22.768 73.4948 23.1208 72.5223 23.2608 72.4967C23.4321 72.471 23.4033 71.9575 23.6279 71.843C23.7498 71.7753 23.7835 71.7198 23.7217 71.637C23.6309 71.5078 23.838 70.93 23.9708 70.9829C24.0218 71.0032 24.0496 71.1423 24.0247 71.2943C23.9465 71.9799 24.7244 71.4248 24.3749 71.2487C24.277 71.198 24.3788 71.1805 24.5726 71.1996C24.94 71.2297 25.1766 71.0807 24.8849 71.0109C24.5524 70.9248 24.2081 70.7178 24.2441 70.6274C24.3174 70.4437 24.5644 70.7981 24.6583 70.4212C24.7733 69.9892 25.093 70.5069 25.1692 70.1498C25.1891 70.0414 25.2678 69.9922 25.3697 70.0329C25.6153 70.1308 25.6692 69.8158 25.5021 69.2857C25.3491 68.8077 25.3571 68.7876 25.5956 68.7547C25.7994 68.7196 25.8262 68.742 25.7782 68.8624C25.708 69.0385 25.8698 69.2274 26.0625 68.744C26.2953 68.1603 26.6558 68.4455 26.743 68.227C26.7907 68.1073 26.5595 68.254 26.5154 68.0548C26.4627 67.7493 25.8973 67.9354 26.1108 67.4649C26.1934 67.2967 26.219 67.2915 26.1878 67.449C26.1566 67.6066 26.2491 67.6125 26.4654 67.4666C26.8335 67.1964 27.0679 66.6984 26.9013 66.5505C26.8214 66.4838 26.8374 66.4436 27.0011 66.3586C27.3189 66.1765 27.1751 65.8705 27.3782 65.6508C27.5397 65.4834 27.6009 65.7745 27.4654 66.1142C27.3717 66.3784 27.5887 67.1718 27.7552 67.1111C27.9569 66.9911 27.6986 66.353 28.0372 66.2849C28.3612 66.1904 28.2689 65.5916 28.6155 65.3101C28.7651 65.1729 28.7811 65.1327 28.6583 65.0838C28.4738 65.0102 28.5982 64.88 28.7697 64.0616C28.7897 64.0114 28.7199 63.9486 28.628 63.912C28.4056 63.8233 28.6893 63.7986 28.7754 63.484C28.803 63.3563 28.878 63.3164 29.0108 63.3693C29.2355 63.4589 29.5 63.1814 29.5436 62.805C29.5716 62.5263 30.0474 61.9276 30.1902 61.9846C30.3438 62.0458 30.5193 61.4554 30.3844 61.3202C30.0586 61.031 30.8129 60.4879 30.8045 60.8613C30.7999 61.187 30.5272 61.191 30.9596 61.3634C31.185 61.4533 31.2008 61.0345 31.4046 61.0191C31.6594 60.939 31.1498 60.7672 31.5423 60.436C31.7347 60.281 31.7828 60.1605 31.7995 59.82C31.8161 59.3631 32.1584 58.8615 32.4769 58.8033C32.6997 58.774 32.7617 58.3719 32.889 58.4227C33.0118 58.4716 33.2891 58.014 33.2145 57.9028C33.0707 57.7291 33.2284 57.63 33.4739 57.7279C34.0182 57.9449 33.7243 57.349 33.4929 57.3525C33.2952 57.3435 33.4315 56.5862 33.6582 56.4914C33.8964 56.3921 33.8647 56.0833 34.215 55.8668C34.358 55.7849 34.3986 55.8321 34.3366 56.0084C34.203 56.3435 34.3491 56.6326 34.4454 56.1216C34.4863 55.9294 34.479 55.7412 34.4352 55.7005C34.2895 55.561 34.4912 55.3515 34.6857 55.429C35.0594 55.578 34.9722 54.89 35.3064 54.9114C35.4392 54.9062 35.4792 54.864 35.4331 54.7418C35.2993 54.3636 35.9686 53.3088 36.221 53.4793C36.3479 53.5764 36.5744 53.3651 36.5931 53.1408C36.6079 52.9266 37.064 52.4355 37.1868 52.4845C37.3188 52.5371 37.2004 52.3449 37.3913 52.3575C37.5418 52.3862 37.368 52.7885 37.4954 52.8393C37.6228 52.8901 37.5479 53.2799 37.6382 52.838C37.7524 52.3968 37.5774 52.0389 37.6658 51.8173C37.7849 51.5185 37.3699 51.7244 37.8082 51.1323C38.1285 50.715 38.2504 50.7055 38.3453 51.0914C38.4084 51.3483 38.4192 51.3526 38.5799 51.0686C38.848 50.6386 38.5133 50.6859 38.7971 50.4948C38.9009 50.4431 39.0553 50.204 39.1342 49.9455C39.2776 49.5276 39.4861 49.3906 39.4826 49.7247C39.5003 49.9116 39.4883 49.5892 40.0004 49.5258C40.7719 49.4155 40.2913 49.0924 40.222 49.2661C40.206 49.3063 40.0981 49.3098 39.9854 49.2648C39.8117 49.1956 39.8048 49.123 39.9254 48.8812C40.1485 48.4788 40.1645 48.8449 40.5939 48.4524C40.7615 48.2991 41.023 48.1483 41.1918 48.1109C41.3465 48.0796 41.4152 48.0264 41.3534 48.0018C41.1998 47.9405 41.4699 47.5614 41.7234 47.4889C41.8293 47.4613 41.9099 47.3781 41.893 47.3015C41.8854 47.0873 42.2616 47.4162 42.3542 47.1838C42.3862 47.1035 42.3831 47.0217 42.3321 47.0014C42.2503 46.9688 42.6341 46.125 42.8217 45.9215C43.0343 45.6913 42.9829 45.414 43.2694 45.1264C43.7355 44.7181 43.8853 43.9698 43.9449 44.5027C44.0217 44.9924 44.2328 44.5011 44.26 44.1881C44.324 43.6552 45.0952 43.2942 45.1078 43.0425C45.1004 42.8256 45.2792 43.0616 45.4114 42.8154C45.5157 42.5536 45.4384 42.8127 45.5732 43.1815C45.733 43.5235 45.9736 43.3062 46.2259 42.5836C46.6003 41.5928 46.4834 42.169 47.076 41.9955C47.3263 41.9333 47.3303 41.9233 47.064 41.817C46.7976 41.7108 46.7963 41.6871 47.0227 41.2673C47.2431 40.8335 47.4716 40.5881 47.3398 40.9186C47.2998 41.0189 47.3439 41.1171 47.4258 41.1497C47.5485 41.1986 47.6086 41.1063 47.7371 40.6358C47.8876 40.0811 47.9134 40.0457 48.3316 39.8876C48.9219 39.6416 48.951 39.8491 49.0403 39.6252C49.104 39.4654 49.11 39.4794 49.1691 39.6882C49.3826 40.4677 50.1923 39.153 49.5054 39.4393C49.2853 39.5314 48.9132 39.1405 49.5293 39.1124C50.4225 39.0873 49.7254 38.2054 49.7931 38.0355C49.8171 37.9753 49.7401 37.8408 49.6273 37.7376C49.2887 37.4469 49.7503 36.8748 49.8555 36.8085C50.1516 36.5955 49.7386 36.3879 49.5502 36.8604C49.3191 37.4402 48.2717 37.394 48.4134 36.8008C48.4912 36.4373 48.1747 36.448 48.3095 36.1098C48.513 35.5994 47.357 35.5564 47.1398 36.072C46.9723 36.492 46.5599 36.1889 46.6435 35.7122C46.7171 35.2896 46.849 35.2259 46.9438 35.5536C47.05 35.9763 47.1376 35.485 47.0665 35.394C46.9818 35.2788 47.3872 34.2933 47.4992 34.338C47.622 34.3869 47.7926 33.8983 47.6986 33.7795C47.6496 33.725 47.6644 33.569 47.7204 33.4284C47.8522 33.098 47.5928 33.1538 47.4958 33.397C47.2997 33.8889 46.1835 33.9548 46.1882 33.409C46.2001 32.9976 45.946 33.1254 46.0571 32.8467C46.1409 32.6367 45.941 32.395 45.7135 32.4314C45.6297 32.4329 45.6947 32.389 45.8451 32.3103C46.0333 32.2153 46.0558 32.1393 45.9127 32.0822C45.5869 31.9523 45.6762 32.2715 45.4257 32.0849C45.268 31.9755 45.26 31.9956 45.2871 32.2846C45.3535 32.7263 45.1848 32.7835 45.358 32.9393C45.5206 33.0972 45.457 33.5237 45.2725 33.4502C45.1906 33.4175 45.0896 33.4936 45.0299 33.6434C44.8806 34.0178 44.6575 33.6864 44.7634 33.4208C44.8976 33.0841 44.6416 33.1181 44.8668 32.6271C45.0026 32.3448 45.0042 32.2533 44.8377 32.1055C44.5688 31.8596 44.3728 32.0821 44.4505 32.5426C44.5176 32.998 44.4876 33.0442 44.2272 32.8938C44.0446 32.7861 44.0345 32.7239 44.1841 32.4364C44.3348 32.1099 44.3914 31.6313 44.0971 31.8218C43.8388 31.9962 44.0926 31.4719 44.2169 31.5215C44.2678 31.5418 44.3548 31.4718 44.3985 31.3621C44.4982 31.112 44.3016 31.0103 44.1919 31.2565C44.0904 31.446 44.1829 30.7178 44.3723 30.447C44.6619 30.0372 43.7817 29.1476 44.713 29.0876C44.8838 29.0743 45.0363 29.0196 45.0503 28.9554C45.1431 28.6327 45.1311 28.6046 44.9403 28.7263C44.6279 28.915 44.3674 28.6482 44.3752 28.1529C44.3662 27.8478 44.316 27.7356 44.1715 27.712C43.8931 27.6788 43.9971 27.4089 44.3122 27.4782C44.5148 27.5357 44.5977 27.4757 44.7533 27.144C44.9316 26.7864 44.9207 26.7239 44.6931 26.4936C44.2147 26.0461 44.823 25.3553 44.1459 25.6374C43.4911 25.9106 44.2488 25.0404 43.9871 24.9361C43.7964 24.86 44.5974 23.4658 44.5775 23.9894C44.5776 24.2561 44.8672 24.2436 45.0476 23.9683C45.1523 23.8248 45.2901 23.7169 45.3511 23.7413C45.5138 23.7775 45.0052 23.3027 45.0612 23.1621C45.1274 22.9961 44.7292 22.4239 45.0249 22.719C45.2486 22.8941 45.1986 22.7794 45.3902 22.5166C45.458 22.4049 45.4799 22.2624 45.4409 22.212C45.3233 22.0604 45.4576 21.8133 45.6213 21.8786C45.9 21.9897 46.1328 21.2959 46.376 21.5298C46.5489 21.682 46.4918 21.5312 46.6311 20.8315C46.7716 20.1225 46.4513 20.2659 46.7646 19.9917C47.0092 19.7644 47.3092 19.0724 47.1757 19.0192C46.9919 18.9459 47.1715 18.7625 47.3961 18.7939C47.7097 18.8312 47.6869 18.5268 47.8344 18.5856C47.8954 18.6099 47.9563 18.5179 47.9711 18.3618C47.9998 18.1415 48.0427 18.1237 48.2674 18.2133C48.523 18.3152 48.525 18.3393 48.3326 18.6447C48.2119 18.8283 48.0283 19.0218 47.9184 19.0594C47.6492 19.1713 47.5723 19.6874 47.3208 19.8761C47.0058 20.1702 47.2578 21.2326 47.4606 20.2683C47.5374 19.9276 47.5852 19.8661 47.6233 20.0084C47.6635 20.1747 47.6944 20.187 47.846 20.0739C48.0864 19.8637 48.3495 20.1529 48.5234 19.9502C48.5863 19.8823 48.5912 19.8386 48.5185 19.8436C48.4455 19.8494 48.4086 19.823 48.4326 19.7628C48.4908 19.6169 48.7068 19.6699 48.765 19.524C48.8256 19.3719 48.521 19.5412 48.6241 19.2826C48.7324 19.0108 48.5166 18.9283 48.6734 18.3868C48.7642 18.04 48.79 18.0047 48.851 18.1793C48.918 18.368 48.9489 18.3803 49.1655 18.2815C49.6635 18.0738 48.9007 18.158 49.2909 17.9377C49.5772 17.7852 50.0242 17.2565 49.9015 17.2076C49.8505 17.1873 49.8765 17.0929 49.9503 16.9953C50.1001 16.7991 50.2371 16.3097 49.9452 16.4134C49.7298 16.4779 49.5308 16.2947 49.6924 16.1856C49.7181 16.1668 49.7499 16.1585 49.7814 16.1625C49.813 16.1664 49.8418 16.1822 49.8621 16.2067C49.9485 16.3557 50.2653 15.7115 50.3641 15.8386C50.5077 16.0238 50.6757 15.23 51.1182 14.9572C51.4645 14.7507 51.4298 15.1789 51.2492 15.4613C51.1065 15.6711 51.1025 15.7393 51.2313 15.7441C51.3801 15.7569 51.4486 15.6455 51.758 14.9572C51.9759 14.4938 52.3438 15.1667 52.6851 14.5036C53 13.8552 53.1586 14.5931 53.3796 14.0387C53.6162 13.5398 52.8517 13.8166 53.6258 13.0935C53.9104 12.7927 54.3857 12.2717 54.493 12.3145C54.544 12.3348 54.6169 12.2708 54.6627 12.1852C54.8082 11.8495 54.7499 12.6487 54.5902 13.1997C54.5842 13.2439 54.644 13.3026 54.7359 13.3392C54.8687 13.3922 54.9176 13.3302 54.9684 13.0838C55.0282 12.6263 55.2065 12.8727 55.3604 12.4867C55.4121 12.357 55.5331 12.2307 55.631 12.2232C55.8407 12.2021 56.1237 11.7011 56.0806 11.4522C56.0557 11.3375 56.0774 11.3122 56.1227 11.3759C56.2235 11.5091 56.7207 11.2429 56.7126 11.0545C56.7193 10.8603 57.1287 10.6056 57.1866 10.7567C57.2215 10.8172 57.1549 10.8944 57.0538 10.9123C56.7208 10.9934 57.1468 10.9753 56.9363 11.5034C56.7306 12.0192 57.1751 11.8402 57.1699 11.6896C57.1727 11.4715 57.3869 11.5605 57.3127 11.7466C57.2687 11.857 57.4136 12.0883 57.5664 12.1493C57.6274 12.1736 57.7059 11.7995 57.6481 11.7067C57.58 11.5901 58.1694 9.5799 58.901 9.84117C59.1504 9.9406 59.1736 9.4022 59.3689 9.32079C59.4358 9.30096 59.5144 9.19359 59.5585 9.08318C59.6422 8.87318 60.1431 8.65591 60.3578 8.74149C60.5446 8.81598 60.7296 8.42619 60.8747 8.48407C60.9936 8.53147 60.8434 8.93512 60.7052 8.88001C60.5956 8.8363 60.5052 9.14835 60.8611 9.29026C61.3213 9.47373 60.9587 9.05893 61.4308 8.75232C61.7843 8.49416 61.693 8.11503 61.8289 8.16921C61.9501 8.21754 62.0721 7.91811 61.9386 7.86486C61.7139 7.77528 61.9405 7.62222 62.3167 7.59864C62.5851 7.57859 62.8349 7.45714 63.0751 7.24063C63.8341 6.48377 63.0341 7.83276 63.6326 7.89152C63.9213 7.92608 64.2375 7.77029 64.0088 7.80975C63.7991 7.83082 63.5855 7.59444 63.6612 7.40451C63.763 7.17842 64.3697 6.87537 64.353 7.06555C64.3598 7.13809 64.418 7.23017 64.489 7.25849C64.6936 7.34007 64.7118 7.59072 64.5081 7.62583C64.2318 7.66781 64.5187 8.28149 64.8695 7.70013C65.0422 7.44417 64.9382 7.17094 64.6815 7.16165C64.5387 7.16289 64.5607 7.07859 64.7751 6.68893C65.3715 5.56567 65.19 6.61808 65.0916 6.75695C64.7855 7.26665 65.2422 7.46124 65.2904 7.09121C65.3314 6.66284 65.8333 6.89427 65.8929 6.38114C65.9469 5.9651 66.1251 6.24551 66.1783 6.11194C66.3074 5.48513 66.6843 5.57454 66.4834 5.79333C66.2485 6.037 66.8708 5.89229 66.6883 6.35015C66.5516 6.69296 66.8311 6.67644 66.9188 6.18705C66.9876 5.86639 67.0134 5.83101 67.2079 5.90859C67.4534 6.00648 67.6162 5.74652 67.4124 5.57311C67.2515 5.39532 67.4834 4.92136 67.4543 5.23009C67.4255 5.45038 67.5611 5.52772 67.7099 5.39018C67.8009 5.31012 67.8217 5.31844 67.8327 5.43913C67.8419 5.59316 68.1124 5.74751 68.1641 5.6178C68.1801 5.57765 68.2109 5.38144 68.2317 5.18122C68.2722 4.71596 68.31 4.99591 68.6466 4.61645C68.7941 4.45514 68.922 4.40144 68.977 4.46991C69.107 4.64881 69.6538 4.55451 69.7375 4.3445C69.841 4.08507 69.9129 4.35804 70.2595 3.92624C70.5658 3.57321 70.6858 3.74811 70.4903 4.23839C70.4186 4.41829 70.4335 4.52894 70.5134 4.5375C70.6662 4.54026 70.7997 4.44317 71.1978 4.01039C71.4523 3.72888 71.4949 3.71186 71.6939 3.895C72.0503 4.21071 71.5807 3.99931 71.5533 4.33737C71.5596 5.11391 72.1331 3.38824 72.5979 3.08411C73.1546 2.70919 73.2518 2.42044 73.1618 2.79886C73.1329 2.96096 73.1739 3.03546 73.3087 3.0543C73.4715 3.06106 73.4495 3.08717 73.2486 3.14667C73.0332 3.21112 72.9991 3.26734 73.061 3.40835C73.167 3.64747 73.6839 3.33186 73.8614 2.91584C74.0406 2.46648 74.0891 2.79366 74.5009 2.38247C74.6625 2.21512 74.867 2.08817 74.9649 2.08065C75.0587 2.08317 75.1625 2.0315 75.1942 1.95198C75.2715 1.75818 76.1818 1.85178 76.2274 1.73751C76.2434 1.69736 76.4579 1.57441 76.6994 1.47381C77.1477 1.26957 77.2665 1.32855 77.2146 1.72575C77.1234 2.30683 77.3847 1.04102 77.7705 1.6691C77.9799 2.0461 77.5832 1.19623 77.8084 1.33612C78.0379 1.47417 78.3672 1.42024 78.4393 1.23957C78.4753 1.14923 78.7107 1.0346 78.9602 0.972112C79.5758 0.817536 79.4655 0.5937 79.7118 0.691899C80.0283 0.818113 80.2769 0.789278 80.3407 0.629453C80.4044 0.469629 81.0821 0.194899 81.2358 0.256159C81.3748 0.31157 81.9017 0.0581538 82.2438 0.194525C82.3766 0.247473 82.5133 0.232194 82.541 0.162705C82.6328 -0.0673805 83.6918 -0.0505054 84.6253 0.193715C85.7398 0.452858 85.5122 0.222511 86.0449 0.43492C86.7522 0.716899 86.207 0.706242 86.748 0.958616C87.1929 1.15121 87.2163 1.11044 86.6762 1.08032C84.7663 0.966698 85.5761 1.37729 84.596 1.24781C84.1716 1.1833 84.0212 1.20385 83.9612 1.3544C83.9211 1.45478 83.8244 1.52002 83.7526 1.49139C83.6198 1.43844 82.7846 1.92867 82.7128 2.10857C82.6888 2.16879 82.5344 2.19937 82.3587 2.16422C81.8753 2.10395 81.7435 2.26616 81.724 2.06152C81.6878 1.88513 81.4404 2.02988 81.333 2.29935C81.2333 2.54951 80.3991 2.88893 80.1904 2.7592C79.8863 2.58157 79.9188 3.20033 79.459 3.19776C79.0794 3.20034 79.163 3.55402 78.8543 3.52488C78.5332 3.50425 78.4066 3.90926 78.0257 3.82093C77.7026 3.74936 77.7635 3.97141 77.5805 3.89845C77.4068 3.82919 76.8999 4.0906 76.7981 4.31669C76.6943 4.5187 76.1016 4.75752 75.8869 4.67195C75.6198 4.56543 75.7572 5.07572 75.2334 5.21136C74.8036 5.31741 74.8412 5.37356 75.0467 5.05552C75.3561 4.57576 75.0357 4.7263 74.6554 5.23593C74.6073 5.29819 74.4489 5.39699 74.2781 5.4685C73.6824 5.71689 74.2379 5.83636 73.1774 6.32807C72.8035 6.50738 72.9262 6.67981 72.6437 6.56714C72.331 6.44246 72.6269 6.32869 72.3142 6.20401C72.0161 6.08519 72.0708 6.40139 71.7373 6.87871C71.41 7.28239 71.657 6.63816 71.2979 6.49502C71.1034 6.41744 70.8797 6.65308 70.9728 6.86382C71.0849 7.11698 70.9262 7.3669 70.6754 7.31347C70.24 7.20251 69.8489 8.19018 69.3522 8.10754C68.7739 8.01835 68.9105 8.88982 68.1995 8.41305C67.9114 8.24004 68.3477 7.99876 68.1334 7.80684C67.9691 7.65992 68.156 7.88028 67.8111 8.20002C67.3645 8.5705 66.9073 9.84502 66.4672 9.66955C66.2804 9.59506 66.0314 10.1141 65.9504 9.98516C65.8486 9.85423 65.4967 10.5193 65.071 10.5276C64.67 10.5458 64.7219 10.8287 64.5721 10.769C64.4007 10.7006 64.6775 10.4307 64.2796 10.6407C63.8643 10.834 63.9932 11.339 63.8579 11.1329C63.7299 10.9915 63.4016 11.2293 63.251 11.1693C63.0974 11.108 62.9226 11.3399 63.0037 11.5226C63.0535 11.6355 62.9809 11.6987 62.7371 11.776C62.2966 11.918 62.1071 12.0116 62.0613 11.8663C62.0504 11.8038 62.099 11.7426 62.1619 11.7328C62.3307 11.6954 62.5587 10.9756 62.425 10.8641C62.3243 10.7891 62.1876 10.9547 62.1148 11.2854C62.0848 11.3898 61.9953 11.3764 61.7594 11.2251C61.4829 11.0567 61.4139 11.0525 61.2115 11.2617C61.0399 11.425 60.9581 11.6009 60.9334 11.8694C60.8927 12.3283 60.3481 13.2476 60.0926 13.2961C60.0048 13.3076 59.8721 13.5213 59.7595 13.8353C59.5821 14.3095 59.56 14.3356 59.3145 14.2377C59.1408 14.1684 59.0489 14.19 59.0181 14.328C58.9252 14.6507 58.8366 14.7541 58.7579 14.6529C58.7089 14.5985 58.648 14.6323 58.6083 14.7319C58.3955 15.2117 57.5819 15.2256 57.7888 14.7068C57.9282 14.357 57.8844 14.1999 57.5999 14.0516C57.4073 13.9399 57.3672 13.9821 57.2238 14.3419C57.096 14.6623 57.0972 14.7782 57.2449 14.8837C57.4355 15.0295 57.4048 15.2839 57.2074 15.274C57.0067 15.2612 56.914 15.7137 56.7912 15.6647C56.6877 15.6235 56.5572 15.9195 56.6815 15.9691C56.9456 16.0743 56.4935 17.0735 56.4043 16.6352C56.3563 16.2797 56.2043 16.3354 56.1989 16.7037C56.1996 17.3035 55.8888 17.0955 55.7272 17.5008C55.6554 17.6807 55.3309 17.5746 55.2309 17.3495C55.1249 17.1104 54.8036 17.1442 54.7079 17.3843C54.6281 17.5843 54.6382 17.5883 54.8475 17.5098C55.1888 17.3676 55.2807 17.4624 55.0863 17.7437C54.8429 18.087 54.786 18.1108 54.5714 18.0252C54.2872 17.9119 54.2296 18.2406 54.1333 18.0242C54.0695 17.8296 53.2476 17.3346 53.5525 18.0243C53.7899 18.5601 53.3862 18.5066 53.6825 18.8878C53.8743 19.1495 53.8116 19.6927 53.597 19.6072C53.4951 19.5665 53.128 20.0698 53.0214 20.3978C52.9461 20.7123 52.6052 20.5799 52.7289 20.2695C52.8794 19.892 52.3785 19.6448 52.6085 19.2945C52.7252 19.1208 52.7191 19.1068 52.5567 19.2157C52.3442 19.3627 52.2546 19.8836 52.4403 19.9227C52.5053 19.937 52.5042 20.0296 52.4505 20.1352C52.2838 20.4052 52.2288 20.395 52.0831 20.1051C51.8619 19.6679 51.4724 20.0164 51.7655 19.5955C52.0959 19.1572 52.5222 19.1787 52.2373 19.0651C52.0227 18.9795 51.7324 19.142 51.7325 19.3506C51.7326 19.5591 51.3043 19.7713 51.1927 19.6338C51.1155 19.5019 51.0006 19.7004 51.1519 19.826C51.2378 19.9068 51.2298 19.9268 51.1279 19.8862C50.9355 19.8435 50.9393 20.1707 50.7485 20.0947C50.5362 20.01 50.8817 20.1961 50.7078 20.5536C50.3524 21.3801 50.6825 22.0334 50.7729 21.461C50.8037 21.2066 50.8317 21.1945 51.0264 21.3303C51.3278 21.5551 51.325 21.6811 50.9939 22.094C50.5401 22.6666 50.0715 24.0797 50.1236 24.692C50.1988 25.3698 49.9397 25.3372 50.1011 25.4015C50.3065 25.4834 49.7835 25.9738 49.8609 26.3608C49.8971 26.5372 49.8691 26.6074 49.7271 26.6672C49.4857 26.7678 49.422 26.9858 49.6166 27.0634C49.8652 27.1625 49.4947 27.2635 49.6357 27.581C49.9443 28.2794 49.2166 27.6716 49.001 27.9543C48.8163 28.1706 48.3069 28.5125 48.5709 28.6178C48.7145 28.675 48.7428 28.2988 49.002 28.2796C49.1199 28.28 49.1516 28.3509 49.0999 28.4806C49.0122 28.7006 49.2537 28.8667 49.4053 28.6954C49.509 28.5631 49.3807 29.0892 49.0084 29.2441C48.773 29.3587 48.731 29.435 48.6834 29.8214C48.6267 30.3205 48.6496 30.3529 48.98 30.2063C49.447 30.0113 48.9173 30.5545 49.2975 30.5996C49.63 30.6275 49.7317 30.8774 49.5245 31.1885C49.3172 31.4996 49.2693 31.8285 49.4478 31.7959C49.5108 31.7861 49.5197 31.8828 49.468 32.0125C49.3922 32.2024 49.4083 32.2204 49.5379 32.1334C49.8144 31.9537 49.9252 32.6207 49.7897 32.7788C49.7051 32.8721 49.7139 32.9105 49.8046 32.8894C50.0084 32.8543 50.3119 33.3118 50.3209 33.6751C50.3508 34.0467 50.2174 34.4105 50.1058 34.273C50.0211 34.1578 49.6418 34.5166 49.4511 34.905C49.2728 35.2625 49.096 35.32 49.2277 34.9895C49.3718 34.6282 49.179 34.5057 48.9922 35.046C48.7045 35.8261 49.5835 35.5045 49.3569 35.7945C49.2322 35.93 49.3591 36.2356 49.5737 36.3212C49.7783 36.4028 49.8921 36.1466 49.7192 35.9855C49.519 35.8189 49.9027 35.2515 49.8466 34.9231C49.8116 34.6541 50.0617 34.3252 50.104 34.5738C50.153 34.7786 50.5609 34.6173 50.6646 34.3571C50.7344 34.2113 50.7733 34.2617 50.9034 34.591C51.1131 35.1578 51.5058 35.3851 51.4538 35.5872C51.1581 36.6701 51.5274 36.4102 51.5023 36.2669C51.4499 36.1019 51.6664 36.3019 51.7597 36.0679C51.8334 35.9121 51.8435 35.9161 51.9093 36.1392C51.9613 36.3067 52.0587 36.3495 52.2018 36.2675C52.7148 35.9414 51.9234 36.9905 52.8378 36.7528C53.0073 36.7047 53.0479 36.6126 52.9596 36.4766C52.8897 36.3556 52.8817 36.2254 52.9466 36.1815C53.0155 36.1275 53.0144 36.0698 52.9534 36.0455C52.8924 36.0211 52.9116 35.9125 53.0162 35.7689C53.3585 35.2987 52.7674 35.4863 53.2854 35.0647C53.6786 34.7203 53.5188 34.7193 53.9818 34.5074C54.1844 34.4146 54.3651 34.2889 54.3888 34.2295C54.4445 34.0897 54.944 34.381 54.9827 34.5826C55.0328 34.7779 55.2105 34.4443 54.9677 34.2634C54.7462 34.1053 54.9384 33.475 55.1739 33.5689C55.2658 33.6055 55.3247 33.5476 55.3415 33.4156C55.3643 33.1339 55.7888 33.0186 55.4932 33.5692C55.4451 33.6314 55.4235 33.7731 55.4244 33.8898C55.4365 34.0682 55.627 33.797 56.2734 32.6516C56.6228 32.0625 56.7029 32.4721 56.9009 32.1483C56.9727 32.0266 57.0744 31.9509 57.1463 31.9795C57.3408 32.0571 57.4964 31.9339 57.3848 31.7963C57.1973 31.5551 57.9532 31.529 58.1142 31.1252C58.2044 30.8989 58.4997 30.5666 58.5721 30.8675C58.6023 31.0298 58.6263 31.0278 58.6821 30.8881C58.7221 30.7877 58.7947 30.7245 58.8557 30.7488C59.0441 30.8239 59.5293 29.8335 59.5241 30.2618C59.5174 30.456 59.5422 30.4543 59.7479 30.2347C59.8766 30.0892 59.9564 30.0396 59.9283 30.1098C59.7981 30.5465 61.206 29.3539 61.0758 29.0139C61.0148 28.8392 61.0966 28.8137 61.2892 28.9254C61.4509 29.0292 61.2757 28.5146 61.773 28.3648C61.9499 28.3074 62.1195 28.1781 62.174 28.0728C62.2618 27.8528 62.6098 27.5745 62.5261 27.7846C62.4682 27.9297 62.6482 28.0731 62.7747 27.7557C62.977 27.2484 63.7498 27.1101 63.4664 27.4168C63.3638 27.5262 63.5433 27.8188 63.6852 27.759C63.7702 27.7231 63.707 27.1995 63.5999 27.053C63.485 26.8899 63.7698 26.8129 63.7526 26.9975C63.7422 27.762 65.2005 26.1556 65.5071 26.132C65.7311 26.156 66.0517 25.2709 66.2764 25.3604C66.4795 25.4414 66.6551 25.0479 66.8042 25.1073C66.8551 25.1277 66.9241 25.0737 66.9598 24.9841C67.0475 24.7641 67.4986 24.5842 67.4916 24.7792C67.4756 25.0279 67.6645 24.9985 67.772 24.729C67.9114 24.3793 68.4134 24.0112 68.6281 24.0968C68.8226 24.1743 69.4106 23.8871 69.4943 23.677C69.5263 23.5967 69.5909 23.5536 69.6519 23.5779C69.8056 23.6392 70.2948 23.4513 70.3465 23.3215C70.4303 23.1115 71.4253 22.7548 71.4654 22.9211C71.5064 23.146 71.8518 23.1101 71.9476 22.87C71.9953 22.7503 72.0642 22.6964 72.1032 22.7468C72.1939 22.9029 72.9307 22.1031 73.0612 22.1552C73.1917 22.2072 73.6144 21.957 73.5501 22.1184C73.4898 22.2697 74.3838 21.7555 74.5761 21.8321C74.766 21.9078 75.1234 21.5233 75.5543 21.6656C76.0138 21.8192 76.1701 21.4878 76.0802 21.7133C75.9885 21.9434 76.2163 21.9062 76.4484 21.6516C76.5631 21.5121 76.7218 21.4125 76.7728 21.4328C76.9442 21.5012 77.7118 21.0618 79.234 21.232C80.0664 21.3259 80.0097 21.0393 80.4218 21.3119C80.6104 21.4336 80.7901 21.4587 81.0296 21.3923C81.4138 21.2904 81.945 21.444 81.9363 21.6723C81.9311 21.775 82.0001 21.7792 82.2018 21.72C82.4112 21.6415 82.6518 21.691 83.163 21.8947C84.0208 22.2368 83.9137 22.0902 83.6851 22.4278C83.5845 22.5612 83.5665 22.6355 83.6314 22.5916C84.1155 22.2978 85.2403 22.5378 85.5743 23.0065C85.8714 23.4104 86.2241 23.3022 86.4761 23.9226C86.7099 24.5009 87.032 24.4091 87.0665 24.6099C87.1185 24.8812 87.4587 24.4745 87.5327 24.8074C87.6022 25.1716 87.4208 24.9892 87.6458 25.444C87.9398 25.9791 87.2937 25.5998 87.5361 25.9568C87.7111 26.2002 87.8258 26.211 88.1988 26.0475C88.5193 25.8969 88.8286 25.8932 88.6309 26.0345C88.4107 26.2277 88.5697 26.9354 88.1461 27.2211C87.8506 27.4281 87.8937 27.7352 88.2323 27.7771C88.6262 27.8259 87.999 29.0917 88.6678 28.3794C88.8554 28.1759 88.8794 28.1156 88.7674 28.071C88.5435 27.9817 88.7542 27.0224 89.3611 27.2643C89.6475 27.3785 89.6646 27.7218 89.3882 27.7619C89.1295 27.7867 88.994 28.0683 89.2295 28.07C89.5623 28.0792 89.8859 27.4002 89.7305 27.8528C89.5809 28.347 89.875 28.4777 89.5504 28.7196C89.3519 28.8606 89.0787 29.575 89.1218 29.8239C89.1326 29.8864 89.0079 29.8715 88.8281 29.7882C88.5357 29.66 88.4827 29.6738 88.2614 29.9909C88.1007 30.2168 87.9603 30.2995 87.8384 30.2509C87.5565 30.1385 86.5661 31.8214 87.1731 31.3538C87.6132 30.9682 87.6352 32.0105 87.2493 32.1144C87.1113 32.1641 87.0845 32.1417 87.1365 32.0112C87.2996 31.602 86.3559 31.8504 86.4878 31.9146C86.5287 31.9309 86.467 32.0566 86.352 32.1969C86.1764 32.4284 86.1813 32.4769 86.3662 32.6079C86.6507 32.8144 86.9363 32.8119 86.9362 32.6034C86.939 32.3987 87.2026 32.4403 87.0659 32.7831C86.8944 33.2131 86.6225 32.7056 86.3855 33.3001C86.3575 33.3704 86.4024 33.3767 86.4994 33.3107C86.633 33.2136 86.653 33.2216 86.5973 33.3613C86.4994 33.6069 86.0594 33.3974 86.0776 33.5944C86.127 33.751 85.7679 33.8056 85.9239 33.6834C86.0954 33.5496 85.8033 33.5709 85.8888 33.3563C85.9606 33.1764 85.764 33.0747 85.6822 33.2506C85.6582 33.3108 85.5078 33.5981 85.372 33.8804C85.0365 34.5806 85.3686 34.3649 85.2685 34.6158C85.2325 34.7062 85.1169 34.729 84.9941 34.68C84.7996 34.6025 84.7955 34.5543 84.9642 34.3084C85.2598 33.8679 84.9328 33.6355 85.1385 33.2182C85.2183 33.0764 85.2102 32.9801 85.1203 32.9675C84.9447 32.9324 85.1141 32.5364 85.4224 32.2996C85.7119 32.0786 85.97 31.5211 85.8523 31.3695C85.7833 31.2936 85.8193 30.7183 86.2255 30.8802C86.3683 30.9372 86.501 30.932 86.5247 30.8725C86.5903 30.708 86.098 30.7534 86.1632 30.5897C86.1935 30.4621 85.7429 30.7237 85.7215 31.1321C85.7154 31.5806 85.513 31.3273 85.2975 31.8677C85.2258 32.0476 85.1249 32.1819 85.0739 32.1616C84.9311 32.1046 84.6209 32.5841 84.722 32.7165C84.8457 32.8822 84.6743 33.5789 84.4998 33.6015C84.408 33.6231 84.4039 33.5749 84.4808 33.5009C84.8701 33.0969 83.5008 33.6068 83.4939 33.8958C83.49 34.1143 83.7167 34.228 83.8562 34.0868C83.9372 34.0027 83.9741 34.0291 84.0119 34.1721C84.1686 34.7285 83.5276 34.8032 83.3435 34.659C83.0935 34.4511 83.2053 34.7364 82.8414 34.8186C82.6927 34.864 82.6569 34.8953 82.7448 34.942C82.9285 35.0153 82.716 35.1623 82.5222 35.085C82.3246 35.0062 82.5075 34.9378 82.3342 34.5466C82.1125 34.0456 82.2587 34.5451 81.8951 34.6963C81.7672 34.75 81.7656 34.7834 81.8883 34.8323C82.0721 34.9056 82.0903 35.3066 81.9236 35.4262C81.6631 35.6015 81.5631 34.9926 81.3565 35.5715C81.2988 35.7453 81.1801 35.8949 81.1111 35.8906C80.9174 35.8716 80.8697 36.0494 81.0543 36.123C81.2488 36.2006 81.0734 36.6989 80.8508 36.6915C80.771 36.683 80.6523 36.7743 80.6003 36.9048C80.4524 37.1993 80.2827 37.0189 80.1941 37.2413C80.1581 37.3316 80.0256 37.3361 79.8318 37.2588C79.5353 37.1406 79.3709 37.2254 79.5275 37.4274C79.5664 37.4779 79.5617 37.6379 79.5097 37.7684C79.4299 37.9684 79.3569 37.9742 78.9827 37.8715C78.4345 37.7111 78.4953 37.8392 78.7201 37.4303C78.9005 37.0969 78.8446 36.9699 78.6241 37.1952C78.5432 37.2793 78.4256 37.278 78.3145 37.1997C78.0432 36.9869 77.9852 37.4398 77.9229 36.9049C77.8496 36.3549 77.7971 36.9129 77.6272 36.8452C77.4435 36.7719 77.1333 37.1932 77.0997 37.5735C77.073 37.8179 77.0133 37.9677 76.9283 38.0036C76.676 38.1088 76.7103 38.5144 76.5052 38.3217C76.3286 38.1699 75.8314 38.3779 75.7276 38.6381C75.6347 38.8713 75.3068 39.1101 75.1908 39.2124C75.1139 39.2864 74.8951 38.9442 74.9391 38.8338C75.0589 38.5334 74.5475 38.5389 74.2913 38.8538C74.2027 38.9571 74.0809 39.0249 74.0299 39.0046C73.8847 38.9467 73.8108 39.6125 73.3305 39.421C73.3105 39.413 73.3693 39.2047 73.4691 38.9546C73.6646 38.4643 73.6497 38.4118 73.2984 38.55C72.9264 38.7266 72.768 39.6603 72.609 39.5968C72.4816 39.5461 72.436 39.876 72.2947 39.8196C72.2337 39.7953 72.2288 39.6886 72.2725 39.579C72.3722 39.3288 72.1756 39.2272 72.0658 39.4734C71.9431 39.7027 72.028 39.7052 71.6638 39.9162C71.1992 40.1972 71.3836 39.8581 70.9958 39.5111C70.8192 39.3593 70.3559 39.4529 70.4688 39.6142C70.6518 39.8375 70.4421 40.0089 70.1348 39.8864C69.6059 39.6755 69.9279 40.1001 69.4273 40.0562C69.0596 40.0492 68.9596 40.3449 68.7627 40.2664C68.5141 40.1673 66.7429 41.0074 66.3542 40.6627C66.2374 40.5696 65.9121 40.6717 65.8481 40.8323C65.8281 40.8825 65.5817 40.8764 65.2901 40.8067C64.6558 40.6334 64.5185 40.8006 64.3558 40.6543C64.3395 40.6374 64.3198 40.624 64.2981 40.615C64.2763 40.606 64.253 40.6016 64.2294 40.6021C64.2059 40.6025 64.1827 40.6078 64.1614 40.6176C64.14 40.6274 64.1208 40.6415 64.1051 40.659C63.9436 40.8264 63.6431 40.7182 63.7188 40.5283C63.8653 40.1607 63.3497 40.1118 63.5371 40.5373C63.7999 41.2407 63.0549 40.8085 63.051 40.5985C63.0631 40.3572 62.4467 40.1929 62.6337 40.339C62.8383 40.4788 62.7474 40.7674 62.5328 40.6818C62.451 40.6491 62.3631 40.6607 62.3431 40.7109C62.2874 40.8506 61.914 40.8064 61.8939 40.6481C61.8517 40.4577 61.0503 40.4164 60.798 40.6049C60.541 40.778 60.4557 40.5722 59.8935 40.6156C59.5862 40.6434 59.5453 40.6271 59.546 40.4771C59.5479 40.2344 59.2334 40.1323 59.1906 40.3586C59.1486 40.5942 59.0566 40.4636 58.6095 40.5099C58.331 40.526 58.273 40.4921 58.1862 40.2946C58.0613 40.013 57.9124 39.9421 57.8327 40.142C57.7649 40.3119 57.3915 40.2095 57.3525 40.0087C57.3135 39.808 57.1655 39.7955 57.01 39.9769C56.8023 40.2305 56.3024 40.0885 56.1912 39.7435C56.0701 39.3739 56.1402 39.3911 55.9456 39.6456C55.7521 39.8932 55.1142 39.8591 54.615 39.567C53.9081 39.1473 54.2649 39.7898 53.7076 39.4369C52.7748 38.8297 52.4084 39.7824 52.2496 39.5276C52.1817 39.4308 51.8434 39.7138 51.7436 39.9639C51.5943 40.3384 51.432 39.9175 51.4114 40.4695C51.4176 40.7502 51.3916 40.7864 51.1878 40.7633C50.7093 40.7157 51.1277 41.2306 50.5644 41.4651C50.3799 41.5418 50.286 41.5393 50.2768 41.4435C50.2976 41.2298 50.1704 41.7822 49.8517 41.7375C49.6271 41.7061 49.4736 41.8534 49.6581 41.927C49.7809 41.9759 49.6234 42.3999 49.4486 42.4815C48.9747 42.8017 48.6939 43.7483 48.5148 43.1293C48.4597 42.9105 48.4457 42.9165 48.3479 43.1325C48.1795 43.5549 47.7482 43.3238 47.862 43.669C47.962 43.9523 47.6698 44.2993 47.4588 44.1462C47.2477 43.9932 47.2561 43.9723 47.3001 44.4543C47.3542 45.0325 47.1105 44.9031 46.9961 45.3067C46.9269 45.561 46.7815 45.2793 46.598 45.7395C46.4466 46.1193 46.2072 46.244 46.2087 45.944C46.2034 45.7799 46.1725 45.7676 46.057 45.8486C45.9452 45.9203 45.9043 45.904 45.8994 45.7974C45.8993 45.5888 45.7284 45.544 45.6566 45.7239C45.5301 46.0412 46.018 46.0406 45.6598 46.3399C45.2707 46.6626 45.8951 46.5285 45.4663 46.8542C45.139 47.121 45.2579 47.1997 44.9736 47.3181C44.6448 47.4403 44.8017 46.9749 44.9144 46.8426C44.9873 46.7787 45.0062 46.6707 44.9612 46.6063C44.7619 46.3497 44.6723 47.479 44.2428 47.3981C44.0322 47.3607 43.9404 47.4744 44.0632 47.6397C44.1769 47.8014 44.0466 48.0384 43.8728 47.9692C43.5038 47.822 43.2172 49.6809 43.8849 48.1476L43.8682 48.5463C43.8656 48.939 43.5402 49.4589 43.3456 49.3813C43.2337 49.3367 43.2267 49.5809 42.9755 49.6856C42.6 49.842 42.4454 50.9928 42.1257 50.8654C41.8972 50.7742 42.1275 50.6343 41.8989 50.5432C41.6974 50.4628 41.5777 50.7632 41.7792 50.8435C41.9769 50.9223 41.8817 51.1162 41.7713 51.0721C41.6477 51.0229 41.5153 51.7298 41.3155 51.6206C41.1778 51.5192 41.0601 51.7854 41.1676 51.933C41.2295 52.0158 41.2058 52.0753 41.0879 52.133C40.8229 52.268 41.0428 52.7333 40.7877 52.5C40.7017 52.4193 40.6179 52.4208 40.5899 52.491C40.5619 52.5613 40.523 52.5108 40.5012 52.3858C40.4751 52.2135 40.4181 52.1791 40.2087 52.1994C39.9989 52.2205 39.9323 52.2977 39.8018 52.7441C39.7169 53.0467 39.6464 53.1922 39.6274 53.0916C39.5648 52.8357 39.4216 53.2645 39.5497 53.3156C39.7134 53.3809 39.5211 53.7445 39.2147 53.9471C38.606 54.3765 39.426 54.562 38.6612 54.7698C38.128 54.9492 38.3556 55.1348 38.5466 54.9675C38.9956 54.6383 38.9136 55.5577 38.2873 55.4091C38.0504 55.3594 38.0264 55.4867 37.6421 56.6122L37.2846 56.4697C36.9163 56.3229 36.7527 56.4079 36.9843 56.6282C37.14 56.7718 36.9537 57.2997 36.6931 57.4168C36.5793 57.4645 36.4209 57.7718 36.2283 58.2865C35.6833 59.7318 35.7656 58.3248 35.2305 59.3034C34.7732 60.0643 34.5827 60.1762 34.8446 60.1813C35.156 60.1793 34.8119 60.4877 34.4966 60.4595C34.211 60.462 34.0916 60.7616 34.3371 60.8595C34.4089 60.8881 34.3833 61.0399 34.2595 61.2921C33.9823 61.8348 33.9132 61.5075 33.7996 61.7924C33.6115 62.2641 33.175 62.2592 32.9816 63.1011C32.8752 63.5454 32.8311 63.5977 32.5279 63.6736C32.1725 63.7637 31.9681 64.007 32.2256 64.0166C32.3295 64.0231 32.3444 64.1338 32.2795 64.3281C32.2078 64.5661 32.1397 64.6204 31.986 64.5591C31.7119 64.4498 31.8483 64.1302 31.6895 64.3827C31.4082 64.922 31.0935 65.0426 31.2398 65.1537C31.3197 65.2205 31.1242 65.7108 30.9148 65.9396C30.8707 65.9918 30.7951 66.24 30.7443 66.4864C30.5449 67.478 29.9792 66.3943 29.9903 67.6345C29.9998 67.7886 29.9736 67.8244 29.9117 67.7418C29.8049 67.5946 29.5624 67.9041 29.5168 68.2564C29.4293 68.8327 29.1473 68.1127 28.9491 68.6099C28.8933 68.7497 28.7864 68.8699 28.7234 68.8797C28.5197 68.9148 28.3014 69.5812 28.4651 69.6465C28.6651 69.7262 28.8456 69.4349 28.7327 69.7182C28.6398 70.023 28.3984 69.9035 28.3743 70.2018C28.3669 70.537 28.0597 70.4387 27.9066 70.9889C27.7778 71.4511 27.8152 71.1868 27.4027 71.5996C27.2552 71.7609 27.0647 71.8818 26.9716 71.8796C26.721 71.8843 26.7142 72.0785 26.9698 72.1804C27.4122 72.3568 26.8755 73.1486 26.7783 72.6025C26.7234 72.2844 26.7101 72.6567 26.4847 72.5668C26.3117 72.4979 26.0581 72.8737 26.4039 72.9176C26.9753 72.979 26.2621 74.283 26.068 74.3255C25.8993 74.3513 25.8605 74.7788 25.4975 75.0135C25.3539 75.1065 25.249 75.2508 25.2662 75.3266C25.2771 75.3891 25.2362 75.431 25.1853 75.4106C25.0208 75.3451 24.8859 75.9866 24.7214 75.921C24.6496 75.8924 24.5378 76.1144 24.3772 76.607C24.181 77.2473 24.1169 77.3497 23.8466 77.4621C23.5622 77.5805 23.5522 77.5765 23.5561 77.3579C23.5552 77.2412 23.526 77.1956 23.4983 77.265C23.3712 77.4739 23.1778 77.1239 23.0832 77.5049C22.8286 78.5542 23.2345 78.3375 23.0396 78.5658C22.8884 78.723 23.136 78.8897 23.4097 78.2033C23.682 77.4439 23.712 77.6491 23.6941 78.1431C23.6594 78.6161 22.9146 80.3361 22.7517 80.3293C22.6928 80.329 22.633 80.4788 22.6083 80.6891C22.5102 81.5117 21.2116 82.1295 21.1748 82.6213C21.1573 82.966 20.8489 82.9227 20.663 83.3103C20.4597 83.7393 20.1849 83.8248 20.3108 84.0164C20.444 84.1804 20.2696 84.2317 20.1704 84.7836C20.1048 85.1861 19.7576 85.581 19.4103 85.651C19.2843 85.6706 19.2683 85.7108 19.3365 85.8069C19.4212 85.9265 19.2238 86.4778 18.9164 86.2657C18.6187 86.054 18.7858 86.3846 18.6892 86.627C18.6691 86.6772 18.745 86.754 18.8678 86.8029C19.0415 86.8722 19.0524 86.9347 18.9097 87.2027C18.5776 87.8809 18.413 86.8731 18.0605 87.7571C17.7582 88.5153 17.3636 88.1853 17.5919 88.4857C17.7572 88.7064 17.9764 88.5674 17.8175 88.692C17.7526 88.7359 17.7618 88.8317 17.8316 88.8945C18.1193 89.147 17.2157 90.758 16.9492 90.5131C16.8793 90.4503 16.8023 90.4661 16.7703 90.5464C16.6829 90.7657 16.5473 90.5112 16.4063 90.8648C16.1831 91.4246 17.2245 91.0165 16.3808 91.9678C15.9064 92.482 15.9462 92.71 15.7694 92.6395C15.6265 92.5825 15.6306 92.5725 15.2567 93.4203C15.1149 93.7467 15.0003 93.9444 15.0043 93.8762C15.0122 93.6476 14.8393 93.6368 14.7756 93.8549C14.7319 93.9645 14.7448 94.0511 14.7978 94.0373C14.9094 94.029 15.0617 94.2955 14.6503 94.4071C14.1888 94.5524 14.4406 95.0072 14.5279 95.0419C14.5997 95.0706 14.5837 95.1107 14.4661 95.1677C14.3302 95.2414 14.083 95.8614 14.1492 95.9916C14.228 96.151 14.73 95.9914 15.0046 95.7179C15.29 95.4487 15.3707 95.4236 15.5794 95.5534C15.7881 95.6831 15.8169 95.6713 15.8537 95.431C15.9044 94.976 16.8561 93.9873 17.2913 93.9058C17.5189 93.8757 17.3677 93.777 17.9578 93.5111C18.592 93.202 18.3638 93.1056 18.9138 92.8954C19.5044 92.6486 19.2836 92.6053 19.8221 92.3994C20.4455 92.1397 20.1955 92.0329 20.7192 92.0502C21.0798 92.066 21.1123 92.045 21.0027 91.8733C20.8968 91.6923 20.9008 91.6823 21.0384 91.7255C21.2731 91.8191 21.6828 91.1708 21.8897 91.2533C22.1012 91.3377 22.1631 91.0501 22.78 90.8316C23.4167 90.5655 23.2684 90.4303 23.5055 90.4372C23.6033 90.4297 23.7031 90.388 23.7308 90.3185C23.7825 90.1888 24.577 89.8908 24.7298 89.9518C24.7808 89.9721 24.8166 90.091 24.8038 90.213C24.7758 90.4918 24.7959 90.4998 25.1472 90.3616C25.3666 90.2871 25.4375 90.199 25.4074 90.0367C25.3514 89.643 25.9151 89.1492 26.2626 89.2877C26.3585 89.3143 26.5779 89.2398 26.7626 89.1041C27.0769 88.8813 27.6261 88.8685 27.5384 89.0886C27.4706 89.2585 27.9156 89.332 28.0526 89.1657C28.1235 89.0776 28.2262 89.0264 28.288 89.051C28.4216 89.1043 28.1759 89.2739 28.0444 89.6035C27.9327 89.8838 27.6712 89.8261 27.618 89.515C27.5899 89.3185 27.5252 89.3617 27.4644 89.604C27.4484 89.6442 27.3148 89.6831 27.1579 89.6904C27.0682 89.7 26.9822 89.7319 26.908 89.7833C26.8337 89.8346 26.7735 89.9038 26.7329 89.9844C26.4202 90.5488 26.046 90.1383 26.0426 90.7642C26.0408 91.065 26.0007 91.1072 25.7464 91.1794C25.5876 91.2208 25.4969 91.3001 25.5359 91.3505C25.6595 91.5162 25.4115 92.0777 25.2098 92.0787C25.1159 92.0761 25.0152 92.1514 24.9792 92.2417C24.8854 92.4478 23.9415 92.883 23.7477 92.8057C23.6558 92.7691 23.5131 92.8285 23.4104 92.9379C23.146 93.2039 22.65 93.3301 22.5703 93.53C22.4767 93.7647 21.6956 93.9777 21.3229 94.4009C21.0995 94.6626 20.7527 94.3991 20.4487 94.8407C20.0918 95.3543 19.3318 94.969 19.1582 95.4044C19.1064 95.5341 19.0094 95.6002 18.9416 95.5615C18.779 95.4376 18.6862 96.0046 18.5295 95.9421C18.4168 95.8972 17.7151 96.4988 17.6314 96.7088C17.6034 96.7791 17.5079 96.8099 17.426 96.7773C17.3133 96.7324 17.2284 96.8265 17.1129 97.116C16.8503 97.7746 16.67 97.3358 16.7107 97.2339C16.7787 97.0633 16.591 96.9437 16.3695 97.6429C16.1122 98.4655 15.7258 98.2184 15.5934 98.5504C15.5001 98.7843 14.9759 99.0353 14.8071 99.2454C14.5401 99.5022 14.3315 99.0423 14.0597 99.7241C13.968 99.9542 13.4779 100.084 13.3161 99.926C13.2463 99.8633 13.1733 99.8691 13.1493 99.9293C13.0732 100.12 13.455 100.083 13.1474 100.23C12.8772 100.365 13.0398 100.709 12.8251 100.623C12.4661 100.48 11.8452 101.229 11.5985 101.294C11.2928 101.398 11.3311 101.706 11.1005 101.71C10.9826 101.71 10.9706 101.74 11.0288 101.89C11.1409 102.143 10.9573 102.545 10.7736 102.472C10.2732 102.272 10.3119 104.258 9.36992 103.883C9.04642 103.754 8.42961 104.419 8.81024 104.425C9.04764 104.431 8.94214 104.639 8.79544 104.581C8.63562 104.517 8.76682 104.794 8.46633 104.96C8.13119 105.196 8.42556 105.214 8.03938 105.496C7.62543 105.794 7.76796 106.258 7.59732 106.19C7.40893 106.115 7.30558 106.729 7.03439 106.592C6.81786 106.479 6.94239 106.722 6.74016 106.973C6.62345 107.088 6.6026 107.08 6.54756 106.861C6.39932 106.391 5.72311 106.949 6.08754 107.095C6.48981 107.255 6.00612 107.849 5.74129 107.606C5.6815 107.548 5.60449 107.563 5.57647 107.634C5.49459 107.839 5.80874 108.016 5.56862 107.92C5.36805 107.865 4.94881 107.976 5.2386 108.183C5.48623 108.363 5.37245 108.619 5.05907 108.575C4.92029 108.566 4.82848 108.587 4.84767 108.629C4.8892 108.776 4.3649 109.079 4.44366 109.256C4.47461 109.327 4.43693 109.45 4.37684 109.543C4.10912 109.898 3.7954 109.129 3.61716 109.576C3.57314 109.687 3.4925 109.77 3.43151 109.746C3.29485 109.691 3.43447 110.05 3.1024 110.125C2.73374 110.208 3.05468 110.523 2.66245 110.366C2.15982 110.166 2.70037 109.764 2.6993 110.184C2.70631 110.382 2.89604 109.996 2.76015 109.942C2.69915 109.917 2.68625 109.831 2.71795 109.751C2.78568 109.581 2.634 109.486 2.4824 109.599C2.27912 109.736 2.06871 109.299 1.96651 109.555C1.88031 109.772 1.36919 109.568 1.45539 109.352C1.52865 109.168 1.31358 109.121 1.24889 109.513C1.20207 109.749 1.15918 109.767 0.924462 109.673C0.556944 109.527 0.834366 109.437 0.296253 108.843C-0.0432642 108.476 -0.051333 108.438 0.07513 107.793C0.108872 107.6 0.473333 105.701 0.720159 105.58C0.809167 105.534 0.864887 105.395 0.865578 105.186C0.861037 104.713 1.16177 104.625 1.10099 104.387C1.05999 104.162 1.42884 103.15 1.53076 103.19C1.75544 103.28 2.19819 102.378 2.08932 102.056C2.02266 101.797 2.35316 101.413 2.40522 100.907C2.49684 100.291 3.07541 100.49 3.05461 100.111C3.06866 99.8313 3.40102 98.9034 3.55709 98.3751C3.62944 98.0567 3.81236 98.3453 4.16275 98.2228C4.51007 98.1081 4.2187 98.5673 4.08829 98.5869C3.93351 98.6182 3.85575 98.7841 3.96848 98.829C4.06036 98.8657 4.55905 98.2994 4.65079 98.0693C4.71051 97.9195 4.32818 97.7787 4.19342 97.9102C4.12849 97.9541 4.1485 97.9039 4.24514 97.7805C4.47166 97.4458 4.49437 97.1846 4.6789 97.2582C4.96535 97.3724 5.33122 96.6028 5.10164 96.4066C4.88273 96.2352 4.89805 96.9599 4.71681 96.9252C4.40628 96.813 4.34248 96.7643 4.44395 96.6893C4.6136 96.5601 4.79497 96.0177 4.71992 95.849C4.6328 95.6523 4.95203 94.8517 5.11654 94.8251C5.29293 94.7979 5.35932 94.4002 5.49058 94.4526C5.61489 94.5021 5.86626 93.4811 6.01895 93.0981C6.20007 92.7426 5.76484 92.5056 6.11439 92.3246C6.41226 92.1543 6.65355 91.5042 6.8475 91.1682C6.91726 91.0224 6.91636 90.9057 6.82448 90.869C6.61988 90.7875 6.88783 89.9673 7.19815 89.7545C7.42472 89.6015 7.44072 89.5613 7.34267 89.2439C7.2378 88.9122 7.26454 88.6678 7.38731 88.7168C7.54018 88.7777 7.54907 89.413 7.61523 88.9463C7.63206 88.8143 7.62308 88.6595 7.58413 88.6091C7.40513 88.3758 7.64408 88.25 8.04415 88.3755C8.38956 88.49 8.45653 88.4701 8.41236 88.3138C8.37454 88.1708 8.33731 88.1452 8.25668 88.2285C8.13196 88.364 7.75363 88.2132 7.82136 88.0433C7.90386 87.8364 8.28191 87.7455 8.14042 87.5101C8.05367 87.3709 8.12526 86.9242 8.23798 86.9692C8.39086 87.0301 8.37086 86.2633 8.4931 86.1206C8.60833 85.9213 8.36245 84.8166 8.69909 84.9508C8.82417 85.0007 8.98834 84.6742 8.77475 84.7027C8.55484 84.7403 8.87786 84.5631 9.00715 84.2388C9.07818 83.9888 9.12437 83.8864 9.22626 83.6309C9.7244 82.2939 9.27929 82.6068 9.45414 82.1683C9.54188 81.9482 9.57396 81.9261 9.66351 82.0898C9.74626 82.2391 9.77714 82.2514 9.82917 82.1209C9.93814 81.8476 9.36037 81.6808 9.68413 81.6229C9.81006 81.6033 9.82207 81.5732 9.74022 81.5405C9.65838 81.5079 9.67318 81.3518 9.77496 81.1257C10.0089 80.5389 9.92885 80.3021 10.0669 80.2453L10.0702 80.2439ZM1.35215 104.278C1.48573 104.331 1.65951 103.902 1.49161 103.928C1.34668 103.939 1.20314 104.218 1.35215 104.278ZM8.514 86.7302C8.55415 86.7462 8.83296 86.5093 8.69475 86.4542C8.55423 86.3982 8.46845 86.7121 8.514 86.7302ZM6.38665 92.7213C6.58508 92.8004 6.53278 92.5478 6.39457 92.4927C6.28494 92.449 6.15579 92.6292 6.38665 92.7213ZM3.61283 99.4988C4.04884 99.1975 3.63652 99.1432 3.51892 99.4381C3.4592 99.5879 3.47927 99.5959 3.61283 99.4988ZM5.48145 95.2587C5.76212 95.1809 5.67871 94.9884 5.47051 95.138C5.24394 95.2911 5.25201 95.3292 5.48145 95.2587ZM6.48696 94.2225C6.72034 94.0838 6.82499 93.9403 6.73234 93.9034C6.68447 93.8843 5.92748 94.5328 6.48696 94.2225ZM2.12819 105.48C2.25176 105.429 2.23515 105.064 2.12895 105.33C2.07489 105.437 2.08129 105.508 2.12819 105.48ZM3.9973 102.249C3.99821 102.366 3.9545 102.475 3.8775 102.491C3.72672 102.512 3.50362 103.281 3.63642 103.334C3.7615 103.384 3.66934 103.644 3.5117 103.469C3.36199 103.34 3.24737 103.537 3.34099 103.749C3.41604 103.918 3.25748 104.434 3.03504 104.694C2.81061 104.969 3.05531 105.009 3.22161 104.791C3.45203 104.49 3.53895 104.922 3.70149 104.241C3.93214 103.315 4.07216 104.173 4.2941 103.051C4.49819 102.124 4.62804 101.886 5.03227 101.734C5.44654 101.586 5.48428 101.52 5.23953 101.423C4.75465 101.229 6.33086 101.349 5.80783 100.444C5.5701 100.001 5.39328 100.058 5.49738 100.54C5.59081 100.997 5.35704 100.778 5.34579 100.653C5.30275 100.404 5.03436 100.424 4.85684 100.69C4.5796 101.082 4.5077 100.823 4.44182 100.988C4.42181 101.038 4.49965 101.081 4.60354 101.088C4.75635 101.09 4.76518 101.129 4.66143 101.239C4.47103 101.436 4.52063 101.484 4.35308 101.417C4.19944 101.356 3.98592 101.862 3.99808 102.249L3.9973 102.249ZM2.2702 106.314C2.27549 106.906 3.29329 106.091 3.17333 105.92C3.10146 105.833 3.11543 105.769 3.23698 105.702C3.49043 105.572 3.34255 105.141 3.04016 105.125C2.7453 105.084 2.66944 105.294 2.8477 105.28C2.99138 105.259 2.9894 105.43 2.72101 105.45C2.54335 105.449 2.26718 105.964 2.2702 106.314ZM1.50292 108.801C1.6612 108.865 2.84105 107.75 2.30202 108.135C2.09953 108.286 2.0393 108.112 2.20517 107.783C2.61309 106.937 2.63386 106.737 2.29456 106.845C1.98211 106.94 1.41259 108.765 1.50292 108.801ZM6.20303 97.4596C6.30643 97.593 6.38617 97.393 6.28276 97.2596C6.15727 97.121 6.11123 97.3577 6.20303 97.4596ZM5.24814 100.151C5.51264 99.961 5.49952 99.8278 5.32787 99.9509C5.07293 100.135 5.06353 100.284 5.24814 100.151ZM6.05305 99.023C6.14967 99.16 6.44483 98.5027 6.1925 98.6733C5.99401 98.8142 5.96199 98.8945 6.05305 99.023ZM10.0166 89.8563C10.0098 89.9923 10.0207 90.113 10.0616 90.1293C10.1334 90.158 10.6094 89.6757 10.6694 89.5251C10.7023 89.4425 10.1377 89.0429 10.0166 89.8563ZM8.75797 94.6761C9.00394 94.4789 9.13463 94.8603 9.22206 94.641C9.29471 94.4588 8.87283 94.2825 8.89659 94.4182C8.92767 94.6006 8.26341 94.5228 8.47954 94.6922C8.54938 94.7549 8.6753 94.7353 8.75828 94.6753L8.75797 94.6761ZM9.17489 93.4509C9.29847 93.399 9.28185 93.0345 9.17565 93.3008C9.12159 93.4072 9.128 93.4787 9.17489 93.4509ZM9.81467 93.4509C9.91808 93.5843 10.048 93.254 9.91441 93.2008C9.76308 93.1404 9.71963 93.3459 9.81467 93.4509ZM11.4657 95.8478C11.6303 95.8231 11.7276 95.5791 11.6251 95.4479C11.5234 95.3035 11.2925 95.8826 11.4657 95.8478ZM11.547 97.0981C11.6597 97.1431 11.8613 96.8754 11.8773 96.6849C11.8979 96.1329 11.381 97.032 11.547 97.0981ZM15.2007 88.4683C15.3644 88.5336 15.3564 88.5536 15.1916 88.581C15.0228 88.6184 15.0111 88.6477 15.1279 88.799C15.3177 89.0367 15.1403 89.5109 14.9305 89.3234C14.8009 89.2019 14.7916 89.2564 14.8577 89.6541C14.9305 90.0661 14.9049 90.1597 14.6872 90.4094C14.419 90.6962 14.343 91.0954 14.5607 91.0542C14.7155 91.0229 15.1002 90.0873 15.0055 89.968C14.9207 89.8528 15.2089 89.3995 15.3417 89.4525C15.5185 89.5229 15.359 88.9422 15.6755 88.229C15.8098 87.8924 15.5589 87.8863 15.5258 88.0995C15.4631 88.4476 15.1646 88.0539 15.0667 88.2994C15.0427 88.3597 15.1085 88.4325 15.2004 88.4691L15.2007 88.4683ZM12.2516 96.103C12.5766 96.2326 12.4554 95.7512 12.2515 95.8363C12.095 95.901 12.0987 96.0421 12.2516 96.103ZM15.7551 87.7623C15.8933 87.8174 15.9646 87.6141 15.8349 87.5623C15.7028 87.5097 15.6146 87.7063 15.7551 87.7623ZM19.6999 80.9881C19.689 80.9256 19.8016 80.762 19.9572 80.6388C20.3213 80.3204 20.3253 80.3104 19.9671 80.1676C19.6914 80.0577 19.6485 80.0755 19.5448 80.3357C19.3542 80.8136 19.7533 81.3029 19.6988 80.9885L19.6999 80.9881ZM18.7007 83.2563C18.9085 83.0313 19.2273 82.9589 18.928 82.9532C18.689 82.9376 18.5268 83.4366 18.7007 83.2563ZM15.0408 92.5548C15.1927 92.5643 15.2613 92.3922 15.1445 92.2946C15.0149 92.1865 14.8724 92.544 15.0408 92.5548ZM13.7886 95.9624C13.944 95.9384 14.0304 95.7689 13.8884 95.7122C13.7586 95.6605 13.617 95.9754 13.7886 95.9624ZM15.4618 92.2126C15.6933 92.406 16.041 91.9245 15.5855 91.9022C15.3589 91.9049 15.2992 92.0547 15.4618 92.2126ZM23.5773 73.4917C24.0133 73.1904 23.6009 73.1361 23.4833 73.431C23.4236 73.5808 23.4437 73.5888 23.5773 73.4917ZM24.1131 72.5922C24.2315 72.5929 24.2668 72.6532 24.219 72.7731C24.1633 72.9129 24.1902 72.9352 24.2768 72.866C24.4385 72.7568 24.5869 72.178 24.4962 72.0487C24.2473 71.7169 23.8144 72.5805 24.1142 72.5917L24.1131 72.5922ZM22.6646 76.3734C22.8066 76.43 22.8601 76.2464 22.7643 76.1232C22.6479 75.9954 22.5348 76.3217 22.6646 76.3734ZM19.175 85.3344C19.3069 85.1651 19.3041 84.8624 19.1757 85.1844C19.12 85.3241 19.1201 85.3823 19.175 85.3344ZM21.2641 80.7187C21.1084 80.6333 21.0763 80.6555 21.1322 80.7824C21.2221 80.9856 21.5663 80.8651 21.2641 80.7187ZM24.6654 73.3457C24.7007 73.8564 24.6033 73.8516 24.992 73.4177C25.1475 73.2364 25.2641 73.0627 25.2513 73.0343C25.2264 72.9779 24.6512 72.8765 24.6315 72.9259C24.6275 72.9359 24.6456 73.1284 24.6657 73.3449L24.6654 73.3457ZM25.6648 71.3442C25.8576 71.5249 25.8028 71.1326 25.7055 71.0938C25.5627 71.0369 25.5359 71.223 25.6648 71.3442ZM25.2101 72.6349C25.4116 72.7153 25.717 71.8572 25.3375 72.2571C25.1659 72.4204 25.1082 72.5943 25.2101 72.6349ZM44.5723 25.2884C44.8201 25.3872 45.0374 25.1947 44.8607 25.2182C44.5574 25.2583 45.0865 24.7507 44.5364 24.9609C44.303 25.0414 44.3167 25.1865 44.5723 25.2884ZM26.6642 70.0854C26.8634 70.1649 26.8242 69.9175 26.6211 69.8365C26.4351 69.7623 26.441 69.9965 26.6642 70.0854ZM45.1977 24.6107C45.3468 24.6701 44.9535 25.3804 45.1432 25.3424C45.2061 25.3326 45.2331 25.4132 45.1853 25.5328C45.1136 25.7127 45.1465 25.7491 45.3543 25.7622C46.1649 25.8276 46.1474 24.8077 46.1055 24.74C46.0452 24.6623 46.1164 24.313 46.2097 23.7963C45.7091 24.2348 45.6358 24.2055 45.6018 24.192C45.449 24.131 45.4311 24.472 45.2775 24.4108C45.1454 24.3581 45.0572 24.5547 45.1977 24.6107ZM25.7118 73.9598C25.8354 73.9079 25.8188 73.5434 25.7126 73.8098C25.6588 73.9154 25.6649 73.9876 25.7118 73.9598ZM25.6711 74.4187C25.8282 74.5386 25.8045 74.1471 25.681 74.0978C25.5482 74.0449 25.5383 74.3076 25.6711 74.4187ZM46.9762 21.4586C46.7445 21.7501 47.2142 21.7414 47.2896 21.6533C47.3705 21.5693 47.1215 20.8562 46.9988 20.8072C46.8706 20.7561 47.1872 21.1696 46.9762 21.4586ZM46.299 23.4847C46.4896 23.5724 46.5775 23.6772 46.5796 23.8516C46.5716 24.0802 47.0271 24.482 47.0948 24.3121C47.1469 24.1816 46.8065 24.1667 46.8203 23.9011C46.8169 23.5123 46.571 23.6129 46.9846 23.0736C47.7423 22.0441 46.6867 22.3642 46.5873 22.6136C46.5251 22.7695 46.4169 22.4463 46.307 22.7219C46.1841 23.03 46.5695 23.0217 46.251 23.071C45.9357 23.1189 45.9516 23.3462 46.299 23.4847ZM46.4633 22.4487C46.5035 22.4647 46.7823 22.2278 46.6441 22.1727C46.5035 22.1167 46.4178 22.4305 46.4633 22.4487ZM29.3337 66.5701C29.5202 67.1616 30.013 66.3049 29.6879 66.5144C29.3474 66.7804 29.5507 65.6713 29.3672 66.1315C29.3135 66.2371 29.3064 66.4321 29.3345 66.5704L29.3337 66.5701ZM31.1656 62.5703C31.4325 62.5989 31.6172 61.8439 31.3189 61.8896C31.154 61.917 31.0128 62.5676 31.1656 62.5703ZM47.6808 21.8908C47.8993 21.9779 48.5991 21.2126 48.0251 21.4133C47.8097 21.4777 47.548 21.8378 47.6808 21.8908ZM46.3636 25.0756C46.4401 25.106 46.641 24.9544 46.5151 24.9042C46.3669 24.8451 46.3142 25.0559 46.3636 25.0756ZM45.9384 26.5865C46.2945 26.5281 46.1459 25.9874 45.8934 26.3717C45.7587 26.5614 45.7696 26.6239 45.9384 26.5865ZM45.606 26.9757C45.6161 26.9797 46.1249 26.8345 45.8485 26.7243C45.6169 26.6319 45.5697 26.9612 45.606 26.9757ZM31.9676 61.3599C32.123 61.336 32.2094 61.1664 32.0674 61.1098C31.9376 61.058 31.796 61.3729 31.9676 61.3599ZM32.5051 60.427C32.7671 60.9369 32.8484 60.0306 32.6276 59.9426C32.4948 59.8896 32.412 60.2163 32.5051 60.427ZM46.7601 24.7343C46.8836 24.6825 46.867 24.3179 46.7608 24.5843C46.7071 24.6899 46.7132 24.7621 46.7601 24.7343ZM49.0267 19.7608C49.1649 19.8159 49.2361 19.6125 49.1064 19.5608C48.9744 19.5081 48.8862 19.7047 49.0267 19.7608ZM46.2239 27.1182C46.443 27.985 45.5809 27.9858 46.1408 28.6037C46.7069 29.2285 46.6729 28.3755 47.0023 29.0285C47.3837 29.7775 47.393 28.9642 47.2108 28.8916C46.8301 28.7398 47.8387 27.9025 47.8022 27.7359C47.77 27.5495 47.2073 27.5336 47.0425 27.7113C46.8809 27.8786 46.8709 27.8746 46.9457 27.6262C47.0894 27.1716 47.2436 27.0496 46.9904 26.9487C46.6769 26.8237 46.983 26.6012 46.618 26.7537C46.1527 26.9646 46.6192 26.3444 46.3006 26.569C46.1021 26.71 46.1101 26.6899 46.2239 27.1182ZM34.1908 56.9712C34.2361 57.2077 34.4671 57.1378 34.3303 56.83C34.2183 56.5769 34.1276 56.6561 34.1908 56.9712ZM32.4758 61.2726C32.6271 61.3329 32.6225 61.2345 32.5355 61.1228C32.417 60.9915 32.3492 61.2221 32.4758 61.2726ZM19.6221 94.4046C19.7549 94.4576 19.8905 94.1287 19.7218 94.1545C19.5799 94.165 19.4715 94.3446 19.6221 94.4046ZM45.6512 29.6836C45.4883 29.6768 45.41 30.2594 45.5597 30.3889C45.7772 30.5929 46.9107 29.9898 46.2731 29.9664C46.0793 29.9473 46.0524 29.8668 46.092 29.5005C46.1495 29.0599 46.0089 28.8177 45.8892 29.1181C45.8045 29.3304 45.5134 29.1338 45.7196 29.3055C45.924 29.4371 45.8361 29.6956 45.6512 29.6836ZM34.6108 56.9884C34.7344 56.9365 34.7177 56.572 34.6115 56.8383C34.5578 56.944 34.5639 57.0162 34.6108 56.9884ZM34.4005 57.6347C34.5348 57.6883 34.6943 57.2883 34.56 57.2348C34.4241 57.1806 34.2646 57.5805 34.4005 57.6347ZM32.4534 62.8753C32.7646 62.8374 33.0339 62.1913 32.7446 62.1449C32.6058 62.1361 32.5071 62.2354 32.3954 62.5157C32.2499 62.8514 32.258 62.8895 32.4534 62.8753ZM32.0687 63.6606C32.1111 63.6775 32.2718 63.3935 32.1274 63.3359C31.983 63.2783 32.0324 63.6461 32.0687 63.6606ZM48.9127 21.8602C49.0297 22.0268 49.2058 21.5717 49.4096 21.653C49.7424 21.7857 49.8027 20.4898 49.5121 21.2187C49.4363 21.4086 49.3534 21.5268 49.3393 21.4746C49.2753 21.3301 48.6584 21.5799 48.9131 21.8613L48.9127 21.8602ZM34.3949 58.4208C34.4888 58.6319 34.5229 58.6339 34.7804 58.4931C35.4652 58.138 34.8937 57.9933 34.7265 58.1817C34.6495 58.2557 34.538 58.2685 34.4718 58.1965C34.2952 58.0446 34.274 58.1292 34.3949 58.4208ZM51.2979 16.1447C51.4493 16.205 51.4447 16.1066 51.3577 15.9949C51.2388 15.8643 51.1713 16.0942 51.2979 16.1447ZM50.7823 17.319C50.6789 18.0339 51.2332 17.3529 51.0297 16.9657C50.9117 16.7567 50.8779 16.8121 50.7823 17.319ZM36.1547 53.9172C36.328 53.7653 36.7582 53.6424 36.4193 53.6397C36.1792 53.6246 36.0992 53.9398 36.1547 53.9172ZM50.0817 19.7295C50.1934 19.5861 50.0653 19.1959 50.0089 19.5842C49.9982 19.7302 50.0191 19.7967 50.0817 19.7295ZM49.7346 20.3329C49.8293 20.4521 50.0278 20.3111 49.998 20.148C49.958 19.9477 49.5679 20.0463 49.7346 20.3329ZM47.512 25.9388C47.6855 25.9122 47.8295 25.5151 47.6715 25.5389C47.5173 25.5508 47.3404 25.9518 47.512 25.9388ZM47.2328 26.6391C47.3996 26.6134 47.4794 26.4135 47.3125 26.4391C47.178 26.449 47.0438 26.6532 47.2328 26.6391ZM45.4978 30.9906C45.6314 31.0439 45.7512 30.7435 45.6176 30.6903C45.4817 30.6361 45.362 30.9365 45.4978 30.9906ZM51.8147 16.3051C52.0285 16.2695 52.2164 15.7959 51.7367 15.9957C51.5382 16.0785 51.6013 16.3355 51.8147 16.3051ZM48.1695 25.1808C48.5147 25.2889 48.4809 24.7565 48.6723 24.8712C49.1855 25.0991 49.3832 25.1082 49.4549 24.9283C49.5227 24.7584 49.4797 24.718 49.1323 24.6377C48.5018 24.5133 48.4246 24.7385 48.2439 24.6664C48.1497 24.6289 47.8519 25.0774 48.1695 25.1808ZM36.2768 55.0675C36.5883 55.2963 36.6023 55.2903 36.7598 55.0748C36.9835 54.781 36.9153 54.6849 36.5021 54.7403C36.0541 54.7934 36.0121 54.8697 36.2768 55.0675ZM49.314 22.3102C49.4468 22.3631 49.5824 22.0342 49.4138 22.06C49.2718 22.0705 49.1635 22.2501 49.314 22.3102ZM36.5231 54.2726C36.6466 54.2207 36.63 53.8562 36.5238 54.1226C36.4701 54.2282 36.4762 54.3004 36.5231 54.2726ZM33.6805 61.5212C33.821 61.5772 33.9165 61.2949 33.8199 61.1714C33.7048 61.045 33.5492 61.4688 33.6805 61.5212ZM49.3712 22.6112C49.6484 22.6027 49.3269 22.922 49.5879 22.9294C49.9843 22.9318 49.2091 24.2924 49.3957 24.2442C49.4486 24.2304 49.4735 24.2869 49.4455 24.3572C49.4198 24.4373 50.3402 23.7716 49.8624 23.7583C49.6606 23.7593 49.6917 23.5623 49.8951 23.528C50.074 23.4946 50.1573 23.2271 50.0037 23.1659C49.9319 23.1372 49.8431 22.9739 49.7929 22.8035C49.7109 22.5042 49.3137 22.3109 49.23 22.5209C49.21 22.5711 49.2778 22.6098 49.3716 22.6123L49.3712 22.6112ZM36.1142 55.536C36.1907 55.5664 36.3916 55.4148 36.2658 55.3646C36.1175 55.3055 36.0648 55.5163 36.1142 55.536ZM47.9488 27.2494C47.995 27.4298 48.6471 26.4495 48.7051 26.1245C48.8258 25.5794 48.6058 26.2568 48.2169 26.2198C47.8114 26.2022 48.1071 26.585 47.8229 26.6426C47.3823 26.7309 47.9189 27.0728 47.9488 27.2494ZM37.2742 53.1001C37.4124 53.1552 37.4837 52.9518 37.354 52.9001C37.2219 52.8475 37.1337 53.0441 37.2742 53.1001ZM36.8556 54.1501C36.9597 54.2838 37.1029 53.9248 36.9353 53.9502C36.7922 53.9611 36.7404 54.0237 36.8556 54.1501ZM51.4583 18.2381C51.2487 18.5259 51.3105 18.5506 51.8707 18.3328C52.2461 18.1925 52.2869 18.1506 52.0832 18.1275C51.8646 18.1102 51.8565 18.0721 51.9723 17.7818C52.3896 16.7867 51.9923 17.0784 51.8753 17.3718C51.7522 17.6806 51.6381 17.491 51.5362 17.7466C51.4177 18.0439 51.6991 17.9306 51.4583 18.2381ZM52.5172 15.7619C52.6726 15.738 52.7972 15.4682 52.6566 15.4122C52.5246 15.3595 52.3471 15.7756 52.5172 15.7619ZM46.3945 31.2667C46.3354 31.7693 46.5096 31.2876 46.7597 31.5403C47.1005 31.8345 46.3742 31.6586 46.4475 32.146C46.5053 32.5485 46.4179 32.0429 46.9684 32.0288C47.2577 32.0171 47.3547 31.9511 47.5471 31.5875C47.6937 31.3095 47.7526 31.1013 47.6975 31.0328C47.5722 30.8781 47.7675 31.0437 47.7403 30.7483C47.7222 30.5558 47.7962 30.3992 48.4973 29.2649C48.6379 29.031 48.6291 28.9926 48.3703 28.9011C48.1865 28.8278 48.1336 28.8416 48.2195 28.9224C48.3881 29.0943 48.2439 29.6041 48.0213 29.5968C47.7577 29.5892 47.4313 30.4864 47.2051 30.3962C46.9896 30.3103 47.2277 30.1734 46.9574 30.0657C46.6725 29.9521 46.406 31.0538 46.3949 31.2678L46.3945 31.2667ZM21.569 93.3841C21.7244 93.3601 21.8108 93.1905 21.6688 93.1339C21.5391 93.0822 21.3974 93.3971 21.569 93.3841ZM35.789 58.0147C35.9481 57.9905 36.0753 57.7119 35.8487 57.8649C35.6502 58.0059 35.6342 58.0461 35.789 58.0147ZM48.2905 27.4313C48.4141 27.3794 48.3975 27.0149 48.2913 27.2812C48.2372 27.3876 48.2436 27.4591 48.2905 27.4313ZM53.0038 16.7094C53.0756 16.7381 53.2602 16.6613 53.4261 16.5413C53.7015 16.3263 53.7095 16.3062 53.6135 16.0129C53.5026 15.6672 53.4417 15.701 53.1423 16.1848C52.881 16.6023 52.871 16.6565 53.0038 16.7094ZM46.5222 33.323C46.6471 33.6045 46.8265 33.3745 46.7099 33.328C46.5609 33.2686 46.7235 32.8699 46.8594 32.924C46.9798 32.9721 47.1398 32.8041 46.7754 32.6588C46.5407 32.5652 46.5078 32.587 46.4671 32.8374C46.4483 33.0035 46.4681 33.2208 46.5222 33.323ZM23.311 91.5399C23.3881 91.7326 23.4129 91.7309 23.4846 91.551C23.5323 91.4313 23.5074 91.3167 23.4147 91.2797C23.1761 91.1846 23.2169 91.327 23.311 91.5399ZM48.8347 27.7296C48.9444 27.7215 49.1667 27.1032 49.035 27.1375C48.9107 27.1372 48.7183 27.7387 48.8347 27.7296ZM39.2558 51.6065C39.3877 51.4372 39.3849 51.1345 39.2566 51.4565C39.2008 51.5962 39.2009 51.6544 39.2558 51.6065ZM53.7575 16.6618C54.0825 16.7914 53.9613 16.31 53.7573 16.3951C53.6009 16.4598 53.6046 16.6009 53.7575 16.6618ZM47.8024 32.2218C47.926 32.1699 47.9094 31.8054 47.8032 32.0717C47.7494 32.1774 47.7555 32.2496 47.8024 32.2218ZM52.9781 19.6557C53.0828 19.7905 53.1706 19.5589 53.0378 19.5059C52.8857 19.4453 52.8852 19.5542 52.9781 19.6557ZM48.6444 30.7025C48.768 30.6506 48.7514 30.2861 48.6452 30.5525C48.5914 30.6581 48.5975 30.7303 48.6444 30.7025ZM24.7042 90.8668C24.8493 90.9247 24.7992 90.5566 24.7629 90.5421C24.7204 90.5252 24.5598 90.8092 24.7042 90.8668ZM55.947 13.1295C55.9859 13.4314 56.1555 12.8109 56.2364 12.6999C56.2921 12.5602 55.7671 12.1916 55.947 13.1295ZM56.3159 12.1751C56.4206 12.3098 56.5084 12.0782 56.3756 12.0253C56.2235 11.9646 56.223 12.0736 56.3159 12.1751ZM48.5387 31.6813C48.6409 31.8134 48.8133 31.3855 48.6782 31.3316C48.5284 31.2719 48.4421 31.5757 48.5387 31.6813ZM48.2547 32.5417C47.9584 32.6902 47.9087 32.844 48.1033 32.9798C48.3947 33.2006 48.4797 33.1647 48.5954 32.8162C48.716 32.424 48.6548 32.133 48.4294 32.0431C48.3066 31.9942 48.2946 32.0243 48.3857 32.2109C48.4688 32.4177 48.4576 32.4481 48.2547 32.5417ZM41.4917 49.4144C41.6433 49.2431 41.703 49.0933 41.6912 48.9141C41.6711 48.6976 41.6342 48.7294 41.4668 49.1494C41.2933 49.6136 41.2853 49.6337 41.4917 49.4144ZM48.9398 30.9715C49.0726 31.0244 49.2083 30.6955 49.0396 30.7213C48.8976 30.7318 48.7893 30.9115 48.9398 30.9715ZM48.7382 33.5577C48.8764 33.6128 48.9477 33.4095 48.8179 33.3577C48.6859 33.3051 48.5977 33.5017 48.7382 33.5577ZM48.0841 35.407C48.2688 35.1907 48.2172 35.6927 48.5515 35.5119C48.8049 35.3811 48.7599 35.3167 48.3885 35.2384C48.2028 35.1992 48.0691 35.2381 48.0352 35.3525C47.9912 35.4627 48.0076 35.4808 48.0841 35.407ZM56.65 14.2796C56.7453 14.4017 56.9907 14.2418 56.7815 14.1584C56.5977 14.0851 56.5428 14.1331 56.65 14.2796ZM55.7552 16.8784C56.098 17.0151 55.665 16.319 55.6681 16.6817C55.6709 16.7643 55.7042 16.8581 55.7552 16.8784ZM49.0888 33.778C49.162 33.7472 49.3808 32.8976 49.1226 33.1884C48.9711 33.3597 48.9472 33.837 49.0888 33.778ZM48.7309 35.0617C48.8645 35.115 48.9843 34.8146 48.8507 34.7614C48.7148 34.7072 48.5951 35.0075 48.7309 35.0617ZM48.5842 36.9155C48.7396 36.8915 48.826 36.722 48.684 36.6653C48.5543 36.6136 48.4126 36.9285 48.5842 36.9155ZM58.2677 13.4293C58.4096 13.3696 58.2925 13.219 58.124 13.2557C57.8523 13.2861 58.1798 13.4658 58.2677 13.4293ZM49.9651 34.0469C50.1164 34.1072 50.1118 34.0087 50.0248 33.8971C49.906 33.7665 49.8385 33.9964 49.9651 34.0469ZM45.8926 45.1522C46.3204 45.0713 46.4322 44.3419 45.9354 44.8677C45.6288 45.2259 45.5435 45.2152 45.8926 45.1522ZM49.99 35.7955C50.0757 35.8297 50.3949 35.3771 50.2405 35.3155C50.0861 35.2539 49.9159 35.7659 49.99 35.7955ZM58.9868 14.1214C59.5289 13.8212 59.0117 13.4351 58.7842 14.0057C58.6556 14.3687 58.6093 14.3208 58.9868 14.1214ZM60.4608 10.9293C60.5639 10.8863 60.3751 10.4352 60.3858 10.7607C60.3767 10.8734 60.418 10.9471 60.4608 10.9293ZM51.0339 37.6032C51.718 37.8759 51.3648 36.4635 50.9539 37.2697C50.8641 37.4657 50.881 37.5422 51.0339 37.6032ZM63.4045 9.04261C63.6869 8.95833 63.9661 8.25803 63.7835 8.09216C63.6277 7.94863 63.3783 8.06931 63.4101 8.2565C63.4486 8.66734 63.0551 9.16725 63.4045 9.04261ZM62.6764 10.3639C62.7358 10.3876 63.1969 10.2233 63.0517 10.1654C62.8896 10.1008 63.1206 9.80187 62.9368 9.82971C62.8109 9.84929 62.5745 10.3233 62.6764 10.3639ZM50.6084 41.1077C50.8369 41.1138 50.3432 40.8999 50.4179 41.0201C50.4368 41.0625 50.5246 41.1092 50.6084 41.1077ZM63.1811 9.81168C63.2828 9.95604 63.5137 9.37697 63.3406 9.41174C63.1801 9.4238 63.0729 9.69249 63.1811 9.81168ZM63.5119 10.3489C63.8832 10.497 63.4608 9.92945 63.9804 9.62032C64.3457 9.41787 64.3814 9.3283 64.1379 9.25449C63.8478 9.16745 63.1243 10.1944 63.5119 10.3489ZM63.6357 10.6309C63.7993 10.6962 64.1209 10.453 64.1356 10.2388C64.1574 9.67476 63.509 10.5804 63.6357 10.6309ZM66.5098 6.98859C66.6333 6.93674 66.6167 6.57219 66.5105 6.83856C66.4565 6.94497 66.4629 7.01642 66.5098 6.98859ZM54.7097 38.3958C55.6268 38.8697 55.1121 39.0161 55.6105 38.9285C56.0483 38.8561 56.9344 39.3517 57.167 39.2127C57.268 39.1366 57.3089 39.1529 57.3428 39.306C57.3637 39.4307 57.4007 39.457 57.4327 39.3767C57.4924 39.227 58.2232 39.2051 58.6545 39.3422C58.8222 39.3974 59.0339 39.4004 59.1234 39.3556C59.3662 39.2313 59.7496 39.5086 59.8081 39.3619C59.8678 39.2121 60.877 39.116 61.3652 39.2293C61.6817 39.2973 61.8663 39.2787 61.9592 39.1645C62.1148 38.9832 62.2636 38.996 62.2978 39.2065C62.3247 39.287 62.3945 39.2915 62.5203 39.2138C62.974 38.9624 62.418 39.7331 62.9779 39.8481C63.5471 39.9399 63.0074 39.4062 63.7421 39.121C64.0304 38.9926 64.0994 38.9968 64.0477 39.1265C63.928 39.4269 64.2765 39.4146 64.4729 39.0992C64.6617 38.8031 65.0985 38.6883 65.4668 38.8351C65.5587 38.8717 65.7492 38.809 65.8811 38.6871C66.1907 38.3998 66.1439 38.3578 66.0676 38.7847C65.998 39.1972 66.1778 39.2805 66.3353 38.9147C66.4927 38.5489 66.6086 38.5253 66.7355 38.8309C66.8206 39.0035 66.8027 39.0778 66.6988 39.0713C66.5151 39.0562 66.3777 39.43 66.5413 39.4953C66.9907 39.6744 66.7052 39.1382 67.153 38.6143C67.3895 38.3489 67.9453 38.0837 68.129 38.157C68.346 38.2435 68.0899 37.7637 68.9066 37.8406C69.1144 37.8537 69.1373 37.886 69.0066 38.0657C68.7429 38.442 68.6638 38.2163 68.5938 38.8631C68.5551 39.2879 68.5611 39.3019 68.7716 39.1308C68.8991 39.0197 68.9652 38.8832 68.958 38.7532C68.9269 38.416 69.29 37.8306 69.5327 37.8459C69.9069 37.8815 69.965 37.3204 70.1094 37.6473C70.2094 37.8723 70.3361 37.9113 70.4079 37.7314C70.4981 37.5051 71.2977 37.2817 71.3558 37.1357C71.4156 36.9859 71.9145 36.9531 71.9527 37.0954C71.9605 37.1791 72.2981 37.7441 72.3941 37.5032C72.4261 37.4229 72.5537 37.3699 72.6684 37.3808C73.0557 37.4484 73.1146 36.6656 73.8099 36.329C74.342 36.074 74.265 36.0201 74.0486 36.5629C73.8275 37.1467 73.9902 37.6295 74.3033 37.2908C74.3803 37.2168 74.4031 37.0988 74.3441 37.0404C74.2305 36.8788 74.5242 36.1735 74.7131 36.1441C74.7336 36.1412 74.7533 36.1342 74.7711 36.1236C74.7889 36.1129 74.8043 36.0988 74.8165 36.082C74.8287 36.0652 74.8374 36.0462 74.8421 36.026C74.8468 36.0058 74.8473 35.9849 74.8438 35.9645C74.8116 35.7781 75.2968 35.542 75.4137 35.6933C75.5826 35.9226 75.7379 35.9505 75.818 35.7498C75.8777 35.6 75.9406 35.5902 76.0984 35.6996C76.3752 35.8896 76.0755 35.6985 76.158 35.4916C76.2337 35.3017 76.6281 35.4706 76.6242 35.6891C76.6342 35.7456 76.6584 35.7987 76.6943 35.8434C76.7303 35.8881 76.777 35.923 76.8301 35.9448C77.0139 36.0181 77.0547 35.9762 77.1192 35.6664C77.2495 35.0096 77.4915 35.5652 77.4514 35.0105C77.4298 34.4497 77.8409 34.9 78.1678 34.4031C78.3406 34.1471 78.8824 34.0965 79.3936 34.3003C79.6082 34.3859 79.6792 34.356 79.7978 34.1483C80.0958 33.5781 80.1387 34.4873 80.4493 33.5848C80.7057 32.8136 81.0448 33.0428 81.1793 32.7054C81.2831 32.4452 81.6972 32.0886 81.8409 32.1459C81.8751 32.1582 81.9124 32.1587 81.9469 32.1473C81.9815 32.136 82.0112 32.1134 82.0314 32.0832C82.1376 31.8168 82.0608 32.6917 82.1743 32.1401C82.2523 31.7041 82.4273 31.952 82.5791 31.5713C82.753 31.1351 83.0409 31.6025 83.2515 31.0744C83.4353 30.6134 83.6347 31.0043 83.7175 30.7966C83.7495 30.7163 83.7904 30.7326 83.8603 30.8536C83.9431 31.0029 83.9691 30.9667 84.06 30.62C84.2308 29.9579 84.3583 30.3765 84.5646 29.8592C84.745 29.4068 84.8977 29.7442 85.1435 29.2086C85.3767 28.6976 85.5226 28.9401 85.6334 28.6621C85.7457 28.3803 85.8394 28.619 86.0183 28.4102C86.0812 28.3423 86.0901 28.2885 86.0383 28.3019C85.9894 28.3056 86.0802 27.9589 86.2416 27.5248C86.6714 26.4469 86.4228 26.3881 86.5453 26.0808C86.625 25.8808 86.1793 24.9497 85.9647 24.8641C85.8828 24.8315 85.7921 24.7022 85.7708 24.5783C85.6838 24.2242 84.9925 23.8394 84.9621 23.6644C84.9344 23.5048 84.1948 23.5106 83.5932 23.1768C82.7604 22.7204 81.9616 23.0363 81.1285 22.7041C80.6899 22.5293 80.9159 22.8512 80.3948 22.6434C79.8535 22.4276 79.8529 22.8398 79.6511 22.6368C79.4513 22.4578 79.1208 22.7189 79.1978 22.5258C79.2975 22.2757 78.9373 22.3173 78.7646 22.5733C78.569 22.855 78.4146 22.8856 78.3964 22.6349C78.3722 22.3747 78.304 22.7118 77.9972 22.6261C77.8544 22.5692 77.8564 22.5933 77.9961 22.7187C78.1478 22.8723 78.1398 22.8924 77.8064 22.8982C77.3269 22.9002 77.035 23.1588 76.8543 23.0868C76.6597 23.0092 76.8924 23.238 76.1897 23.2388C75.919 23.2355 75.6787 23.3017 75.6387 23.4021C75.5769 23.5278 75.5669 23.5238 75.5857 23.3577C75.6182 23.0584 75.2495 23.2201 75.336 23.0031C75.4678 22.6726 75.2 22.8102 74.9787 23.1855C74.7054 23.6331 74.4143 23.8875 74.4021 23.6509C74.4 23.4183 74.2271 23.4075 74.1354 23.6376C73.992 23.9974 73.7282 24.1249 73.3053 24.0252C72.9439 23.9509 72.8383 23.9777 72.5457 24.2673C72.3661 24.4507 72.1965 24.6381 72.1725 24.6983C72.1217 24.8257 71.6611 24.7915 71.5838 24.9853C71.4505 25.3196 71.1317 24.8489 71.4409 24.7198C71.6394 24.637 71.7992 24.2363 71.6981 24.1038C71.6531 24.0394 71.6989 23.9538 71.8179 23.8617C72.1802 23.6061 71.848 23.1533 71.3588 24.2119C70.9753 24.9584 70.8606 24.6827 70.8093 25.0246C70.745 25.518 70.3401 25.0344 70.0647 25.3774C69.8297 25.621 69.715 25.3632 69.6805 25.6877C69.6458 25.9522 69.1887 26.3265 69.0819 26.1792C69.0429 26.1288 69.0061 26.1606 69.0089 26.2432C69.016 26.459 68.139 26.7912 68.0759 26.9495C68.0519 27.0097 68.0129 26.9593 67.994 26.8587C67.973 26.734 67.9361 26.7076 67.9001 26.7979C67.8339 26.9639 67.4547 26.6964 67.3731 26.901C66.9553 27.7358 66.4384 27.2031 66.45 27.5531C66.4404 27.7434 65.9076 27.9194 65.8852 28.1977C65.8413 28.5345 64.7592 28.7349 64.6438 29.0244C64.3233 29.8282 64.0778 28.958 63.9932 29.1704C63.9772 29.2105 63.9382 29.1601 63.9193 29.0595C63.8892 28.8971 63.8583 28.8848 63.6497 28.9636C63.3203 29.1007 63.5842 29.3053 63.635 29.1779C63.659 29.1176 63.7079 29.1139 63.7569 29.1683C63.8745 29.3199 63.5567 30.0272 63.341 30.0924C63.2452 30.124 63.0776 30.2773 62.9729 30.4208C62.7765 30.7362 62.4361 30.7866 62.387 30.5237C62.2817 30.0495 61.981 30.9112 61.7784 31.0694C61.6083 31.1841 61.6759 31.6361 61.6049 31.4753C61.539 31.3444 60.7386 31.6865 60.6629 31.8765C60.6308 31.9568 60.5522 32.0059 60.5012 31.9856C60.3507 31.9256 60.3976 32.176 60.0722 32.2897C59.9523 32.3233 59.8556 32.4468 59.8385 32.5795C59.7986 32.8884 59.3964 33.2731 59.1332 33.2487C58.7856 33.2183 59.0001 33.5624 58.6374 33.8975C58.3403 34.196 58.3162 34.1981 58.278 33.9976C58.2503 33.8586 58.1961 33.9068 58.0884 34.177C57.6867 35.1846 57.6737 33.8998 57.3659 34.0276C57.1874 34.1184 57.0337 34.5332 57.0778 34.8398C57.1129 35.1088 56.7737 35.4837 56.5591 35.3981C56.3738 35.3242 56.0886 35.7904 55.9303 35.7273C55.8793 35.7069 55.8004 35.7569 55.7647 35.8464C55.7089 35.9862 55.719 35.9902 55.9283 35.9117C56.5263 35.6195 55.9754 36.1372 55.7516 36.1777C55.6746 36.1935 55.6297 36.2454 55.6349 36.2931C55.6771 36.4835 54.5314 37.7547 54.2891 37.7968C53.9878 37.8386 54.1882 38.1395 54.7138 38.3947L54.7097 38.3958ZM66.1282 8.54024C66.6689 9.01797 66.6196 8.34243 66.4475 8.27378C66.2452 8.19313 66.4291 8.03471 66.2817 7.97592C66.118 7.91065 65.9815 8.40118 66.1272 8.5407L66.1282 8.54024ZM56.3942 33.1319C56.5231 33.1834 57.1009 32.8339 56.7774 32.7049C56.5172 32.6012 56.3898 32.979 56.2894 33.0669C56.2854 33.077 56.3324 33.1073 56.3942 33.1319ZM66.57 9.48144C66.7506 9.55347 66.8464 9.44131 66.6657 9.24132C66.4715 9.07977 66.3839 9.40725 66.57 9.48144ZM67.6283 8.16472C67.7665 8.21983 67.8377 8.01647 67.708 7.96475C67.576 7.91211 67.4877 8.1087 67.6283 8.16472ZM58.2456 32.8849C58.6234 32.6892 57.9985 32.4365 58.2332 32.1149C58.3078 32.0176 58.319 31.9289 58.268 31.9086C58.1522 31.8624 57.5962 33.2569 58.2456 32.8849ZM59.1372 31.0955C59.6383 30.9248 59.5424 30.0857 59.1631 30.7926C58.9473 31.188 58.8793 31.1833 59.1372 31.0955ZM70.2104 5.25248C70.3525 5.30912 70.406 5.12554 70.3101 5.00232C70.1938 4.87449 70.0807 5.20076 70.2104 5.25248ZM70.8602 5.25654C70.7766 5.73327 70.9154 5.74206 71.1867 5.27037C71.454 4.80872 71.446 4.82879 71.1735 4.65036C70.924 4.49721 70.9684 4.57218 70.8613 5.25607L70.8602 5.25654ZM62.2452 29.8649C62.3688 29.8131 62.3521 29.4485 62.2459 29.7149C62.1919 29.8213 62.1983 29.8927 62.2452 29.8649ZM73.4264 4.91147C73.8567 4.61325 73.5643 4.26937 73.3722 4.75116C73.2884 4.96117 73.2965 4.99929 73.4264 4.91147ZM64.7424 27.8816C64.8806 27.9367 64.9518 27.7334 64.8221 27.6817C64.6901 27.629 64.6018 27.8256 64.7424 27.8816ZM75.9693 4.4766C76.1054 4.62663 76.0468 3.98583 75.9311 4.27614C75.9071 4.33636 75.9203 4.42217 75.9693 4.4766ZM68.0436 26.346C68.3132 26.4419 68.3641 26.404 68.4209 26.1134C68.4685 25.9356 68.0874 25.7604 67.9795 25.9142C67.7599 26.198 67.7603 26.2554 68.0447 26.3455L68.0436 26.346ZM77.3851 3.30241C77.5405 3.27847 77.665 3.00868 77.5245 2.95265C77.3925 2.90001 77.215 3.31603 77.3851 3.30241ZM69.4087 25.6849C69.5469 25.74 69.6181 25.5367 69.4884 25.485C69.3564 25.4323 69.2682 25.6289 69.4087 25.6849ZM64.034 39.5515C64.2842 39.4311 63.7798 39.4528 63.8222 39.5485C63.8411 39.5909 63.9349 39.5934 64.034 39.5515ZM65.6202 39.9405C65.7584 39.9956 65.8297 39.7923 65.6999 39.7406C65.5679 39.6879 65.4797 39.8845 65.6202 39.9405ZM73.5464 23.6247C73.68 23.6779 73.7997 23.3776 73.6661 23.3243C73.5303 23.2701 73.4105 23.5705 73.5464 23.6247ZM69.4387 38.6809C69.5838 38.7388 69.6499 38.3016 69.8228 38.3706C69.9649 38.4272 69.9352 38.248 69.6771 38.231C69.4854 38.236 69.275 38.6157 69.4387 38.6809ZM69.9698 38.8345C70.1072 38.8132 70.324 38.3681 70.0495 38.6346C69.9026 38.7847 69.876 38.8514 69.9698 38.8345ZM70.9921 39.2421C71.1475 39.2182 71.2339 39.0486 71.0918 38.9919C70.9621 38.9402 70.8205 39.2551 70.9921 39.2421ZM72.9933 38.5904C73.1878 38.4594 73.2038 38.4193 73.1207 38.2125C72.9105 37.7386 72.7559 38.4563 72.6724 37.9407C72.6478 37.7842 72.5865 37.7597 72.4887 37.8675C72.378 37.997 72.395 38.1317 72.5559 38.3811C72.7018 38.6093 72.8476 38.679 72.9933 38.5904ZM79.6216 21.757C80.0576 21.4557 79.6452 21.4014 79.5276 21.6963C79.4679 21.8461 79.488 21.8541 79.6216 21.757ZM76.0438 37.0595C75.8843 38.3775 76.5571 36.9975 76.3911 36.9313C76.3502 36.915 76.308 36.7246 76.2942 36.5213C76.2711 36.0137 76.1373 36.3201 76.0438 37.0595ZM78.4055 36.691C78.6201 36.7766 78.683 36.7086 78.6838 36.4083C78.6856 36.0198 77.9414 36.506 78.4055 36.691ZM79.0598 36.0016C79.9362 36.2767 79.5913 34.8749 79.0145 35.4619C78.6914 35.7966 78.7003 35.8932 79.0598 36.0016ZM79.4869 35.1974C79.8684 35.1473 79.6014 34.2615 79.4458 34.9144C79.4022 35.0822 79.4239 35.2072 79.4869 35.1974ZM79.3448 37.1586C79.4402 37.1188 79.0895 36.7553 79.189 37.0151C79.2328 37.114 79.3026 37.1767 79.3448 37.1586ZM80.2029 36.0162C80.3542 36.0765 80.1341 36.7118 80.3755 36.1781C80.7328 35.3694 79.8724 35.8845 80.2029 36.0162ZM81.3746 33.7013C81.5128 33.7564 81.584 33.5531 81.4543 33.5014C81.3223 33.4487 81.2341 33.6453 81.3746 33.7013ZM81.3741 34.8608C81.5694 34.9387 81.8132 34.4686 81.4457 34.6227C81.3078 34.6724 81.2621 34.8162 81.3741 34.8608ZM82.2478 33.4123C82.3228 33.581 82.3537 33.5933 82.4564 33.4839C82.662 33.2643 82.6559 33.1921 82.4213 33.1567C82.1517 33.119 82.1249 33.1549 82.2478 33.4123ZM85.7408 29.7618C85.906 29.8276 86.1215 29.5655 85.7378 29.4125C85.2745 29.2278 85.6366 29.7202 85.7408 29.7618ZM87.1928 26.654C87.2927 26.6705 87.3405 26.7594 87.3048 26.8489C87.2051 27.0991 87.3907 27.0801 87.5085 26.8138C87.6123 26.6118 87.5882 26.5557 87.3218 26.4495C86.8941 26.2789 86.9696 26.6124 87.1928 26.654ZM86.2002 29.9449C86.0767 29.8957 85.8176 30.2559 86.1635 30.3938C86.653 30.589 86.4986 30.9874 86.9194 30.8455C87.3056 30.7096 87.4272 30.1666 87.045 30.2925C86.8397 30.3609 86.5418 30.0104 86.5637 29.7176C86.6009 29.2653 86.1739 29.5192 86.2694 29.832C86.2984 29.9366 86.2826 29.976 86.2016 29.9437L86.2002 29.9449ZM87.5462 28.9165C87.6496 29.0499 87.7795 28.7196 87.646 28.6663C87.4946 28.606 87.4512 28.8115 87.5462 28.9165ZM87.7433 30.0268C87.9129 29.8394 87.9069 29.8254 87.4637 29.7766C86.5447 29.6689 87.4843 30.2949 87.7433 30.0268ZM88.6782 29.0197C88.8691 29.2659 89.07 28.6543 88.8577 28.5696C88.7349 28.5207 88.5874 28.8905 88.6782 29.0197Z" fill="#010101"/>
</svg>
