<svg width="605" height="455" viewBox="0 0 605 455" fill="none" xmlns="http://www.w3.org/2000/svg">
<path d="M200.81 2.20666C232.448 7.96976 263.03 23.4654 300.088 29.9112C361.248 40.5519 424.716 31.4495 486.389 31.4225C512.498 31.409 539.438 34.487 562.131 47.401C590.192 63.3693 601.166 90.9098 603.537 121.878C610.228 209.259 589.595 270.092 558.424 352.052C540.909 398.109 510.938 451.665 455.892 454.524C412.611 456.772 372.182 430.915 329.059 427.307C252.664 420.92 153.289 473.004 83.1334 431.017C-55.7766 347.876 -5.33101 83.8712 122.268 14.8559C151.382 -0.890459 176.412 -2.23638 200.81 2.20666Z" fill="#FF8A5D"/>
</svg>
