<svg width="70" height="145" viewBox="0 0 70 145" fill="none" xmlns="http://www.w3.org/2000/svg">
<path d="M3.70651 108.392C5.2554 111.25 7.27851 113.932 9.75465 116.241C23.0375 128.63 47.6851 125.002 59.8016 113.663C67.0057 106.921 69.9847 98.2489 69.9999 89.7808C70.0152 81.3122 67.264 72.9649 63.9592 64.8287C61.2016 58.0392 57.4915 50.8019 49.1186 46.9947C42.1876 43.8434 33.404 43.7033 25.2134 44.2414C20.131 44.5753 14.8962 45.1785 10.6297 47.1706C6.36308 49.1626 3.31362 52.8764 4.48341 56.4098C5.33328 58.9778 8.13429 60.9465 10.1051 63.1815C14.3269 67.9691 14.5931 74.3865 10.7756 79.3415C7.23907 83.9318 0.296211 87.5517 0.028038 93.1666C-0.208092 98.0933 1.05438 103.499 3.70651 108.392Z" fill="#EE57A2"/>
<path d="M52.9148 86.1399C52.8582 86.0268 51.497 83.3362 48.9411 80.6149C45.5078 76.9588 41.5514 75.0264 37.5 75.0264C33.4487 75.0264 29.4923 76.9588 26.059 80.6149C23.5031 83.3364 22.1419 86.0268 22.0853 86.1399C22.0292 86.2518 22 86.3753 22 86.5005C22 86.6256 22.0292 86.7491 22.0853 86.861C22.1419 86.9741 23.5031 89.6647 26.059 92.3861C29.4923 96.0421 33.4487 97.9746 37.5 97.9746C41.5514 97.9746 45.5078 96.0421 48.9411 92.3861C51.497 89.6645 52.8582 86.9741 52.9148 86.861C52.9709 86.7491 53.0001 86.6256 53.0001 86.5005C53.0001 86.3753 52.9709 86.2518 52.9148 86.1399ZM37.5 96.3642C29.7126 96.3642 24.7435 88.3182 23.7209 86.5005C24.7435 84.6827 29.7126 76.6368 37.5 76.6368C45.2881 76.6368 50.2572 84.6839 51.2792 86.5005C50.2566 88.3182 45.2875 96.3642 37.5 96.3642ZM37.5 81.6944C34.8461 81.6944 32.6872 83.8504 32.6872 86.5005C32.6872 89.1506 34.8461 91.3065 37.5 91.3065C40.154 91.3065 42.3129 89.1506 42.3129 86.5005C42.3129 83.8504 40.154 81.6944 37.5 81.6944ZM37.5 89.6961C35.7342 89.6961 34.2976 88.2626 34.2976 86.5005C34.2976 84.7383 35.7342 83.3048 37.5 83.3048C39.2658 83.3048 40.7025 84.7383 40.7025 86.5005C40.7025 88.2626 39.2658 89.6961 37.5 89.6961Z" fill="#000001"/>
</svg>
