<svg width="91" height="94" viewBox="0 0 91 94" fill="none" xmlns="http://www.w3.org/2000/svg"><path d="M87.6747 55.9797L87.4127 55.4374C84.4632 49.3509 81.2955 43.3625 78.2255 37.3324C77.4637 35.8361 76.6871 34.3473 75.9259 32.8504L73.3884 27.859L72.5423 26.1946C69.3863 19.9871 66.1447 13.665 60.6786 8.532C55.2125 3.39901 47.049 -0.437947 38.5307 0.0402782C31.2618 0.448591 24.7191 3.94245 20.1611 8.38983C15.6032 12.8372 12.76 18.1905 10.1758 23.5203C5.39278 33.3827 1.25661 43.5611 0.231641 54.0785C-0.793332 64.5959 1.50071 75.5628 8.76591 84.4487C10.458 86.5185 12.4391 88.4872 14.9785 89.9342C18.6221 92.011 23.1592 92.8759 27.62 93.3835C38.0431 94.5696 48.781 94.0391 58.9306 91.8354C69.9353 89.4466 80.688 84.7531 86.5144 77.0697C89.3938 73.2727 91.7346 69.2155 90.7852 64.3938C90.2061 61.4528 88.9763 58.6875 87.6747 55.9797Z" fill="#FF4040"/><path d="M56.8912 41.6696C56.863 41.557 56.8067 41.4444 56.7223 41.3881C53.3164 36.3496 47.5178 33 40.9875 33H40.5371C40.3964 33 40.2838 33 40.1712 33.0281C30.1504 33.4504 22.1282 41.6696 22.0156 51.7467V52C22.0156 62.2178 30.1223 70.5778 40.2556 70.9718C40.3682 70.9718 40.4527 71 40.5653 71H41.0156C51.4867 71 59.9875 62.4711 59.9875 52.0281C59.9593 48.2 58.8334 44.6533 56.8912 41.6696ZM40.6778 70.0993H40.2838C38.2853 69.9304 36.3712 67.8193 34.9638 64.2444C35.7238 63.8785 36.2867 63.1467 36.4275 62.2741H46.8141C45.4349 66.8904 43.183 70.0148 40.6778 70.0993ZM31.2201 61.3733H25.506C23.8734 58.6993 22.9164 55.5467 22.8882 52.197H32.0645C32.0645 54.7022 32.3178 57.1511 32.7401 59.4311C31.9519 59.8252 31.389 60.5289 31.2201 61.3733ZM40.2556 33.9007H40.6778C42.6764 33.9852 44.6186 36.0119 46.0541 39.5022C45.3786 39.8963 44.9001 40.5437 44.7593 41.3319H34.429C35.7801 37.0252 37.8912 34.1259 40.2556 33.9007ZM47.349 43.5274C46.3638 43.5274 45.5756 42.7393 45.5756 41.7541C45.5756 40.7689 46.3638 39.9807 47.349 39.9807C48.3341 39.9807 49.1223 40.7689 49.1223 41.7541C49.1223 42.7393 48.3341 43.5274 47.349 43.5274ZM44.7593 42.1763C44.9564 43.443 46.0541 44.4 47.349 44.4H47.4616C47.8838 46.5956 48.1371 48.9319 48.1653 51.3526H32.909C32.9653 48.003 33.4156 44.8504 34.1756 42.1763H44.7593ZM33.8097 60.0785C34.7949 60.0785 35.583 60.8667 35.583 61.8519C35.583 62.837 34.7949 63.6252 33.8097 63.6252C32.8245 63.6252 32.0364 62.837 32.0364 61.8519C32.0364 60.8667 32.8527 60.0785 33.8097 60.0785ZM36.3993 61.3733C36.1741 60.1348 35.1045 59.2059 33.8097 59.2059H33.5564C33.1341 56.9822 32.909 54.6459 32.909 52.197H48.1653C48.1371 55.5185 47.743 58.6711 47.0112 61.3733H36.3993ZM49.066 52.2252H54.7519C55.0053 52.2252 55.2023 52.0281 55.2023 51.7748C55.2023 51.5215 55.0053 51.3244 54.7519 51.3244H49.066C49.0378 48.8474 48.7845 46.4548 48.3341 44.203C49.1786 43.8652 49.826 43.1052 49.9667 42.1481H56.1875C58.0171 44.9911 59.0867 48.3407 59.0867 51.9719C59.0867 55.4059 58.1297 58.6148 56.469 61.3452H47.9682C48.6438 58.6993 49.0378 55.5748 49.066 52.2252ZM55.5964 41.3037H49.9386C49.7134 40.0652 48.6438 39.1363 47.349 39.1363C47.1801 39.1363 47.0112 39.1644 46.8704 39.1926C45.9134 36.8281 44.703 35.083 43.3519 34.0415C48.3623 34.6889 52.7253 37.4193 55.5964 41.3037ZM37.4971 34.2385C35.8364 35.6178 34.4571 38.0948 33.4719 41.3037H29.869C29.6156 41.3037 29.4186 41.5007 29.4186 41.7541C29.4186 42.0074 29.6156 42.2044 29.869 42.2044H33.2467C32.543 44.8785 32.1208 48.003 32.0645 51.3807H22.8882C23.1978 42.8519 29.3904 35.8148 37.4971 34.2385ZM26.069 62.2459H31.2201C31.4171 63.5126 32.5149 64.4696 33.8097 64.4696C33.8941 64.4696 34.0067 64.4696 34.0912 64.4415C35.0201 66.8622 36.2023 68.6637 37.5253 69.7615C32.7964 68.8607 28.7149 66.1022 26.069 62.2459ZM43.3801 69.9585C45.2097 68.5511 46.7578 65.8489 47.7712 62.2741H55.9341C53.063 66.3837 48.5593 69.2548 43.3801 69.9585Z" fill="black"/></svg>