<svg width="127" height="207" viewBox="0 0 127 207" fill="none" xmlns="http://www.w3.org/2000/svg">
<path d="M41.9995 23.6441C47.9804 14.978 54.3274 5.94572 63.4817 0.331055C72.514 5.7016 78.861 14.6118 84.7198 23.1559C98.5123 44.2719 107.056 69.6599 105.348 95.17C109.864 98.9538 114.502 102.616 118.774 106.399C125.121 112.258 128.172 121.412 126.586 129.957C124.389 140.698 122.436 151.439 120.117 162.18C118.896 167.672 111.45 170.236 107.178 166.696C99.8549 160.593 92.8977 154.368 85.6962 148.265C80.2036 153.514 73.0022 157.053 65.3126 157.542C56.5244 158.152 47.8583 154.49 41.3892 148.509C36.1407 152.537 31.3805 157.298 26.3761 161.57C23.935 163.522 21.86 166.208 18.9306 167.55C14.4144 169.503 8.55566 166.574 7.5792 161.692C5.2601 151.195 2.81894 140.82 0.499843 130.323C-1.33102 121.412 1.96454 111.77 8.79978 105.789C12.7056 102.493 16.7335 99.1979 20.6394 96.0244C21.7379 95.4141 21.2497 94.0715 21.2497 93.095C20.3953 68.4394 28.8173 44.0278 41.9995 23.6441ZM49.2009 56.1115C43.9524 62.9467 44.5627 73.4437 50.6656 79.5466C57.1347 86.748 69.3405 86.9921 76.0537 80.0349C81.3022 75.2746 83.011 67.2188 80.5698 60.6276C78.2507 54.2806 72.1478 49.5204 65.5567 48.9101C59.3317 48.1777 52.8627 50.9851 49.2009 56.1115Z" fill="#FFC825"/>
<path d="M39.4365 170.358C39.3144 167.307 43.2203 165.11 45.7835 166.818C56.7687 172.433 70.3171 172.433 81.1803 166.818C83.7435 165.232 87.4052 167.185 87.5273 170.114V189.765C87.5273 192.939 83.3773 195.014 80.8141 193.061C78.9832 191.352 77.2744 189.521 75.4436 187.812C72.5142 193.427 69.8289 199.164 66.8995 204.656C65.5569 207.342 61.1628 207.342 59.6981 204.656C56.7687 199.042 54.0834 193.305 51.154 187.69C49.3232 189.521 47.6144 191.352 45.7835 192.939C43.3423 195.014 39.0703 192.817 39.0703 189.643C39.4365 183.418 39.4365 176.949 39.4365 170.358Z" fill="#FFC825"/>
<path d="M95.2675 127.983C93.306 127.199 91.776 125.629 91.0306 123.668L89.6183 118.254L87.9706 124.335C87.3821 125.904 86.166 127.12 84.636 127.748L78.4375 129.827L84.5575 131.435C86.0875 131.749 87.3037 132.848 87.7352 134.339L89.6183 140.537L91.4621 134.339C91.8937 132.848 93.149 131.749 94.6398 131.435L100.76 129.827L95.2675 127.983Z" fill="#FFFCFA"/>
<path d="M77.3754 164.389L77.0615 160.662L76.6692 165.213C76.5908 166.351 75.6885 167.214 74.5508 167.331L70 167.724L73.8446 168.037C75.3746 168.155 76.5908 169.371 76.7085 170.901L77.0223 174.746L77.2969 171.647C77.4538 169.685 79.0231 168.155 80.9846 167.998L84.1231 167.724L80.3569 167.41C78.7877 167.253 77.5323 165.958 77.3754 164.389Z" fill="#FFFCFA"/>
<path d="M113.902 150.894C111.901 150.58 110.254 149.09 109.783 147.128L108.841 143.44L107.743 147.717C107.35 149.286 106.056 150.502 104.408 150.737L96.6797 152.071L104.918 153.444C106.252 153.68 107.35 154.66 107.664 155.955L108.841 160.702L109.587 157.681C110.175 155.327 112.137 153.562 114.53 153.17L121.003 152.071L113.902 150.894Z" fill="#FFFCFA"/>
</svg>
