<svg width="70" height="145" viewBox="0 0 70 145" fill="none" xmlns="http://www.w3.org/2000/svg">
<path d="M3.70651 108.392C5.2554 111.25 7.27851 113.932 9.75465 116.241C23.0375 128.63 47.6851 125.002 59.8016 113.663C67.0057 106.921 69.9847 98.2489 69.9999 89.7808C70.0152 81.3122 67.264 72.9649 63.9592 64.8287C61.2016 58.0392 57.4915 50.8019 49.1186 46.9947C42.1876 43.8434 33.404 43.7033 25.2134 44.2414C20.131 44.5753 14.8962 45.1785 10.6297 47.1706C6.36308 49.1626 3.31362 52.8764 4.48341 56.4098C5.33328 58.9778 8.13429 60.9465 10.1051 63.1815C14.3269 67.9691 14.5931 74.3865 10.7756 79.3415C7.23907 83.9318 0.296211 87.5517 0.028038 93.1666C-0.208092 98.0933 1.05438 103.499 3.70651 108.392Z" fill="#FFC825"/>
<path d="M36.7432 75.1681C33.9067 75.3541 31.3552 76.5796 29.4689 78.4667C27.5786 80.3564 26.3534 82.9077 26.1672 85.7444H28.7716V87.2572H26.1672C26.3534 90.0929 27.5786 92.645 29.466 94.5315C31.3562 96.4196 33.9083 97.6464 36.7432 97.8332V95.2288H38.2562V97.8332C41.0927 97.6472 43.6448 96.4217 45.5313 94.5346C47.4192 92.6442 48.6462 90.0921 48.833 87.2572H46.2279V85.7444H48.833C48.6462 82.9092 47.4192 80.3579 45.5313 78.4698C43.6448 76.5796 41.0927 75.3543 38.2562 75.1683V77.7725H36.7432V75.1681ZM37.4996 84.8901C36.6107 84.8901 35.8899 85.6111 35.8899 86.5008C35.8899 87.3905 36.6107 88.1104 37.4996 88.1104C38.3885 88.1104 39.1099 87.3897 39.1099 86.5008C39.1099 85.6118 38.3891 84.8901 37.4996 84.8901ZM22 85.7442H24.6511C24.8394 82.4946 26.2358 79.5672 28.3992 77.403C30.5655 75.2375 33.4936 73.8404 36.743 73.652V71H38.256V73.652C41.5064 73.8404 44.4351 75.2375 46.5993 77.4015C48.7627 79.5618 50.1606 82.4905 50.3489 85.744H53V87.2568H50.3489C50.1606 90.51 48.7627 93.439 46.6008 95.6008C44.4353 97.7635 41.5064 99.1604 38.2562 99.3487V102H36.7432V99.3487C33.49 99.1604 30.561 97.7625 28.3994 95.6008C26.2367 93.4351 24.8396 90.5064 24.6513 87.2568H22.0002V85.744L22 85.7442Z" fill="#010101"/>
</svg>
